%TF.GenerationSoftware,KiCad,Pcbnew,9.0.3*%
%TF.CreationDate,2026-05-07T17:20:04+05:30*%
%TF.ProjectId,ProcastinationStation,50726f63-6173-4746-996e-6174696f6e53,rev?*%
%TF.SameCoordinates,Original*%
%TF.FileFunction,Copper,L2,Bot*%
%TF.FilePolarity,Positive*%
%FSLAX46Y46*%
G04 Gerber Fmt 4.6, Leading zero omitted, Abs format (unit mm)*
G04 Created by KiCad (PCBNEW 9.0.3) date 2026-05-07 17:20:04*
%MOMM*%
%LPD*%
G01*
G04 APERTURE LIST*
%TA.AperFunction,ComponentPad*%
%ADD10C,2.000000*%
%TD*%
%TA.AperFunction,ComponentPad*%
%ADD11R,1.700000X1.700000*%
%TD*%
%TA.AperFunction,ComponentPad*%
%ADD12C,1.700000*%
%TD*%
%TA.AperFunction,SMDPad,CuDef*%
%ADD13C,1.000000*%
%TD*%
%TA.AperFunction,ComponentPad*%
%ADD14R,1.508000X1.508000*%
%TD*%
%TA.AperFunction,ComponentPad*%
%ADD15C,1.508000*%
%TD*%
%TA.AperFunction,ViaPad*%
%ADD16C,0.600000*%
%TD*%
%TA.AperFunction,Conductor*%
%ADD17C,0.200000*%
%TD*%
G04 APERTURE END LIST*
D10*
%TO.P,SW3,1,1*%
%TO.N,GPIO26*%
X155907500Y-146100000D03*
X149407500Y-146100000D03*
%TO.P,SW3,2,2*%
%TO.N,GND*%
X155907500Y-141600000D03*
X149407500Y-141600000D03*
%TD*%
%TO.P,SW4,1,1*%
%TO.N,GPIO16*%
X160907500Y-121100000D03*
X154407500Y-121100000D03*
%TO.P,SW4,2,2*%
%TO.N,GND*%
X160907500Y-116600000D03*
X154407500Y-116600000D03*
%TD*%
%TO.P,SW10,1,1*%
%TO.N,GPIO13*%
X135907500Y-146100000D03*
X129407500Y-146100000D03*
%TO.P,SW10,2,2*%
%TO.N,GND*%
X135907500Y-141600000D03*
X129407500Y-141600000D03*
%TD*%
%TO.P,SW2,1,1*%
%TO.N,GPIO5*%
X180907500Y-121100000D03*
X174407500Y-121100000D03*
%TO.P,SW2,2,2*%
%TO.N,GND*%
X180907500Y-116600000D03*
X174407500Y-116600000D03*
%TD*%
%TO.P,SW11,1,1*%
%TO.N,GPIO20*%
X130907500Y-121100000D03*
X124407500Y-121100000D03*
%TO.P,SW11,2,2*%
%TO.N,GND*%
X130907500Y-116600000D03*
X124407500Y-116600000D03*
%TD*%
%TO.P,SW12,1,1*%
%TO.N,GPIO7*%
X120907500Y-111100000D03*
X114407500Y-111100000D03*
%TO.P,SW12,2,2*%
%TO.N,GND*%
X120907500Y-106600000D03*
X114407500Y-106600000D03*
%TD*%
%TO.P,SW14,1,1*%
%TO.N,GPIO19*%
X120907500Y-131100000D03*
X114407500Y-131100000D03*
%TO.P,SW14,2,2*%
%TO.N,GND*%
X120907500Y-126600000D03*
X114407500Y-126600000D03*
%TD*%
%TO.P,SW1,1,1*%
%TO.N,GPIO17*%
X170907500Y-111100000D03*
X164407500Y-111100000D03*
%TO.P,SW1,2,2*%
%TO.N,GND*%
X170907500Y-106600000D03*
X164407500Y-106600000D03*
%TD*%
D11*
%TO.P,J1,1,Pin_1*%
%TO.N,unconnected-(J1-Pin_1-Pad1)*%
X183657500Y-76350000D03*
D12*
%TO.P,J1,2,Pin_2*%
%TO.N,unconnected-(J1-Pin_2-Pad2)*%
X183657500Y-73810000D03*
%TO.P,J1,3,Pin_3*%
%TO.N,unconnected-(J1-Pin_3-Pad3)*%
X183657500Y-71270000D03*
%TO.P,J1,4,Pin_4*%
%TO.N,unconnected-(J1-Pin_4-Pad4)*%
X183657500Y-68730000D03*
%TO.P,J1,5,Pin_5*%
%TO.N,unconnected-(J1-Pin_5-Pad5)*%
X183657500Y-66190000D03*
%TO.P,J1,6,Pin_6*%
%TO.N,unconnected-(J1-Pin_6-Pad6)*%
X183657500Y-63650000D03*
%TO.P,J1,7,Pin_7*%
%TO.N,3v3*%
X183657500Y-61110000D03*
%TO.P,J1,8,Pin_8*%
%TO.N,GPIO11*%
X183657500Y-58570000D03*
%TO.P,J1,9,Pin_9*%
%TO.N,GPIO10*%
X183657500Y-56030000D03*
%TO.P,J1,10,Pin_10*%
%TO.N,GPIO24*%
X183657500Y-53490000D03*
%TO.P,J1,11,Pin_11*%
%TO.N,GPIO25*%
X183657500Y-50950000D03*
%TO.P,J1,12,Pin_12*%
%TO.N,GPIO8*%
X183657500Y-48410000D03*
%TO.P,J1,13,Pin_13*%
%TO.N,GND*%
X183657500Y-45870000D03*
%TO.P,J1,14,Pin_14*%
%TO.N,3v3*%
X183657500Y-43330000D03*
%TD*%
D10*
%TO.P,SW5,1,1*%
%TO.N,GPIO27*%
X170907500Y-131100000D03*
X164407500Y-131100000D03*
%TO.P,SW5,2,2*%
%TO.N,GND*%
X170907500Y-126600000D03*
X164407500Y-126600000D03*
%TD*%
%TO.P,SW13,1,1*%
%TO.N,GPIO23*%
X110907500Y-121100000D03*
X104407500Y-121100000D03*
%TO.P,SW13,2,2*%
%TO.N,GND*%
X110907500Y-116600000D03*
X104407500Y-116600000D03*
%TD*%
D13*
%TO.P,SCK1,1,1*%
%TO.N,GPIO11*%
X178750000Y-83000000D03*
%TD*%
D10*
%TO.P,SW7,1,1*%
%TO.N,GPIO21*%
X154407500Y-94100000D03*
X160907500Y-94100000D03*
%TO.P,SW7,2,2*%
%TO.N,GND*%
X154407500Y-89600000D03*
X160907500Y-89600000D03*
%TD*%
%TO.P,SW8,1,1*%
%TO.N,GPIO12*%
X107407500Y-94100000D03*
X113907500Y-94100000D03*
%TO.P,SW8,2,2*%
%TO.N,GND*%
X107407500Y-89600000D03*
X113907500Y-89600000D03*
%TD*%
%TO.P,SW9,1,1*%
%TO.N,GPIO22*%
X124407500Y-94100000D03*
X130907500Y-94100000D03*
%TO.P,SW9,2,2*%
%TO.N,GND*%
X124407500Y-89600000D03*
X130907500Y-89600000D03*
%TD*%
D13*
%TO.P,MOSI1,1,1*%
%TO.N,GPIO10*%
X175700000Y-83000000D03*
%TD*%
%TO.P,CS1,1,1*%
%TO.N,GPIO8*%
X172650000Y-83000000D03*
%TD*%
D14*
%TO.P,U1,1,3V3_1*%
%TO.N,3v3*%
X118070000Y-61530000D03*
D15*
%TO.P,U1,2,5V_2*%
%TO.N,unconnected-(U1-5V_2-Pad2)*%
X118070000Y-64070000D03*
%TO.P,U1,3,GPIO2/SDA1*%
%TO.N,unconnected-(U1-GPIO2{slash}SDA1-Pad3)*%
X120610000Y-61530000D03*
%TO.P,U1,4,5V_4*%
%TO.N,unconnected-(U1-5V_4-Pad4)*%
X120610000Y-64070000D03*
%TO.P,U1,5,GPIO3/SCL*%
%TO.N,unconnected-(U1-GPIO3{slash}SCL-Pad5)*%
X123150000Y-61530000D03*
%TO.P,U1,6,GND_6*%
%TO.N,GND*%
X123150000Y-64070000D03*
%TO.P,U1,7,GPIO4/GPIO_GCLK*%
%TO.N,unconnected-(U1-GPIO4{slash}GPIO_GCLK-Pad7)*%
X125690000Y-61530000D03*
%TO.P,U1,8,GPIO14/TXD0*%
%TO.N,unconnected-(U1-GPIO14{slash}TXD0-Pad8)*%
X125690000Y-64070000D03*
%TO.P,U1,9,GND_9*%
%TO.N,GND*%
X128230000Y-61530000D03*
%TO.P,U1,10,GPIO15/RXD0*%
%TO.N,unconnected-(U1-GPIO15{slash}RXD0-Pad10)*%
X128230000Y-64070000D03*
%TO.P,U1,11,GPIO17/GPIO_GEN0*%
%TO.N,GPIO17*%
X130770000Y-61530000D03*
%TO.P,U1,12,GPIO18/GPIO_GEN1*%
%TO.N,unconnected-(U1-GPIO18{slash}GPIO_GEN1-Pad12)*%
X130770000Y-64070000D03*
%TO.P,U1,13,GPIO27/GPIO_GEN2*%
%TO.N,GPIO27*%
X133310000Y-61530000D03*
%TO.P,U1,14,GND_14*%
%TO.N,unconnected-(U1-GND_14-Pad14)*%
X133310000Y-64070000D03*
%TO.P,U1,15,GPIO22/GPIO_GEN3*%
%TO.N,GPIO22*%
X135850000Y-61530000D03*
%TO.P,U1,16,GPIO23/GPIO_GEN4*%
%TO.N,GPIO23*%
X135850000Y-64070000D03*
%TO.P,U1,17,3V3_17*%
%TO.N,unconnected-(U1-3V3_17-Pad17)*%
X138390000Y-61530000D03*
%TO.P,U1,18,GPIO24/GPIO_GEN5*%
%TO.N,GPIO24*%
X138390000Y-64070000D03*
%TO.P,U1,19,GPIO10/SPI_MOSI*%
%TO.N,GPIO10*%
X140930000Y-61530000D03*
%TO.P,U1,20,GND_20*%
%TO.N,unconnected-(U1-GND_20-Pad20)*%
X140930000Y-64070000D03*
%TO.P,U1,21,GPIO9/SPI_MISO*%
%TO.N,unconnected-(U1-GPIO9{slash}SPI_MISO-Pad21)*%
X143470000Y-61530000D03*
%TO.P,U1,22,GPIO25/GPIO_GEN6*%
%TO.N,GPIO25*%
X143470000Y-64070000D03*
%TO.P,U1,23,GPIO11/SPI_SCLK*%
%TO.N,GPIO11*%
X146010000Y-61530000D03*
%TO.P,U1,24,GPIO8/SPI_~{CE0}*%
%TO.N,GPIO8*%
X146010000Y-64070000D03*
%TO.P,U1,25,GND_25*%
%TO.N,unconnected-(U1-GND_25-Pad25)*%
X148550000Y-61530000D03*
%TO.P,U1,26,GPIO7/SPI_~{CE1}*%
%TO.N,GPIO7*%
X148550000Y-64070000D03*
%TO.P,U1,27,ID_SD*%
%TO.N,unconnected-(U1-ID_SD-Pad27)*%
X151090000Y-61530000D03*
%TO.P,U1,28,ID_SC*%
%TO.N,unconnected-(U1-ID_SC-Pad28)*%
X151090000Y-64070000D03*
%TO.P,U1,29,GPIO5*%
%TO.N,GPIO5*%
X153630000Y-61530000D03*
%TO.P,U1,30,GND_30*%
%TO.N,unconnected-(U1-GND_30-Pad30)*%
X153630000Y-64070000D03*
%TO.P,U1,31,GPIO6*%
%TO.N,GPI06*%
X156170000Y-61530000D03*
%TO.P,U1,32,GPIO12*%
%TO.N,GPIO12*%
X156170000Y-64070000D03*
%TO.P,U1,33,GPIO13*%
%TO.N,GPIO13*%
X158710000Y-61530000D03*
%TO.P,U1,34,GND_34*%
%TO.N,unconnected-(U1-GND_34-Pad34)*%
X158710000Y-64070000D03*
%TO.P,U1,35,GPIO19*%
%TO.N,GPIO19*%
X161250000Y-61530000D03*
%TO.P,U1,36,GPIO16*%
%TO.N,GPIO16*%
X161250000Y-64070000D03*
%TO.P,U1,37,GPIO26*%
%TO.N,GPIO26*%
X163790000Y-61530000D03*
%TO.P,U1,38,GPIO20*%
%TO.N,GPIO20*%
X163790000Y-64070000D03*
%TO.P,U1,39,GND_39*%
%TO.N,unconnected-(U1-GND_39-Pad39)*%
X166330000Y-61530000D03*
%TO.P,U1,40,GPIO21*%
%TO.N,GPIO21*%
X166330000Y-64070000D03*
%TD*%
D10*
%TO.P,SW6,1,1*%
%TO.N,GPI06*%
X171407500Y-94100000D03*
X177907500Y-94100000D03*
%TO.P,SW6,2,2*%
%TO.N,GND*%
X171407500Y-89600000D03*
X177907500Y-89600000D03*
%TD*%
D16*
%TO.N,GPIO24*%
X133600000Y-65700000D03*
%TO.N,GPIO10*%
X178600000Y-61100000D03*
%TO.N,GPIO8*%
X175882740Y-59399000D03*
%TO.N,GPIO12*%
X133765000Y-74100000D03*
%TO.N,GPIO20*%
X147000000Y-92200000D03*
X139200000Y-102900000D03*
%TO.N,GPIO7*%
X136300000Y-72500000D03*
%TO.N,GPIO19*%
X151929485Y-99470515D03*
%TD*%
D17*
%TO.N,GPIO24*%
X183657500Y-53490000D02*
X124000000Y-53490000D01*
X118208004Y-65700000D02*
X133600000Y-65700000D01*
X117015000Y-60475000D02*
X117015000Y-64506996D01*
X124000000Y-53490000D02*
X117015000Y-60475000D01*
X117015000Y-64506996D02*
X118208004Y-65700000D01*
%TO.N,GPIO11*%
X178750000Y-63477500D02*
X183657500Y-58570000D01*
X183657500Y-58570000D02*
X148970000Y-58570000D01*
X148970000Y-58570000D02*
X146010000Y-61530000D01*
X178750000Y-83000000D02*
X178750000Y-63477500D01*
%TO.N,3v3*%
X184808500Y-59959000D02*
X184808500Y-55553240D01*
X184808500Y-55553240D02*
X184134260Y-54879000D01*
X124721000Y-54879000D02*
X118070000Y-61530000D01*
X183657500Y-61110000D02*
X184808500Y-59959000D01*
X184134260Y-54879000D02*
X124721000Y-54879000D01*
%TO.N,GPIO10*%
X177900000Y-80800000D02*
X175700000Y-83000000D01*
X177900000Y-61800000D02*
X177900000Y-80800000D01*
X178600000Y-61100000D02*
X177900000Y-61800000D01*
X146430000Y-56030000D02*
X140930000Y-61530000D01*
X183657500Y-56030000D02*
X146430000Y-56030000D01*
%TO.N,GPIO8*%
X175882740Y-79767260D02*
X175882740Y-59399000D01*
X172650000Y-83000000D02*
X175882740Y-79767260D01*
%TO.N,GPIO26*%
X165000000Y-67000000D02*
X165000000Y-62740000D01*
X165000000Y-62740000D02*
X163790000Y-61530000D01*
X166400000Y-135607500D02*
X166400000Y-68400000D01*
X166400000Y-68400000D02*
X165000000Y-67000000D01*
X155907500Y-146100000D02*
X166400000Y-135607500D01*
%TO.N,GPIO16*%
X160907500Y-121100000D02*
X159606500Y-119799000D01*
X159606500Y-119799000D02*
X159606500Y-65713500D01*
X159606500Y-65713500D02*
X161250000Y-64070000D01*
%TO.N,GPIO27*%
X164407500Y-131100000D02*
X164407500Y-129260108D01*
X137300000Y-61488004D02*
X136286996Y-60475000D01*
X164407500Y-129260108D02*
X137300000Y-102152608D01*
X136286996Y-60475000D02*
X134365000Y-60475000D01*
X137300000Y-102152608D02*
X137300000Y-61488004D01*
X134365000Y-60475000D02*
X133310000Y-61530000D01*
%TO.N,GPI06*%
X166371000Y-58971000D02*
X158729000Y-58971000D01*
X169000000Y-91692500D02*
X169000000Y-61600000D01*
X158729000Y-58971000D02*
X156170000Y-61530000D01*
X169000000Y-61600000D02*
X166371000Y-58971000D01*
X171407500Y-94100000D02*
X169000000Y-91692500D01*
%TO.N,GPIO12*%
X113907500Y-94100000D02*
X133765000Y-74242500D01*
X133765000Y-74242500D02*
X133765000Y-74100000D01*
%TO.N,GPIO22*%
X130907500Y-94100000D02*
X134366000Y-90641500D01*
X134366000Y-90641500D02*
X134366000Y-63014000D01*
X134366000Y-63014000D02*
X135850000Y-61530000D01*
%TO.N,GPIO13*%
X164946392Y-132401000D02*
X165708500Y-131638892D01*
X149606500Y-132401000D02*
X164946392Y-132401000D01*
X161411996Y-60200000D02*
X160040000Y-60200000D01*
X165708500Y-131638892D02*
X165708500Y-68308500D01*
X162305000Y-61093004D02*
X161411996Y-60200000D01*
X160040000Y-60200000D02*
X158710000Y-61530000D01*
X165708500Y-68308500D02*
X162305000Y-64905000D01*
X135907500Y-146100000D02*
X149606500Y-132401000D01*
X162305000Y-64905000D02*
X162305000Y-61093004D01*
%TO.N,GPIO20*%
X139200000Y-100000000D02*
X139200000Y-102900000D01*
X147000000Y-92200000D02*
X139200000Y-100000000D01*
%TO.N,GPIO7*%
X135900000Y-72900000D02*
X135900000Y-96107500D01*
X136300000Y-72500000D02*
X135900000Y-72900000D01*
X135900000Y-96107500D02*
X120907500Y-111100000D01*
%TO.N,GPIO23*%
X135499000Y-94668608D02*
X135499000Y-64421000D01*
X135499000Y-64421000D02*
X135850000Y-64070000D01*
X110907500Y-121100000D02*
X110907500Y-119260108D01*
X110907500Y-119260108D02*
X135499000Y-94668608D01*
%TO.N,GPIO19*%
X160195000Y-64076996D02*
X160195000Y-62585000D01*
X151929485Y-99470515D02*
X151929485Y-72342511D01*
X151929485Y-72342511D02*
X160195000Y-64076996D01*
X160195000Y-62585000D02*
X161250000Y-61530000D01*
%TD*%
%TA.AperFunction,Conductor*%
%TO.N,GND*%
G36*
X185600039Y-34370185D02*
G01*
X185645794Y-34422989D01*
X185657000Y-34474500D01*
X185657000Y-55466056D01*
X185637315Y-55533095D01*
X185584511Y-55578850D01*
X185515353Y-55588794D01*
X185451797Y-55559769D01*
X185414023Y-55500991D01*
X185410061Y-55482243D01*
X185409000Y-55474190D01*
X185409000Y-55474183D01*
X185368077Y-55321456D01*
X185368073Y-55321449D01*
X185289024Y-55184530D01*
X185289021Y-55184526D01*
X185289020Y-55184524D01*
X185177216Y-55072720D01*
X185177215Y-55072719D01*
X185172885Y-55068389D01*
X185172874Y-55068379D01*
X184668626Y-54564131D01*
X184635141Y-54502808D01*
X184640125Y-54433116D01*
X184668626Y-54388769D01*
X184687604Y-54369792D01*
X184687606Y-54369788D01*
X184687609Y-54369786D01*
X184812548Y-54197820D01*
X184812547Y-54197820D01*
X184812551Y-54197816D01*
X184909057Y-54008412D01*
X184974746Y-53806243D01*
X185008000Y-53596287D01*
X185008000Y-53383713D01*
X184974746Y-53173757D01*
X184909057Y-52971588D01*
X184812551Y-52782184D01*
X184812549Y-52782181D01*
X184812548Y-52782179D01*
X184687609Y-52610213D01*
X184537286Y-52459890D01*
X184365320Y-52334951D01*
X184364615Y-52334591D01*
X184356554Y-52330485D01*
X184305759Y-52282512D01*
X184288963Y-52214692D01*
X184311499Y-52148556D01*
X184356554Y-52109515D01*
X184365316Y-52105051D01*
X184387289Y-52089086D01*
X184537286Y-51980109D01*
X184537288Y-51980106D01*
X184537292Y-51980104D01*
X184687604Y-51829792D01*
X184687606Y-51829788D01*
X184687609Y-51829786D01*
X184812548Y-51657820D01*
X184812547Y-51657820D01*
X184812551Y-51657816D01*
X184909057Y-51468412D01*
X184974746Y-51266243D01*
X185008000Y-51056287D01*
X185008000Y-50843713D01*
X184974746Y-50633757D01*
X184909057Y-50431588D01*
X184812551Y-50242184D01*
X184812549Y-50242181D01*
X184812548Y-50242179D01*
X184687609Y-50070213D01*
X184537286Y-49919890D01*
X184365320Y-49794951D01*
X184364615Y-49794591D01*
X184356554Y-49790485D01*
X184305759Y-49742512D01*
X184288963Y-49674692D01*
X184311499Y-49608556D01*
X184356554Y-49569515D01*
X184365316Y-49565051D01*
X184387289Y-49549086D01*
X184537286Y-49440109D01*
X184537288Y-49440106D01*
X184537292Y-49440104D01*
X184687604Y-49289792D01*
X184687606Y-49289788D01*
X184687609Y-49289786D01*
X184812548Y-49117820D01*
X184812547Y-49117820D01*
X184812551Y-49117816D01*
X184909057Y-48928412D01*
X184974746Y-48726243D01*
X185008000Y-48516287D01*
X185008000Y-48303713D01*
X184974746Y-48093757D01*
X184909057Y-47891588D01*
X184812551Y-47702184D01*
X184812549Y-47702181D01*
X184812548Y-47702179D01*
X184687609Y-47530213D01*
X184537286Y-47379890D01*
X184365317Y-47254949D01*
X184356004Y-47250204D01*
X184305207Y-47202230D01*
X184288412Y-47134409D01*
X184310949Y-47068274D01*
X184356007Y-47029232D01*
X184365055Y-47024622D01*
X184419216Y-46985270D01*
X184419217Y-46985270D01*
X183786908Y-46352962D01*
X183850493Y-46335925D01*
X183964507Y-46270099D01*
X184057599Y-46177007D01*
X184123425Y-46062993D01*
X184140462Y-45999408D01*
X184772770Y-46631717D01*
X184772770Y-46631716D01*
X184812122Y-46577554D01*
X184908595Y-46388217D01*
X184974257Y-46186130D01*
X184974257Y-46186127D01*
X185007500Y-45976246D01*
X185007500Y-45763753D01*
X184974257Y-45553872D01*
X184974257Y-45553869D01*
X184908595Y-45351782D01*
X184812124Y-45162449D01*
X184772770Y-45108282D01*
X184772769Y-45108282D01*
X184140462Y-45740590D01*
X184123425Y-45677007D01*
X184057599Y-45562993D01*
X183964507Y-45469901D01*
X183850493Y-45404075D01*
X183786909Y-45387037D01*
X184419216Y-44754728D01*
X184365047Y-44715373D01*
X184365047Y-44715372D01*
X184356000Y-44710763D01*
X184305206Y-44662788D01*
X184288412Y-44594966D01*
X184310951Y-44528832D01*
X184356008Y-44489793D01*
X184365316Y-44485051D01*
X184444507Y-44427515D01*
X184537286Y-44360109D01*
X184537288Y-44360106D01*
X184537292Y-44360104D01*
X184687604Y-44209792D01*
X184687606Y-44209788D01*
X184687609Y-44209786D01*
X184812548Y-44037820D01*
X184812547Y-44037820D01*
X184812551Y-44037816D01*
X184909057Y-43848412D01*
X184974746Y-43646243D01*
X185008000Y-43436287D01*
X185008000Y-43223713D01*
X184974746Y-43013757D01*
X184909057Y-42811588D01*
X184812551Y-42622184D01*
X184812549Y-42622181D01*
X184812548Y-42622179D01*
X184687609Y-42450213D01*
X184537286Y-42299890D01*
X184365320Y-42174951D01*
X184175914Y-42078444D01*
X184175913Y-42078443D01*
X184175912Y-42078443D01*
X183973743Y-42012754D01*
X183973741Y-42012753D01*
X183973740Y-42012753D01*
X183812457Y-41987208D01*
X183763787Y-41979500D01*
X183551213Y-41979500D01*
X183502542Y-41987208D01*
X183341260Y-42012753D01*
X183139085Y-42078444D01*
X182949679Y-42174951D01*
X182777713Y-42299890D01*
X182627390Y-42450213D01*
X182502451Y-42622179D01*
X182405944Y-42811585D01*
X182340253Y-43013760D01*
X182307000Y-43223713D01*
X182307000Y-43436286D01*
X182340253Y-43646239D01*
X182405944Y-43848414D01*
X182502451Y-44037820D01*
X182627390Y-44209786D01*
X182777713Y-44360109D01*
X182949679Y-44485048D01*
X182949681Y-44485049D01*
X182949684Y-44485051D01*
X182958993Y-44489794D01*
X183009790Y-44537766D01*
X183026587Y-44605587D01*
X183004052Y-44671722D01*
X182959005Y-44710760D01*
X182949946Y-44715376D01*
X182949940Y-44715380D01*
X182895782Y-44754727D01*
X182895782Y-44754728D01*
X183528091Y-45387037D01*
X183464507Y-45404075D01*
X183350493Y-45469901D01*
X183257401Y-45562993D01*
X183191575Y-45677007D01*
X183174537Y-45740591D01*
X182542228Y-45108282D01*
X182542227Y-45108282D01*
X182502880Y-45162439D01*
X182406404Y-45351782D01*
X182340742Y-45553869D01*
X182340742Y-45553872D01*
X182307500Y-45763753D01*
X182307500Y-45976246D01*
X182340742Y-46186127D01*
X182340742Y-46186130D01*
X182406404Y-46388217D01*
X182502875Y-46577550D01*
X182542228Y-46631716D01*
X183174537Y-45999408D01*
X183191575Y-46062993D01*
X183257401Y-46177007D01*
X183350493Y-46270099D01*
X183464507Y-46335925D01*
X183528090Y-46352962D01*
X182895782Y-46985269D01*
X182895782Y-46985270D01*
X182949952Y-47024626D01*
X182949951Y-47024626D01*
X182958995Y-47029234D01*
X183009792Y-47077208D01*
X183026587Y-47145029D01*
X183004050Y-47211164D01*
X182958999Y-47250202D01*
X182949682Y-47254949D01*
X182777713Y-47379890D01*
X182627390Y-47530213D01*
X182502451Y-47702179D01*
X182405944Y-47891585D01*
X182340253Y-48093760D01*
X182307000Y-48303713D01*
X182307000Y-48516286D01*
X182340253Y-48726239D01*
X182405944Y-48928414D01*
X182502451Y-49117820D01*
X182627390Y-49289786D01*
X182777713Y-49440109D01*
X182949682Y-49565050D01*
X182958446Y-49569516D01*
X183009242Y-49617491D01*
X183026036Y-49685312D01*
X183003498Y-49751447D01*
X182958446Y-49790484D01*
X182949682Y-49794949D01*
X182777713Y-49919890D01*
X182627390Y-50070213D01*
X182502451Y-50242179D01*
X182405944Y-50431585D01*
X182340253Y-50633760D01*
X182307000Y-50843713D01*
X182307000Y-51056286D01*
X182340253Y-51266239D01*
X182405944Y-51468414D01*
X182502451Y-51657820D01*
X182627390Y-51829786D01*
X182777713Y-51980109D01*
X182949682Y-52105050D01*
X182958446Y-52109516D01*
X183009242Y-52157491D01*
X183026036Y-52225312D01*
X183003498Y-52291447D01*
X182958446Y-52330484D01*
X182949682Y-52334949D01*
X182777713Y-52459890D01*
X182627390Y-52610213D01*
X182502448Y-52782184D01*
X182502447Y-52782185D01*
X182482265Y-52821795D01*
X182434291Y-52872591D01*
X182371781Y-52889500D01*
X124086670Y-52889500D01*
X124086654Y-52889499D01*
X124079058Y-52889499D01*
X123920943Y-52889499D01*
X123844579Y-52909961D01*
X123768214Y-52930423D01*
X123768209Y-52930426D01*
X123631290Y-53009475D01*
X123631282Y-53009481D01*
X116534479Y-60106284D01*
X116518563Y-60133853D01*
X116510425Y-60147949D01*
X116455423Y-60243215D01*
X116414499Y-60395943D01*
X116414499Y-60395945D01*
X116414499Y-60564046D01*
X116414500Y-60564059D01*
X116414500Y-64420326D01*
X116414499Y-64420344D01*
X116414499Y-64586050D01*
X116414498Y-64586050D01*
X116455423Y-64738781D01*
X116484358Y-64788896D01*
X116484359Y-64788900D01*
X116484360Y-64788900D01*
X116534479Y-64875710D01*
X116534481Y-64875713D01*
X116653349Y-64994581D01*
X116653355Y-64994586D01*
X117723143Y-66064374D01*
X117723153Y-66064385D01*
X117727483Y-66068715D01*
X117727484Y-66068716D01*
X117839288Y-66180520D01*
X117839290Y-66180521D01*
X117839294Y-66180524D01*
X117976213Y-66259573D01*
X117976220Y-66259577D01*
X118084315Y-66288541D01*
X118084314Y-66288541D01*
X118100650Y-66292918D01*
X118128946Y-66300500D01*
X118128947Y-66300500D01*
X133020234Y-66300500D01*
X133087273Y-66320185D01*
X133089125Y-66321398D01*
X133220814Y-66409390D01*
X133220827Y-66409397D01*
X133366498Y-66469735D01*
X133366503Y-66469737D01*
X133521153Y-66500499D01*
X133521156Y-66500500D01*
X133641500Y-66500500D01*
X133708539Y-66520185D01*
X133754294Y-66572989D01*
X133765500Y-66624500D01*
X133765500Y-73181953D01*
X133745815Y-73248992D01*
X133693011Y-73294747D01*
X133665692Y-73303570D01*
X133531508Y-73330261D01*
X133531498Y-73330264D01*
X133385827Y-73390602D01*
X133385814Y-73390609D01*
X133254711Y-73478210D01*
X133254707Y-73478213D01*
X133143213Y-73589707D01*
X133143210Y-73589711D01*
X133055609Y-73720814D01*
X133055602Y-73720827D01*
X132995264Y-73866498D01*
X132995261Y-73866510D01*
X132964500Y-74021153D01*
X132964500Y-74142402D01*
X132944815Y-74209441D01*
X132928181Y-74230083D01*
X114511063Y-92647200D01*
X114449740Y-92680685D01*
X114385064Y-92677450D01*
X114258870Y-92636447D01*
X114025597Y-92599500D01*
X114025592Y-92599500D01*
X113789408Y-92599500D01*
X113789403Y-92599500D01*
X113556131Y-92636446D01*
X113331503Y-92709433D01*
X113121066Y-92816657D01*
X113012050Y-92895862D01*
X112929990Y-92955483D01*
X112929988Y-92955485D01*
X112929987Y-92955485D01*
X112762985Y-93122487D01*
X112762985Y-93122488D01*
X112762983Y-93122490D01*
X112703362Y-93204550D01*
X112624157Y-93313566D01*
X112516933Y-93524003D01*
X112443946Y-93748631D01*
X112407000Y-93981902D01*
X112407000Y-94218097D01*
X112443946Y-94451368D01*
X112516933Y-94675996D01*
X112624157Y-94886433D01*
X112762983Y-95077510D01*
X112929990Y-95244517D01*
X113121067Y-95383343D01*
X113207000Y-95427128D01*
X113331503Y-95490566D01*
X113331505Y-95490566D01*
X113331508Y-95490568D01*
X113451912Y-95529689D01*
X113556131Y-95563553D01*
X113789403Y-95600500D01*
X113789408Y-95600500D01*
X114025597Y-95600500D01*
X114258868Y-95563553D01*
X114289054Y-95553745D01*
X114483492Y-95490568D01*
X114693933Y-95383343D01*
X114885010Y-95244517D01*
X115052017Y-95077510D01*
X115190843Y-94886433D01*
X115298068Y-94675992D01*
X115371053Y-94451368D01*
X115408000Y-94218097D01*
X115408000Y-93981902D01*
X122907000Y-93981902D01*
X122907000Y-94218097D01*
X122943946Y-94451368D01*
X123016933Y-94675996D01*
X123124157Y-94886433D01*
X123262983Y-95077510D01*
X123429990Y-95244517D01*
X123621067Y-95383343D01*
X123707000Y-95427128D01*
X123831503Y-95490566D01*
X123831505Y-95490566D01*
X123831508Y-95490568D01*
X123951912Y-95529689D01*
X124056131Y-95563553D01*
X124289403Y-95600500D01*
X124289408Y-95600500D01*
X124525597Y-95600500D01*
X124758868Y-95563553D01*
X124789054Y-95553745D01*
X124983492Y-95490568D01*
X125193933Y-95383343D01*
X125385010Y-95244517D01*
X125552017Y-95077510D01*
X125690843Y-94886433D01*
X125798068Y-94675992D01*
X125871053Y-94451368D01*
X125908000Y-94218097D01*
X125908000Y-93981902D01*
X125871053Y-93748631D01*
X125807356Y-93552593D01*
X125798068Y-93524008D01*
X125798066Y-93524005D01*
X125798066Y-93524003D01*
X125690842Y-93313566D01*
X125552017Y-93122490D01*
X125385010Y-92955483D01*
X125193933Y-92816657D01*
X124983496Y-92709433D01*
X124758868Y-92636446D01*
X124525597Y-92599500D01*
X124525592Y-92599500D01*
X124289408Y-92599500D01*
X124289403Y-92599500D01*
X124056131Y-92636446D01*
X123831503Y-92709433D01*
X123621066Y-92816657D01*
X123512050Y-92895862D01*
X123429990Y-92955483D01*
X123429988Y-92955485D01*
X123429987Y-92955485D01*
X123262985Y-93122487D01*
X123262985Y-93122488D01*
X123262983Y-93122490D01*
X123203362Y-93204550D01*
X123124157Y-93313566D01*
X123016933Y-93524003D01*
X122943946Y-93748631D01*
X122907000Y-93981902D01*
X115408000Y-93981902D01*
X115371053Y-93748635D01*
X115371053Y-93748632D01*
X115330047Y-93622433D01*
X115328053Y-93552593D01*
X115360296Y-93496437D01*
X119374786Y-89481947D01*
X122907500Y-89481947D01*
X122907500Y-89718052D01*
X122944434Y-89951247D01*
X123017397Y-90175802D01*
X123124587Y-90386174D01*
X123184838Y-90469104D01*
X123184840Y-90469105D01*
X123883712Y-89770233D01*
X123894982Y-89812292D01*
X123967390Y-89937708D01*
X124069792Y-90040110D01*
X124195208Y-90112518D01*
X124237265Y-90123787D01*
X123538393Y-90822658D01*
X123621328Y-90882914D01*
X123831697Y-90990102D01*
X124056252Y-91063065D01*
X124056251Y-91063065D01*
X124289448Y-91100000D01*
X124525552Y-91100000D01*
X124758747Y-91063065D01*
X124983302Y-90990102D01*
X125193663Y-90882918D01*
X125193669Y-90882914D01*
X125276604Y-90822658D01*
X125276605Y-90822658D01*
X124577733Y-90123787D01*
X124619792Y-90112518D01*
X124745208Y-90040110D01*
X124847610Y-89937708D01*
X124920018Y-89812292D01*
X124931287Y-89770234D01*
X125630158Y-90469105D01*
X125630158Y-90469104D01*
X125690414Y-90386169D01*
X125690418Y-90386163D01*
X125797602Y-90175802D01*
X125870565Y-89951247D01*
X125907500Y-89718052D01*
X125907500Y-89481947D01*
X129407500Y-89481947D01*
X129407500Y-89718052D01*
X129444434Y-89951247D01*
X129517397Y-90175802D01*
X129624587Y-90386174D01*
X129684838Y-90469104D01*
X129684840Y-90469105D01*
X130383712Y-89770233D01*
X130394982Y-89812292D01*
X130467390Y-89937708D01*
X130569792Y-90040110D01*
X130695208Y-90112518D01*
X130737265Y-90123787D01*
X130038393Y-90822658D01*
X130121328Y-90882914D01*
X130331697Y-90990102D01*
X130556252Y-91063065D01*
X130556251Y-91063065D01*
X130789448Y-91100000D01*
X131025552Y-91100000D01*
X131258747Y-91063065D01*
X131483302Y-90990102D01*
X131693663Y-90882918D01*
X131693669Y-90882914D01*
X131776604Y-90822658D01*
X131776605Y-90822658D01*
X131077733Y-90123787D01*
X131119792Y-90112518D01*
X131245208Y-90040110D01*
X131347610Y-89937708D01*
X131420018Y-89812292D01*
X131431287Y-89770234D01*
X132130158Y-90469105D01*
X132130158Y-90469104D01*
X132190414Y-90386169D01*
X132190418Y-90386163D01*
X132297602Y-90175802D01*
X132370565Y-89951247D01*
X132407500Y-89718052D01*
X132407500Y-89481947D01*
X132370565Y-89248752D01*
X132297602Y-89024197D01*
X132190414Y-88813828D01*
X132130158Y-88730894D01*
X132130158Y-88730893D01*
X131431287Y-89429765D01*
X131420018Y-89387708D01*
X131347610Y-89262292D01*
X131245208Y-89159890D01*
X131119792Y-89087482D01*
X131077734Y-89076212D01*
X131776605Y-88377340D01*
X131776604Y-88377338D01*
X131693674Y-88317087D01*
X131483302Y-88209897D01*
X131258747Y-88136934D01*
X131258748Y-88136934D01*
X131025552Y-88100000D01*
X130789448Y-88100000D01*
X130556252Y-88136934D01*
X130331697Y-88209897D01*
X130121330Y-88317084D01*
X130038394Y-88377340D01*
X130737266Y-89076212D01*
X130695208Y-89087482D01*
X130569792Y-89159890D01*
X130467390Y-89262292D01*
X130394982Y-89387708D01*
X130383712Y-89429766D01*
X129684840Y-88730894D01*
X129624584Y-88813830D01*
X129517397Y-89024197D01*
X129444434Y-89248752D01*
X129407500Y-89481947D01*
X125907500Y-89481947D01*
X125870565Y-89248752D01*
X125797602Y-89024197D01*
X125690414Y-88813828D01*
X125630158Y-88730894D01*
X125630158Y-88730893D01*
X124931287Y-89429765D01*
X124920018Y-89387708D01*
X124847610Y-89262292D01*
X124745208Y-89159890D01*
X124619792Y-89087482D01*
X124577734Y-89076212D01*
X125276605Y-88377340D01*
X125276604Y-88377339D01*
X125193674Y-88317087D01*
X124983302Y-88209897D01*
X124758747Y-88136934D01*
X124758748Y-88136934D01*
X124525552Y-88100000D01*
X124289448Y-88100000D01*
X124056252Y-88136934D01*
X123831697Y-88209897D01*
X123621330Y-88317084D01*
X123538394Y-88377340D01*
X124237266Y-89076212D01*
X124195208Y-89087482D01*
X124069792Y-89159890D01*
X123967390Y-89262292D01*
X123894982Y-89387708D01*
X123883712Y-89429766D01*
X123184840Y-88730894D01*
X123124584Y-88813830D01*
X123017397Y-89024197D01*
X122944434Y-89248752D01*
X122907500Y-89481947D01*
X119374786Y-89481947D01*
X133553821Y-75302913D01*
X133615142Y-75269430D01*
X133684834Y-75274414D01*
X133740767Y-75316286D01*
X133765184Y-75381750D01*
X133765500Y-75390596D01*
X133765500Y-90341402D01*
X133745815Y-90408441D01*
X133729181Y-90429083D01*
X131511063Y-92647200D01*
X131449740Y-92680685D01*
X131385064Y-92677450D01*
X131258870Y-92636447D01*
X131025597Y-92599500D01*
X131025592Y-92599500D01*
X130789408Y-92599500D01*
X130789403Y-92599500D01*
X130556131Y-92636446D01*
X130331503Y-92709433D01*
X130121066Y-92816657D01*
X130012050Y-92895862D01*
X129929990Y-92955483D01*
X129929988Y-92955485D01*
X129929987Y-92955485D01*
X129762985Y-93122487D01*
X129762985Y-93122488D01*
X129762983Y-93122490D01*
X129703362Y-93204550D01*
X129624157Y-93313566D01*
X129516933Y-93524003D01*
X129443946Y-93748631D01*
X129407000Y-93981902D01*
X129407000Y-94218097D01*
X129443946Y-94451368D01*
X129516933Y-94675996D01*
X129624157Y-94886433D01*
X129762983Y-95077510D01*
X129929990Y-95244517D01*
X130121067Y-95383343D01*
X130207000Y-95427128D01*
X130331503Y-95490566D01*
X130331505Y-95490566D01*
X130331508Y-95490568D01*
X130451912Y-95529689D01*
X130556131Y-95563553D01*
X130789403Y-95600500D01*
X130789408Y-95600500D01*
X131025597Y-95600500D01*
X131258868Y-95563553D01*
X131289054Y-95553745D01*
X131483492Y-95490568D01*
X131693933Y-95383343D01*
X131885010Y-95244517D01*
X132052017Y-95077510D01*
X132190843Y-94886433D01*
X132298068Y-94675992D01*
X132371053Y-94451368D01*
X132408000Y-94218097D01*
X132408000Y-93981902D01*
X132371053Y-93748635D01*
X132371053Y-93748632D01*
X132330047Y-93622433D01*
X132328053Y-93552593D01*
X132360296Y-93496437D01*
X134686820Y-91169914D01*
X134748142Y-91136431D01*
X134817834Y-91141415D01*
X134873767Y-91183287D01*
X134898184Y-91248751D01*
X134898500Y-91257597D01*
X134898500Y-94368510D01*
X134878815Y-94435549D01*
X134862181Y-94456191D01*
X122619181Y-106699191D01*
X122557858Y-106732676D01*
X122488166Y-106727692D01*
X122432233Y-106685820D01*
X122407816Y-106620356D01*
X122407500Y-106611510D01*
X122407500Y-106481947D01*
X122370565Y-106248752D01*
X122297602Y-106024197D01*
X122190414Y-105813828D01*
X122130158Y-105730894D01*
X122130158Y-105730893D01*
X121431287Y-106429765D01*
X121420018Y-106387708D01*
X121347610Y-106262292D01*
X121245208Y-106159890D01*
X121119792Y-106087482D01*
X121077734Y-106076212D01*
X121776605Y-105377340D01*
X121776604Y-105377338D01*
X121693674Y-105317087D01*
X121483302Y-105209897D01*
X121258747Y-105136934D01*
X121258748Y-105136934D01*
X121025552Y-105100000D01*
X120789448Y-105100000D01*
X120556252Y-105136934D01*
X120331697Y-105209897D01*
X120121330Y-105317084D01*
X120038394Y-105377340D01*
X120737266Y-106076212D01*
X120695208Y-106087482D01*
X120569792Y-106159890D01*
X120467390Y-106262292D01*
X120394982Y-106387708D01*
X120383712Y-106429766D01*
X119684840Y-105730894D01*
X119624584Y-105813830D01*
X119517397Y-106024197D01*
X119444434Y-106248752D01*
X119407500Y-106481947D01*
X119407500Y-106718052D01*
X119444434Y-106951247D01*
X119517397Y-107175802D01*
X119624587Y-107386174D01*
X119684838Y-107469104D01*
X119684840Y-107469105D01*
X120383712Y-106770233D01*
X120394982Y-106812292D01*
X120467390Y-106937708D01*
X120569792Y-107040110D01*
X120695208Y-107112518D01*
X120737265Y-107123787D01*
X120038393Y-107822658D01*
X120121328Y-107882914D01*
X120331697Y-107990102D01*
X120556252Y-108063065D01*
X120556251Y-108063065D01*
X120789448Y-108100000D01*
X120919010Y-108100000D01*
X120986049Y-108119685D01*
X121031804Y-108172489D01*
X121041748Y-108241647D01*
X121012723Y-108305203D01*
X121006691Y-108311681D01*
X112619181Y-116699190D01*
X112557858Y-116732675D01*
X112488166Y-116727691D01*
X112432233Y-116685819D01*
X112407816Y-116620355D01*
X112407500Y-116611509D01*
X112407500Y-116481947D01*
X112370565Y-116248752D01*
X112297602Y-116024197D01*
X112190414Y-115813828D01*
X112130158Y-115730894D01*
X112130158Y-115730893D01*
X111431287Y-116429765D01*
X111420018Y-116387708D01*
X111347610Y-116262292D01*
X111245208Y-116159890D01*
X111119792Y-116087482D01*
X111077734Y-116076212D01*
X111776605Y-115377340D01*
X111776604Y-115377338D01*
X111693674Y-115317087D01*
X111483302Y-115209897D01*
X111258747Y-115136934D01*
X111258748Y-115136934D01*
X111025552Y-115100000D01*
X110789448Y-115100000D01*
X110556252Y-115136934D01*
X110331697Y-115209897D01*
X110121330Y-115317084D01*
X110038394Y-115377340D01*
X110737266Y-116076212D01*
X110695208Y-116087482D01*
X110569792Y-116159890D01*
X110467390Y-116262292D01*
X110394982Y-116387708D01*
X110383712Y-116429766D01*
X109684840Y-115730894D01*
X109624584Y-115813830D01*
X109517397Y-116024197D01*
X109444434Y-116248752D01*
X109407500Y-116481947D01*
X109407500Y-116718052D01*
X109444434Y-116951247D01*
X109517397Y-117175802D01*
X109624587Y-117386174D01*
X109684838Y-117469104D01*
X109684840Y-117469105D01*
X110383712Y-116770233D01*
X110394982Y-116812292D01*
X110467390Y-116937708D01*
X110569792Y-117040110D01*
X110695208Y-117112518D01*
X110737265Y-117123787D01*
X110038393Y-117822658D01*
X110121328Y-117882914D01*
X110331697Y-117990102D01*
X110556252Y-118063065D01*
X110556251Y-118063065D01*
X110789448Y-118100000D01*
X110919009Y-118100000D01*
X110986048Y-118119685D01*
X111031803Y-118172489D01*
X111041747Y-118241647D01*
X111012722Y-118305203D01*
X111006690Y-118311681D01*
X110538786Y-118779586D01*
X110426981Y-118891390D01*
X110426979Y-118891393D01*
X110376861Y-118978202D01*
X110376859Y-118978204D01*
X110347925Y-119028317D01*
X110347924Y-119028318D01*
X110347923Y-119028323D01*
X110306999Y-119181051D01*
X110306999Y-119181053D01*
X110306999Y-119349154D01*
X110307000Y-119349167D01*
X110307000Y-119645931D01*
X110287315Y-119712970D01*
X110239296Y-119756415D01*
X110121068Y-119816655D01*
X110036557Y-119878057D01*
X109929990Y-119955483D01*
X109929988Y-119955485D01*
X109929987Y-119955485D01*
X109762985Y-120122487D01*
X109762985Y-120122488D01*
X109762983Y-120122490D01*
X109730124Y-120167717D01*
X109624157Y-120313566D01*
X109516933Y-120524003D01*
X109443946Y-120748631D01*
X109407000Y-120981902D01*
X109407000Y-121218097D01*
X109443946Y-121451368D01*
X109516933Y-121675996D01*
X109534980Y-121711414D01*
X109624157Y-121886433D01*
X109762983Y-122077510D01*
X109929990Y-122244517D01*
X110121067Y-122383343D01*
X110220491Y-122434002D01*
X110331503Y-122490566D01*
X110331505Y-122490566D01*
X110331508Y-122490568D01*
X110451912Y-122529689D01*
X110556131Y-122563553D01*
X110789403Y-122600500D01*
X110789408Y-122600500D01*
X111025597Y-122600500D01*
X111258868Y-122563553D01*
X111483492Y-122490568D01*
X111693933Y-122383343D01*
X111885010Y-122244517D01*
X112052017Y-122077510D01*
X112190843Y-121886433D01*
X112298068Y-121675992D01*
X112371053Y-121451368D01*
X112408000Y-121218097D01*
X112408000Y-120981902D01*
X122907000Y-120981902D01*
X122907000Y-121218097D01*
X122943946Y-121451368D01*
X123016933Y-121675996D01*
X123034980Y-121711414D01*
X123124157Y-121886433D01*
X123262983Y-122077510D01*
X123429990Y-122244517D01*
X123621067Y-122383343D01*
X123720491Y-122434002D01*
X123831503Y-122490566D01*
X123831505Y-122490566D01*
X123831508Y-122490568D01*
X123951912Y-122529689D01*
X124056131Y-122563553D01*
X124289403Y-122600500D01*
X124289408Y-122600500D01*
X124525597Y-122600500D01*
X124758868Y-122563553D01*
X124983492Y-122490568D01*
X125193933Y-122383343D01*
X125385010Y-122244517D01*
X125552017Y-122077510D01*
X125690843Y-121886433D01*
X125798068Y-121675992D01*
X125871053Y-121451368D01*
X125908000Y-121218097D01*
X125908000Y-120981902D01*
X129407000Y-120981902D01*
X129407000Y-121218097D01*
X129443946Y-121451368D01*
X129516933Y-121675996D01*
X129534980Y-121711414D01*
X129624157Y-121886433D01*
X129762983Y-122077510D01*
X129929990Y-122244517D01*
X130121067Y-122383343D01*
X130220491Y-122434002D01*
X130331503Y-122490566D01*
X130331505Y-122490566D01*
X130331508Y-122490568D01*
X130451912Y-122529689D01*
X130556131Y-122563553D01*
X130789403Y-122600500D01*
X130789408Y-122600500D01*
X131025597Y-122600500D01*
X131258868Y-122563553D01*
X131483492Y-122490568D01*
X131693933Y-122383343D01*
X131885010Y-122244517D01*
X132052017Y-122077510D01*
X132190843Y-121886433D01*
X132298068Y-121675992D01*
X132371053Y-121451368D01*
X132408000Y-121218097D01*
X132408000Y-120981902D01*
X132371053Y-120748631D01*
X132309034Y-120557758D01*
X132298068Y-120524008D01*
X132298066Y-120524005D01*
X132298066Y-120524003D01*
X132190842Y-120313566D01*
X132166106Y-120279520D01*
X132052017Y-120122490D01*
X131885010Y-119955483D01*
X131693933Y-119816657D01*
X131693929Y-119816655D01*
X131483496Y-119709433D01*
X131258868Y-119636446D01*
X131025597Y-119599500D01*
X131025592Y-119599500D01*
X130789408Y-119599500D01*
X130789403Y-119599500D01*
X130556131Y-119636446D01*
X130331503Y-119709433D01*
X130121066Y-119816657D01*
X130036557Y-119878057D01*
X129929990Y-119955483D01*
X129929988Y-119955485D01*
X129929987Y-119955485D01*
X129762985Y-120122487D01*
X129762985Y-120122488D01*
X129762983Y-120122490D01*
X129730124Y-120167717D01*
X129624157Y-120313566D01*
X129516933Y-120524003D01*
X129443946Y-120748631D01*
X129407000Y-120981902D01*
X125908000Y-120981902D01*
X125871053Y-120748631D01*
X125809034Y-120557758D01*
X125798068Y-120524008D01*
X125798066Y-120524005D01*
X125798066Y-120524003D01*
X125690842Y-120313566D01*
X125666106Y-120279520D01*
X125552017Y-120122490D01*
X125385010Y-119955483D01*
X125193933Y-119816657D01*
X125193929Y-119816655D01*
X124983496Y-119709433D01*
X124758868Y-119636446D01*
X124525597Y-119599500D01*
X124525592Y-119599500D01*
X124289408Y-119599500D01*
X124289403Y-119599500D01*
X124056131Y-119636446D01*
X123831503Y-119709433D01*
X123621066Y-119816657D01*
X123536557Y-119878057D01*
X123429990Y-119955483D01*
X123429988Y-119955485D01*
X123429987Y-119955485D01*
X123262985Y-120122487D01*
X123262985Y-120122488D01*
X123262983Y-120122490D01*
X123230124Y-120167717D01*
X123124157Y-120313566D01*
X123016933Y-120524003D01*
X122943946Y-120748631D01*
X122907000Y-120981902D01*
X112408000Y-120981902D01*
X112371053Y-120748631D01*
X112309034Y-120557758D01*
X112298068Y-120524008D01*
X112298066Y-120524005D01*
X112298066Y-120524003D01*
X112190842Y-120313566D01*
X112166106Y-120279520D01*
X112052017Y-120122490D01*
X111885010Y-119955483D01*
X111778443Y-119878057D01*
X111693931Y-119816655D01*
X111575704Y-119756415D01*
X111564640Y-119745966D01*
X111550797Y-119739644D01*
X111539755Y-119722463D01*
X111524909Y-119708441D01*
X111520667Y-119692761D01*
X111513023Y-119680866D01*
X111508000Y-119645931D01*
X111508000Y-119560204D01*
X111527685Y-119493165D01*
X111544314Y-119472528D01*
X114534895Y-116481947D01*
X122907500Y-116481947D01*
X122907500Y-116718052D01*
X122944434Y-116951247D01*
X123017397Y-117175802D01*
X123124587Y-117386174D01*
X123184838Y-117469104D01*
X123184840Y-117469105D01*
X123883712Y-116770233D01*
X123894982Y-116812292D01*
X123967390Y-116937708D01*
X124069792Y-117040110D01*
X124195208Y-117112518D01*
X124237265Y-117123787D01*
X123538393Y-117822658D01*
X123621328Y-117882914D01*
X123831697Y-117990102D01*
X124056252Y-118063065D01*
X124056251Y-118063065D01*
X124289448Y-118100000D01*
X124525552Y-118100000D01*
X124758747Y-118063065D01*
X124983302Y-117990102D01*
X125193663Y-117882918D01*
X125193669Y-117882914D01*
X125276604Y-117822658D01*
X125276605Y-117822658D01*
X124577733Y-117123787D01*
X124619792Y-117112518D01*
X124745208Y-117040110D01*
X124847610Y-116937708D01*
X124920018Y-116812292D01*
X124931287Y-116770234D01*
X125630158Y-117469105D01*
X125630158Y-117469104D01*
X125690414Y-117386169D01*
X125690418Y-117386163D01*
X125797602Y-117175802D01*
X125870565Y-116951247D01*
X125907500Y-116718052D01*
X125907500Y-116481947D01*
X129407500Y-116481947D01*
X129407500Y-116718052D01*
X129444434Y-116951247D01*
X129517397Y-117175802D01*
X129624587Y-117386174D01*
X129684838Y-117469104D01*
X129684840Y-117469105D01*
X130383712Y-116770233D01*
X130394982Y-116812292D01*
X130467390Y-116937708D01*
X130569792Y-117040110D01*
X130695208Y-117112518D01*
X130737265Y-117123787D01*
X130038393Y-117822658D01*
X130121328Y-117882914D01*
X130331697Y-117990102D01*
X130556252Y-118063065D01*
X130556251Y-118063065D01*
X130789448Y-118100000D01*
X131025552Y-118100000D01*
X131258747Y-118063065D01*
X131483302Y-117990102D01*
X131693663Y-117882918D01*
X131693669Y-117882914D01*
X131776604Y-117822658D01*
X131776605Y-117822658D01*
X131077733Y-117123787D01*
X131119792Y-117112518D01*
X131245208Y-117040110D01*
X131347610Y-116937708D01*
X131420018Y-116812292D01*
X131431287Y-116770234D01*
X132130158Y-117469105D01*
X132130158Y-117469104D01*
X132190414Y-117386169D01*
X132190418Y-117386163D01*
X132297602Y-117175802D01*
X132370565Y-116951247D01*
X132407500Y-116718052D01*
X132407500Y-116481947D01*
X132370565Y-116248752D01*
X132297602Y-116024197D01*
X132190414Y-115813828D01*
X132130158Y-115730894D01*
X132130158Y-115730893D01*
X131431287Y-116429765D01*
X131420018Y-116387708D01*
X131347610Y-116262292D01*
X131245208Y-116159890D01*
X131119792Y-116087482D01*
X131077734Y-116076212D01*
X131776605Y-115377340D01*
X131776604Y-115377338D01*
X131693674Y-115317087D01*
X131483302Y-115209897D01*
X131258747Y-115136934D01*
X131258748Y-115136934D01*
X131025552Y-115100000D01*
X130789448Y-115100000D01*
X130556252Y-115136934D01*
X130331697Y-115209897D01*
X130121330Y-115317084D01*
X130038394Y-115377340D01*
X130737266Y-116076212D01*
X130695208Y-116087482D01*
X130569792Y-116159890D01*
X130467390Y-116262292D01*
X130394982Y-116387708D01*
X130383712Y-116429766D01*
X129684840Y-115730894D01*
X129624584Y-115813830D01*
X129517397Y-116024197D01*
X129444434Y-116248752D01*
X129407500Y-116481947D01*
X125907500Y-116481947D01*
X125870565Y-116248752D01*
X125797602Y-116024197D01*
X125690414Y-115813828D01*
X125630158Y-115730894D01*
X125630158Y-115730893D01*
X124931287Y-116429765D01*
X124920018Y-116387708D01*
X124847610Y-116262292D01*
X124745208Y-116159890D01*
X124619792Y-116087482D01*
X124577734Y-116076212D01*
X125276605Y-115377340D01*
X125276604Y-115377339D01*
X125193674Y-115317087D01*
X124983302Y-115209897D01*
X124758747Y-115136934D01*
X124758748Y-115136934D01*
X124525552Y-115100000D01*
X124289448Y-115100000D01*
X124056252Y-115136934D01*
X123831697Y-115209897D01*
X123621330Y-115317084D01*
X123538394Y-115377340D01*
X124237266Y-116076212D01*
X124195208Y-116087482D01*
X124069792Y-116159890D01*
X123967390Y-116262292D01*
X123894982Y-116387708D01*
X123883712Y-116429766D01*
X123184840Y-115730894D01*
X123124584Y-115813830D01*
X123017397Y-116024197D01*
X122944434Y-116248752D01*
X122907500Y-116481947D01*
X114534895Y-116481947D01*
X119336816Y-111680025D01*
X119398137Y-111646542D01*
X119467829Y-111651526D01*
X119523762Y-111693398D01*
X119534979Y-111711412D01*
X119624157Y-111886433D01*
X119762983Y-112077510D01*
X119929990Y-112244517D01*
X120121067Y-112383343D01*
X120207000Y-112427128D01*
X120331503Y-112490566D01*
X120331505Y-112490566D01*
X120331508Y-112490568D01*
X120451912Y-112529689D01*
X120556131Y-112563553D01*
X120789403Y-112600500D01*
X120789408Y-112600500D01*
X121025597Y-112600500D01*
X121258868Y-112563553D01*
X121483492Y-112490568D01*
X121693933Y-112383343D01*
X121885010Y-112244517D01*
X122052017Y-112077510D01*
X122190843Y-111886433D01*
X122298068Y-111675992D01*
X122371053Y-111451368D01*
X122408000Y-111218097D01*
X122408000Y-110981902D01*
X122371053Y-110748635D01*
X122371053Y-110748632D01*
X122330047Y-110622433D01*
X122328053Y-110552593D01*
X122360296Y-110496437D01*
X136268713Y-96588021D01*
X136268716Y-96588020D01*
X136380520Y-96476216D01*
X136430639Y-96389404D01*
X136459577Y-96339285D01*
X136460831Y-96334601D01*
X136466917Y-96323568D01*
X136487018Y-96303634D01*
X136504779Y-96281594D01*
X136511500Y-96279357D01*
X136516529Y-96274370D01*
X136544212Y-96268469D01*
X136571073Y-96259529D01*
X136577936Y-96261280D01*
X136584864Y-96259804D01*
X136611345Y-96269807D01*
X136638773Y-96276808D01*
X136643599Y-96281992D01*
X136650225Y-96284495D01*
X136667092Y-96307224D01*
X136686384Y-96327945D01*
X136688213Y-96335686D01*
X136691862Y-96340603D01*
X136692852Y-96355319D01*
X136699500Y-96383450D01*
X136699500Y-102065938D01*
X136699499Y-102065956D01*
X136699499Y-102231662D01*
X136699498Y-102231662D01*
X136699499Y-102231665D01*
X136740423Y-102384393D01*
X136746384Y-102394718D01*
X136746386Y-102394725D01*
X136746388Y-102394725D01*
X136819475Y-102521317D01*
X136819481Y-102521325D01*
X136938349Y-102640193D01*
X136938355Y-102640198D01*
X153827471Y-119529314D01*
X153860956Y-119590637D01*
X153855972Y-119660329D01*
X153814100Y-119716262D01*
X153796085Y-119727480D01*
X153621066Y-119816657D01*
X153536557Y-119878057D01*
X153429990Y-119955483D01*
X153429988Y-119955485D01*
X153429987Y-119955485D01*
X153262985Y-120122487D01*
X153262985Y-120122488D01*
X153262983Y-120122490D01*
X153230124Y-120167717D01*
X153124157Y-120313566D01*
X153016933Y-120524003D01*
X152943946Y-120748631D01*
X152907000Y-120981902D01*
X152907000Y-121218097D01*
X152943946Y-121451368D01*
X153016933Y-121675996D01*
X153034980Y-121711414D01*
X153124157Y-121886433D01*
X153262983Y-122077510D01*
X153429990Y-122244517D01*
X153621067Y-122383343D01*
X153720491Y-122434002D01*
X153831503Y-122490566D01*
X153831505Y-122490566D01*
X153831508Y-122490568D01*
X153951912Y-122529689D01*
X154056131Y-122563553D01*
X154289403Y-122600500D01*
X154289408Y-122600500D01*
X154525597Y-122600500D01*
X154758868Y-122563553D01*
X154983492Y-122490568D01*
X155193933Y-122383343D01*
X155385010Y-122244517D01*
X155552017Y-122077510D01*
X155690843Y-121886433D01*
X155780020Y-121711412D01*
X155827993Y-121660618D01*
X155895814Y-121643823D01*
X155961949Y-121666360D01*
X155978185Y-121680028D01*
X163770681Y-129472524D01*
X163785384Y-129499451D01*
X163801977Y-129525270D01*
X163802868Y-129531470D01*
X163804166Y-129533847D01*
X163807000Y-129560205D01*
X163807000Y-129645931D01*
X163787315Y-129712970D01*
X163739296Y-129756415D01*
X163621068Y-129816655D01*
X163487396Y-129913774D01*
X163429990Y-129955483D01*
X163429988Y-129955485D01*
X163429987Y-129955485D01*
X163262985Y-130122487D01*
X163262985Y-130122488D01*
X163262983Y-130122490D01*
X163203362Y-130204550D01*
X163124157Y-130313566D01*
X163016933Y-130524003D01*
X162943946Y-130748631D01*
X162907000Y-130981902D01*
X162907000Y-131218097D01*
X162943946Y-131451368D01*
X162982395Y-131569699D01*
X163004647Y-131638182D01*
X163006642Y-131708022D01*
X162970562Y-131767855D01*
X162907861Y-131798684D01*
X162886716Y-131800500D01*
X149693170Y-131800500D01*
X149693154Y-131800499D01*
X149685558Y-131800499D01*
X149527443Y-131800499D01*
X149451079Y-131820961D01*
X149374714Y-131841423D01*
X149374709Y-131841426D01*
X149237790Y-131920475D01*
X149237782Y-131920481D01*
X136511063Y-144647200D01*
X136449740Y-144680685D01*
X136385064Y-144677450D01*
X136258870Y-144636447D01*
X136025597Y-144599500D01*
X136025592Y-144599500D01*
X135789408Y-144599500D01*
X135789403Y-144599500D01*
X135556131Y-144636446D01*
X135331503Y-144709433D01*
X135121066Y-144816657D01*
X135012050Y-144895862D01*
X134929990Y-144955483D01*
X134929988Y-144955485D01*
X134929987Y-144955485D01*
X134762985Y-145122487D01*
X134762985Y-145122488D01*
X134762983Y-145122490D01*
X134703362Y-145204550D01*
X134624157Y-145313566D01*
X134516933Y-145524003D01*
X134443946Y-145748631D01*
X134407000Y-145981902D01*
X134407000Y-146218097D01*
X134443946Y-146451368D01*
X134516933Y-146675996D01*
X134624157Y-146886433D01*
X134762983Y-147077510D01*
X134929990Y-147244517D01*
X135121067Y-147383343D01*
X135220491Y-147434002D01*
X135331503Y-147490566D01*
X135331505Y-147490566D01*
X135331508Y-147490568D01*
X135451912Y-147529689D01*
X135556131Y-147563553D01*
X135789403Y-147600500D01*
X135789408Y-147600500D01*
X136025597Y-147600500D01*
X136258868Y-147563553D01*
X136483492Y-147490568D01*
X136693933Y-147383343D01*
X136885010Y-147244517D01*
X137052017Y-147077510D01*
X137190843Y-146886433D01*
X137298068Y-146675992D01*
X137371053Y-146451368D01*
X137408000Y-146218097D01*
X137408000Y-145981902D01*
X147907000Y-145981902D01*
X147907000Y-146218097D01*
X147943946Y-146451368D01*
X148016933Y-146675996D01*
X148124157Y-146886433D01*
X148262983Y-147077510D01*
X148429990Y-147244517D01*
X148621067Y-147383343D01*
X148720491Y-147434002D01*
X148831503Y-147490566D01*
X148831505Y-147490566D01*
X148831508Y-147490568D01*
X148951912Y-147529689D01*
X149056131Y-147563553D01*
X149289403Y-147600500D01*
X149289408Y-147600500D01*
X149525597Y-147600500D01*
X149758868Y-147563553D01*
X149983492Y-147490568D01*
X150193933Y-147383343D01*
X150385010Y-147244517D01*
X150552017Y-147077510D01*
X150690843Y-146886433D01*
X150798068Y-146675992D01*
X150871053Y-146451368D01*
X150908000Y-146218097D01*
X150908000Y-145981902D01*
X150871053Y-145748631D01*
X150807356Y-145552593D01*
X150798068Y-145524008D01*
X150798066Y-145524005D01*
X150798066Y-145524003D01*
X150690842Y-145313566D01*
X150552017Y-145122490D01*
X150385010Y-144955483D01*
X150193933Y-144816657D01*
X149983496Y-144709433D01*
X149758868Y-144636446D01*
X149525597Y-144599500D01*
X149525592Y-144599500D01*
X149289408Y-144599500D01*
X149289403Y-144599500D01*
X149056131Y-144636446D01*
X148831503Y-144709433D01*
X148621066Y-144816657D01*
X148512050Y-144895862D01*
X148429990Y-144955483D01*
X148429988Y-144955485D01*
X148429987Y-144955485D01*
X148262985Y-145122487D01*
X148262985Y-145122488D01*
X148262983Y-145122490D01*
X148203362Y-145204550D01*
X148124157Y-145313566D01*
X148016933Y-145524003D01*
X147943946Y-145748631D01*
X147907000Y-145981902D01*
X137408000Y-145981902D01*
X137371053Y-145748635D01*
X137371053Y-145748632D01*
X137330047Y-145622433D01*
X137328053Y-145552593D01*
X137360296Y-145496437D01*
X141374787Y-141481947D01*
X147907500Y-141481947D01*
X147907500Y-141718052D01*
X147944434Y-141951247D01*
X148017397Y-142175802D01*
X148124587Y-142386174D01*
X148184838Y-142469104D01*
X148184840Y-142469105D01*
X148883712Y-141770233D01*
X148894982Y-141812292D01*
X148967390Y-141937708D01*
X149069792Y-142040110D01*
X149195208Y-142112518D01*
X149237265Y-142123787D01*
X148538393Y-142822658D01*
X148621328Y-142882914D01*
X148831697Y-142990102D01*
X149056252Y-143063065D01*
X149056251Y-143063065D01*
X149289448Y-143100000D01*
X149525552Y-143100000D01*
X149758747Y-143063065D01*
X149983302Y-142990102D01*
X150193663Y-142882918D01*
X150193669Y-142882914D01*
X150276604Y-142822658D01*
X150276605Y-142822658D01*
X149577733Y-142123787D01*
X149619792Y-142112518D01*
X149745208Y-142040110D01*
X149847610Y-141937708D01*
X149920018Y-141812292D01*
X149931287Y-141770233D01*
X150630158Y-142469105D01*
X150630158Y-142469104D01*
X150690414Y-142386169D01*
X150690418Y-142386163D01*
X150797602Y-142175802D01*
X150870565Y-141951247D01*
X150907500Y-141718052D01*
X150907500Y-141481947D01*
X154407500Y-141481947D01*
X154407500Y-141718052D01*
X154444434Y-141951247D01*
X154517397Y-142175802D01*
X154624587Y-142386174D01*
X154684838Y-142469104D01*
X154684840Y-142469105D01*
X155383712Y-141770233D01*
X155394982Y-141812292D01*
X155467390Y-141937708D01*
X155569792Y-142040110D01*
X155695208Y-142112518D01*
X155737265Y-142123787D01*
X155038393Y-142822658D01*
X155121328Y-142882914D01*
X155331697Y-142990102D01*
X155556252Y-143063065D01*
X155556251Y-143063065D01*
X155789448Y-143100000D01*
X156025552Y-143100000D01*
X156258747Y-143063065D01*
X156483302Y-142990102D01*
X156693663Y-142882918D01*
X156693669Y-142882914D01*
X156776604Y-142822658D01*
X156776605Y-142822658D01*
X156077733Y-142123787D01*
X156119792Y-142112518D01*
X156245208Y-142040110D01*
X156347610Y-141937708D01*
X156420018Y-141812292D01*
X156431287Y-141770234D01*
X157130158Y-142469105D01*
X157130158Y-142469104D01*
X157190414Y-142386169D01*
X157190418Y-142386163D01*
X157297602Y-142175802D01*
X157370565Y-141951247D01*
X157407500Y-141718052D01*
X157407500Y-141481947D01*
X157370565Y-141248752D01*
X157297602Y-141024197D01*
X157190414Y-140813828D01*
X157130158Y-140730894D01*
X157130158Y-140730893D01*
X156431287Y-141429765D01*
X156420018Y-141387708D01*
X156347610Y-141262292D01*
X156245208Y-141159890D01*
X156119792Y-141087482D01*
X156077734Y-141076212D01*
X156776605Y-140377340D01*
X156776604Y-140377338D01*
X156693674Y-140317087D01*
X156483302Y-140209897D01*
X156258747Y-140136934D01*
X156258748Y-140136934D01*
X156025552Y-140100000D01*
X155789448Y-140100000D01*
X155556252Y-140136934D01*
X155331697Y-140209897D01*
X155121330Y-140317084D01*
X155038394Y-140377340D01*
X155737266Y-141076212D01*
X155695208Y-141087482D01*
X155569792Y-141159890D01*
X155467390Y-141262292D01*
X155394982Y-141387708D01*
X155383712Y-141429766D01*
X154684840Y-140730894D01*
X154624584Y-140813830D01*
X154517397Y-141024197D01*
X154444434Y-141248752D01*
X154407500Y-141481947D01*
X150907500Y-141481947D01*
X150870565Y-141248752D01*
X150797602Y-141024197D01*
X150690414Y-140813828D01*
X150630158Y-140730894D01*
X150630158Y-140730893D01*
X149931287Y-141429765D01*
X149920018Y-141387708D01*
X149847610Y-141262292D01*
X149745208Y-141159890D01*
X149619792Y-141087482D01*
X149577734Y-141076212D01*
X150276605Y-140377340D01*
X150276604Y-140377339D01*
X150193674Y-140317087D01*
X149983302Y-140209897D01*
X149758747Y-140136934D01*
X149758748Y-140136934D01*
X149525552Y-140100000D01*
X149289448Y-140100000D01*
X149056252Y-140136934D01*
X148831697Y-140209897D01*
X148621330Y-140317084D01*
X148538394Y-140377340D01*
X149237266Y-141076212D01*
X149195208Y-141087482D01*
X149069792Y-141159890D01*
X148967390Y-141262292D01*
X148894982Y-141387708D01*
X148883712Y-141429766D01*
X148184840Y-140730894D01*
X148124584Y-140813830D01*
X148017397Y-141024197D01*
X147944434Y-141248752D01*
X147907500Y-141481947D01*
X141374787Y-141481947D01*
X149818917Y-133037819D01*
X149880240Y-133004334D01*
X149906598Y-133001500D01*
X164859723Y-133001500D01*
X164859739Y-133001501D01*
X164867335Y-133001501D01*
X165025446Y-133001501D01*
X165025449Y-133001501D01*
X165178177Y-132960577D01*
X165228296Y-132931639D01*
X165315108Y-132881520D01*
X165426912Y-132769716D01*
X165426913Y-132769713D01*
X165587822Y-132608804D01*
X165649142Y-132575322D01*
X165718834Y-132580306D01*
X165774767Y-132622178D01*
X165799184Y-132687642D01*
X165799500Y-132696488D01*
X165799500Y-135307402D01*
X165779815Y-135374441D01*
X165763181Y-135395083D01*
X156511063Y-144647200D01*
X156449740Y-144680685D01*
X156385064Y-144677450D01*
X156258870Y-144636447D01*
X156025597Y-144599500D01*
X156025592Y-144599500D01*
X155789408Y-144599500D01*
X155789403Y-144599500D01*
X155556131Y-144636446D01*
X155331503Y-144709433D01*
X155121066Y-144816657D01*
X155012050Y-144895862D01*
X154929990Y-144955483D01*
X154929988Y-144955485D01*
X154929987Y-144955485D01*
X154762985Y-145122487D01*
X154762985Y-145122488D01*
X154762983Y-145122490D01*
X154703362Y-145204550D01*
X154624157Y-145313566D01*
X154516933Y-145524003D01*
X154443946Y-145748631D01*
X154407000Y-145981902D01*
X154407000Y-146218097D01*
X154443946Y-146451368D01*
X154516933Y-146675996D01*
X154624157Y-146886433D01*
X154762983Y-147077510D01*
X154929990Y-147244517D01*
X155121067Y-147383343D01*
X155220491Y-147434002D01*
X155331503Y-147490566D01*
X155331505Y-147490566D01*
X155331508Y-147490568D01*
X155451912Y-147529689D01*
X155556131Y-147563553D01*
X155789403Y-147600500D01*
X155789408Y-147600500D01*
X156025597Y-147600500D01*
X156258868Y-147563553D01*
X156483492Y-147490568D01*
X156693933Y-147383343D01*
X156885010Y-147244517D01*
X157052017Y-147077510D01*
X157190843Y-146886433D01*
X157298068Y-146675992D01*
X157371053Y-146451368D01*
X157408000Y-146218097D01*
X157408000Y-145981902D01*
X157371053Y-145748635D01*
X157371053Y-145748632D01*
X157330047Y-145622433D01*
X157328053Y-145552593D01*
X157360296Y-145496437D01*
X166880520Y-135976216D01*
X166959577Y-135839285D01*
X167000501Y-135686557D01*
X167000501Y-135528442D01*
X167000501Y-135520847D01*
X167000500Y-135520829D01*
X167000500Y-130981902D01*
X169407000Y-130981902D01*
X169407000Y-131218097D01*
X169443946Y-131451368D01*
X169516933Y-131675996D01*
X169580371Y-131800499D01*
X169624157Y-131886433D01*
X169762983Y-132077510D01*
X169929990Y-132244517D01*
X170121067Y-132383343D01*
X170148120Y-132397127D01*
X170331503Y-132490566D01*
X170331505Y-132490566D01*
X170331508Y-132490568D01*
X170451912Y-132529689D01*
X170556131Y-132563553D01*
X170789403Y-132600500D01*
X170789408Y-132600500D01*
X171025597Y-132600500D01*
X171258868Y-132563553D01*
X171483492Y-132490568D01*
X171693933Y-132383343D01*
X171885010Y-132244517D01*
X172052017Y-132077510D01*
X172190843Y-131886433D01*
X172298068Y-131675992D01*
X172371053Y-131451368D01*
X172408000Y-131218097D01*
X172408000Y-130981902D01*
X172371053Y-130748631D01*
X172298066Y-130524003D01*
X172190842Y-130313566D01*
X172052017Y-130122490D01*
X171885010Y-129955483D01*
X171693933Y-129816657D01*
X171693929Y-129816655D01*
X171483496Y-129709433D01*
X171258868Y-129636446D01*
X171025597Y-129599500D01*
X171025592Y-129599500D01*
X170789408Y-129599500D01*
X170789403Y-129599500D01*
X170556131Y-129636446D01*
X170331503Y-129709433D01*
X170121066Y-129816657D01*
X170012050Y-129895862D01*
X169929990Y-129955483D01*
X169929988Y-129955485D01*
X169929987Y-129955485D01*
X169762985Y-130122487D01*
X169762985Y-130122488D01*
X169762983Y-130122490D01*
X169703362Y-130204550D01*
X169624157Y-130313566D01*
X169516933Y-130524003D01*
X169443946Y-130748631D01*
X169407000Y-130981902D01*
X167000500Y-130981902D01*
X167000500Y-126481947D01*
X169407500Y-126481947D01*
X169407500Y-126718052D01*
X169444434Y-126951247D01*
X169517397Y-127175802D01*
X169624587Y-127386174D01*
X169684838Y-127469104D01*
X169684840Y-127469105D01*
X170383712Y-126770233D01*
X170394982Y-126812292D01*
X170467390Y-126937708D01*
X170569792Y-127040110D01*
X170695208Y-127112518D01*
X170737265Y-127123787D01*
X170038393Y-127822658D01*
X170121328Y-127882914D01*
X170331697Y-127990102D01*
X170556252Y-128063065D01*
X170556251Y-128063065D01*
X170789448Y-128100000D01*
X171025552Y-128100000D01*
X171258747Y-128063065D01*
X171483302Y-127990102D01*
X171693663Y-127882918D01*
X171693669Y-127882914D01*
X171776604Y-127822658D01*
X171776605Y-127822658D01*
X171077733Y-127123787D01*
X171119792Y-127112518D01*
X171245208Y-127040110D01*
X171347610Y-126937708D01*
X171420018Y-126812292D01*
X171431287Y-126770233D01*
X172130158Y-127469105D01*
X172130158Y-127469104D01*
X172190414Y-127386169D01*
X172190418Y-127386163D01*
X172297602Y-127175802D01*
X172370565Y-126951247D01*
X172407500Y-126718052D01*
X172407500Y-126481947D01*
X172370565Y-126248752D01*
X172297602Y-126024197D01*
X172190414Y-125813828D01*
X172130158Y-125730894D01*
X172130158Y-125730893D01*
X171431287Y-126429765D01*
X171420018Y-126387708D01*
X171347610Y-126262292D01*
X171245208Y-126159890D01*
X171119792Y-126087482D01*
X171077734Y-126076212D01*
X171776605Y-125377340D01*
X171776604Y-125377338D01*
X171693674Y-125317087D01*
X171483302Y-125209897D01*
X171258747Y-125136934D01*
X171258748Y-125136934D01*
X171025552Y-125100000D01*
X170789448Y-125100000D01*
X170556252Y-125136934D01*
X170331697Y-125209897D01*
X170121330Y-125317084D01*
X170038394Y-125377340D01*
X170737266Y-126076212D01*
X170695208Y-126087482D01*
X170569792Y-126159890D01*
X170467390Y-126262292D01*
X170394982Y-126387708D01*
X170383712Y-126429766D01*
X169684840Y-125730894D01*
X169624584Y-125813830D01*
X169517397Y-126024197D01*
X169444434Y-126248752D01*
X169407500Y-126481947D01*
X167000500Y-126481947D01*
X167000500Y-120981902D01*
X172907000Y-120981902D01*
X172907000Y-121218097D01*
X172943946Y-121451368D01*
X173016933Y-121675996D01*
X173034980Y-121711414D01*
X173124157Y-121886433D01*
X173262983Y-122077510D01*
X173429990Y-122244517D01*
X173621067Y-122383343D01*
X173720491Y-122434002D01*
X173831503Y-122490566D01*
X173831505Y-122490566D01*
X173831508Y-122490568D01*
X173951912Y-122529689D01*
X174056131Y-122563553D01*
X174289403Y-122600500D01*
X174289408Y-122600500D01*
X174525597Y-122600500D01*
X174758868Y-122563553D01*
X174983492Y-122490568D01*
X175193933Y-122383343D01*
X175385010Y-122244517D01*
X175552017Y-122077510D01*
X175690843Y-121886433D01*
X175798068Y-121675992D01*
X175871053Y-121451368D01*
X175908000Y-121218097D01*
X175908000Y-120981902D01*
X179407000Y-120981902D01*
X179407000Y-121218097D01*
X179443946Y-121451368D01*
X179516933Y-121675996D01*
X179534980Y-121711414D01*
X179624157Y-121886433D01*
X179762983Y-122077510D01*
X179929990Y-122244517D01*
X180121067Y-122383343D01*
X180220491Y-122434002D01*
X180331503Y-122490566D01*
X180331505Y-122490566D01*
X180331508Y-122490568D01*
X180451912Y-122529689D01*
X180556131Y-122563553D01*
X180789403Y-122600500D01*
X180789408Y-122600500D01*
X181025597Y-122600500D01*
X181258868Y-122563553D01*
X181483492Y-122490568D01*
X181693933Y-122383343D01*
X181885010Y-122244517D01*
X182052017Y-122077510D01*
X182190843Y-121886433D01*
X182298068Y-121675992D01*
X182371053Y-121451368D01*
X182408000Y-121218097D01*
X182408000Y-120981902D01*
X182371053Y-120748631D01*
X182309034Y-120557758D01*
X182298068Y-120524008D01*
X182298066Y-120524005D01*
X182298066Y-120524003D01*
X182190842Y-120313566D01*
X182166106Y-120279520D01*
X182052017Y-120122490D01*
X181885010Y-119955483D01*
X181693933Y-119816657D01*
X181693929Y-119816655D01*
X181483496Y-119709433D01*
X181258868Y-119636446D01*
X181025597Y-119599500D01*
X181025592Y-119599500D01*
X180789408Y-119599500D01*
X180789403Y-119599500D01*
X180556131Y-119636446D01*
X180331503Y-119709433D01*
X180121066Y-119816657D01*
X180036557Y-119878057D01*
X179929990Y-119955483D01*
X179929988Y-119955485D01*
X179929987Y-119955485D01*
X179762985Y-120122487D01*
X179762985Y-120122488D01*
X179762983Y-120122490D01*
X179730124Y-120167717D01*
X179624157Y-120313566D01*
X179516933Y-120524003D01*
X179443946Y-120748631D01*
X179407000Y-120981902D01*
X175908000Y-120981902D01*
X175871053Y-120748631D01*
X175809034Y-120557758D01*
X175798068Y-120524008D01*
X175798066Y-120524005D01*
X175798066Y-120524003D01*
X175690842Y-120313566D01*
X175666106Y-120279520D01*
X175552017Y-120122490D01*
X175385010Y-119955483D01*
X175193933Y-119816657D01*
X175193929Y-119816655D01*
X174983496Y-119709433D01*
X174758868Y-119636446D01*
X174525597Y-119599500D01*
X174525592Y-119599500D01*
X174289408Y-119599500D01*
X174289403Y-119599500D01*
X174056131Y-119636446D01*
X173831503Y-119709433D01*
X173621066Y-119816657D01*
X173536557Y-119878057D01*
X173429990Y-119955483D01*
X173429988Y-119955485D01*
X173429987Y-119955485D01*
X173262985Y-120122487D01*
X173262985Y-120122488D01*
X173262983Y-120122490D01*
X173230124Y-120167717D01*
X173124157Y-120313566D01*
X173016933Y-120524003D01*
X172943946Y-120748631D01*
X172907000Y-120981902D01*
X167000500Y-120981902D01*
X167000500Y-116481947D01*
X172907500Y-116481947D01*
X172907500Y-116718052D01*
X172944434Y-116951247D01*
X173017397Y-117175802D01*
X173124587Y-117386174D01*
X173184838Y-117469104D01*
X173184840Y-117469105D01*
X173883712Y-116770233D01*
X173894982Y-116812292D01*
X173967390Y-116937708D01*
X174069792Y-117040110D01*
X174195208Y-117112518D01*
X174237265Y-117123787D01*
X173538393Y-117822658D01*
X173621328Y-117882914D01*
X173831697Y-117990102D01*
X174056252Y-118063065D01*
X174056251Y-118063065D01*
X174289448Y-118100000D01*
X174525552Y-118100000D01*
X174758747Y-118063065D01*
X174983302Y-117990102D01*
X175193663Y-117882918D01*
X175193669Y-117882914D01*
X175276604Y-117822658D01*
X175276605Y-117822658D01*
X174577733Y-117123787D01*
X174619792Y-117112518D01*
X174745208Y-117040110D01*
X174847610Y-116937708D01*
X174920018Y-116812292D01*
X174931287Y-116770234D01*
X175630158Y-117469105D01*
X175630158Y-117469104D01*
X175690414Y-117386169D01*
X175690418Y-117386163D01*
X175797602Y-117175802D01*
X175870565Y-116951247D01*
X175907500Y-116718052D01*
X175907500Y-116481947D01*
X179407500Y-116481947D01*
X179407500Y-116718052D01*
X179444434Y-116951247D01*
X179517397Y-117175802D01*
X179624587Y-117386174D01*
X179684838Y-117469104D01*
X179684840Y-117469105D01*
X180383712Y-116770233D01*
X180394982Y-116812292D01*
X180467390Y-116937708D01*
X180569792Y-117040110D01*
X180695208Y-117112518D01*
X180737265Y-117123787D01*
X180038393Y-117822658D01*
X180121328Y-117882914D01*
X180331697Y-117990102D01*
X180556252Y-118063065D01*
X180556251Y-118063065D01*
X180789448Y-118100000D01*
X181025552Y-118100000D01*
X181258747Y-118063065D01*
X181483302Y-117990102D01*
X181693663Y-117882918D01*
X181693669Y-117882914D01*
X181776604Y-117822658D01*
X181776605Y-117822658D01*
X181077733Y-117123787D01*
X181119792Y-117112518D01*
X181245208Y-117040110D01*
X181347610Y-116937708D01*
X181420018Y-116812292D01*
X181431287Y-116770234D01*
X182130158Y-117469105D01*
X182130158Y-117469104D01*
X182190414Y-117386169D01*
X182190418Y-117386163D01*
X182297602Y-117175802D01*
X182370565Y-116951247D01*
X182407500Y-116718052D01*
X182407500Y-116481947D01*
X182370565Y-116248752D01*
X182297602Y-116024197D01*
X182190414Y-115813828D01*
X182130158Y-115730894D01*
X182130158Y-115730893D01*
X181431287Y-116429765D01*
X181420018Y-116387708D01*
X181347610Y-116262292D01*
X181245208Y-116159890D01*
X181119792Y-116087482D01*
X181077734Y-116076212D01*
X181776605Y-115377340D01*
X181776604Y-115377338D01*
X181693674Y-115317087D01*
X181483302Y-115209897D01*
X181258747Y-115136934D01*
X181258748Y-115136934D01*
X181025552Y-115100000D01*
X180789448Y-115100000D01*
X180556252Y-115136934D01*
X180331697Y-115209897D01*
X180121330Y-115317084D01*
X180038394Y-115377340D01*
X180737266Y-116076212D01*
X180695208Y-116087482D01*
X180569792Y-116159890D01*
X180467390Y-116262292D01*
X180394982Y-116387708D01*
X180383712Y-116429765D01*
X179684840Y-115730894D01*
X179624584Y-115813830D01*
X179517397Y-116024197D01*
X179444434Y-116248752D01*
X179407500Y-116481947D01*
X175907500Y-116481947D01*
X175870565Y-116248752D01*
X175797602Y-116024197D01*
X175690414Y-115813828D01*
X175630158Y-115730894D01*
X175630158Y-115730893D01*
X174931287Y-116429765D01*
X174920018Y-116387708D01*
X174847610Y-116262292D01*
X174745208Y-116159890D01*
X174619792Y-116087482D01*
X174577734Y-116076212D01*
X175276605Y-115377340D01*
X175276604Y-115377339D01*
X175193674Y-115317087D01*
X174983302Y-115209897D01*
X174758747Y-115136934D01*
X174758748Y-115136934D01*
X174525552Y-115100000D01*
X174289448Y-115100000D01*
X174056252Y-115136934D01*
X173831697Y-115209897D01*
X173621330Y-115317084D01*
X173538394Y-115377340D01*
X174237266Y-116076212D01*
X174195208Y-116087482D01*
X174069792Y-116159890D01*
X173967390Y-116262292D01*
X173894982Y-116387708D01*
X173883712Y-116429766D01*
X173184840Y-115730894D01*
X173124584Y-115813830D01*
X173017397Y-116024197D01*
X172944434Y-116248752D01*
X172907500Y-116481947D01*
X167000500Y-116481947D01*
X167000500Y-110981902D01*
X169407000Y-110981902D01*
X169407000Y-111218097D01*
X169443946Y-111451368D01*
X169516933Y-111675996D01*
X169624157Y-111886433D01*
X169762983Y-112077510D01*
X169929990Y-112244517D01*
X170121067Y-112383343D01*
X170207000Y-112427128D01*
X170331503Y-112490566D01*
X170331505Y-112490566D01*
X170331508Y-112490568D01*
X170451912Y-112529689D01*
X170556131Y-112563553D01*
X170789403Y-112600500D01*
X170789408Y-112600500D01*
X171025597Y-112600500D01*
X171258868Y-112563553D01*
X171483492Y-112490568D01*
X171693933Y-112383343D01*
X171885010Y-112244517D01*
X172052017Y-112077510D01*
X172190843Y-111886433D01*
X172298068Y-111675992D01*
X172371053Y-111451368D01*
X172408000Y-111218097D01*
X172408000Y-110981902D01*
X172371053Y-110748631D01*
X172307356Y-110552593D01*
X172298068Y-110524008D01*
X172298066Y-110524005D01*
X172298066Y-110524003D01*
X172190842Y-110313566D01*
X172052017Y-110122490D01*
X171885010Y-109955483D01*
X171693933Y-109816657D01*
X171483496Y-109709433D01*
X171258868Y-109636446D01*
X171025597Y-109599500D01*
X171025592Y-109599500D01*
X170789408Y-109599500D01*
X170789403Y-109599500D01*
X170556131Y-109636446D01*
X170331503Y-109709433D01*
X170121066Y-109816657D01*
X170012050Y-109895862D01*
X169929990Y-109955483D01*
X169929988Y-109955485D01*
X169929987Y-109955485D01*
X169762985Y-110122487D01*
X169762985Y-110122488D01*
X169762983Y-110122490D01*
X169703362Y-110204550D01*
X169624157Y-110313566D01*
X169516933Y-110524003D01*
X169443946Y-110748631D01*
X169407000Y-110981902D01*
X167000500Y-110981902D01*
X167000500Y-106481947D01*
X169407500Y-106481947D01*
X169407500Y-106718052D01*
X169444434Y-106951247D01*
X169517397Y-107175802D01*
X169624587Y-107386174D01*
X169684838Y-107469104D01*
X169684840Y-107469105D01*
X170383712Y-106770233D01*
X170394982Y-106812292D01*
X170467390Y-106937708D01*
X170569792Y-107040110D01*
X170695208Y-107112518D01*
X170737265Y-107123787D01*
X170038393Y-107822658D01*
X170121328Y-107882914D01*
X170331697Y-107990102D01*
X170556252Y-108063065D01*
X170556251Y-108063065D01*
X170789448Y-108100000D01*
X171025552Y-108100000D01*
X171258747Y-108063065D01*
X171483302Y-107990102D01*
X171693663Y-107882918D01*
X171693669Y-107882914D01*
X171776604Y-107822658D01*
X171776605Y-107822658D01*
X171077733Y-107123787D01*
X171119792Y-107112518D01*
X171245208Y-107040110D01*
X171347610Y-106937708D01*
X171420018Y-106812292D01*
X171431287Y-106770233D01*
X172130158Y-107469105D01*
X172130158Y-107469104D01*
X172190414Y-107386169D01*
X172190418Y-107386163D01*
X172297602Y-107175802D01*
X172370565Y-106951247D01*
X172407500Y-106718052D01*
X172407500Y-106481947D01*
X172370565Y-106248752D01*
X172297602Y-106024197D01*
X172190414Y-105813828D01*
X172130158Y-105730894D01*
X172130158Y-105730893D01*
X171431287Y-106429765D01*
X171420018Y-106387708D01*
X171347610Y-106262292D01*
X171245208Y-106159890D01*
X171119792Y-106087482D01*
X171077734Y-106076212D01*
X171776605Y-105377340D01*
X171776604Y-105377338D01*
X171693674Y-105317087D01*
X171483302Y-105209897D01*
X171258747Y-105136934D01*
X171258748Y-105136934D01*
X171025552Y-105100000D01*
X170789448Y-105100000D01*
X170556252Y-105136934D01*
X170331697Y-105209897D01*
X170121330Y-105317084D01*
X170038394Y-105377340D01*
X170737266Y-106076212D01*
X170695208Y-106087482D01*
X170569792Y-106159890D01*
X170467390Y-106262292D01*
X170394982Y-106387708D01*
X170383712Y-106429766D01*
X169684840Y-105730894D01*
X169624584Y-105813830D01*
X169517397Y-106024197D01*
X169444434Y-106248752D01*
X169407500Y-106481947D01*
X167000500Y-106481947D01*
X167000500Y-68489059D01*
X167000501Y-68489046D01*
X167000501Y-68320945D01*
X167000501Y-68320943D01*
X166959577Y-68168215D01*
X166915700Y-68092218D01*
X166880520Y-68031284D01*
X166768716Y-67919480D01*
X166768715Y-67919479D01*
X166764385Y-67915149D01*
X166764374Y-67915139D01*
X165636819Y-66787584D01*
X165603334Y-66726261D01*
X165600500Y-66699903D01*
X165600500Y-65308608D01*
X165620185Y-65241569D01*
X165672989Y-65195814D01*
X165742147Y-65185870D01*
X165780792Y-65198122D01*
X165848439Y-65232591D01*
X165975391Y-65273840D01*
X166036236Y-65293610D01*
X166231264Y-65324500D01*
X166231269Y-65324500D01*
X166428736Y-65324500D01*
X166623763Y-65293610D01*
X166626108Y-65292848D01*
X166811561Y-65232591D01*
X166987501Y-65142944D01*
X167097286Y-65063181D01*
X167147246Y-65026884D01*
X167147248Y-65026881D01*
X167147252Y-65026879D01*
X167286879Y-64887252D01*
X167286881Y-64887248D01*
X167286884Y-64887246D01*
X167343357Y-64809516D01*
X167402944Y-64727501D01*
X167492591Y-64551561D01*
X167553610Y-64363763D01*
X167562694Y-64306410D01*
X167584500Y-64168736D01*
X167584500Y-63971263D01*
X167553610Y-63776236D01*
X167521865Y-63678536D01*
X167492591Y-63588439D01*
X167402944Y-63412499D01*
X167377159Y-63377009D01*
X167286884Y-63252753D01*
X167147246Y-63113115D01*
X166987505Y-62997058D01*
X166981119Y-62993804D01*
X166817593Y-62910482D01*
X166766800Y-62862510D01*
X166750005Y-62794689D01*
X166772542Y-62728554D01*
X166817593Y-62689517D01*
X166987501Y-62602944D01*
X167023842Y-62576541D01*
X167147246Y-62486884D01*
X167147248Y-62486881D01*
X167147252Y-62486879D01*
X167286879Y-62347252D01*
X167286881Y-62347248D01*
X167286884Y-62347246D01*
X167343357Y-62269516D01*
X167402944Y-62187501D01*
X167492591Y-62011561D01*
X167553610Y-61823763D01*
X167555886Y-61809394D01*
X167584500Y-61628736D01*
X167584500Y-61431264D01*
X167569388Y-61335857D01*
X167578342Y-61266563D01*
X167623338Y-61213111D01*
X167690089Y-61192471D01*
X167757403Y-61211195D01*
X167779542Y-61228777D01*
X168363181Y-61812416D01*
X168396666Y-61873739D01*
X168399500Y-61900097D01*
X168399500Y-91605830D01*
X168399499Y-91605848D01*
X168399499Y-91771554D01*
X168399498Y-91771554D01*
X168440422Y-91924283D01*
X168464797Y-91966501D01*
X168464799Y-91966504D01*
X168519479Y-92061214D01*
X168519481Y-92061217D01*
X168638349Y-92180085D01*
X168638355Y-92180090D01*
X169954700Y-93496435D01*
X169988185Y-93557758D01*
X169984950Y-93622433D01*
X169943947Y-93748628D01*
X169907000Y-93981902D01*
X169907000Y-94218097D01*
X169943946Y-94451368D01*
X170016933Y-94675996D01*
X170124157Y-94886433D01*
X170262983Y-95077510D01*
X170429990Y-95244517D01*
X170621067Y-95383343D01*
X170707000Y-95427128D01*
X170831503Y-95490566D01*
X170831505Y-95490566D01*
X170831508Y-95490568D01*
X170951912Y-95529689D01*
X171056131Y-95563553D01*
X171289403Y-95600500D01*
X171289408Y-95600500D01*
X171525597Y-95600500D01*
X171758868Y-95563553D01*
X171789054Y-95553745D01*
X171983492Y-95490568D01*
X172193933Y-95383343D01*
X172385010Y-95244517D01*
X172552017Y-95077510D01*
X172690843Y-94886433D01*
X172798068Y-94675992D01*
X172871053Y-94451368D01*
X172908000Y-94218097D01*
X172908000Y-93981902D01*
X176407000Y-93981902D01*
X176407000Y-94218097D01*
X176443946Y-94451368D01*
X176516933Y-94675996D01*
X176624157Y-94886433D01*
X176762983Y-95077510D01*
X176929990Y-95244517D01*
X177121067Y-95383343D01*
X177207000Y-95427128D01*
X177331503Y-95490566D01*
X177331505Y-95490566D01*
X177331508Y-95490568D01*
X177451912Y-95529689D01*
X177556131Y-95563553D01*
X177789403Y-95600500D01*
X177789408Y-95600500D01*
X178025597Y-95600500D01*
X178258868Y-95563553D01*
X178289054Y-95553745D01*
X178483492Y-95490568D01*
X178693933Y-95383343D01*
X178885010Y-95244517D01*
X179052017Y-95077510D01*
X179190843Y-94886433D01*
X179298068Y-94675992D01*
X179371053Y-94451368D01*
X179408000Y-94218097D01*
X179408000Y-93981902D01*
X179371053Y-93748631D01*
X179307356Y-93552593D01*
X179298068Y-93524008D01*
X179298066Y-93524005D01*
X179298066Y-93524003D01*
X179190842Y-93313566D01*
X179052017Y-93122490D01*
X178885010Y-92955483D01*
X178693933Y-92816657D01*
X178483496Y-92709433D01*
X178258868Y-92636446D01*
X178025597Y-92599500D01*
X178025592Y-92599500D01*
X177789408Y-92599500D01*
X177789403Y-92599500D01*
X177556131Y-92636446D01*
X177331503Y-92709433D01*
X177121066Y-92816657D01*
X177012050Y-92895862D01*
X176929990Y-92955483D01*
X176929988Y-92955485D01*
X176929987Y-92955485D01*
X176762985Y-93122487D01*
X176762985Y-93122488D01*
X176762983Y-93122490D01*
X176703362Y-93204550D01*
X176624157Y-93313566D01*
X176516933Y-93524003D01*
X176443946Y-93748631D01*
X176407000Y-93981902D01*
X172908000Y-93981902D01*
X172871053Y-93748631D01*
X172807356Y-93552593D01*
X172798068Y-93524008D01*
X172798066Y-93524005D01*
X172798066Y-93524003D01*
X172690842Y-93313566D01*
X172552017Y-93122490D01*
X172385010Y-92955483D01*
X172193933Y-92816657D01*
X171983496Y-92709433D01*
X171758868Y-92636446D01*
X171525597Y-92599500D01*
X171525592Y-92599500D01*
X171289408Y-92599500D01*
X171289403Y-92599500D01*
X171056128Y-92636447D01*
X170929933Y-92677450D01*
X170860092Y-92679445D01*
X170803935Y-92647200D01*
X169636819Y-91480084D01*
X169603334Y-91418761D01*
X169600500Y-91392403D01*
X169600500Y-89481947D01*
X169907500Y-89481947D01*
X169907500Y-89718052D01*
X169944434Y-89951247D01*
X170017397Y-90175802D01*
X170124587Y-90386174D01*
X170184838Y-90469104D01*
X170184840Y-90469105D01*
X170883712Y-89770233D01*
X170894982Y-89812292D01*
X170967390Y-89937708D01*
X171069792Y-90040110D01*
X171195208Y-90112518D01*
X171237265Y-90123787D01*
X170538393Y-90822658D01*
X170621328Y-90882914D01*
X170831697Y-90990102D01*
X171056252Y-91063065D01*
X171056251Y-91063065D01*
X171289448Y-91100000D01*
X171525552Y-91100000D01*
X171758747Y-91063065D01*
X171983302Y-90990102D01*
X172193663Y-90882918D01*
X172193669Y-90882914D01*
X172276604Y-90822658D01*
X172276605Y-90822658D01*
X171577733Y-90123787D01*
X171619792Y-90112518D01*
X171745208Y-90040110D01*
X171847610Y-89937708D01*
X171920018Y-89812292D01*
X171931287Y-89770234D01*
X172630158Y-90469105D01*
X172630158Y-90469104D01*
X172690414Y-90386169D01*
X172690418Y-90386163D01*
X172797602Y-90175802D01*
X172870565Y-89951247D01*
X172907500Y-89718052D01*
X172907500Y-89481947D01*
X176407500Y-89481947D01*
X176407500Y-89718052D01*
X176444434Y-89951247D01*
X176517397Y-90175802D01*
X176624587Y-90386174D01*
X176684838Y-90469104D01*
X176684840Y-90469105D01*
X177383712Y-89770233D01*
X177394982Y-89812292D01*
X177467390Y-89937708D01*
X177569792Y-90040110D01*
X177695208Y-90112518D01*
X177737265Y-90123787D01*
X177038393Y-90822658D01*
X177121328Y-90882914D01*
X177331697Y-90990102D01*
X177556252Y-91063065D01*
X177556251Y-91063065D01*
X177789448Y-91100000D01*
X178025552Y-91100000D01*
X178258747Y-91063065D01*
X178483302Y-90990102D01*
X178693663Y-90882918D01*
X178693669Y-90882914D01*
X178776604Y-90822658D01*
X178776605Y-90822658D01*
X178077733Y-90123787D01*
X178119792Y-90112518D01*
X178245208Y-90040110D01*
X178347610Y-89937708D01*
X178420018Y-89812292D01*
X178431287Y-89770234D01*
X179130158Y-90469105D01*
X179130158Y-90469104D01*
X179190414Y-90386169D01*
X179190418Y-90386163D01*
X179297602Y-90175802D01*
X179370565Y-89951247D01*
X179407500Y-89718052D01*
X179407500Y-89481947D01*
X179370565Y-89248752D01*
X179297602Y-89024197D01*
X179190414Y-88813828D01*
X179130158Y-88730894D01*
X179130158Y-88730893D01*
X178431287Y-89429765D01*
X178420018Y-89387708D01*
X178347610Y-89262292D01*
X178245208Y-89159890D01*
X178119792Y-89087482D01*
X178077734Y-89076212D01*
X178776605Y-88377340D01*
X178776604Y-88377338D01*
X178693674Y-88317087D01*
X178483302Y-88209897D01*
X178258747Y-88136934D01*
X178258748Y-88136934D01*
X178025552Y-88100000D01*
X177789448Y-88100000D01*
X177556252Y-88136934D01*
X177331697Y-88209897D01*
X177121330Y-88317084D01*
X177038394Y-88377340D01*
X177737266Y-89076212D01*
X177695208Y-89087482D01*
X177569792Y-89159890D01*
X177467390Y-89262292D01*
X177394982Y-89387708D01*
X177383712Y-89429766D01*
X176684840Y-88730894D01*
X176624584Y-88813830D01*
X176517397Y-89024197D01*
X176444434Y-89248752D01*
X176407500Y-89481947D01*
X172907500Y-89481947D01*
X172870565Y-89248752D01*
X172797602Y-89024197D01*
X172690414Y-88813828D01*
X172630158Y-88730894D01*
X172630158Y-88730893D01*
X171931287Y-89429765D01*
X171920018Y-89387708D01*
X171847610Y-89262292D01*
X171745208Y-89159890D01*
X171619792Y-89087482D01*
X171577734Y-89076212D01*
X172276605Y-88377340D01*
X172276604Y-88377339D01*
X172193674Y-88317087D01*
X171983302Y-88209897D01*
X171758747Y-88136934D01*
X171758748Y-88136934D01*
X171525552Y-88100000D01*
X171289448Y-88100000D01*
X171056252Y-88136934D01*
X170831697Y-88209897D01*
X170621330Y-88317084D01*
X170538394Y-88377340D01*
X171237266Y-89076212D01*
X171195208Y-89087482D01*
X171069792Y-89159890D01*
X170967390Y-89262292D01*
X170894982Y-89387708D01*
X170883712Y-89429765D01*
X170184840Y-88730894D01*
X170124584Y-88813830D01*
X170017397Y-89024197D01*
X169944434Y-89248752D01*
X169907500Y-89481947D01*
X169600500Y-89481947D01*
X169600500Y-63745575D01*
X169620185Y-63678536D01*
X169672989Y-63632781D01*
X169742147Y-63622837D01*
X169805703Y-63651862D01*
X169824818Y-63672690D01*
X169960132Y-63858935D01*
X169960136Y-63858940D01*
X170141059Y-64039863D01*
X170141064Y-64039867D01*
X170317993Y-64168412D01*
X170348053Y-64190252D01*
X170490815Y-64262993D01*
X170576024Y-64306410D01*
X170576027Y-64306411D01*
X170697693Y-64345942D01*
X170819361Y-64385474D01*
X171072070Y-64425500D01*
X171072071Y-64425500D01*
X171327929Y-64425500D01*
X171327930Y-64425500D01*
X171580639Y-64385474D01*
X171823975Y-64306410D01*
X172051947Y-64190252D01*
X172258942Y-64039862D01*
X172439862Y-63858942D01*
X172590252Y-63651947D01*
X172706410Y-63423975D01*
X172785474Y-63180639D01*
X172825500Y-62927930D01*
X172825500Y-62672070D01*
X172785474Y-62419361D01*
X172735335Y-62265048D01*
X172706411Y-62176027D01*
X172706410Y-62176024D01*
X172666185Y-62097080D01*
X172590252Y-61948053D01*
X172543390Y-61883553D01*
X172439867Y-61741064D01*
X172439863Y-61741059D01*
X172258940Y-61560136D01*
X172258935Y-61560132D01*
X172051950Y-61409750D01*
X172051949Y-61409749D01*
X172051947Y-61409748D01*
X171970436Y-61368216D01*
X171823975Y-61293589D01*
X171823972Y-61293588D01*
X171580640Y-61214526D01*
X171441392Y-61192471D01*
X171327930Y-61174500D01*
X171072070Y-61174500D01*
X170987833Y-61187842D01*
X170819359Y-61214526D01*
X170576027Y-61293588D01*
X170576024Y-61293589D01*
X170348049Y-61409750D01*
X170141064Y-61560132D01*
X170141059Y-61560136D01*
X169960136Y-61741059D01*
X169960132Y-61741064D01*
X169824818Y-61927309D01*
X169769488Y-61969975D01*
X169699875Y-61975954D01*
X169638080Y-61943348D01*
X169603723Y-61882510D01*
X169600500Y-61854424D01*
X169600500Y-61520945D01*
X169600500Y-61520943D01*
X169559577Y-61368216D01*
X169540895Y-61335857D01*
X169480524Y-61231290D01*
X169480521Y-61231286D01*
X169480520Y-61231284D01*
X169368716Y-61119480D01*
X169368715Y-61119479D01*
X169364385Y-61115149D01*
X169364374Y-61115139D01*
X167631416Y-59382181D01*
X167597931Y-59320858D01*
X167602915Y-59251166D01*
X167644787Y-59195233D01*
X167710251Y-59170816D01*
X167719097Y-59170500D01*
X174960914Y-59170500D01*
X175027953Y-59190185D01*
X175073708Y-59242989D01*
X175083652Y-59312147D01*
X175082532Y-59318690D01*
X175082240Y-59320158D01*
X175082240Y-59477846D01*
X175113001Y-59632489D01*
X175113004Y-59632501D01*
X175173342Y-59778172D01*
X175173349Y-59778185D01*
X175261342Y-59909874D01*
X175282220Y-59976551D01*
X175282240Y-59978765D01*
X175282240Y-79467162D01*
X175262555Y-79534201D01*
X175245921Y-79554843D01*
X172837583Y-81963181D01*
X172776260Y-81996666D01*
X172749902Y-81999500D01*
X172551457Y-81999500D01*
X172358170Y-82037947D01*
X172358160Y-82037950D01*
X172176092Y-82113364D01*
X172176079Y-82113371D01*
X172012218Y-82222860D01*
X172012214Y-82222863D01*
X171872863Y-82362214D01*
X171872860Y-82362218D01*
X171763371Y-82526079D01*
X171763364Y-82526092D01*
X171687950Y-82708160D01*
X171687947Y-82708170D01*
X171649500Y-82901456D01*
X171649500Y-82901459D01*
X171649500Y-83098541D01*
X171649500Y-83098543D01*
X171649499Y-83098543D01*
X171687947Y-83291829D01*
X171687950Y-83291839D01*
X171763364Y-83473907D01*
X171763371Y-83473920D01*
X171872860Y-83637781D01*
X171872863Y-83637785D01*
X172012214Y-83777136D01*
X172012218Y-83777139D01*
X172176079Y-83886628D01*
X172176092Y-83886635D01*
X172358160Y-83962049D01*
X172358165Y-83962051D01*
X172358169Y-83962051D01*
X172358170Y-83962052D01*
X172551456Y-84000500D01*
X172551459Y-84000500D01*
X172748543Y-84000500D01*
X172878582Y-83974632D01*
X172941835Y-83962051D01*
X173123914Y-83886632D01*
X173287782Y-83777139D01*
X173427139Y-83637782D01*
X173536632Y-83473914D01*
X173612051Y-83291835D01*
X173650500Y-83098541D01*
X173650500Y-82901459D01*
X173650500Y-82900096D01*
X173670185Y-82833057D01*
X173686819Y-82812415D01*
X174301285Y-82197949D01*
X176363260Y-80135976D01*
X176442317Y-79999044D01*
X176483241Y-79846317D01*
X176483241Y-79688202D01*
X176483241Y-79680607D01*
X176483240Y-79680589D01*
X176483240Y-59978765D01*
X176502925Y-59911726D01*
X176504138Y-59909874D01*
X176592130Y-59778185D01*
X176592130Y-59778184D01*
X176592134Y-59778179D01*
X176652477Y-59632497D01*
X176683240Y-59477842D01*
X176683240Y-59320158D01*
X176682948Y-59318690D01*
X176683018Y-59317904D01*
X176682643Y-59314093D01*
X176683365Y-59314021D01*
X176689177Y-59249098D01*
X176732041Y-59193921D01*
X176797931Y-59170678D01*
X176804566Y-59170500D01*
X181908403Y-59170500D01*
X181975442Y-59190185D01*
X182021197Y-59242989D01*
X182031141Y-59312147D01*
X182002116Y-59375703D01*
X181996084Y-59382181D01*
X178712181Y-62666084D01*
X178650858Y-62699569D01*
X178581166Y-62694585D01*
X178525233Y-62652713D01*
X178500816Y-62587249D01*
X178500500Y-62578403D01*
X178500500Y-62100097D01*
X178509143Y-62070660D01*
X178515667Y-62040671D01*
X178519422Y-62035653D01*
X178520185Y-62033058D01*
X178536813Y-62012421D01*
X178614663Y-61934571D01*
X178675982Y-61901089D01*
X178678150Y-61900638D01*
X178736425Y-61889046D01*
X178833497Y-61869737D01*
X178979179Y-61809394D01*
X179110289Y-61721789D01*
X179221789Y-61610289D01*
X179309394Y-61479179D01*
X179369737Y-61333497D01*
X179400500Y-61178842D01*
X179400500Y-61021158D01*
X179400500Y-61021155D01*
X179400499Y-61021153D01*
X179395254Y-60994786D01*
X179369737Y-60866503D01*
X179322092Y-60751476D01*
X179309397Y-60720827D01*
X179309390Y-60720814D01*
X179221789Y-60589711D01*
X179221786Y-60589707D01*
X179110292Y-60478213D01*
X179110288Y-60478210D01*
X178979185Y-60390609D01*
X178979172Y-60390602D01*
X178833501Y-60330264D01*
X178833489Y-60330261D01*
X178678845Y-60299500D01*
X178678842Y-60299500D01*
X178521158Y-60299500D01*
X178521155Y-60299500D01*
X178366510Y-60330261D01*
X178366498Y-60330264D01*
X178220827Y-60390602D01*
X178220814Y-60390609D01*
X178089711Y-60478210D01*
X178089707Y-60478213D01*
X177978213Y-60589707D01*
X177978210Y-60589711D01*
X177890609Y-60720814D01*
X177890602Y-60720827D01*
X177830264Y-60866498D01*
X177830261Y-60866508D01*
X177799361Y-61021850D01*
X177766976Y-61083761D01*
X177765425Y-61085339D01*
X177419481Y-61431282D01*
X177419480Y-61431284D01*
X177371338Y-61514669D01*
X177340423Y-61568215D01*
X177299499Y-61720943D01*
X177299499Y-61720945D01*
X177299499Y-61889046D01*
X177299500Y-61889059D01*
X177299500Y-80499902D01*
X177279815Y-80566941D01*
X177263181Y-80587583D01*
X175887583Y-81963181D01*
X175826260Y-81996666D01*
X175799902Y-81999500D01*
X175601457Y-81999500D01*
X175408170Y-82037947D01*
X175408160Y-82037950D01*
X175226092Y-82113364D01*
X175226079Y-82113371D01*
X175062218Y-82222860D01*
X175062214Y-82222863D01*
X174922863Y-82362214D01*
X174922860Y-82362218D01*
X174813371Y-82526079D01*
X174813364Y-82526092D01*
X174737950Y-82708160D01*
X174737947Y-82708170D01*
X174699500Y-82901456D01*
X174699500Y-82901459D01*
X174699500Y-83098541D01*
X174699500Y-83098543D01*
X174699499Y-83098543D01*
X174737947Y-83291829D01*
X174737950Y-83291839D01*
X174813364Y-83473907D01*
X174813371Y-83473920D01*
X174922860Y-83637781D01*
X174922863Y-83637785D01*
X175062214Y-83777136D01*
X175062218Y-83777139D01*
X175226079Y-83886628D01*
X175226092Y-83886635D01*
X175408160Y-83962049D01*
X175408165Y-83962051D01*
X175408169Y-83962051D01*
X175408170Y-83962052D01*
X175601456Y-84000500D01*
X175601459Y-84000500D01*
X175798543Y-84000500D01*
X175928582Y-83974632D01*
X175991835Y-83962051D01*
X176173914Y-83886632D01*
X176337782Y-83777139D01*
X176477139Y-83637782D01*
X176586632Y-83473914D01*
X176662051Y-83291835D01*
X176700500Y-83098541D01*
X176700500Y-82901459D01*
X176700500Y-82900096D01*
X176720185Y-82833057D01*
X176736819Y-82812415D01*
X177415018Y-82134216D01*
X177937820Y-81611413D01*
X177999142Y-81577930D01*
X178068834Y-81582914D01*
X178124767Y-81624786D01*
X178149184Y-81690250D01*
X178149500Y-81699096D01*
X178149500Y-82134216D01*
X178129815Y-82201255D01*
X178113181Y-82221897D01*
X177972863Y-82362214D01*
X177972860Y-82362218D01*
X177863371Y-82526079D01*
X177863364Y-82526092D01*
X177787950Y-82708160D01*
X177787947Y-82708170D01*
X177749500Y-82901456D01*
X177749500Y-82901459D01*
X177749500Y-83098541D01*
X177749500Y-83098543D01*
X177749499Y-83098543D01*
X177787947Y-83291829D01*
X177787950Y-83291839D01*
X177863364Y-83473907D01*
X177863371Y-83473920D01*
X177972860Y-83637781D01*
X177972863Y-83637785D01*
X178112214Y-83777136D01*
X178112218Y-83777139D01*
X178276079Y-83886628D01*
X178276092Y-83886635D01*
X178458160Y-83962049D01*
X178458165Y-83962051D01*
X178458169Y-83962051D01*
X178458170Y-83962052D01*
X178651456Y-84000500D01*
X178651459Y-84000500D01*
X178848543Y-84000500D01*
X178978582Y-83974632D01*
X179041835Y-83962051D01*
X179223914Y-83886632D01*
X179387782Y-83777139D01*
X179527139Y-83637782D01*
X179636632Y-83473914D01*
X179712051Y-83291835D01*
X179750500Y-83098541D01*
X179750500Y-82901459D01*
X179750500Y-82901456D01*
X179712052Y-82708170D01*
X179712051Y-82708169D01*
X179712051Y-82708165D01*
X179712049Y-82708160D01*
X179636635Y-82526092D01*
X179636628Y-82526079D01*
X179527139Y-82362218D01*
X179527136Y-82362214D01*
X179386819Y-82221897D01*
X179353334Y-82160574D01*
X179350500Y-82134216D01*
X179350500Y-63777596D01*
X179370185Y-63710557D01*
X179386814Y-63689920D01*
X182095319Y-60981414D01*
X182156642Y-60947930D01*
X182226334Y-60952914D01*
X182282267Y-60994786D01*
X182306684Y-61060250D01*
X182307000Y-61069096D01*
X182307000Y-61216286D01*
X182337641Y-61409750D01*
X182340254Y-61426243D01*
X182400055Y-61610292D01*
X182405944Y-61628414D01*
X182502451Y-61817820D01*
X182627390Y-61989786D01*
X182777713Y-62140109D01*
X182949682Y-62265050D01*
X182958446Y-62269516D01*
X183009242Y-62317491D01*
X183026036Y-62385312D01*
X183003498Y-62451447D01*
X182958446Y-62490484D01*
X182949682Y-62494949D01*
X182777713Y-62619890D01*
X182627390Y-62770213D01*
X182502451Y-62942179D01*
X182405944Y-63131585D01*
X182340253Y-63333760D01*
X182307000Y-63543713D01*
X182307000Y-63756287D01*
X182340254Y-63966243D01*
X182373967Y-64070001D01*
X182405944Y-64168414D01*
X182502451Y-64357820D01*
X182627390Y-64529786D01*
X182777713Y-64680109D01*
X182949682Y-64805050D01*
X182958446Y-64809516D01*
X183009242Y-64857491D01*
X183026036Y-64925312D01*
X183003498Y-64991447D01*
X182958446Y-65030484D01*
X182949682Y-65034949D01*
X182777713Y-65159890D01*
X182627390Y-65310213D01*
X182502451Y-65482179D01*
X182405944Y-65671585D01*
X182340253Y-65873760D01*
X182310063Y-66064374D01*
X182307000Y-66083713D01*
X182307000Y-66296287D01*
X182307667Y-66300499D01*
X182334471Y-66469735D01*
X182340254Y-66506243D01*
X182403178Y-66699903D01*
X182405944Y-66708414D01*
X182502451Y-66897820D01*
X182627390Y-67069786D01*
X182777713Y-67220109D01*
X182949682Y-67345050D01*
X182958446Y-67349516D01*
X183009242Y-67397491D01*
X183026036Y-67465312D01*
X183003498Y-67531447D01*
X182958446Y-67570484D01*
X182949682Y-67574949D01*
X182777713Y-67699890D01*
X182627390Y-67850213D01*
X182502451Y-68022179D01*
X182405944Y-68211585D01*
X182340253Y-68413760D01*
X182307000Y-68623713D01*
X182307000Y-68836286D01*
X182340253Y-69046239D01*
X182405944Y-69248414D01*
X182502451Y-69437820D01*
X182627390Y-69609786D01*
X182777713Y-69760109D01*
X182949682Y-69885050D01*
X182958446Y-69889516D01*
X183009242Y-69937491D01*
X183026036Y-70005312D01*
X183003498Y-70071447D01*
X182958446Y-70110484D01*
X182949682Y-70114949D01*
X182777713Y-70239890D01*
X182627390Y-70390213D01*
X182502451Y-70562179D01*
X182405944Y-70751585D01*
X182340253Y-70953760D01*
X182307000Y-71163713D01*
X182307000Y-71376287D01*
X182340254Y-71586243D01*
X182388972Y-71736182D01*
X182405944Y-71788414D01*
X182502451Y-71977820D01*
X182627390Y-72149786D01*
X182777713Y-72300109D01*
X182949682Y-72425050D01*
X182958446Y-72429516D01*
X183009242Y-72477491D01*
X183026036Y-72545312D01*
X183003498Y-72611447D01*
X182958446Y-72650484D01*
X182949682Y-72654949D01*
X182777713Y-72779890D01*
X182627390Y-72930213D01*
X182502451Y-73102179D01*
X182405944Y-73291585D01*
X182340253Y-73493760D01*
X182325057Y-73589707D01*
X182307000Y-73703713D01*
X182307000Y-73916287D01*
X182340254Y-74126243D01*
X182345504Y-74142402D01*
X182405944Y-74328414D01*
X182502451Y-74517820D01*
X182627390Y-74689786D01*
X182740930Y-74803326D01*
X182774415Y-74864649D01*
X182769431Y-74934341D01*
X182727559Y-74990274D01*
X182696583Y-75007189D01*
X182565169Y-75056203D01*
X182565164Y-75056206D01*
X182449955Y-75142452D01*
X182449952Y-75142455D01*
X182363706Y-75257664D01*
X182363702Y-75257671D01*
X182313408Y-75392517D01*
X182307001Y-75452116D01*
X182307001Y-75452123D01*
X182307000Y-75452135D01*
X182307000Y-77247870D01*
X182307001Y-77247876D01*
X182313408Y-77307483D01*
X182363702Y-77442328D01*
X182363706Y-77442335D01*
X182449952Y-77557544D01*
X182449955Y-77557547D01*
X182565164Y-77643793D01*
X182565171Y-77643797D01*
X182700017Y-77694091D01*
X182700016Y-77694091D01*
X182706944Y-77694835D01*
X182759627Y-77700500D01*
X184555372Y-77700499D01*
X184614983Y-77694091D01*
X184749831Y-77643796D01*
X184865046Y-77557546D01*
X184951296Y-77442331D01*
X185001591Y-77307483D01*
X185008000Y-77247873D01*
X185007999Y-75452128D01*
X185001591Y-75392517D01*
X184997575Y-75381750D01*
X184951297Y-75257671D01*
X184951293Y-75257664D01*
X184865047Y-75142455D01*
X184865044Y-75142452D01*
X184749835Y-75056206D01*
X184749828Y-75056202D01*
X184618417Y-75007189D01*
X184562483Y-74965318D01*
X184538066Y-74899853D01*
X184552918Y-74831580D01*
X184574063Y-74803332D01*
X184687604Y-74689792D01*
X184812551Y-74517816D01*
X184909057Y-74328412D01*
X184974746Y-74126243D01*
X185008000Y-73916287D01*
X185008000Y-73703713D01*
X184974746Y-73493757D01*
X184909057Y-73291588D01*
X184812551Y-73102184D01*
X184812549Y-73102181D01*
X184812548Y-73102179D01*
X184687609Y-72930213D01*
X184537286Y-72779890D01*
X184365320Y-72654951D01*
X184364615Y-72654591D01*
X184356554Y-72650485D01*
X184305759Y-72602512D01*
X184288963Y-72534692D01*
X184311499Y-72468556D01*
X184356554Y-72429515D01*
X184365316Y-72425051D01*
X184387289Y-72409086D01*
X184537286Y-72300109D01*
X184537288Y-72300106D01*
X184537292Y-72300104D01*
X184687604Y-72149792D01*
X184687606Y-72149788D01*
X184687609Y-72149786D01*
X184812548Y-71977820D01*
X184812547Y-71977820D01*
X184812551Y-71977816D01*
X184909057Y-71788412D01*
X184974746Y-71586243D01*
X185008000Y-71376287D01*
X185008000Y-71163713D01*
X184974746Y-70953757D01*
X184909057Y-70751588D01*
X184812551Y-70562184D01*
X184812549Y-70562181D01*
X184812548Y-70562179D01*
X184687609Y-70390213D01*
X184537286Y-70239890D01*
X184365320Y-70114951D01*
X184364615Y-70114591D01*
X184356554Y-70110485D01*
X184305759Y-70062512D01*
X184288963Y-69994692D01*
X184311499Y-69928556D01*
X184356554Y-69889515D01*
X184365316Y-69885051D01*
X184387289Y-69869086D01*
X184537286Y-69760109D01*
X184537288Y-69760106D01*
X184537292Y-69760104D01*
X184687604Y-69609792D01*
X184687606Y-69609788D01*
X184687609Y-69609786D01*
X184812548Y-69437820D01*
X184812547Y-69437820D01*
X184812551Y-69437816D01*
X184909057Y-69248412D01*
X184974746Y-69046243D01*
X185008000Y-68836287D01*
X185008000Y-68623713D01*
X184974746Y-68413757D01*
X184909057Y-68211588D01*
X184812551Y-68022184D01*
X184812549Y-68022181D01*
X184812548Y-68022179D01*
X184687609Y-67850213D01*
X184537286Y-67699890D01*
X184365320Y-67574951D01*
X184364615Y-67574591D01*
X184356554Y-67570485D01*
X184305759Y-67522512D01*
X184288963Y-67454692D01*
X184311499Y-67388556D01*
X184356554Y-67349515D01*
X184365316Y-67345051D01*
X184387289Y-67329086D01*
X184537286Y-67220109D01*
X184537288Y-67220106D01*
X184537292Y-67220104D01*
X184687604Y-67069792D01*
X184687606Y-67069788D01*
X184687609Y-67069786D01*
X184812548Y-66897820D01*
X184812547Y-66897820D01*
X184812551Y-66897816D01*
X184909057Y-66708412D01*
X184974746Y-66506243D01*
X185008000Y-66296287D01*
X185008000Y-66083713D01*
X184974746Y-65873757D01*
X184909057Y-65671588D01*
X184812551Y-65482184D01*
X184812549Y-65482181D01*
X184812548Y-65482179D01*
X184687609Y-65310213D01*
X184537286Y-65159890D01*
X184365320Y-65034951D01*
X184364615Y-65034591D01*
X184356554Y-65030485D01*
X184305759Y-64982512D01*
X184288963Y-64914692D01*
X184311499Y-64848556D01*
X184356554Y-64809515D01*
X184365316Y-64805051D01*
X184423211Y-64762988D01*
X184537286Y-64680109D01*
X184537288Y-64680106D01*
X184537292Y-64680104D01*
X184687604Y-64529792D01*
X184687606Y-64529788D01*
X184687609Y-64529786D01*
X184812548Y-64357820D01*
X184812547Y-64357820D01*
X184812551Y-64357816D01*
X184909057Y-64168412D01*
X184974746Y-63966243D01*
X185008000Y-63756287D01*
X185008000Y-63543713D01*
X184974746Y-63333757D01*
X184909057Y-63131588D01*
X184812551Y-62942184D01*
X184812549Y-62942181D01*
X184812548Y-62942179D01*
X184687609Y-62770213D01*
X184537286Y-62619890D01*
X184365320Y-62494951D01*
X184364615Y-62494591D01*
X184356554Y-62490485D01*
X184305759Y-62442512D01*
X184288963Y-62374692D01*
X184311499Y-62308556D01*
X184356554Y-62269515D01*
X184365316Y-62265051D01*
X184441724Y-62209538D01*
X184537286Y-62140109D01*
X184537288Y-62140106D01*
X184537292Y-62140104D01*
X184687604Y-61989792D01*
X184687606Y-61989788D01*
X184687609Y-61989786D01*
X184812548Y-61817820D01*
X184812547Y-61817820D01*
X184812551Y-61817816D01*
X184909057Y-61628412D01*
X184974746Y-61426243D01*
X185008000Y-61216287D01*
X185008000Y-61003713D01*
X184974746Y-60793757D01*
X184961006Y-60751473D01*
X184960572Y-60736262D01*
X184955254Y-60722003D01*
X184959595Y-60702047D01*
X184959012Y-60681635D01*
X184967099Y-60667548D01*
X184970106Y-60653730D01*
X184991254Y-60625479D01*
X185167006Y-60449728D01*
X185167011Y-60449724D01*
X185177214Y-60439520D01*
X185177216Y-60439520D01*
X185289020Y-60327716D01*
X185337806Y-60243215D01*
X185363043Y-60199504D01*
X185363942Y-60197945D01*
X185368077Y-60190785D01*
X185409001Y-60038057D01*
X185409001Y-60038046D01*
X185410061Y-60030004D01*
X185438329Y-59966108D01*
X185496654Y-59927638D01*
X185566519Y-59926808D01*
X185625742Y-59963882D01*
X185655520Y-60027088D01*
X185657000Y-60046192D01*
X185657000Y-76814000D01*
X185513144Y-119683203D01*
X185400584Y-153225916D01*
X185380675Y-153292889D01*
X185327718Y-153338467D01*
X185276585Y-153349500D01*
X179253961Y-153349500D01*
X179252942Y-153349496D01*
X100323294Y-152701012D01*
X100256419Y-152680777D01*
X100211099Y-152627599D01*
X100200313Y-152576703D01*
X100217094Y-145981902D01*
X127907000Y-145981902D01*
X127907000Y-146218097D01*
X127943946Y-146451368D01*
X128016933Y-146675996D01*
X128124157Y-146886433D01*
X128262983Y-147077510D01*
X128429990Y-147244517D01*
X128621067Y-147383343D01*
X128720491Y-147434002D01*
X128831503Y-147490566D01*
X128831505Y-147490566D01*
X128831508Y-147490568D01*
X128951912Y-147529689D01*
X129056131Y-147563553D01*
X129289403Y-147600500D01*
X129289408Y-147600500D01*
X129525597Y-147600500D01*
X129758868Y-147563553D01*
X129983492Y-147490568D01*
X130193933Y-147383343D01*
X130385010Y-147244517D01*
X130552017Y-147077510D01*
X130690843Y-146886433D01*
X130798068Y-146675992D01*
X130871053Y-146451368D01*
X130908000Y-146218097D01*
X130908000Y-145981902D01*
X130871053Y-145748631D01*
X130807356Y-145552593D01*
X130798068Y-145524008D01*
X130798066Y-145524005D01*
X130798066Y-145524003D01*
X130690842Y-145313566D01*
X130552017Y-145122490D01*
X130385010Y-144955483D01*
X130193933Y-144816657D01*
X129983496Y-144709433D01*
X129758868Y-144636446D01*
X129525597Y-144599500D01*
X129525592Y-144599500D01*
X129289408Y-144599500D01*
X129289403Y-144599500D01*
X129056131Y-144636446D01*
X128831503Y-144709433D01*
X128621066Y-144816657D01*
X128512050Y-144895862D01*
X128429990Y-144955483D01*
X128429988Y-144955485D01*
X128429987Y-144955485D01*
X128262985Y-145122487D01*
X128262985Y-145122488D01*
X128262983Y-145122490D01*
X128203362Y-145204550D01*
X128124157Y-145313566D01*
X128016933Y-145524003D01*
X127943946Y-145748631D01*
X127907000Y-145981902D01*
X100217094Y-145981902D01*
X100228544Y-141481947D01*
X127907500Y-141481947D01*
X127907500Y-141718052D01*
X127944434Y-141951247D01*
X128017397Y-142175802D01*
X128124587Y-142386174D01*
X128184838Y-142469104D01*
X128184840Y-142469105D01*
X128883712Y-141770233D01*
X128894982Y-141812292D01*
X128967390Y-141937708D01*
X129069792Y-142040110D01*
X129195208Y-142112518D01*
X129237265Y-142123787D01*
X128538393Y-142822658D01*
X128621328Y-142882914D01*
X128831697Y-142990102D01*
X129056252Y-143063065D01*
X129056251Y-143063065D01*
X129289448Y-143100000D01*
X129525552Y-143100000D01*
X129758747Y-143063065D01*
X129983302Y-142990102D01*
X130193663Y-142882918D01*
X130193669Y-142882914D01*
X130276604Y-142822658D01*
X130276605Y-142822658D01*
X129577733Y-142123787D01*
X129619792Y-142112518D01*
X129745208Y-142040110D01*
X129847610Y-141937708D01*
X129920018Y-141812292D01*
X129931287Y-141770234D01*
X130630158Y-142469105D01*
X130630158Y-142469104D01*
X130690414Y-142386169D01*
X130690418Y-142386163D01*
X130797602Y-142175802D01*
X130870565Y-141951247D01*
X130907500Y-141718052D01*
X130907500Y-141481947D01*
X134407500Y-141481947D01*
X134407500Y-141718052D01*
X134444434Y-141951247D01*
X134517397Y-142175802D01*
X134624587Y-142386174D01*
X134684838Y-142469104D01*
X134684840Y-142469105D01*
X135383712Y-141770233D01*
X135394982Y-141812292D01*
X135467390Y-141937708D01*
X135569792Y-142040110D01*
X135695208Y-142112518D01*
X135737265Y-142123787D01*
X135038393Y-142822658D01*
X135121328Y-142882914D01*
X135331697Y-142990102D01*
X135556252Y-143063065D01*
X135556251Y-143063065D01*
X135789448Y-143100000D01*
X136025552Y-143100000D01*
X136258747Y-143063065D01*
X136483302Y-142990102D01*
X136693663Y-142882918D01*
X136693669Y-142882914D01*
X136776604Y-142822658D01*
X136776605Y-142822658D01*
X136077733Y-142123787D01*
X136119792Y-142112518D01*
X136245208Y-142040110D01*
X136347610Y-141937708D01*
X136420018Y-141812292D01*
X136431287Y-141770234D01*
X137130158Y-142469105D01*
X137130158Y-142469104D01*
X137190414Y-142386169D01*
X137190418Y-142386163D01*
X137297602Y-142175802D01*
X137370565Y-141951247D01*
X137407500Y-141718052D01*
X137407500Y-141481947D01*
X137370565Y-141248752D01*
X137297602Y-141024197D01*
X137190414Y-140813828D01*
X137130158Y-140730894D01*
X137130158Y-140730893D01*
X136431287Y-141429765D01*
X136420018Y-141387708D01*
X136347610Y-141262292D01*
X136245208Y-141159890D01*
X136119792Y-141087482D01*
X136077734Y-141076212D01*
X136776605Y-140377340D01*
X136776604Y-140377338D01*
X136693674Y-140317087D01*
X136483302Y-140209897D01*
X136258747Y-140136934D01*
X136258748Y-140136934D01*
X136025552Y-140100000D01*
X135789448Y-140100000D01*
X135556252Y-140136934D01*
X135331697Y-140209897D01*
X135121330Y-140317084D01*
X135038394Y-140377340D01*
X135737266Y-141076212D01*
X135695208Y-141087482D01*
X135569792Y-141159890D01*
X135467390Y-141262292D01*
X135394982Y-141387708D01*
X135383712Y-141429766D01*
X134684840Y-140730894D01*
X134624584Y-140813830D01*
X134517397Y-141024197D01*
X134444434Y-141248752D01*
X134407500Y-141481947D01*
X130907500Y-141481947D01*
X130870565Y-141248752D01*
X130797602Y-141024197D01*
X130690414Y-140813828D01*
X130630158Y-140730894D01*
X130630158Y-140730893D01*
X129931287Y-141429765D01*
X129920018Y-141387708D01*
X129847610Y-141262292D01*
X129745208Y-141159890D01*
X129619792Y-141087482D01*
X129577734Y-141076212D01*
X130276605Y-140377340D01*
X130276604Y-140377339D01*
X130193674Y-140317087D01*
X129983302Y-140209897D01*
X129758747Y-140136934D01*
X129758748Y-140136934D01*
X129525552Y-140100000D01*
X129289448Y-140100000D01*
X129056252Y-140136934D01*
X128831697Y-140209897D01*
X128621330Y-140317084D01*
X128538394Y-140377340D01*
X129237266Y-141076212D01*
X129195208Y-141087482D01*
X129069792Y-141159890D01*
X128967390Y-141262292D01*
X128894982Y-141387708D01*
X128883712Y-141429766D01*
X128184840Y-140730894D01*
X128124584Y-140813830D01*
X128017397Y-141024197D01*
X127944434Y-141248752D01*
X127907500Y-141481947D01*
X100228544Y-141481947D01*
X100255262Y-130981902D01*
X112907000Y-130981902D01*
X112907000Y-131218097D01*
X112943946Y-131451368D01*
X113016933Y-131675996D01*
X113080371Y-131800499D01*
X113124157Y-131886433D01*
X113262983Y-132077510D01*
X113429990Y-132244517D01*
X113621067Y-132383343D01*
X113648120Y-132397127D01*
X113831503Y-132490566D01*
X113831505Y-132490566D01*
X113831508Y-132490568D01*
X113951912Y-132529689D01*
X114056131Y-132563553D01*
X114289403Y-132600500D01*
X114289408Y-132600500D01*
X114525597Y-132600500D01*
X114758868Y-132563553D01*
X114983492Y-132490568D01*
X115193933Y-132383343D01*
X115385010Y-132244517D01*
X115552017Y-132077510D01*
X115690843Y-131886433D01*
X115798068Y-131675992D01*
X115871053Y-131451368D01*
X115908000Y-131218097D01*
X115908000Y-130981902D01*
X119407000Y-130981902D01*
X119407000Y-131218097D01*
X119443946Y-131451368D01*
X119516933Y-131675996D01*
X119580371Y-131800499D01*
X119624157Y-131886433D01*
X119762983Y-132077510D01*
X119929990Y-132244517D01*
X120121067Y-132383343D01*
X120148120Y-132397127D01*
X120331503Y-132490566D01*
X120331505Y-132490566D01*
X120331508Y-132490568D01*
X120451912Y-132529689D01*
X120556131Y-132563553D01*
X120789403Y-132600500D01*
X120789408Y-132600500D01*
X121025597Y-132600500D01*
X121258868Y-132563553D01*
X121483492Y-132490568D01*
X121693933Y-132383343D01*
X121885010Y-132244517D01*
X122052017Y-132077510D01*
X122190843Y-131886433D01*
X122298068Y-131675992D01*
X122371053Y-131451368D01*
X122408000Y-131218097D01*
X122408000Y-130981902D01*
X122371053Y-130748631D01*
X122298066Y-130524003D01*
X122190842Y-130313566D01*
X122052017Y-130122490D01*
X121885010Y-129955483D01*
X121693933Y-129816657D01*
X121693929Y-129816655D01*
X121483496Y-129709433D01*
X121258868Y-129636446D01*
X121025597Y-129599500D01*
X121025592Y-129599500D01*
X120789408Y-129599500D01*
X120789403Y-129599500D01*
X120556131Y-129636446D01*
X120331503Y-129709433D01*
X120121066Y-129816657D01*
X120012050Y-129895862D01*
X119929990Y-129955483D01*
X119929988Y-129955485D01*
X119929987Y-129955485D01*
X119762985Y-130122487D01*
X119762985Y-130122488D01*
X119762983Y-130122490D01*
X119703362Y-130204550D01*
X119624157Y-130313566D01*
X119516933Y-130524003D01*
X119443946Y-130748631D01*
X119407000Y-130981902D01*
X115908000Y-130981902D01*
X115871053Y-130748631D01*
X115798066Y-130524003D01*
X115690842Y-130313566D01*
X115552017Y-130122490D01*
X115385010Y-129955483D01*
X115193933Y-129816657D01*
X115193929Y-129816655D01*
X114983496Y-129709433D01*
X114758868Y-129636446D01*
X114525597Y-129599500D01*
X114525592Y-129599500D01*
X114289408Y-129599500D01*
X114289403Y-129599500D01*
X114056131Y-129636446D01*
X113831503Y-129709433D01*
X113621066Y-129816657D01*
X113512050Y-129895862D01*
X113429990Y-129955483D01*
X113429988Y-129955485D01*
X113429987Y-129955485D01*
X113262985Y-130122487D01*
X113262985Y-130122488D01*
X113262983Y-130122490D01*
X113203362Y-130204550D01*
X113124157Y-130313566D01*
X113016933Y-130524003D01*
X112943946Y-130748631D01*
X112907000Y-130981902D01*
X100255262Y-130981902D01*
X100266712Y-126481947D01*
X112907500Y-126481947D01*
X112907500Y-126718052D01*
X112944434Y-126951247D01*
X113017397Y-127175802D01*
X113124587Y-127386174D01*
X113184838Y-127469104D01*
X113184840Y-127469105D01*
X113883712Y-126770233D01*
X113894982Y-126812292D01*
X113967390Y-126937708D01*
X114069792Y-127040110D01*
X114195208Y-127112518D01*
X114237265Y-127123787D01*
X113538393Y-127822658D01*
X113621328Y-127882914D01*
X113831697Y-127990102D01*
X114056252Y-128063065D01*
X114056251Y-128063065D01*
X114289448Y-128100000D01*
X114525552Y-128100000D01*
X114758747Y-128063065D01*
X114983302Y-127990102D01*
X115193663Y-127882918D01*
X115193669Y-127882914D01*
X115276604Y-127822658D01*
X115276605Y-127822658D01*
X114577733Y-127123787D01*
X114619792Y-127112518D01*
X114745208Y-127040110D01*
X114847610Y-126937708D01*
X114920018Y-126812292D01*
X114931287Y-126770234D01*
X115630158Y-127469105D01*
X115630158Y-127469104D01*
X115690414Y-127386169D01*
X115690418Y-127386163D01*
X115797602Y-127175802D01*
X115870565Y-126951247D01*
X115907500Y-126718052D01*
X115907500Y-126481947D01*
X119407500Y-126481947D01*
X119407500Y-126718052D01*
X119444434Y-126951247D01*
X119517397Y-127175802D01*
X119624587Y-127386174D01*
X119684838Y-127469104D01*
X119684840Y-127469105D01*
X120383712Y-126770233D01*
X120394982Y-126812292D01*
X120467390Y-126937708D01*
X120569792Y-127040110D01*
X120695208Y-127112518D01*
X120737265Y-127123787D01*
X120038393Y-127822658D01*
X120121328Y-127882914D01*
X120331697Y-127990102D01*
X120556252Y-128063065D01*
X120556251Y-128063065D01*
X120789448Y-128100000D01*
X121025552Y-128100000D01*
X121258747Y-128063065D01*
X121483302Y-127990102D01*
X121693663Y-127882918D01*
X121693669Y-127882914D01*
X121776604Y-127822658D01*
X121776605Y-127822658D01*
X121077733Y-127123787D01*
X121119792Y-127112518D01*
X121245208Y-127040110D01*
X121347610Y-126937708D01*
X121420018Y-126812292D01*
X121431287Y-126770234D01*
X122130158Y-127469105D01*
X122130158Y-127469104D01*
X122190414Y-127386169D01*
X122190418Y-127386163D01*
X122297602Y-127175802D01*
X122370565Y-126951247D01*
X122407500Y-126718052D01*
X122407500Y-126481947D01*
X122370565Y-126248752D01*
X122297602Y-126024197D01*
X122190414Y-125813828D01*
X122130158Y-125730894D01*
X122130158Y-125730893D01*
X121431287Y-126429765D01*
X121420018Y-126387708D01*
X121347610Y-126262292D01*
X121245208Y-126159890D01*
X121119792Y-126087482D01*
X121077734Y-126076212D01*
X121776605Y-125377340D01*
X121776604Y-125377338D01*
X121693674Y-125317087D01*
X121483302Y-125209897D01*
X121258747Y-125136934D01*
X121258748Y-125136934D01*
X121025552Y-125100000D01*
X120789448Y-125100000D01*
X120556252Y-125136934D01*
X120331697Y-125209897D01*
X120121330Y-125317084D01*
X120038394Y-125377340D01*
X120737266Y-126076212D01*
X120695208Y-126087482D01*
X120569792Y-126159890D01*
X120467390Y-126262292D01*
X120394982Y-126387708D01*
X120383712Y-126429766D01*
X119684840Y-125730894D01*
X119624584Y-125813830D01*
X119517397Y-126024197D01*
X119444434Y-126248752D01*
X119407500Y-126481947D01*
X115907500Y-126481947D01*
X115870565Y-126248752D01*
X115797602Y-126024197D01*
X115690414Y-125813828D01*
X115630158Y-125730894D01*
X115630158Y-125730893D01*
X114931287Y-126429765D01*
X114920018Y-126387708D01*
X114847610Y-126262292D01*
X114745208Y-126159890D01*
X114619792Y-126087482D01*
X114577734Y-126076212D01*
X115276605Y-125377340D01*
X115276604Y-125377339D01*
X115193674Y-125317087D01*
X114983302Y-125209897D01*
X114758747Y-125136934D01*
X114758748Y-125136934D01*
X114525552Y-125100000D01*
X114289448Y-125100000D01*
X114056252Y-125136934D01*
X113831697Y-125209897D01*
X113621330Y-125317084D01*
X113538394Y-125377340D01*
X114237266Y-126076212D01*
X114195208Y-126087482D01*
X114069792Y-126159890D01*
X113967390Y-126262292D01*
X113894982Y-126387708D01*
X113883712Y-126429766D01*
X113184840Y-125730894D01*
X113124584Y-125813830D01*
X113017397Y-126024197D01*
X112944434Y-126248752D01*
X112907500Y-126481947D01*
X100266712Y-126481947D01*
X100280707Y-120981902D01*
X102907000Y-120981902D01*
X102907000Y-121218097D01*
X102943946Y-121451368D01*
X103016933Y-121675996D01*
X103034980Y-121711414D01*
X103124157Y-121886433D01*
X103262983Y-122077510D01*
X103429990Y-122244517D01*
X103621067Y-122383343D01*
X103720491Y-122434002D01*
X103831503Y-122490566D01*
X103831505Y-122490566D01*
X103831508Y-122490568D01*
X103951912Y-122529689D01*
X104056131Y-122563553D01*
X104289403Y-122600500D01*
X104289408Y-122600500D01*
X104525597Y-122600500D01*
X104758868Y-122563553D01*
X104983492Y-122490568D01*
X105193933Y-122383343D01*
X105385010Y-122244517D01*
X105552017Y-122077510D01*
X105690843Y-121886433D01*
X105798068Y-121675992D01*
X105871053Y-121451368D01*
X105908000Y-121218097D01*
X105908000Y-120981902D01*
X105871053Y-120748631D01*
X105809034Y-120557758D01*
X105798068Y-120524008D01*
X105798066Y-120524005D01*
X105798066Y-120524003D01*
X105690842Y-120313566D01*
X105666106Y-120279520D01*
X105552017Y-120122490D01*
X105385010Y-119955483D01*
X105193933Y-119816657D01*
X105193929Y-119816655D01*
X104983496Y-119709433D01*
X104758868Y-119636446D01*
X104525597Y-119599500D01*
X104525592Y-119599500D01*
X104289408Y-119599500D01*
X104289403Y-119599500D01*
X104056131Y-119636446D01*
X103831503Y-119709433D01*
X103621066Y-119816657D01*
X103536557Y-119878057D01*
X103429990Y-119955483D01*
X103429988Y-119955485D01*
X103429987Y-119955485D01*
X103262985Y-120122487D01*
X103262985Y-120122488D01*
X103262983Y-120122490D01*
X103230124Y-120167717D01*
X103124157Y-120313566D01*
X103016933Y-120524003D01*
X102943946Y-120748631D01*
X102907000Y-120981902D01*
X100280707Y-120981902D01*
X100292157Y-116481947D01*
X102907500Y-116481947D01*
X102907500Y-116718052D01*
X102944434Y-116951247D01*
X103017397Y-117175802D01*
X103124587Y-117386174D01*
X103184838Y-117469104D01*
X103184840Y-117469105D01*
X103883712Y-116770233D01*
X103894982Y-116812292D01*
X103967390Y-116937708D01*
X104069792Y-117040110D01*
X104195208Y-117112518D01*
X104237265Y-117123787D01*
X103538393Y-117822658D01*
X103621328Y-117882914D01*
X103831697Y-117990102D01*
X104056252Y-118063065D01*
X104056251Y-118063065D01*
X104289448Y-118100000D01*
X104525552Y-118100000D01*
X104758747Y-118063065D01*
X104983302Y-117990102D01*
X105193663Y-117882918D01*
X105193669Y-117882914D01*
X105276604Y-117822658D01*
X105276605Y-117822658D01*
X104577733Y-117123787D01*
X104619792Y-117112518D01*
X104745208Y-117040110D01*
X104847610Y-116937708D01*
X104920018Y-116812292D01*
X104931287Y-116770234D01*
X105630158Y-117469105D01*
X105630158Y-117469104D01*
X105690414Y-117386169D01*
X105690418Y-117386163D01*
X105797602Y-117175802D01*
X105870565Y-116951247D01*
X105907500Y-116718052D01*
X105907500Y-116481947D01*
X105870565Y-116248752D01*
X105797602Y-116024197D01*
X105690414Y-115813828D01*
X105630158Y-115730894D01*
X105630158Y-115730893D01*
X104931287Y-116429765D01*
X104920018Y-116387708D01*
X104847610Y-116262292D01*
X104745208Y-116159890D01*
X104619792Y-116087482D01*
X104577734Y-116076212D01*
X105276605Y-115377340D01*
X105276604Y-115377339D01*
X105193674Y-115317087D01*
X104983302Y-115209897D01*
X104758747Y-115136934D01*
X104758748Y-115136934D01*
X104525552Y-115100000D01*
X104289448Y-115100000D01*
X104056252Y-115136934D01*
X103831697Y-115209897D01*
X103621330Y-115317084D01*
X103538394Y-115377340D01*
X104237266Y-116076212D01*
X104195208Y-116087482D01*
X104069792Y-116159890D01*
X103967390Y-116262292D01*
X103894982Y-116387708D01*
X103883712Y-116429766D01*
X103184840Y-115730894D01*
X103124584Y-115813830D01*
X103017397Y-116024197D01*
X102944434Y-116248752D01*
X102907500Y-116481947D01*
X100292157Y-116481947D01*
X100306152Y-110981902D01*
X112907000Y-110981902D01*
X112907000Y-111218097D01*
X112943946Y-111451368D01*
X113016933Y-111675996D01*
X113124157Y-111886433D01*
X113262983Y-112077510D01*
X113429990Y-112244517D01*
X113621067Y-112383343D01*
X113707000Y-112427128D01*
X113831503Y-112490566D01*
X113831505Y-112490566D01*
X113831508Y-112490568D01*
X113951912Y-112529689D01*
X114056131Y-112563553D01*
X114289403Y-112600500D01*
X114289408Y-112600500D01*
X114525597Y-112600500D01*
X114758868Y-112563553D01*
X114983492Y-112490568D01*
X115193933Y-112383343D01*
X115385010Y-112244517D01*
X115552017Y-112077510D01*
X115690843Y-111886433D01*
X115798068Y-111675992D01*
X115871053Y-111451368D01*
X115908000Y-111218097D01*
X115908000Y-110981902D01*
X115871053Y-110748631D01*
X115807356Y-110552593D01*
X115798068Y-110524008D01*
X115798066Y-110524005D01*
X115798066Y-110524003D01*
X115690842Y-110313566D01*
X115552017Y-110122490D01*
X115385010Y-109955483D01*
X115193933Y-109816657D01*
X114983496Y-109709433D01*
X114758868Y-109636446D01*
X114525597Y-109599500D01*
X114525592Y-109599500D01*
X114289408Y-109599500D01*
X114289403Y-109599500D01*
X114056131Y-109636446D01*
X113831503Y-109709433D01*
X113621066Y-109816657D01*
X113512050Y-109895862D01*
X113429990Y-109955483D01*
X113429988Y-109955485D01*
X113429987Y-109955485D01*
X113262985Y-110122487D01*
X113262985Y-110122488D01*
X113262983Y-110122490D01*
X113203362Y-110204550D01*
X113124157Y-110313566D01*
X113016933Y-110524003D01*
X112943946Y-110748631D01*
X112907000Y-110981902D01*
X100306152Y-110981902D01*
X100317602Y-106481947D01*
X112907500Y-106481947D01*
X112907500Y-106718052D01*
X112944434Y-106951247D01*
X113017397Y-107175802D01*
X113124587Y-107386174D01*
X113184838Y-107469104D01*
X113184840Y-107469105D01*
X113883712Y-106770233D01*
X113894982Y-106812292D01*
X113967390Y-106937708D01*
X114069792Y-107040110D01*
X114195208Y-107112518D01*
X114237265Y-107123787D01*
X113538393Y-107822658D01*
X113621328Y-107882914D01*
X113831697Y-107990102D01*
X114056252Y-108063065D01*
X114056251Y-108063065D01*
X114289448Y-108100000D01*
X114525552Y-108100000D01*
X114758747Y-108063065D01*
X114983302Y-107990102D01*
X115193663Y-107882918D01*
X115193669Y-107882914D01*
X115276604Y-107822658D01*
X115276605Y-107822658D01*
X114577733Y-107123787D01*
X114619792Y-107112518D01*
X114745208Y-107040110D01*
X114847610Y-106937708D01*
X114920018Y-106812292D01*
X114931287Y-106770234D01*
X115630158Y-107469105D01*
X115630158Y-107469104D01*
X115690414Y-107386169D01*
X115690418Y-107386163D01*
X115797602Y-107175802D01*
X115870565Y-106951247D01*
X115907500Y-106718052D01*
X115907500Y-106481947D01*
X115870565Y-106248752D01*
X115797602Y-106024197D01*
X115690414Y-105813828D01*
X115630158Y-105730894D01*
X115630158Y-105730893D01*
X114931287Y-106429765D01*
X114920018Y-106387708D01*
X114847610Y-106262292D01*
X114745208Y-106159890D01*
X114619792Y-106087482D01*
X114577734Y-106076212D01*
X115276605Y-105377340D01*
X115276604Y-105377339D01*
X115193674Y-105317087D01*
X114983302Y-105209897D01*
X114758747Y-105136934D01*
X114758748Y-105136934D01*
X114525552Y-105100000D01*
X114289448Y-105100000D01*
X114056252Y-105136934D01*
X113831697Y-105209897D01*
X113621330Y-105317084D01*
X113538394Y-105377340D01*
X114237266Y-106076212D01*
X114195208Y-106087482D01*
X114069792Y-106159890D01*
X113967390Y-106262292D01*
X113894982Y-106387708D01*
X113883712Y-106429766D01*
X113184840Y-105730894D01*
X113124584Y-105813830D01*
X113017397Y-106024197D01*
X112944434Y-106248752D01*
X112907500Y-106481947D01*
X100317602Y-106481947D01*
X100349409Y-93981902D01*
X105907000Y-93981902D01*
X105907000Y-94218097D01*
X105943946Y-94451368D01*
X106016933Y-94675996D01*
X106124157Y-94886433D01*
X106262983Y-95077510D01*
X106429990Y-95244517D01*
X106621067Y-95383343D01*
X106707000Y-95427128D01*
X106831503Y-95490566D01*
X106831505Y-95490566D01*
X106831508Y-95490568D01*
X106951912Y-95529689D01*
X107056131Y-95563553D01*
X107289403Y-95600500D01*
X107289408Y-95600500D01*
X107525597Y-95600500D01*
X107758868Y-95563553D01*
X107789054Y-95553745D01*
X107983492Y-95490568D01*
X108193933Y-95383343D01*
X108385010Y-95244517D01*
X108552017Y-95077510D01*
X108690843Y-94886433D01*
X108798068Y-94675992D01*
X108871053Y-94451368D01*
X108908000Y-94218097D01*
X108908000Y-93981902D01*
X108871053Y-93748631D01*
X108807356Y-93552593D01*
X108798068Y-93524008D01*
X108798066Y-93524005D01*
X108798066Y-93524003D01*
X108690842Y-93313566D01*
X108552017Y-93122490D01*
X108385010Y-92955483D01*
X108193933Y-92816657D01*
X107983496Y-92709433D01*
X107758868Y-92636446D01*
X107525597Y-92599500D01*
X107525592Y-92599500D01*
X107289408Y-92599500D01*
X107289403Y-92599500D01*
X107056131Y-92636446D01*
X106831503Y-92709433D01*
X106621066Y-92816657D01*
X106512050Y-92895862D01*
X106429990Y-92955483D01*
X106429988Y-92955485D01*
X106429987Y-92955485D01*
X106262985Y-93122487D01*
X106262985Y-93122488D01*
X106262983Y-93122490D01*
X106203362Y-93204550D01*
X106124157Y-93313566D01*
X106016933Y-93524003D01*
X105943946Y-93748631D01*
X105907000Y-93981902D01*
X100349409Y-93981902D01*
X100360859Y-89481947D01*
X105907500Y-89481947D01*
X105907500Y-89718052D01*
X105944434Y-89951247D01*
X106017397Y-90175802D01*
X106124587Y-90386174D01*
X106184838Y-90469104D01*
X106184840Y-90469105D01*
X106883712Y-89770233D01*
X106894982Y-89812292D01*
X106967390Y-89937708D01*
X107069792Y-90040110D01*
X107195208Y-90112518D01*
X107237265Y-90123787D01*
X106538393Y-90822658D01*
X106621328Y-90882914D01*
X106831697Y-90990102D01*
X107056252Y-91063065D01*
X107056251Y-91063065D01*
X107289448Y-91100000D01*
X107525552Y-91100000D01*
X107758747Y-91063065D01*
X107983302Y-90990102D01*
X108193663Y-90882918D01*
X108193669Y-90882914D01*
X108276604Y-90822658D01*
X108276605Y-90822658D01*
X107577733Y-90123787D01*
X107619792Y-90112518D01*
X107745208Y-90040110D01*
X107847610Y-89937708D01*
X107920018Y-89812292D01*
X107931287Y-89770234D01*
X108630158Y-90469105D01*
X108630158Y-90469104D01*
X108690414Y-90386169D01*
X108690418Y-90386163D01*
X108797602Y-90175802D01*
X108870565Y-89951247D01*
X108907500Y-89718052D01*
X108907500Y-89481947D01*
X112407500Y-89481947D01*
X112407500Y-89718052D01*
X112444434Y-89951247D01*
X112517397Y-90175802D01*
X112624587Y-90386174D01*
X112684838Y-90469104D01*
X112684840Y-90469105D01*
X113383712Y-89770233D01*
X113394982Y-89812292D01*
X113467390Y-89937708D01*
X113569792Y-90040110D01*
X113695208Y-90112518D01*
X113737265Y-90123787D01*
X113038393Y-90822658D01*
X113121328Y-90882914D01*
X113331697Y-90990102D01*
X113556252Y-91063065D01*
X113556251Y-91063065D01*
X113789448Y-91100000D01*
X114025552Y-91100000D01*
X114258747Y-91063065D01*
X114483302Y-90990102D01*
X114693663Y-90882918D01*
X114693669Y-90882914D01*
X114776604Y-90822658D01*
X114776605Y-90822658D01*
X114077733Y-90123787D01*
X114119792Y-90112518D01*
X114245208Y-90040110D01*
X114347610Y-89937708D01*
X114420018Y-89812292D01*
X114431287Y-89770234D01*
X115130158Y-90469105D01*
X115130158Y-90469104D01*
X115190414Y-90386169D01*
X115190418Y-90386163D01*
X115297602Y-90175802D01*
X115370565Y-89951247D01*
X115407500Y-89718052D01*
X115407500Y-89481947D01*
X115370565Y-89248752D01*
X115297602Y-89024197D01*
X115190414Y-88813828D01*
X115130158Y-88730894D01*
X115130158Y-88730893D01*
X114431287Y-89429765D01*
X114420018Y-89387708D01*
X114347610Y-89262292D01*
X114245208Y-89159890D01*
X114119792Y-89087482D01*
X114077734Y-89076212D01*
X114776605Y-88377340D01*
X114776604Y-88377338D01*
X114693674Y-88317087D01*
X114483302Y-88209897D01*
X114258747Y-88136934D01*
X114258748Y-88136934D01*
X114025552Y-88100000D01*
X113789448Y-88100000D01*
X113556252Y-88136934D01*
X113331697Y-88209897D01*
X113121330Y-88317084D01*
X113038394Y-88377340D01*
X113737266Y-89076212D01*
X113695208Y-89087482D01*
X113569792Y-89159890D01*
X113467390Y-89262292D01*
X113394982Y-89387708D01*
X113383712Y-89429766D01*
X112684840Y-88730894D01*
X112624584Y-88813830D01*
X112517397Y-89024197D01*
X112444434Y-89248752D01*
X112407500Y-89481947D01*
X108907500Y-89481947D01*
X108870565Y-89248752D01*
X108797602Y-89024197D01*
X108690414Y-88813828D01*
X108630158Y-88730894D01*
X108630158Y-88730893D01*
X107931287Y-89429765D01*
X107920018Y-89387708D01*
X107847610Y-89262292D01*
X107745208Y-89159890D01*
X107619792Y-89087482D01*
X107577734Y-89076212D01*
X108276605Y-88377340D01*
X108276604Y-88377339D01*
X108193674Y-88317087D01*
X107983302Y-88209897D01*
X107758747Y-88136934D01*
X107758748Y-88136934D01*
X107525552Y-88100000D01*
X107289448Y-88100000D01*
X107056252Y-88136934D01*
X106831697Y-88209897D01*
X106621330Y-88317084D01*
X106538394Y-88377340D01*
X107237266Y-89076212D01*
X107195208Y-89087482D01*
X107069792Y-89159890D01*
X106967390Y-89262292D01*
X106894982Y-89387708D01*
X106883712Y-89429766D01*
X106184840Y-88730894D01*
X106124584Y-88813830D01*
X106017397Y-89024197D01*
X105944434Y-89248752D01*
X105907500Y-89481947D01*
X100360859Y-89481947D01*
X100429078Y-62672070D01*
X111574500Y-62672070D01*
X111574500Y-62927930D01*
X111585449Y-62997056D01*
X111614526Y-63180640D01*
X111693588Y-63423972D01*
X111693589Y-63423975D01*
X111754600Y-63543713D01*
X111809033Y-63650544D01*
X111809750Y-63651950D01*
X111960132Y-63858935D01*
X111960136Y-63858940D01*
X112141059Y-64039863D01*
X112141064Y-64039867D01*
X112317993Y-64168412D01*
X112348053Y-64190252D01*
X112490815Y-64262993D01*
X112576024Y-64306410D01*
X112576027Y-64306411D01*
X112697693Y-64345942D01*
X112819361Y-64385474D01*
X113072070Y-64425500D01*
X113072071Y-64425500D01*
X113327929Y-64425500D01*
X113327930Y-64425500D01*
X113580639Y-64385474D01*
X113823975Y-64306410D01*
X114051947Y-64190252D01*
X114258942Y-64039862D01*
X114439862Y-63858942D01*
X114590252Y-63651947D01*
X114706410Y-63423975D01*
X114785474Y-63180639D01*
X114825500Y-62927930D01*
X114825500Y-62672070D01*
X114785474Y-62419361D01*
X114735335Y-62265048D01*
X114706411Y-62176027D01*
X114706410Y-62176024D01*
X114666185Y-62097080D01*
X114590252Y-61948053D01*
X114543390Y-61883553D01*
X114439867Y-61741064D01*
X114439863Y-61741059D01*
X114258940Y-61560136D01*
X114258935Y-61560132D01*
X114051950Y-61409750D01*
X114051949Y-61409749D01*
X114051947Y-61409748D01*
X113970436Y-61368216D01*
X113823975Y-61293589D01*
X113823972Y-61293588D01*
X113580640Y-61214526D01*
X113441392Y-61192471D01*
X113327930Y-61174500D01*
X113072070Y-61174500D01*
X112987833Y-61187842D01*
X112819359Y-61214526D01*
X112576027Y-61293588D01*
X112576024Y-61293589D01*
X112348049Y-61409750D01*
X112141064Y-61560132D01*
X112141059Y-61560136D01*
X111960136Y-61741059D01*
X111960132Y-61741064D01*
X111809750Y-61948049D01*
X111693589Y-62176024D01*
X111693588Y-62176027D01*
X111614526Y-62419359D01*
X111585517Y-62602512D01*
X111574500Y-62672070D01*
X100429078Y-62672070D01*
X100460707Y-50242179D01*
X100472116Y-45758565D01*
X100478579Y-43218525D01*
X100487603Y-39672070D01*
X111574500Y-39672070D01*
X111574500Y-39927929D01*
X111614526Y-40180640D01*
X111693588Y-40423972D01*
X111693589Y-40423975D01*
X111809750Y-40651950D01*
X111960132Y-40858935D01*
X111960136Y-40858940D01*
X112141059Y-41039863D01*
X112141064Y-41039867D01*
X112321607Y-41171038D01*
X112348053Y-41190252D01*
X112497080Y-41266185D01*
X112576024Y-41306410D01*
X112576027Y-41306411D01*
X112697693Y-41345942D01*
X112819361Y-41385474D01*
X113072070Y-41425500D01*
X113072071Y-41425500D01*
X113327929Y-41425500D01*
X113327930Y-41425500D01*
X113580639Y-41385474D01*
X113823975Y-41306410D01*
X114051947Y-41190252D01*
X114258942Y-41039862D01*
X114439862Y-40858942D01*
X114590252Y-40651947D01*
X114706410Y-40423975D01*
X114785474Y-40180639D01*
X114825500Y-39927930D01*
X114825500Y-39672070D01*
X169574500Y-39672070D01*
X169574500Y-39927929D01*
X169614526Y-40180640D01*
X169693588Y-40423972D01*
X169693589Y-40423975D01*
X169809750Y-40651950D01*
X169960132Y-40858935D01*
X169960136Y-40858940D01*
X170141059Y-41039863D01*
X170141064Y-41039867D01*
X170321607Y-41171038D01*
X170348053Y-41190252D01*
X170497080Y-41266185D01*
X170576024Y-41306410D01*
X170576027Y-41306411D01*
X170697693Y-41345942D01*
X170819361Y-41385474D01*
X171072070Y-41425500D01*
X171072071Y-41425500D01*
X171327929Y-41425500D01*
X171327930Y-41425500D01*
X171580639Y-41385474D01*
X171823975Y-41306410D01*
X172051947Y-41190252D01*
X172258942Y-41039862D01*
X172439862Y-40858942D01*
X172590252Y-40651947D01*
X172706410Y-40423975D01*
X172785474Y-40180639D01*
X172825500Y-39927930D01*
X172825500Y-39672070D01*
X172785474Y-39419361D01*
X172706410Y-39176025D01*
X172706410Y-39176024D01*
X172666185Y-39097080D01*
X172590252Y-38948053D01*
X172571038Y-38921607D01*
X172439867Y-38741064D01*
X172439863Y-38741059D01*
X172258940Y-38560136D01*
X172258935Y-38560132D01*
X172051950Y-38409750D01*
X172051949Y-38409749D01*
X172051947Y-38409748D01*
X171978910Y-38372533D01*
X171823975Y-38293589D01*
X171823972Y-38293588D01*
X171580640Y-38214526D01*
X171454284Y-38194513D01*
X171327930Y-38174500D01*
X171072070Y-38174500D01*
X170987833Y-38187842D01*
X170819359Y-38214526D01*
X170576027Y-38293588D01*
X170576024Y-38293589D01*
X170348049Y-38409750D01*
X170141064Y-38560132D01*
X170141059Y-38560136D01*
X169960136Y-38741059D01*
X169960132Y-38741064D01*
X169809750Y-38948049D01*
X169693589Y-39176024D01*
X169693588Y-39176027D01*
X169614526Y-39419359D01*
X169574500Y-39672070D01*
X114825500Y-39672070D01*
X114785474Y-39419361D01*
X114706410Y-39176025D01*
X114706410Y-39176024D01*
X114666185Y-39097080D01*
X114590252Y-38948053D01*
X114571038Y-38921607D01*
X114439867Y-38741064D01*
X114439863Y-38741059D01*
X114258940Y-38560136D01*
X114258935Y-38560132D01*
X114051950Y-38409750D01*
X114051949Y-38409749D01*
X114051947Y-38409748D01*
X113978910Y-38372533D01*
X113823975Y-38293589D01*
X113823972Y-38293588D01*
X113580640Y-38214526D01*
X113454284Y-38194513D01*
X113327930Y-38174500D01*
X113072070Y-38174500D01*
X112987833Y-38187842D01*
X112819359Y-38214526D01*
X112576027Y-38293588D01*
X112576024Y-38293589D01*
X112348049Y-38409750D01*
X112141064Y-38560132D01*
X112141059Y-38560136D01*
X111960136Y-38741059D01*
X111960132Y-38741064D01*
X111809750Y-38948049D01*
X111693589Y-39176024D01*
X111693588Y-39176027D01*
X111614526Y-39419359D01*
X111574500Y-39672070D01*
X100487603Y-39672070D01*
X100487616Y-39666882D01*
X100491110Y-38293588D01*
X100499687Y-34922815D01*
X100519542Y-34855828D01*
X100572463Y-34810208D01*
X100622814Y-34799136D01*
X164403490Y-34350502D01*
X164404362Y-34350500D01*
X185533000Y-34350500D01*
X185600039Y-34370185D01*
G37*
%TD.AperFunction*%
%TA.AperFunction,Conductor*%
G36*
X157457228Y-64494066D02*
G01*
X157469807Y-64493527D01*
X157489670Y-64505121D01*
X157511446Y-64512542D01*
X157520720Y-64523245D01*
X157530149Y-64528749D01*
X157550481Y-64557591D01*
X157633804Y-64721119D01*
X157637058Y-64727505D01*
X157753115Y-64887246D01*
X157892753Y-65026884D01*
X158052499Y-65142944D01*
X158056651Y-65145489D01*
X158055865Y-65146770D01*
X158101810Y-65190156D01*
X158118610Y-65257976D01*
X158096076Y-65324113D01*
X158082404Y-65340355D01*
X151560771Y-71861989D01*
X151448966Y-71973793D01*
X151448960Y-71973801D01*
X151406620Y-72047138D01*
X151406620Y-72047139D01*
X151369908Y-72110726D01*
X151328984Y-72263454D01*
X151328984Y-72263456D01*
X151328984Y-72431557D01*
X151328985Y-72431570D01*
X151328985Y-98890749D01*
X151309300Y-98957788D01*
X151308087Y-98959640D01*
X151220094Y-99091329D01*
X151220087Y-99091342D01*
X151159749Y-99237013D01*
X151159746Y-99237025D01*
X151128985Y-99391668D01*
X151128985Y-99549361D01*
X151159746Y-99704004D01*
X151159749Y-99704016D01*
X151220087Y-99849687D01*
X151220094Y-99849700D01*
X151307695Y-99980803D01*
X151307698Y-99980807D01*
X151419192Y-100092301D01*
X151419196Y-100092304D01*
X151550299Y-100179905D01*
X151550312Y-100179912D01*
X151628785Y-100212416D01*
X151695988Y-100240252D01*
X151850638Y-100271014D01*
X151850641Y-100271015D01*
X151850643Y-100271015D01*
X152008329Y-100271015D01*
X152008330Y-100271014D01*
X152162982Y-100240252D01*
X152308664Y-100179909D01*
X152439774Y-100092304D01*
X152551274Y-99980804D01*
X152638879Y-99849694D01*
X152699222Y-99704012D01*
X152729985Y-99549357D01*
X152729985Y-99391673D01*
X152729985Y-99391670D01*
X152729984Y-99391668D01*
X152699223Y-99237025D01*
X152699222Y-99237018D01*
X152699220Y-99237013D01*
X152638882Y-99091342D01*
X152638875Y-99091329D01*
X152550883Y-98959640D01*
X152530005Y-98892962D01*
X152529985Y-98890749D01*
X152529985Y-93981902D01*
X152907000Y-93981902D01*
X152907000Y-94218097D01*
X152943946Y-94451368D01*
X153016933Y-94675996D01*
X153124157Y-94886433D01*
X153262983Y-95077510D01*
X153429990Y-95244517D01*
X153621067Y-95383343D01*
X153707000Y-95427128D01*
X153831503Y-95490566D01*
X153831505Y-95490566D01*
X153831508Y-95490568D01*
X153951912Y-95529689D01*
X154056131Y-95563553D01*
X154289403Y-95600500D01*
X154289408Y-95600500D01*
X154525597Y-95600500D01*
X154758868Y-95563553D01*
X154789054Y-95553745D01*
X154983492Y-95490568D01*
X155193933Y-95383343D01*
X155385010Y-95244517D01*
X155552017Y-95077510D01*
X155690843Y-94886433D01*
X155798068Y-94675992D01*
X155871053Y-94451368D01*
X155908000Y-94218097D01*
X155908000Y-93981902D01*
X155871053Y-93748631D01*
X155807356Y-93552593D01*
X155798068Y-93524008D01*
X155798066Y-93524005D01*
X155798066Y-93524003D01*
X155690842Y-93313566D01*
X155552017Y-93122490D01*
X155385010Y-92955483D01*
X155193933Y-92816657D01*
X154983496Y-92709433D01*
X154758868Y-92636446D01*
X154525597Y-92599500D01*
X154525592Y-92599500D01*
X154289408Y-92599500D01*
X154289403Y-92599500D01*
X154056131Y-92636446D01*
X153831503Y-92709433D01*
X153621066Y-92816657D01*
X153512050Y-92895862D01*
X153429990Y-92955483D01*
X153429988Y-92955485D01*
X153429987Y-92955485D01*
X153262985Y-93122487D01*
X153262985Y-93122488D01*
X153262983Y-93122490D01*
X153203362Y-93204550D01*
X153124157Y-93313566D01*
X153016933Y-93524003D01*
X152943946Y-93748631D01*
X152907000Y-93981902D01*
X152529985Y-93981902D01*
X152529985Y-89481947D01*
X152907500Y-89481947D01*
X152907500Y-89718052D01*
X152944434Y-89951247D01*
X153017397Y-90175802D01*
X153124587Y-90386174D01*
X153184838Y-90469104D01*
X153184840Y-90469105D01*
X153883712Y-89770233D01*
X153894982Y-89812292D01*
X153967390Y-89937708D01*
X154069792Y-90040110D01*
X154195208Y-90112518D01*
X154237265Y-90123787D01*
X153538393Y-90822658D01*
X153621328Y-90882914D01*
X153831697Y-90990102D01*
X154056252Y-91063065D01*
X154056251Y-91063065D01*
X154289448Y-91100000D01*
X154525552Y-91100000D01*
X154758747Y-91063065D01*
X154983302Y-90990102D01*
X155193663Y-90882918D01*
X155193669Y-90882914D01*
X155276604Y-90822658D01*
X155276605Y-90822658D01*
X154577733Y-90123787D01*
X154619792Y-90112518D01*
X154745208Y-90040110D01*
X154847610Y-89937708D01*
X154920018Y-89812292D01*
X154931287Y-89770234D01*
X155630158Y-90469105D01*
X155630158Y-90469104D01*
X155690414Y-90386169D01*
X155690418Y-90386163D01*
X155797602Y-90175802D01*
X155870565Y-89951247D01*
X155907500Y-89718052D01*
X155907500Y-89481947D01*
X155870565Y-89248752D01*
X155797602Y-89024197D01*
X155690414Y-88813828D01*
X155630158Y-88730894D01*
X155630158Y-88730893D01*
X154931287Y-89429765D01*
X154920018Y-89387708D01*
X154847610Y-89262292D01*
X154745208Y-89159890D01*
X154619792Y-89087482D01*
X154577734Y-89076212D01*
X155276605Y-88377340D01*
X155276604Y-88377338D01*
X155193674Y-88317087D01*
X154983302Y-88209897D01*
X154758747Y-88136934D01*
X154758748Y-88136934D01*
X154525552Y-88100000D01*
X154289448Y-88100000D01*
X154056252Y-88136934D01*
X153831697Y-88209897D01*
X153621330Y-88317084D01*
X153538394Y-88377340D01*
X154237266Y-89076212D01*
X154195208Y-89087482D01*
X154069792Y-89159890D01*
X153967390Y-89262292D01*
X153894982Y-89387708D01*
X153883712Y-89429766D01*
X153184840Y-88730894D01*
X153124584Y-88813830D01*
X153017397Y-89024197D01*
X152944434Y-89248752D01*
X152907500Y-89481947D01*
X152529985Y-89481947D01*
X152529985Y-72642608D01*
X152549670Y-72575569D01*
X152566304Y-72554927D01*
X158794319Y-66326912D01*
X158855642Y-66293427D01*
X158925334Y-66298411D01*
X158981267Y-66340283D01*
X159005684Y-66405747D01*
X159006000Y-66414593D01*
X159006000Y-119712330D01*
X159005999Y-119712348D01*
X159005999Y-119878054D01*
X159005998Y-119878054D01*
X159046923Y-120030785D01*
X159075858Y-120080900D01*
X159075859Y-120080904D01*
X159075860Y-120080904D01*
X159125979Y-120167714D01*
X159125981Y-120167717D01*
X159244849Y-120286585D01*
X159244855Y-120286590D01*
X159454700Y-120496435D01*
X159488185Y-120557758D01*
X159484950Y-120622433D01*
X159443947Y-120748628D01*
X159407000Y-120981902D01*
X159407000Y-121218097D01*
X159443946Y-121451368D01*
X159516933Y-121675996D01*
X159534980Y-121711414D01*
X159624157Y-121886433D01*
X159762983Y-122077510D01*
X159929990Y-122244517D01*
X160121067Y-122383343D01*
X160220491Y-122434002D01*
X160331503Y-122490566D01*
X160331505Y-122490566D01*
X160331508Y-122490568D01*
X160451912Y-122529689D01*
X160556131Y-122563553D01*
X160789403Y-122600500D01*
X160789408Y-122600500D01*
X161025597Y-122600500D01*
X161258868Y-122563553D01*
X161483492Y-122490568D01*
X161693933Y-122383343D01*
X161885010Y-122244517D01*
X162052017Y-122077510D01*
X162190843Y-121886433D01*
X162298068Y-121675992D01*
X162371053Y-121451368D01*
X162408000Y-121218097D01*
X162408000Y-120981902D01*
X162371053Y-120748631D01*
X162309034Y-120557758D01*
X162298068Y-120524008D01*
X162298066Y-120524005D01*
X162298066Y-120524003D01*
X162190842Y-120313566D01*
X162166106Y-120279520D01*
X162052017Y-120122490D01*
X161885010Y-119955483D01*
X161693933Y-119816657D01*
X161693929Y-119816655D01*
X161483496Y-119709433D01*
X161258868Y-119636446D01*
X161025597Y-119599500D01*
X161025592Y-119599500D01*
X160789408Y-119599500D01*
X160789403Y-119599500D01*
X160556128Y-119636447D01*
X160429933Y-119677450D01*
X160414721Y-119677884D01*
X160400462Y-119683203D01*
X160380506Y-119678861D01*
X160360092Y-119679445D01*
X160346005Y-119671356D01*
X160332189Y-119668351D01*
X160303935Y-119647200D01*
X160243319Y-119586584D01*
X160209834Y-119525261D01*
X160207000Y-119498903D01*
X160207000Y-118120257D01*
X160226685Y-118053218D01*
X160279489Y-118007463D01*
X160348647Y-117997519D01*
X160369319Y-118002326D01*
X160556254Y-118063065D01*
X160789448Y-118100000D01*
X161025552Y-118100000D01*
X161258747Y-118063065D01*
X161483302Y-117990102D01*
X161693663Y-117882918D01*
X161693669Y-117882914D01*
X161776604Y-117822658D01*
X161776605Y-117822658D01*
X161077734Y-117123787D01*
X161119792Y-117112518D01*
X161245208Y-117040110D01*
X161347610Y-116937708D01*
X161420018Y-116812292D01*
X161431287Y-116770234D01*
X162130158Y-117469105D01*
X162130158Y-117469104D01*
X162190414Y-117386169D01*
X162190418Y-117386163D01*
X162297602Y-117175802D01*
X162370565Y-116951247D01*
X162407500Y-116718052D01*
X162407500Y-116481947D01*
X162370565Y-116248752D01*
X162297602Y-116024197D01*
X162190414Y-115813828D01*
X162130158Y-115730894D01*
X162130158Y-115730893D01*
X161431287Y-116429765D01*
X161420018Y-116387708D01*
X161347610Y-116262292D01*
X161245208Y-116159890D01*
X161119792Y-116087482D01*
X161077733Y-116076212D01*
X161776605Y-115377340D01*
X161776604Y-115377338D01*
X161693674Y-115317087D01*
X161483302Y-115209897D01*
X161258747Y-115136934D01*
X161258748Y-115136934D01*
X161025552Y-115100000D01*
X160789448Y-115100000D01*
X160556251Y-115136934D01*
X160369318Y-115197673D01*
X160299477Y-115199668D01*
X160239644Y-115163588D01*
X160208816Y-115100887D01*
X160207000Y-115079742D01*
X160207000Y-95620784D01*
X160226685Y-95553745D01*
X160279489Y-95507990D01*
X160348647Y-95498046D01*
X160369312Y-95502851D01*
X160488959Y-95541727D01*
X160556131Y-95563553D01*
X160789403Y-95600500D01*
X160789408Y-95600500D01*
X161025597Y-95600500D01*
X161258868Y-95563553D01*
X161289054Y-95553745D01*
X161483492Y-95490568D01*
X161693933Y-95383343D01*
X161885010Y-95244517D01*
X162052017Y-95077510D01*
X162190843Y-94886433D01*
X162298068Y-94675992D01*
X162371053Y-94451368D01*
X162408000Y-94218097D01*
X162408000Y-93981902D01*
X162371053Y-93748631D01*
X162307356Y-93552593D01*
X162298068Y-93524008D01*
X162298066Y-93524005D01*
X162298066Y-93524003D01*
X162190842Y-93313566D01*
X162052017Y-93122490D01*
X161885010Y-92955483D01*
X161693933Y-92816657D01*
X161483496Y-92709433D01*
X161258868Y-92636446D01*
X161025597Y-92599500D01*
X161025592Y-92599500D01*
X160789408Y-92599500D01*
X160789403Y-92599500D01*
X160556130Y-92636447D01*
X160556127Y-92636447D01*
X160369318Y-92697146D01*
X160299477Y-92699141D01*
X160239644Y-92663061D01*
X160208816Y-92600360D01*
X160207000Y-92579215D01*
X160207000Y-91120257D01*
X160226685Y-91053218D01*
X160279489Y-91007463D01*
X160348647Y-90997519D01*
X160369319Y-91002326D01*
X160556254Y-91063065D01*
X160789448Y-91100000D01*
X161025552Y-91100000D01*
X161258747Y-91063065D01*
X161483302Y-90990102D01*
X161693663Y-90882918D01*
X161693669Y-90882914D01*
X161776604Y-90822658D01*
X161776605Y-90822658D01*
X161077734Y-90123787D01*
X161119792Y-90112518D01*
X161245208Y-90040110D01*
X161347610Y-89937708D01*
X161420018Y-89812292D01*
X161431287Y-89770234D01*
X162130158Y-90469105D01*
X162130158Y-90469104D01*
X162190414Y-90386169D01*
X162190418Y-90386163D01*
X162297602Y-90175802D01*
X162370565Y-89951247D01*
X162407500Y-89718052D01*
X162407500Y-89481947D01*
X162370565Y-89248752D01*
X162297602Y-89024197D01*
X162190414Y-88813828D01*
X162130158Y-88730894D01*
X162130158Y-88730893D01*
X161431287Y-89429765D01*
X161420018Y-89387708D01*
X161347610Y-89262292D01*
X161245208Y-89159890D01*
X161119792Y-89087482D01*
X161077733Y-89076212D01*
X161776605Y-88377340D01*
X161776604Y-88377338D01*
X161693674Y-88317087D01*
X161483302Y-88209897D01*
X161258747Y-88136934D01*
X161258748Y-88136934D01*
X161025552Y-88100000D01*
X160789448Y-88100000D01*
X160556251Y-88136934D01*
X160369318Y-88197673D01*
X160299477Y-88199668D01*
X160239644Y-88163588D01*
X160208816Y-88100887D01*
X160207000Y-88079742D01*
X160207000Y-66013596D01*
X160226685Y-65946557D01*
X160243315Y-65925919D01*
X160842128Y-65327105D01*
X160903449Y-65293622D01*
X160951221Y-65294133D01*
X160951425Y-65292848D01*
X161151264Y-65324500D01*
X161151269Y-65324500D01*
X161348736Y-65324500D01*
X161488385Y-65302381D01*
X161543763Y-65293610D01*
X161698386Y-65243369D01*
X161713596Y-65242935D01*
X161727856Y-65237617D01*
X161747811Y-65241958D01*
X161768226Y-65241375D01*
X161782313Y-65249463D01*
X161796129Y-65252469D01*
X161824378Y-65273615D01*
X161824384Y-65273619D01*
X161824478Y-65273713D01*
X161824480Y-65273716D01*
X161936284Y-65385520D01*
X161936286Y-65385521D01*
X161943356Y-65392591D01*
X165071681Y-68520916D01*
X165105166Y-68582239D01*
X165108000Y-68608597D01*
X165108000Y-105079742D01*
X165088315Y-105146781D01*
X165035511Y-105192536D01*
X164966353Y-105202480D01*
X164945682Y-105197673D01*
X164758747Y-105136934D01*
X164758748Y-105136934D01*
X164525552Y-105100000D01*
X164289448Y-105100000D01*
X164056252Y-105136934D01*
X163831697Y-105209897D01*
X163621330Y-105317084D01*
X163538394Y-105377340D01*
X164237266Y-106076212D01*
X164195208Y-106087482D01*
X164069792Y-106159890D01*
X163967390Y-106262292D01*
X163894982Y-106387708D01*
X163883712Y-106429765D01*
X163184840Y-105730894D01*
X163124584Y-105813830D01*
X163017397Y-106024197D01*
X162944434Y-106248752D01*
X162907500Y-106481947D01*
X162907500Y-106718052D01*
X162944434Y-106951247D01*
X163017397Y-107175802D01*
X163124587Y-107386174D01*
X163184838Y-107469104D01*
X163184840Y-107469105D01*
X163883712Y-106770233D01*
X163894982Y-106812292D01*
X163967390Y-106937708D01*
X164069792Y-107040110D01*
X164195208Y-107112518D01*
X164237264Y-107123787D01*
X163538393Y-107822658D01*
X163621328Y-107882914D01*
X163831697Y-107990102D01*
X164056252Y-108063065D01*
X164056251Y-108063065D01*
X164289448Y-108100000D01*
X164525552Y-108100000D01*
X164758745Y-108063065D01*
X164945681Y-108002326D01*
X165015522Y-108000331D01*
X165075355Y-108036411D01*
X165106184Y-108099112D01*
X165108000Y-108120257D01*
X165108000Y-109579215D01*
X165088315Y-109646254D01*
X165035511Y-109692009D01*
X164966353Y-109701953D01*
X164945682Y-109697146D01*
X164758870Y-109636447D01*
X164525597Y-109599500D01*
X164525592Y-109599500D01*
X164289408Y-109599500D01*
X164289403Y-109599500D01*
X164056131Y-109636446D01*
X163831503Y-109709433D01*
X163621066Y-109816657D01*
X163512050Y-109895862D01*
X163429990Y-109955483D01*
X163429988Y-109955485D01*
X163429987Y-109955485D01*
X163262985Y-110122487D01*
X163262985Y-110122488D01*
X163262983Y-110122490D01*
X163203362Y-110204550D01*
X163124157Y-110313566D01*
X163016933Y-110524003D01*
X162943946Y-110748631D01*
X162907000Y-110981902D01*
X162907000Y-111218097D01*
X162943946Y-111451368D01*
X163016933Y-111675996D01*
X163124157Y-111886433D01*
X163262983Y-112077510D01*
X163429990Y-112244517D01*
X163621067Y-112383343D01*
X163707000Y-112427128D01*
X163831503Y-112490566D01*
X163831505Y-112490566D01*
X163831508Y-112490568D01*
X163951912Y-112529689D01*
X164056131Y-112563553D01*
X164289403Y-112600500D01*
X164289408Y-112600500D01*
X164525597Y-112600500D01*
X164758868Y-112563553D01*
X164945682Y-112502852D01*
X165015522Y-112500858D01*
X165075355Y-112536938D01*
X165106184Y-112599639D01*
X165108000Y-112620784D01*
X165108000Y-125079742D01*
X165088315Y-125146781D01*
X165035511Y-125192536D01*
X164966353Y-125202480D01*
X164945682Y-125197673D01*
X164758747Y-125136934D01*
X164758748Y-125136934D01*
X164525552Y-125100000D01*
X164289448Y-125100000D01*
X164056252Y-125136934D01*
X163831697Y-125209897D01*
X163621330Y-125317084D01*
X163538394Y-125377340D01*
X164237266Y-126076212D01*
X164195208Y-126087482D01*
X164069792Y-126159890D01*
X163967390Y-126262292D01*
X163894982Y-126387708D01*
X163883712Y-126429766D01*
X163184840Y-125730894D01*
X163124584Y-125813830D01*
X163017397Y-126024197D01*
X162944434Y-126248752D01*
X162907500Y-126481947D01*
X162907500Y-126611511D01*
X162887815Y-126678550D01*
X162835011Y-126724305D01*
X162765853Y-126734249D01*
X162702297Y-126705224D01*
X162695819Y-126699192D01*
X154308308Y-118311681D01*
X154274823Y-118250358D01*
X154279807Y-118180666D01*
X154321679Y-118124733D01*
X154387143Y-118100316D01*
X154395989Y-118100000D01*
X154525552Y-118100000D01*
X154758747Y-118063065D01*
X154983302Y-117990102D01*
X155193663Y-117882918D01*
X155193669Y-117882914D01*
X155276604Y-117822658D01*
X155276605Y-117822658D01*
X154577733Y-117123787D01*
X154619792Y-117112518D01*
X154745208Y-117040110D01*
X154847610Y-116937708D01*
X154920018Y-116812292D01*
X154931287Y-116770234D01*
X155630158Y-117469105D01*
X155630158Y-117469104D01*
X155690414Y-117386169D01*
X155690418Y-117386163D01*
X155797602Y-117175802D01*
X155870565Y-116951247D01*
X155907500Y-116718052D01*
X155907500Y-116481947D01*
X155870565Y-116248752D01*
X155797602Y-116024197D01*
X155690414Y-115813828D01*
X155630158Y-115730894D01*
X155630158Y-115730893D01*
X154931287Y-116429765D01*
X154920018Y-116387708D01*
X154847610Y-116262292D01*
X154745208Y-116159890D01*
X154619792Y-116087482D01*
X154577734Y-116076212D01*
X155276605Y-115377340D01*
X155276604Y-115377338D01*
X155193674Y-115317087D01*
X154983302Y-115209897D01*
X154758747Y-115136934D01*
X154758748Y-115136934D01*
X154525552Y-115100000D01*
X154289448Y-115100000D01*
X154056252Y-115136934D01*
X153831697Y-115209897D01*
X153621330Y-115317084D01*
X153538394Y-115377340D01*
X154237266Y-116076212D01*
X154195208Y-116087482D01*
X154069792Y-116159890D01*
X153967390Y-116262292D01*
X153894982Y-116387708D01*
X153883712Y-116429766D01*
X153184840Y-115730894D01*
X153124584Y-115813830D01*
X153017397Y-116024197D01*
X152944434Y-116248752D01*
X152907500Y-116481947D01*
X152907500Y-116611511D01*
X152887815Y-116678550D01*
X152835011Y-116724305D01*
X152765853Y-116734249D01*
X152702297Y-116705224D01*
X152695819Y-116699192D01*
X139701644Y-103705017D01*
X139668159Y-103643694D01*
X139673143Y-103574002D01*
X139706794Y-103526909D01*
X139705982Y-103526097D01*
X139821786Y-103410292D01*
X139821789Y-103410289D01*
X139909394Y-103279179D01*
X139969737Y-103133497D01*
X140000500Y-102978842D01*
X140000500Y-102821158D01*
X140000500Y-102821155D01*
X140000499Y-102821153D01*
X139969738Y-102666510D01*
X139969737Y-102666503D01*
X139909603Y-102521325D01*
X139909397Y-102520827D01*
X139909390Y-102520814D01*
X139821398Y-102389125D01*
X139800520Y-102322447D01*
X139800500Y-102320234D01*
X139800500Y-100300097D01*
X139820185Y-100233058D01*
X139836819Y-100212416D01*
X141158486Y-98890749D01*
X147014664Y-93034571D01*
X147075985Y-93001088D01*
X147078152Y-93000637D01*
X147078841Y-93000500D01*
X147078842Y-93000500D01*
X147233497Y-92969737D01*
X147379179Y-92909394D01*
X147510289Y-92821789D01*
X147621789Y-92710289D01*
X147709394Y-92579179D01*
X147769737Y-92433497D01*
X147800500Y-92278842D01*
X147800500Y-92121158D01*
X147800500Y-92121155D01*
X147800499Y-92121153D01*
X147769738Y-91966510D01*
X147769738Y-91966508D01*
X147769737Y-91966503D01*
X147752249Y-91924283D01*
X147709397Y-91820827D01*
X147709390Y-91820814D01*
X147621789Y-91689711D01*
X147621786Y-91689707D01*
X147510292Y-91578213D01*
X147510288Y-91578210D01*
X147379185Y-91490609D01*
X147379172Y-91490602D01*
X147233501Y-91430264D01*
X147233489Y-91430261D01*
X147078845Y-91399500D01*
X147078842Y-91399500D01*
X146921158Y-91399500D01*
X146921155Y-91399500D01*
X146766510Y-91430261D01*
X146766498Y-91430264D01*
X146620827Y-91490602D01*
X146620814Y-91490609D01*
X146489711Y-91578210D01*
X146489707Y-91578213D01*
X146378213Y-91689707D01*
X146378210Y-91689711D01*
X146290609Y-91820814D01*
X146290602Y-91820827D01*
X146230264Y-91966498D01*
X146230261Y-91966508D01*
X146199362Y-92121848D01*
X146166977Y-92183759D01*
X146165426Y-92185337D01*
X138831286Y-99519478D01*
X138719481Y-99631282D01*
X138719479Y-99631284D01*
X138690661Y-99681200D01*
X138678480Y-99702299D01*
X138640423Y-99768215D01*
X138599499Y-99920943D01*
X138599499Y-99920945D01*
X138599499Y-100089046D01*
X138599500Y-100089059D01*
X138599500Y-102303511D01*
X138579815Y-102370550D01*
X138527011Y-102416305D01*
X138457853Y-102426249D01*
X138394297Y-102397224D01*
X138387819Y-102391192D01*
X137936819Y-101940192D01*
X137903334Y-101878869D01*
X137900500Y-101852511D01*
X137900500Y-65400682D01*
X137920185Y-65333643D01*
X137972989Y-65287888D01*
X138042147Y-65277944D01*
X138062817Y-65282751D01*
X138096237Y-65293610D01*
X138173970Y-65305921D01*
X138291264Y-65324500D01*
X138291269Y-65324500D01*
X138488736Y-65324500D01*
X138683763Y-65293610D01*
X138686108Y-65292848D01*
X138871561Y-65232591D01*
X139047501Y-65142944D01*
X139157286Y-65063181D01*
X139207246Y-65026884D01*
X139207248Y-65026881D01*
X139207252Y-65026879D01*
X139346879Y-64887252D01*
X139346881Y-64887248D01*
X139346884Y-64887246D01*
X139462941Y-64727505D01*
X139462943Y-64727502D01*
X139462944Y-64727501D01*
X139549517Y-64557593D01*
X139597490Y-64506800D01*
X139665311Y-64490005D01*
X139731446Y-64512542D01*
X139770482Y-64557593D01*
X139853804Y-64721119D01*
X139857058Y-64727505D01*
X139973115Y-64887246D01*
X140112753Y-65026884D01*
X140244681Y-65122733D01*
X140272499Y-65142944D01*
X140448439Y-65232591D01*
X140573637Y-65273270D01*
X140636236Y-65293610D01*
X140831264Y-65324500D01*
X140831269Y-65324500D01*
X141028736Y-65324500D01*
X141223763Y-65293610D01*
X141226108Y-65292848D01*
X141411561Y-65232591D01*
X141587501Y-65142944D01*
X141697286Y-65063181D01*
X141747246Y-65026884D01*
X141747248Y-65026881D01*
X141747252Y-65026879D01*
X141886879Y-64887252D01*
X141886881Y-64887248D01*
X141886884Y-64887246D01*
X142002941Y-64727505D01*
X142002943Y-64727502D01*
X142002944Y-64727501D01*
X142089517Y-64557593D01*
X142137490Y-64506800D01*
X142205311Y-64490005D01*
X142271446Y-64512542D01*
X142310482Y-64557593D01*
X142393804Y-64721119D01*
X142397058Y-64727505D01*
X142513115Y-64887246D01*
X142652753Y-65026884D01*
X142784681Y-65122733D01*
X142812499Y-65142944D01*
X142988439Y-65232591D01*
X143113637Y-65273270D01*
X143176236Y-65293610D01*
X143371264Y-65324500D01*
X143371269Y-65324500D01*
X143568736Y-65324500D01*
X143763763Y-65293610D01*
X143766108Y-65292848D01*
X143951561Y-65232591D01*
X144127501Y-65142944D01*
X144237286Y-65063181D01*
X144287246Y-65026884D01*
X144287248Y-65026881D01*
X144287252Y-65026879D01*
X144426879Y-64887252D01*
X144426881Y-64887248D01*
X144426884Y-64887246D01*
X144542941Y-64727505D01*
X144542943Y-64727502D01*
X144542944Y-64727501D01*
X144629517Y-64557593D01*
X144677490Y-64506800D01*
X144745311Y-64490005D01*
X144811446Y-64512542D01*
X144850482Y-64557593D01*
X144933804Y-64721119D01*
X144937058Y-64727505D01*
X145053115Y-64887246D01*
X145192753Y-65026884D01*
X145324681Y-65122733D01*
X145352499Y-65142944D01*
X145528439Y-65232591D01*
X145653637Y-65273270D01*
X145716236Y-65293610D01*
X145911264Y-65324500D01*
X145911269Y-65324500D01*
X146108736Y-65324500D01*
X146303763Y-65293610D01*
X146306108Y-65292848D01*
X146491561Y-65232591D01*
X146667501Y-65142944D01*
X146777286Y-65063181D01*
X146827246Y-65026884D01*
X146827248Y-65026881D01*
X146827252Y-65026879D01*
X146966879Y-64887252D01*
X146966881Y-64887248D01*
X146966884Y-64887246D01*
X147082941Y-64727505D01*
X147082943Y-64727502D01*
X147082944Y-64727501D01*
X147169517Y-64557593D01*
X147217490Y-64506800D01*
X147285311Y-64490005D01*
X147351446Y-64512542D01*
X147390482Y-64557593D01*
X147473804Y-64721119D01*
X147477058Y-64727505D01*
X147593115Y-64887246D01*
X147732753Y-65026884D01*
X147864681Y-65122733D01*
X147892499Y-65142944D01*
X148068439Y-65232591D01*
X148193637Y-65273270D01*
X148256236Y-65293610D01*
X148451264Y-65324500D01*
X148451269Y-65324500D01*
X148648736Y-65324500D01*
X148843763Y-65293610D01*
X148846108Y-65292848D01*
X149031561Y-65232591D01*
X149207501Y-65142944D01*
X149317286Y-65063181D01*
X149367246Y-65026884D01*
X149367248Y-65026881D01*
X149367252Y-65026879D01*
X149506879Y-64887252D01*
X149506881Y-64887248D01*
X149506884Y-64887246D01*
X149622941Y-64727505D01*
X149622943Y-64727502D01*
X149622944Y-64727501D01*
X149709517Y-64557593D01*
X149757490Y-64506800D01*
X149825311Y-64490005D01*
X149891446Y-64512542D01*
X149930482Y-64557593D01*
X150013804Y-64721119D01*
X150017058Y-64727505D01*
X150133115Y-64887246D01*
X150272753Y-65026884D01*
X150404681Y-65122733D01*
X150432499Y-65142944D01*
X150608439Y-65232591D01*
X150733637Y-65273270D01*
X150796236Y-65293610D01*
X150991264Y-65324500D01*
X150991269Y-65324500D01*
X151188736Y-65324500D01*
X151383763Y-65293610D01*
X151386108Y-65292848D01*
X151571561Y-65232591D01*
X151747501Y-65142944D01*
X151857286Y-65063181D01*
X151907246Y-65026884D01*
X151907248Y-65026881D01*
X151907252Y-65026879D01*
X152046879Y-64887252D01*
X152046881Y-64887248D01*
X152046884Y-64887246D01*
X152162941Y-64727505D01*
X152162943Y-64727502D01*
X152162944Y-64727501D01*
X152249517Y-64557593D01*
X152297490Y-64506800D01*
X152365311Y-64490005D01*
X152431446Y-64512542D01*
X152470482Y-64557593D01*
X152553804Y-64721119D01*
X152557058Y-64727505D01*
X152673115Y-64887246D01*
X152812753Y-65026884D01*
X152944681Y-65122733D01*
X152972499Y-65142944D01*
X153148439Y-65232591D01*
X153273637Y-65273270D01*
X153336236Y-65293610D01*
X153531264Y-65324500D01*
X153531269Y-65324500D01*
X153728736Y-65324500D01*
X153923763Y-65293610D01*
X153926108Y-65292848D01*
X154111561Y-65232591D01*
X154287501Y-65142944D01*
X154397286Y-65063181D01*
X154447246Y-65026884D01*
X154447248Y-65026881D01*
X154447252Y-65026879D01*
X154586879Y-64887252D01*
X154586881Y-64887248D01*
X154586884Y-64887246D01*
X154702941Y-64727505D01*
X154702943Y-64727502D01*
X154702944Y-64727501D01*
X154789517Y-64557593D01*
X154837490Y-64506800D01*
X154905311Y-64490005D01*
X154971446Y-64512542D01*
X155010482Y-64557593D01*
X155093804Y-64721119D01*
X155097058Y-64727505D01*
X155213115Y-64887246D01*
X155352753Y-65026884D01*
X155484681Y-65122733D01*
X155512499Y-65142944D01*
X155688439Y-65232591D01*
X155813637Y-65273270D01*
X155876236Y-65293610D01*
X156071264Y-65324500D01*
X156071269Y-65324500D01*
X156268736Y-65324500D01*
X156463763Y-65293610D01*
X156466108Y-65292848D01*
X156651561Y-65232591D01*
X156827501Y-65142944D01*
X156937286Y-65063181D01*
X156987246Y-65026884D01*
X156987248Y-65026881D01*
X156987252Y-65026879D01*
X157126879Y-64887252D01*
X157126881Y-64887248D01*
X157126884Y-64887246D01*
X157242941Y-64727505D01*
X157242943Y-64727502D01*
X157242944Y-64727501D01*
X157329517Y-64557593D01*
X157338159Y-64548442D01*
X157342895Y-64536776D01*
X157361696Y-64523521D01*
X157377490Y-64506800D01*
X157389710Y-64503773D01*
X157400002Y-64496519D01*
X157422984Y-64495533D01*
X157445311Y-64490005D01*
X157457228Y-64494066D01*
G37*
%TD.AperFunction*%
%TA.AperFunction,Conductor*%
G36*
X122684075Y-64262993D02*
G01*
X122749901Y-64377007D01*
X122842993Y-64470099D01*
X122957007Y-64535925D01*
X123020590Y-64552962D01*
X122510372Y-65063181D01*
X122449049Y-65096666D01*
X122422691Y-65099500D01*
X121653993Y-65099500D01*
X121586954Y-65079815D01*
X121541199Y-65027011D01*
X121531255Y-64957853D01*
X121560280Y-64894297D01*
X121566312Y-64887819D01*
X121566879Y-64887252D01*
X121566881Y-64887248D01*
X121566884Y-64887246D01*
X121657161Y-64762988D01*
X121682944Y-64727501D01*
X121769797Y-64557043D01*
X121817768Y-64506250D01*
X121885589Y-64489455D01*
X121951724Y-64511992D01*
X121990763Y-64557045D01*
X122077481Y-64727236D01*
X122103457Y-64762988D01*
X122103457Y-64762989D01*
X122667037Y-64199409D01*
X122684075Y-64262993D01*
G37*
%TD.AperFunction*%
%TA.AperFunction,Conductor*%
G36*
X124196541Y-64762988D02*
G01*
X124196543Y-64762988D01*
X124222516Y-64727241D01*
X124309235Y-64557046D01*
X124357210Y-64506250D01*
X124425031Y-64489455D01*
X124491165Y-64511992D01*
X124530202Y-64557042D01*
X124614423Y-64722334D01*
X124617058Y-64727505D01*
X124733115Y-64887246D01*
X124733688Y-64887819D01*
X124733834Y-64888087D01*
X124736278Y-64890948D01*
X124735676Y-64891461D01*
X124767173Y-64949142D01*
X124762189Y-65018834D01*
X124720317Y-65074767D01*
X124654853Y-65099184D01*
X124646007Y-65099500D01*
X123877309Y-65099500D01*
X123810270Y-65079815D01*
X123789628Y-65063181D01*
X123279409Y-64552962D01*
X123342993Y-64535925D01*
X123457007Y-64470099D01*
X123550099Y-64377007D01*
X123615925Y-64262993D01*
X123632962Y-64199409D01*
X124196541Y-64762988D01*
G37*
%TD.AperFunction*%
%TA.AperFunction,Conductor*%
G36*
X121951446Y-61972542D02*
G01*
X121990482Y-62017593D01*
X122059904Y-62153838D01*
X122077058Y-62187505D01*
X122193115Y-62347246D01*
X122332753Y-62486884D01*
X122492494Y-62602941D01*
X122492496Y-62602942D01*
X122492499Y-62602944D01*
X122662956Y-62689797D01*
X122713749Y-62737768D01*
X122730544Y-62805589D01*
X122708007Y-62871724D01*
X122662954Y-62910763D01*
X122492767Y-62997479D01*
X122492760Y-62997483D01*
X122457010Y-63023456D01*
X122457010Y-63023457D01*
X123020591Y-63587037D01*
X122957007Y-63604075D01*
X122842993Y-63669901D01*
X122749901Y-63762993D01*
X122684075Y-63877007D01*
X122667037Y-63940590D01*
X122103457Y-63377010D01*
X122103456Y-63377010D01*
X122077483Y-63412760D01*
X122077479Y-63412767D01*
X121990763Y-63582954D01*
X121942788Y-63633749D01*
X121874967Y-63650544D01*
X121808833Y-63628006D01*
X121769798Y-63582957D01*
X121682944Y-63412499D01*
X121682942Y-63412496D01*
X121682941Y-63412494D01*
X121566884Y-63252753D01*
X121427246Y-63113115D01*
X121267505Y-62997058D01*
X121261119Y-62993804D01*
X121097593Y-62910482D01*
X121046800Y-62862510D01*
X121030005Y-62794689D01*
X121052542Y-62728554D01*
X121097593Y-62689517D01*
X121267501Y-62602944D01*
X121303842Y-62576541D01*
X121427246Y-62486884D01*
X121427248Y-62486881D01*
X121427252Y-62486879D01*
X121566879Y-62347252D01*
X121566881Y-62347248D01*
X121566884Y-62347246D01*
X121682941Y-62187505D01*
X121682943Y-62187502D01*
X121682944Y-62187501D01*
X121769517Y-62017593D01*
X121817490Y-61966800D01*
X121885311Y-61950005D01*
X121951446Y-61972542D01*
G37*
%TD.AperFunction*%
%TA.AperFunction,Conductor*%
G36*
X124437228Y-61954066D02*
G01*
X124449807Y-61953527D01*
X124469670Y-61965121D01*
X124491446Y-61972542D01*
X124500720Y-61983245D01*
X124510149Y-61988749D01*
X124530481Y-62017591D01*
X124599904Y-62153838D01*
X124617058Y-62187505D01*
X124733115Y-62347246D01*
X124872753Y-62486884D01*
X125022234Y-62595486D01*
X125032499Y-62602944D01*
X125202404Y-62689516D01*
X125253199Y-62737490D01*
X125269994Y-62805311D01*
X125247456Y-62871446D01*
X125202404Y-62910483D01*
X125118005Y-62953488D01*
X125032495Y-62997058D01*
X124872753Y-63113115D01*
X124733115Y-63252753D01*
X124617058Y-63412495D01*
X124617056Y-63412499D01*
X124530203Y-63582954D01*
X124482230Y-63633749D01*
X124414409Y-63650544D01*
X124348274Y-63628006D01*
X124309235Y-63582953D01*
X124222520Y-63412768D01*
X124222512Y-63412755D01*
X124196542Y-63377010D01*
X124196541Y-63377009D01*
X123632962Y-63940589D01*
X123615925Y-63877007D01*
X123550099Y-63762993D01*
X123457007Y-63669901D01*
X123342993Y-63604075D01*
X123279409Y-63587037D01*
X123842989Y-63023457D01*
X123807236Y-62997481D01*
X123637045Y-62910763D01*
X123586250Y-62862789D01*
X123569455Y-62794968D01*
X123591993Y-62728833D01*
X123637042Y-62689798D01*
X123807501Y-62602944D01*
X123855283Y-62568228D01*
X123967246Y-62486884D01*
X123967248Y-62486881D01*
X123967252Y-62486879D01*
X124106879Y-62347252D01*
X124106881Y-62347248D01*
X124106884Y-62347246D01*
X124222941Y-62187505D01*
X124222943Y-62187502D01*
X124222944Y-62187501D01*
X124309517Y-62017593D01*
X124318159Y-62008442D01*
X124322895Y-61996776D01*
X124341696Y-61983521D01*
X124357490Y-61966800D01*
X124369710Y-61963773D01*
X124380002Y-61956519D01*
X124402984Y-61955533D01*
X124425311Y-61950005D01*
X124437228Y-61954066D01*
G37*
%TD.AperFunction*%
%TA.AperFunction,Conductor*%
G36*
X127764075Y-61722993D02*
G01*
X127829901Y-61837007D01*
X127922993Y-61930099D01*
X128037007Y-61995925D01*
X128100590Y-62012962D01*
X127537009Y-62576541D01*
X127537010Y-62576542D01*
X127572755Y-62602512D01*
X127572768Y-62602520D01*
X127742953Y-62689235D01*
X127793749Y-62737210D01*
X127810544Y-62805031D01*
X127788006Y-62871166D01*
X127742954Y-62910203D01*
X127653403Y-62955833D01*
X127572495Y-62997058D01*
X127412753Y-63113115D01*
X127273115Y-63252753D01*
X127157058Y-63412495D01*
X127157056Y-63412499D01*
X127076805Y-63570000D01*
X127070485Y-63582403D01*
X127022510Y-63633199D01*
X126954689Y-63649994D01*
X126888554Y-63627456D01*
X126849515Y-63582403D01*
X126762944Y-63412499D01*
X126737159Y-63377009D01*
X126646884Y-63252753D01*
X126507246Y-63113115D01*
X126347505Y-62997058D01*
X126341119Y-62993804D01*
X126177593Y-62910482D01*
X126126800Y-62862510D01*
X126110005Y-62794689D01*
X126132542Y-62728554D01*
X126177593Y-62689517D01*
X126347501Y-62602944D01*
X126383842Y-62576541D01*
X126507246Y-62486884D01*
X126507248Y-62486881D01*
X126507252Y-62486879D01*
X126646879Y-62347252D01*
X126646881Y-62347248D01*
X126646884Y-62347246D01*
X126762943Y-62187502D01*
X126763079Y-62187236D01*
X126849797Y-62017043D01*
X126897768Y-61966250D01*
X126965589Y-61949455D01*
X127031724Y-61971992D01*
X127070763Y-62017045D01*
X127157481Y-62187236D01*
X127183457Y-62222988D01*
X127183457Y-62222989D01*
X127747037Y-61659409D01*
X127764075Y-61722993D01*
G37*
%TD.AperFunction*%
%TA.AperFunction,Conductor*%
G36*
X129276541Y-62222988D02*
G01*
X129276543Y-62222988D01*
X129302516Y-62187241D01*
X129389235Y-62017046D01*
X129437210Y-61966250D01*
X129505031Y-61949455D01*
X129571165Y-61971992D01*
X129610202Y-62017042D01*
X129679904Y-62153838D01*
X129697058Y-62187505D01*
X129813115Y-62347246D01*
X129952753Y-62486884D01*
X130102234Y-62595486D01*
X130112499Y-62602944D01*
X130282404Y-62689516D01*
X130333199Y-62737490D01*
X130349994Y-62805311D01*
X130327456Y-62871446D01*
X130282404Y-62910483D01*
X130198005Y-62953488D01*
X130112495Y-62997058D01*
X129952753Y-63113115D01*
X129813115Y-63252753D01*
X129697058Y-63412495D01*
X129697056Y-63412499D01*
X129616805Y-63570000D01*
X129610485Y-63582403D01*
X129562510Y-63633199D01*
X129494689Y-63649994D01*
X129428554Y-63627456D01*
X129389515Y-63582403D01*
X129302944Y-63412499D01*
X129277159Y-63377009D01*
X129186884Y-63252753D01*
X129047246Y-63113115D01*
X128887505Y-62997058D01*
X128882334Y-62994423D01*
X128717043Y-62910202D01*
X128666250Y-62862230D01*
X128649455Y-62794409D01*
X128671992Y-62728275D01*
X128717046Y-62689235D01*
X128887241Y-62602516D01*
X128922988Y-62576543D01*
X128922988Y-62576541D01*
X128359410Y-62012962D01*
X128422993Y-61995925D01*
X128537007Y-61930099D01*
X128630099Y-61837007D01*
X128695925Y-61722993D01*
X128712962Y-61659409D01*
X129276541Y-62222988D01*
G37*
%TD.AperFunction*%
%TA.AperFunction,Conductor*%
G36*
X145898941Y-55499185D02*
G01*
X145944696Y-55551989D01*
X145954640Y-55621147D01*
X145925615Y-55684703D01*
X145919583Y-55691181D01*
X141337870Y-60272892D01*
X141276547Y-60306377D01*
X141228778Y-60305865D01*
X141228575Y-60307152D01*
X141028736Y-60275500D01*
X141028731Y-60275500D01*
X140831269Y-60275500D01*
X140831264Y-60275500D01*
X140636236Y-60306389D01*
X140448441Y-60367408D01*
X140272495Y-60457058D01*
X140112753Y-60573115D01*
X139973115Y-60712753D01*
X139857058Y-60872495D01*
X139857056Y-60872499D01*
X139776805Y-61030000D01*
X139770485Y-61042403D01*
X139722510Y-61093199D01*
X139654689Y-61109994D01*
X139588554Y-61087456D01*
X139549515Y-61042403D01*
X139462944Y-60872499D01*
X139437159Y-60837009D01*
X139346884Y-60712753D01*
X139207246Y-60573115D01*
X139047504Y-60457058D01*
X139047503Y-60457057D01*
X139047501Y-60457056D01*
X138871561Y-60367409D01*
X138871558Y-60367408D01*
X138683763Y-60306389D01*
X138488736Y-60275500D01*
X138488731Y-60275500D01*
X138291269Y-60275500D01*
X138291264Y-60275500D01*
X138096236Y-60306389D01*
X137908441Y-60367408D01*
X137732495Y-60457058D01*
X137572753Y-60573115D01*
X137572749Y-60573119D01*
X137491229Y-60654638D01*
X137429906Y-60688123D01*
X137360214Y-60683137D01*
X137315868Y-60654637D01*
X136774586Y-60113355D01*
X136774584Y-60113352D01*
X136655713Y-59994481D01*
X136655712Y-59994480D01*
X136568900Y-59944360D01*
X136568900Y-59944359D01*
X136568896Y-59944358D01*
X136518781Y-59915423D01*
X136366053Y-59874499D01*
X136207939Y-59874499D01*
X136200343Y-59874499D01*
X136200327Y-59874500D01*
X134444057Y-59874500D01*
X134285942Y-59874500D01*
X134133215Y-59915423D01*
X134133214Y-59915423D01*
X134133212Y-59915424D01*
X134133209Y-59915425D01*
X134083096Y-59944359D01*
X134083095Y-59944360D01*
X134049282Y-59963882D01*
X133996285Y-59994479D01*
X133996282Y-59994481D01*
X133884480Y-60106283D01*
X133884480Y-60106284D01*
X133884478Y-60106286D01*
X133799983Y-60190781D01*
X133717871Y-60272893D01*
X133656548Y-60306377D01*
X133608778Y-60305868D01*
X133608575Y-60307152D01*
X133408736Y-60275500D01*
X133408731Y-60275500D01*
X133211269Y-60275500D01*
X133211264Y-60275500D01*
X133016236Y-60306389D01*
X132828441Y-60367408D01*
X132652495Y-60457058D01*
X132492753Y-60573115D01*
X132353115Y-60712753D01*
X132237058Y-60872495D01*
X132237056Y-60872499D01*
X132156805Y-61030000D01*
X132150485Y-61042403D01*
X132102510Y-61093199D01*
X132034689Y-61109994D01*
X131968554Y-61087456D01*
X131929515Y-61042403D01*
X131842944Y-60872499D01*
X131817159Y-60837009D01*
X131726884Y-60712753D01*
X131587246Y-60573115D01*
X131427504Y-60457058D01*
X131427503Y-60457057D01*
X131427501Y-60457056D01*
X131251561Y-60367409D01*
X131251558Y-60367408D01*
X131063763Y-60306389D01*
X130868736Y-60275500D01*
X130868731Y-60275500D01*
X130671269Y-60275500D01*
X130671264Y-60275500D01*
X130476236Y-60306389D01*
X130288441Y-60367408D01*
X130112495Y-60457058D01*
X129952753Y-60573115D01*
X129813115Y-60712753D01*
X129697058Y-60872495D01*
X129697056Y-60872499D01*
X129610203Y-61042954D01*
X129562230Y-61093749D01*
X129494409Y-61110544D01*
X129428274Y-61088006D01*
X129389235Y-61042953D01*
X129302520Y-60872768D01*
X129302512Y-60872755D01*
X129276542Y-60837010D01*
X129276541Y-60837009D01*
X128712962Y-61400589D01*
X128695925Y-61337007D01*
X128630099Y-61222993D01*
X128537007Y-61129901D01*
X128422993Y-61064075D01*
X128359409Y-61047037D01*
X128922989Y-60483457D01*
X128887239Y-60457483D01*
X128711373Y-60367873D01*
X128523646Y-60306876D01*
X128328697Y-60276000D01*
X128131303Y-60276000D01*
X127936353Y-60306876D01*
X127748626Y-60367873D01*
X127572762Y-60457482D01*
X127572760Y-60457483D01*
X127537010Y-60483456D01*
X127537010Y-60483457D01*
X128100591Y-61047037D01*
X128037007Y-61064075D01*
X127922993Y-61129901D01*
X127829901Y-61222993D01*
X127764075Y-61337007D01*
X127747037Y-61400590D01*
X127183457Y-60837010D01*
X127183456Y-60837010D01*
X127157483Y-60872760D01*
X127157479Y-60872767D01*
X127070763Y-61042954D01*
X127022788Y-61093749D01*
X126954967Y-61110544D01*
X126888833Y-61088006D01*
X126849798Y-61042957D01*
X126762944Y-60872499D01*
X126762942Y-60872496D01*
X126762941Y-60872494D01*
X126646884Y-60712753D01*
X126507246Y-60573115D01*
X126347504Y-60457058D01*
X126347503Y-60457057D01*
X126347501Y-60457056D01*
X126171561Y-60367409D01*
X126171558Y-60367408D01*
X125983763Y-60306389D01*
X125788736Y-60275500D01*
X125788731Y-60275500D01*
X125591269Y-60275500D01*
X125591264Y-60275500D01*
X125396236Y-60306389D01*
X125208441Y-60367408D01*
X125032495Y-60457058D01*
X124872753Y-60573115D01*
X124733115Y-60712753D01*
X124617058Y-60872495D01*
X124617056Y-60872499D01*
X124536805Y-61030000D01*
X124530485Y-61042403D01*
X124482510Y-61093199D01*
X124414689Y-61109994D01*
X124348554Y-61087456D01*
X124309515Y-61042403D01*
X124222944Y-60872499D01*
X124197159Y-60837009D01*
X124106884Y-60712753D01*
X123967246Y-60573115D01*
X123807504Y-60457058D01*
X123807503Y-60457057D01*
X123807501Y-60457056D01*
X123631561Y-60367409D01*
X123631558Y-60367408D01*
X123443763Y-60306389D01*
X123248736Y-60275500D01*
X123248731Y-60275500D01*
X123051269Y-60275500D01*
X123051264Y-60275500D01*
X122856236Y-60306389D01*
X122668441Y-60367408D01*
X122492495Y-60457058D01*
X122332753Y-60573115D01*
X122193115Y-60712753D01*
X122077058Y-60872495D01*
X122077056Y-60872499D01*
X121996805Y-61030000D01*
X121990485Y-61042403D01*
X121942510Y-61093199D01*
X121874689Y-61109994D01*
X121808554Y-61087456D01*
X121769515Y-61042403D01*
X121682944Y-60872499D01*
X121657159Y-60837009D01*
X121566884Y-60712753D01*
X121427246Y-60573115D01*
X121267504Y-60457058D01*
X121267503Y-60457057D01*
X121267501Y-60457056D01*
X121091561Y-60367409D01*
X121091558Y-60367408D01*
X120903763Y-60306389D01*
X120708736Y-60275500D01*
X120708731Y-60275500D01*
X120511269Y-60275500D01*
X120511266Y-60275500D01*
X120487144Y-60279320D01*
X120417851Y-60270363D01*
X120364400Y-60225366D01*
X120343762Y-60158614D01*
X120362488Y-60091300D01*
X120380063Y-60069170D01*
X124933416Y-55515819D01*
X124994739Y-55482334D01*
X125021097Y-55479500D01*
X145831902Y-55479500D01*
X145898941Y-55499185D01*
G37*
%TD.AperFunction*%
%TD*%
M02*
