M48
; DRILL file {KiCad 9.0.3} date 2026-05-17T22:43:52+0530
; FORMAT={-:-/ absolute / metric / decimal}
; #@! TF.CreationDate,2026-05-17T22:43:52+05:30
; #@! TF.GenerationSoftware,Kicad,Pcbnew,9.0.3
; #@! TF.FileFunction,Plated,1,2,PTH
FMAT,2
METRIC
; #@! TA.AperFunction,Plated,PTH,ViaDrill
T1C0.300
; #@! TA.AperFunction,Plated,PTH,ComponentDrill
T2C1.000
; #@! TA.AperFunction,Plated,PTH,ComponentDrill
T3C1.100
%
G90
G05
T1
X129.345Y-69.552
X129.51Y-77.953
X132.045Y-76.352
X134.945Y-106.752
X142.745Y-96.052
X147.674Y-103.323
X171.628Y-63.252
X174.345Y-64.953
T2
X113.815Y-65.382
X113.815Y-67.922
X116.355Y-65.382
X116.355Y-67.922
X118.895Y-65.382
X118.895Y-67.922
X121.435Y-65.382
X121.435Y-67.922
X123.975Y-65.382
X123.975Y-67.922
X126.515Y-65.382
X126.515Y-67.922
X129.055Y-65.382
X129.055Y-67.922
X131.595Y-65.382
X131.595Y-67.922
X134.135Y-65.382
X134.135Y-67.922
X136.675Y-65.382
X136.675Y-67.922
X139.215Y-65.382
X139.215Y-67.922
X141.755Y-65.382
X141.755Y-67.922
X144.295Y-65.382
X144.295Y-67.922
X146.835Y-65.382
X146.835Y-67.922
X149.375Y-65.382
X149.375Y-67.922
X151.915Y-65.382
X151.915Y-67.922
X154.455Y-65.382
X154.455Y-67.922
X156.995Y-65.382
X156.995Y-67.922
X159.535Y-65.382
X159.535Y-67.922
X162.075Y-65.382
X162.075Y-67.922
X179.403Y-47.182
X179.403Y-49.722
X179.403Y-52.262
X179.403Y-54.802
X179.403Y-57.342
X179.403Y-59.883
X179.403Y-62.422
X179.403Y-64.962
X179.403Y-67.502
X179.403Y-70.042
X179.403Y-72.582
X179.403Y-75.123
X179.403Y-77.662
X179.403Y-80.203
T3
X100.152Y-120.453
X100.152Y-124.953
X103.152Y-93.453
X103.152Y-97.953
X106.652Y-120.453
X106.652Y-124.953
X109.652Y-93.453
X109.652Y-97.953
X110.152Y-110.453
X110.152Y-114.953
X110.152Y-130.452
X110.152Y-134.952
X116.652Y-110.453
X116.652Y-114.953
X116.652Y-130.452
X116.652Y-134.952
X120.152Y-93.453
X120.152Y-97.953
X120.152Y-120.453
X120.152Y-124.953
X125.152Y-145.452
X125.152Y-149.952
X126.652Y-93.453
X126.652Y-97.953
X126.652Y-120.453
X126.652Y-124.953
X131.653Y-145.452
X131.653Y-149.952
X145.153Y-145.452
X145.153Y-149.952
X150.153Y-93.453
X150.153Y-97.953
X150.153Y-120.453
X150.153Y-124.953
X151.653Y-145.452
X151.653Y-149.952
X156.653Y-93.453
X156.653Y-97.953
X156.653Y-120.453
X156.653Y-124.953
X160.153Y-110.453
X160.153Y-114.953
X160.153Y-130.452
X160.153Y-134.952
X166.653Y-110.453
X166.653Y-114.953
X166.653Y-130.452
X166.653Y-134.952
X167.153Y-93.453
X167.153Y-97.953
X170.153Y-120.453
X170.153Y-124.953
X173.653Y-93.453
X173.653Y-97.953
X176.653Y-120.453
X176.653Y-124.953
M30
