%TF.GenerationSoftware,KiCad,Pcbnew,9.0.3*%
%TF.CreationDate,2026-05-17T22:43:48+05:30*%
%TF.ProjectId,ProcastinationStation,50726f63-6173-4746-996e-6174696f6e53,rev?*%
%TF.SameCoordinates,Original*%
%TF.FileFunction,Copper,L2,Bot*%
%TF.FilePolarity,Positive*%
%FSLAX46Y46*%
G04 Gerber Fmt 4.6, Leading zero omitted, Abs format (unit mm)*
G04 Created by KiCad (PCBNEW 9.0.3) date 2026-05-17 22:43:48*
%MOMM*%
%LPD*%
G01*
G04 APERTURE LIST*
%TA.AperFunction,ComponentPad*%
%ADD10C,2.000000*%
%TD*%
%TA.AperFunction,ComponentPad*%
%ADD11R,1.700000X1.700000*%
%TD*%
%TA.AperFunction,ComponentPad*%
%ADD12C,1.700000*%
%TD*%
%TA.AperFunction,SMDPad,CuDef*%
%ADD13C,1.000000*%
%TD*%
%TA.AperFunction,ComponentPad*%
%ADD14R,1.508000X1.508000*%
%TD*%
%TA.AperFunction,ComponentPad*%
%ADD15C,1.508000*%
%TD*%
%TA.AperFunction,ViaPad*%
%ADD16C,0.600000*%
%TD*%
%TA.AperFunction,Conductor*%
%ADD17C,0.200000*%
%TD*%
G04 APERTURE END LIST*
D10*
%TO.P,SW3,1,1*%
%TO.N,GPIO26*%
X151652500Y-149952500D03*
X145152500Y-149952500D03*
%TO.P,SW3,2,2*%
%TO.N,GND*%
X151652500Y-145452500D03*
X145152500Y-145452500D03*
%TD*%
%TO.P,SW4,1,1*%
%TO.N,GPIO16*%
X156652500Y-124952500D03*
X150152500Y-124952500D03*
%TO.P,SW4,2,2*%
%TO.N,GND*%
X156652500Y-120452500D03*
X150152500Y-120452500D03*
%TD*%
%TO.P,SW10,1,1*%
%TO.N,GPIO13*%
X131652500Y-149952500D03*
X125152500Y-149952500D03*
%TO.P,SW10,2,2*%
%TO.N,GND*%
X131652500Y-145452500D03*
X125152500Y-145452500D03*
%TD*%
%TO.P,SW2,1,1*%
%TO.N,GPIO5*%
X176652500Y-124952500D03*
X170152500Y-124952500D03*
%TO.P,SW2,2,2*%
%TO.N,GND*%
X176652500Y-120452500D03*
X170152500Y-120452500D03*
%TD*%
%TO.P,SW11,1,1*%
%TO.N,GPIO20*%
X126652500Y-124952500D03*
X120152500Y-124952500D03*
%TO.P,SW11,2,2*%
%TO.N,GND*%
X126652500Y-120452500D03*
X120152500Y-120452500D03*
%TD*%
%TO.P,SW12,1,1*%
%TO.N,GPIO7*%
X116652500Y-114952500D03*
X110152500Y-114952500D03*
%TO.P,SW12,2,2*%
%TO.N,GND*%
X116652500Y-110452500D03*
X110152500Y-110452500D03*
%TD*%
%TO.P,SW14,1,1*%
%TO.N,GPIO19*%
X116652500Y-134952500D03*
X110152500Y-134952500D03*
%TO.P,SW14,2,2*%
%TO.N,GND*%
X116652500Y-130452500D03*
X110152500Y-130452500D03*
%TD*%
%TO.P,SW1,1,1*%
%TO.N,GPIO17*%
X166652500Y-114952500D03*
X160152500Y-114952500D03*
%TO.P,SW1,2,2*%
%TO.N,GND*%
X166652500Y-110452500D03*
X160152500Y-110452500D03*
%TD*%
D11*
%TO.P,J1,1,Pin_1*%
%TO.N,unconnected-(J1-Pin_1-Pad1)*%
X179402500Y-80202500D03*
D12*
%TO.P,J1,2,Pin_2*%
%TO.N,unconnected-(J1-Pin_2-Pad2)*%
X179402500Y-77662500D03*
%TO.P,J1,3,Pin_3*%
%TO.N,unconnected-(J1-Pin_3-Pad3)*%
X179402500Y-75122500D03*
%TO.P,J1,4,Pin_4*%
%TO.N,unconnected-(J1-Pin_4-Pad4)*%
X179402500Y-72582500D03*
%TO.P,J1,5,Pin_5*%
%TO.N,unconnected-(J1-Pin_5-Pad5)*%
X179402500Y-70042500D03*
%TO.P,J1,6,Pin_6*%
%TO.N,unconnected-(J1-Pin_6-Pad6)*%
X179402500Y-67502500D03*
%TO.P,J1,7,Pin_7*%
%TO.N,3v3*%
X179402500Y-64962500D03*
%TO.P,J1,8,Pin_8*%
%TO.N,GPIO11*%
X179402500Y-62422500D03*
%TO.P,J1,9,Pin_9*%
%TO.N,GPIO10*%
X179402500Y-59882500D03*
%TO.P,J1,10,Pin_10*%
%TO.N,GPIO24*%
X179402500Y-57342500D03*
%TO.P,J1,11,Pin_11*%
%TO.N,GPIO25*%
X179402500Y-54802500D03*
%TO.P,J1,12,Pin_12*%
%TO.N,GPIO8*%
X179402500Y-52262500D03*
%TO.P,J1,13,Pin_13*%
%TO.N,GND*%
X179402500Y-49722500D03*
%TO.P,J1,14,Pin_14*%
%TO.N,3v3*%
X179402500Y-47182500D03*
%TD*%
D10*
%TO.P,SW5,1,1*%
%TO.N,GPIO27*%
X166652500Y-134952500D03*
X160152500Y-134952500D03*
%TO.P,SW5,2,2*%
%TO.N,GND*%
X166652500Y-130452500D03*
X160152500Y-130452500D03*
%TD*%
%TO.P,SW13,1,1*%
%TO.N,GPIO23*%
X106652500Y-124952500D03*
X100152500Y-124952500D03*
%TO.P,SW13,2,2*%
%TO.N,GND*%
X106652500Y-120452500D03*
X100152500Y-120452500D03*
%TD*%
D13*
%TO.P,SCK1,1,1*%
%TO.N,GPIO11*%
X174495000Y-86852500D03*
%TD*%
D10*
%TO.P,SW7,1,1*%
%TO.N,GPIO21*%
X150152500Y-97952500D03*
X156652500Y-97952500D03*
%TO.P,SW7,2,2*%
%TO.N,GND*%
X150152500Y-93452500D03*
X156652500Y-93452500D03*
%TD*%
%TO.P,SW8,1,1*%
%TO.N,GPIO12*%
X103152500Y-97952500D03*
X109652500Y-97952500D03*
%TO.P,SW8,2,2*%
%TO.N,GND*%
X103152500Y-93452500D03*
X109652500Y-93452500D03*
%TD*%
%TO.P,SW9,1,1*%
%TO.N,GPIO22*%
X120152500Y-97952500D03*
X126652500Y-97952500D03*
%TO.P,SW9,2,2*%
%TO.N,GND*%
X120152500Y-93452500D03*
X126652500Y-93452500D03*
%TD*%
D13*
%TO.P,MOSI1,1,1*%
%TO.N,GPIO10*%
X171445000Y-86852500D03*
%TD*%
%TO.P,CS1,1,1*%
%TO.N,GPIO8*%
X168395000Y-86852500D03*
%TD*%
D14*
%TO.P,U1,1,3V3_1*%
%TO.N,3v3*%
X113815000Y-65382500D03*
D15*
%TO.P,U1,2,5V_2*%
%TO.N,unconnected-(U1-5V_2-Pad2)*%
X113815000Y-67922500D03*
%TO.P,U1,3,GPIO2/SDA1*%
%TO.N,unconnected-(U1-GPIO2{slash}SDA1-Pad3)*%
X116355000Y-65382500D03*
%TO.P,U1,4,5V_4*%
%TO.N,unconnected-(U1-5V_4-Pad4)*%
X116355000Y-67922500D03*
%TO.P,U1,5,GPIO3/SCL*%
%TO.N,unconnected-(U1-GPIO3{slash}SCL-Pad5)*%
X118895000Y-65382500D03*
%TO.P,U1,6,GND_6*%
%TO.N,GND*%
X118895000Y-67922500D03*
%TO.P,U1,7,GPIO4/GPIO_GCLK*%
%TO.N,unconnected-(U1-GPIO4{slash}GPIO_GCLK-Pad7)*%
X121435000Y-65382500D03*
%TO.P,U1,8,GPIO14/TXD0*%
%TO.N,unconnected-(U1-GPIO14{slash}TXD0-Pad8)*%
X121435000Y-67922500D03*
%TO.P,U1,9,GND_9*%
%TO.N,GND*%
X123975000Y-65382500D03*
%TO.P,U1,10,GPIO15/RXD0*%
%TO.N,unconnected-(U1-GPIO15{slash}RXD0-Pad10)*%
X123975000Y-67922500D03*
%TO.P,U1,11,GPIO17/GPIO_GEN0*%
%TO.N,GPIO17*%
X126515000Y-65382500D03*
%TO.P,U1,12,GPIO18/GPIO_GEN1*%
%TO.N,unconnected-(U1-GPIO18{slash}GPIO_GEN1-Pad12)*%
X126515000Y-67922500D03*
%TO.P,U1,13,GPIO27/GPIO_GEN2*%
%TO.N,GPIO27*%
X129055000Y-65382500D03*
%TO.P,U1,14,GND_14*%
%TO.N,unconnected-(U1-GND_14-Pad14)*%
X129055000Y-67922500D03*
%TO.P,U1,15,GPIO22/GPIO_GEN3*%
%TO.N,GPIO22*%
X131595000Y-65382500D03*
%TO.P,U1,16,GPIO23/GPIO_GEN4*%
%TO.N,GPIO23*%
X131595000Y-67922500D03*
%TO.P,U1,17,3V3_17*%
%TO.N,unconnected-(U1-3V3_17-Pad17)*%
X134135000Y-65382500D03*
%TO.P,U1,18,GPIO24/GPIO_GEN5*%
%TO.N,GPIO24*%
X134135000Y-67922500D03*
%TO.P,U1,19,GPIO10/SPI_MOSI*%
%TO.N,GPIO10*%
X136675000Y-65382500D03*
%TO.P,U1,20,GND_20*%
%TO.N,unconnected-(U1-GND_20-Pad20)*%
X136675000Y-67922500D03*
%TO.P,U1,21,GPIO9/SPI_MISO*%
%TO.N,unconnected-(U1-GPIO9{slash}SPI_MISO-Pad21)*%
X139215000Y-65382500D03*
%TO.P,U1,22,GPIO25/GPIO_GEN6*%
%TO.N,GPIO25*%
X139215000Y-67922500D03*
%TO.P,U1,23,GPIO11/SPI_SCLK*%
%TO.N,GPIO11*%
X141755000Y-65382500D03*
%TO.P,U1,24,GPIO8/SPI_~{CE0}*%
%TO.N,GPIO8*%
X141755000Y-67922500D03*
%TO.P,U1,25,GND_25*%
%TO.N,unconnected-(U1-GND_25-Pad25)*%
X144295000Y-65382500D03*
%TO.P,U1,26,GPIO7/SPI_~{CE1}*%
%TO.N,GPIO7*%
X144295000Y-67922500D03*
%TO.P,U1,27,ID_SD*%
%TO.N,unconnected-(U1-ID_SD-Pad27)*%
X146835000Y-65382500D03*
%TO.P,U1,28,ID_SC*%
%TO.N,unconnected-(U1-ID_SC-Pad28)*%
X146835000Y-67922500D03*
%TO.P,U1,29,GPIO5*%
%TO.N,GPIO5*%
X149375000Y-65382500D03*
%TO.P,U1,30,GND_30*%
%TO.N,unconnected-(U1-GND_30-Pad30)*%
X149375000Y-67922500D03*
%TO.P,U1,31,GPIO6*%
%TO.N,GPI06*%
X151915000Y-65382500D03*
%TO.P,U1,32,GPIO12*%
%TO.N,GPIO12*%
X151915000Y-67922500D03*
%TO.P,U1,33,GPIO13*%
%TO.N,GPIO13*%
X154455000Y-65382500D03*
%TO.P,U1,34,GND_34*%
%TO.N,unconnected-(U1-GND_34-Pad34)*%
X154455000Y-67922500D03*
%TO.P,U1,35,GPIO19*%
%TO.N,GPIO19*%
X156995000Y-65382500D03*
%TO.P,U1,36,GPIO16*%
%TO.N,GPIO16*%
X156995000Y-67922500D03*
%TO.P,U1,37,GPIO26*%
%TO.N,GPIO26*%
X159535000Y-65382500D03*
%TO.P,U1,38,GPIO20*%
%TO.N,GPIO20*%
X159535000Y-67922500D03*
%TO.P,U1,39,GND_39*%
%TO.N,unconnected-(U1-GND_39-Pad39)*%
X162075000Y-65382500D03*
%TO.P,U1,40,GPIO21*%
%TO.N,GPIO21*%
X162075000Y-67922500D03*
%TD*%
D10*
%TO.P,SW6,1,1*%
%TO.N,GPI06*%
X167152500Y-97952500D03*
X173652500Y-97952500D03*
%TO.P,SW6,2,2*%
%TO.N,GND*%
X167152500Y-93452500D03*
X173652500Y-93452500D03*
%TD*%
D16*
%TO.N,GPIO24*%
X129345000Y-69552500D03*
%TO.N,GPIO10*%
X174345000Y-64952500D03*
%TO.N,GPIO8*%
X171627740Y-63251500D03*
%TO.N,GPIO12*%
X129510000Y-77952500D03*
%TO.N,GPIO20*%
X142745000Y-96052500D03*
X134945000Y-106752500D03*
%TO.N,GPIO7*%
X132045000Y-76352500D03*
%TO.N,GPIO19*%
X147674485Y-103323015D03*
%TD*%
D17*
%TO.N,GPIO24*%
X179402500Y-57342500D02*
X119745000Y-57342500D01*
X113953004Y-69552500D02*
X129345000Y-69552500D01*
X112760000Y-64327500D02*
X112760000Y-68359496D01*
X119745000Y-57342500D02*
X112760000Y-64327500D01*
X112760000Y-68359496D02*
X113953004Y-69552500D01*
%TO.N,GPIO11*%
X174495000Y-67330000D02*
X179402500Y-62422500D01*
X179402500Y-62422500D02*
X144715000Y-62422500D01*
X144715000Y-62422500D02*
X141755000Y-65382500D01*
X174495000Y-86852500D02*
X174495000Y-67330000D01*
%TO.N,3v3*%
X180553500Y-63811500D02*
X180553500Y-59405740D01*
X180553500Y-59405740D02*
X179879260Y-58731500D01*
X120466000Y-58731500D02*
X113815000Y-65382500D01*
X179402500Y-64962500D02*
X180553500Y-63811500D01*
X179879260Y-58731500D02*
X120466000Y-58731500D01*
%TO.N,GPIO10*%
X173645000Y-84652500D02*
X171445000Y-86852500D01*
X173645000Y-65652500D02*
X173645000Y-84652500D01*
X174345000Y-64952500D02*
X173645000Y-65652500D01*
X142175000Y-59882500D02*
X136675000Y-65382500D01*
X179402500Y-59882500D02*
X142175000Y-59882500D01*
%TO.N,GPIO8*%
X171627740Y-83619760D02*
X171627740Y-63251500D01*
X168395000Y-86852500D02*
X171627740Y-83619760D01*
%TO.N,GPIO26*%
X160745000Y-70852500D02*
X160745000Y-66592500D01*
X160745000Y-66592500D02*
X159535000Y-65382500D01*
X162145000Y-139460000D02*
X162145000Y-72252500D01*
X162145000Y-72252500D02*
X160745000Y-70852500D01*
X151652500Y-149952500D02*
X162145000Y-139460000D01*
%TO.N,GPIO16*%
X156652500Y-124952500D02*
X155351500Y-123651500D01*
X155351500Y-123651500D02*
X155351500Y-69566000D01*
X155351500Y-69566000D02*
X156995000Y-67922500D01*
%TO.N,GPIO27*%
X160152500Y-134952500D02*
X160152500Y-133112608D01*
X133045000Y-65340504D02*
X132031996Y-64327500D01*
X160152500Y-133112608D02*
X133045000Y-106005108D01*
X132031996Y-64327500D02*
X130110000Y-64327500D01*
X133045000Y-106005108D02*
X133045000Y-65340504D01*
X130110000Y-64327500D02*
X129055000Y-65382500D01*
%TO.N,GPI06*%
X162116000Y-62823500D02*
X154474000Y-62823500D01*
X164745000Y-95545000D02*
X164745000Y-65452500D01*
X154474000Y-62823500D02*
X151915000Y-65382500D01*
X164745000Y-65452500D02*
X162116000Y-62823500D01*
X167152500Y-97952500D02*
X164745000Y-95545000D01*
%TO.N,GPIO12*%
X109652500Y-97952500D02*
X129510000Y-78095000D01*
X129510000Y-78095000D02*
X129510000Y-77952500D01*
%TO.N,GPIO22*%
X126652500Y-97952500D02*
X130111000Y-94494000D01*
X130111000Y-94494000D02*
X130111000Y-66866500D01*
X130111000Y-66866500D02*
X131595000Y-65382500D01*
%TO.N,GPIO13*%
X160691392Y-136253500D02*
X161453500Y-135491392D01*
X145351500Y-136253500D02*
X160691392Y-136253500D01*
X157156996Y-64052500D02*
X155785000Y-64052500D01*
X161453500Y-135491392D02*
X161453500Y-72161000D01*
X158050000Y-64945504D02*
X157156996Y-64052500D01*
X155785000Y-64052500D02*
X154455000Y-65382500D01*
X161453500Y-72161000D02*
X158050000Y-68757500D01*
X131652500Y-149952500D02*
X145351500Y-136253500D01*
X158050000Y-68757500D02*
X158050000Y-64945504D01*
%TO.N,GPIO20*%
X134945000Y-103852500D02*
X134945000Y-106752500D01*
X142745000Y-96052500D02*
X134945000Y-103852500D01*
%TO.N,GPIO7*%
X131645000Y-76752500D02*
X131645000Y-99960000D01*
X132045000Y-76352500D02*
X131645000Y-76752500D01*
X131645000Y-99960000D02*
X116652500Y-114952500D01*
%TO.N,GPIO23*%
X131244000Y-98521108D02*
X131244000Y-68273500D01*
X131244000Y-68273500D02*
X131595000Y-67922500D01*
X106652500Y-124952500D02*
X106652500Y-123112608D01*
X106652500Y-123112608D02*
X131244000Y-98521108D01*
%TO.N,GPIO19*%
X155940000Y-67929496D02*
X155940000Y-66437500D01*
X147674485Y-103323015D02*
X147674485Y-76195011D01*
X147674485Y-76195011D02*
X155940000Y-67929496D01*
X155940000Y-66437500D02*
X156995000Y-65382500D01*
%TD*%
%TA.AperFunction,Conductor*%
%TO.N,GND*%
G36*
X179906918Y-38203316D02*
G01*
X180107061Y-38217630D01*
X180124563Y-38220147D01*
X180316297Y-38261855D01*
X180333255Y-38266834D01*
X180517109Y-38335409D01*
X180533201Y-38342759D01*
X180705404Y-38436788D01*
X180720284Y-38446349D01*
X180877367Y-38563941D01*
X180890737Y-38575527D01*
X181029472Y-38714262D01*
X181041058Y-38727632D01*
X181158646Y-38884710D01*
X181168211Y-38899595D01*
X181262240Y-39071798D01*
X181269590Y-39087890D01*
X181338162Y-39271736D01*
X181343146Y-39288712D01*
X181384851Y-39480431D01*
X181387369Y-39497942D01*
X181401684Y-39698080D01*
X181402000Y-39706927D01*
X181402000Y-59318556D01*
X181382315Y-59385595D01*
X181329511Y-59431350D01*
X181260353Y-59441294D01*
X181196797Y-59412269D01*
X181159023Y-59353491D01*
X181155061Y-59334743D01*
X181154000Y-59326690D01*
X181154000Y-59326683D01*
X181113077Y-59173956D01*
X181113073Y-59173949D01*
X181034024Y-59037030D01*
X181034021Y-59037026D01*
X181034020Y-59037024D01*
X180922216Y-58925220D01*
X180922215Y-58925219D01*
X180917885Y-58920889D01*
X180917874Y-58920879D01*
X180413626Y-58416631D01*
X180380141Y-58355308D01*
X180385125Y-58285616D01*
X180413626Y-58241269D01*
X180432604Y-58222292D01*
X180432606Y-58222288D01*
X180432609Y-58222286D01*
X180557548Y-58050320D01*
X180557547Y-58050320D01*
X180557551Y-58050316D01*
X180654057Y-57860912D01*
X180719746Y-57658743D01*
X180753000Y-57448787D01*
X180753000Y-57236213D01*
X180719746Y-57026257D01*
X180654057Y-56824088D01*
X180557551Y-56634684D01*
X180557549Y-56634681D01*
X180557548Y-56634679D01*
X180432609Y-56462713D01*
X180282286Y-56312390D01*
X180110320Y-56187451D01*
X180109615Y-56187091D01*
X180101554Y-56182985D01*
X180050759Y-56135012D01*
X180033963Y-56067192D01*
X180056499Y-56001056D01*
X180101554Y-55962015D01*
X180110316Y-55957551D01*
X180132289Y-55941586D01*
X180282286Y-55832609D01*
X180282288Y-55832606D01*
X180282292Y-55832604D01*
X180432604Y-55682292D01*
X180432606Y-55682288D01*
X180432609Y-55682286D01*
X180557548Y-55510320D01*
X180557547Y-55510320D01*
X180557551Y-55510316D01*
X180654057Y-55320912D01*
X180719746Y-55118743D01*
X180753000Y-54908787D01*
X180753000Y-54696213D01*
X180719746Y-54486257D01*
X180654057Y-54284088D01*
X180557551Y-54094684D01*
X180557549Y-54094681D01*
X180557548Y-54094679D01*
X180432609Y-53922713D01*
X180282286Y-53772390D01*
X180110320Y-53647451D01*
X180109615Y-53647091D01*
X180101554Y-53642985D01*
X180050759Y-53595012D01*
X180033963Y-53527192D01*
X180056499Y-53461056D01*
X180101554Y-53422015D01*
X180110316Y-53417551D01*
X180132289Y-53401586D01*
X180282286Y-53292609D01*
X180282288Y-53292606D01*
X180282292Y-53292604D01*
X180432604Y-53142292D01*
X180432606Y-53142288D01*
X180432609Y-53142286D01*
X180557548Y-52970320D01*
X180557547Y-52970320D01*
X180557551Y-52970316D01*
X180654057Y-52780912D01*
X180719746Y-52578743D01*
X180753000Y-52368787D01*
X180753000Y-52156213D01*
X180719746Y-51946257D01*
X180654057Y-51744088D01*
X180557551Y-51554684D01*
X180557549Y-51554681D01*
X180557548Y-51554679D01*
X180432609Y-51382713D01*
X180282286Y-51232390D01*
X180110317Y-51107449D01*
X180101004Y-51102704D01*
X180050207Y-51054730D01*
X180033412Y-50986909D01*
X180055949Y-50920774D01*
X180101007Y-50881732D01*
X180110055Y-50877122D01*
X180164216Y-50837770D01*
X180164217Y-50837770D01*
X179531908Y-50205462D01*
X179595493Y-50188425D01*
X179709507Y-50122599D01*
X179802599Y-50029507D01*
X179868425Y-49915493D01*
X179885462Y-49851908D01*
X180517770Y-50484217D01*
X180517770Y-50484216D01*
X180557122Y-50430054D01*
X180653595Y-50240717D01*
X180719257Y-50038630D01*
X180719257Y-50038627D01*
X180752500Y-49828746D01*
X180752500Y-49616253D01*
X180719257Y-49406372D01*
X180719257Y-49406369D01*
X180653595Y-49204282D01*
X180557124Y-49014949D01*
X180517770Y-48960782D01*
X180517769Y-48960782D01*
X179885462Y-49593090D01*
X179868425Y-49529507D01*
X179802599Y-49415493D01*
X179709507Y-49322401D01*
X179595493Y-49256575D01*
X179531909Y-49239537D01*
X180164216Y-48607228D01*
X180110047Y-48567873D01*
X180110047Y-48567872D01*
X180101000Y-48563263D01*
X180050206Y-48515288D01*
X180033412Y-48447466D01*
X180055951Y-48381332D01*
X180101008Y-48342293D01*
X180110316Y-48337551D01*
X180189507Y-48280015D01*
X180282286Y-48212609D01*
X180282288Y-48212606D01*
X180282292Y-48212604D01*
X180432604Y-48062292D01*
X180432606Y-48062288D01*
X180432609Y-48062286D01*
X180557548Y-47890320D01*
X180557547Y-47890320D01*
X180557551Y-47890316D01*
X180654057Y-47700912D01*
X180719746Y-47498743D01*
X180753000Y-47288787D01*
X180753000Y-47076213D01*
X180719746Y-46866257D01*
X180654057Y-46664088D01*
X180557551Y-46474684D01*
X180557549Y-46474681D01*
X180557548Y-46474679D01*
X180432609Y-46302713D01*
X180282286Y-46152390D01*
X180110320Y-46027451D01*
X179920914Y-45930944D01*
X179920913Y-45930943D01*
X179920912Y-45930943D01*
X179718743Y-45865254D01*
X179718741Y-45865253D01*
X179718740Y-45865253D01*
X179557457Y-45839708D01*
X179508787Y-45832000D01*
X179296213Y-45832000D01*
X179247542Y-45839708D01*
X179086260Y-45865253D01*
X178884085Y-45930944D01*
X178694679Y-46027451D01*
X178522713Y-46152390D01*
X178372390Y-46302713D01*
X178247451Y-46474679D01*
X178150944Y-46664085D01*
X178085253Y-46866260D01*
X178052000Y-47076213D01*
X178052000Y-47288786D01*
X178085253Y-47498739D01*
X178150944Y-47700914D01*
X178247451Y-47890320D01*
X178372390Y-48062286D01*
X178522713Y-48212609D01*
X178694679Y-48337548D01*
X178694681Y-48337549D01*
X178694684Y-48337551D01*
X178703993Y-48342294D01*
X178754790Y-48390266D01*
X178771587Y-48458087D01*
X178749052Y-48524222D01*
X178704005Y-48563260D01*
X178694946Y-48567876D01*
X178694940Y-48567880D01*
X178640782Y-48607227D01*
X178640782Y-48607228D01*
X179273091Y-49239537D01*
X179209507Y-49256575D01*
X179095493Y-49322401D01*
X179002401Y-49415493D01*
X178936575Y-49529507D01*
X178919537Y-49593091D01*
X178287228Y-48960782D01*
X178287227Y-48960782D01*
X178247880Y-49014939D01*
X178151404Y-49204282D01*
X178085742Y-49406369D01*
X178085742Y-49406372D01*
X178052500Y-49616253D01*
X178052500Y-49828746D01*
X178085742Y-50038627D01*
X178085742Y-50038630D01*
X178151404Y-50240717D01*
X178247875Y-50430050D01*
X178287228Y-50484216D01*
X178919537Y-49851908D01*
X178936575Y-49915493D01*
X179002401Y-50029507D01*
X179095493Y-50122599D01*
X179209507Y-50188425D01*
X179273090Y-50205462D01*
X178640782Y-50837769D01*
X178640782Y-50837770D01*
X178694952Y-50877126D01*
X178694951Y-50877126D01*
X178703995Y-50881734D01*
X178754792Y-50929708D01*
X178771587Y-50997529D01*
X178749050Y-51063664D01*
X178703999Y-51102702D01*
X178694682Y-51107449D01*
X178522713Y-51232390D01*
X178372390Y-51382713D01*
X178247451Y-51554679D01*
X178150944Y-51744085D01*
X178085253Y-51946260D01*
X178052000Y-52156213D01*
X178052000Y-52368786D01*
X178085253Y-52578739D01*
X178150944Y-52780914D01*
X178247451Y-52970320D01*
X178372390Y-53142286D01*
X178522713Y-53292609D01*
X178694682Y-53417550D01*
X178703446Y-53422016D01*
X178754242Y-53469991D01*
X178771036Y-53537812D01*
X178748498Y-53603947D01*
X178703446Y-53642984D01*
X178694682Y-53647449D01*
X178522713Y-53772390D01*
X178372390Y-53922713D01*
X178247451Y-54094679D01*
X178150944Y-54284085D01*
X178085253Y-54486260D01*
X178052000Y-54696213D01*
X178052000Y-54908786D01*
X178085253Y-55118739D01*
X178150944Y-55320914D01*
X178247451Y-55510320D01*
X178372390Y-55682286D01*
X178522713Y-55832609D01*
X178694682Y-55957550D01*
X178703446Y-55962016D01*
X178754242Y-56009991D01*
X178771036Y-56077812D01*
X178748498Y-56143947D01*
X178703446Y-56182984D01*
X178694682Y-56187449D01*
X178522713Y-56312390D01*
X178372390Y-56462713D01*
X178247448Y-56634684D01*
X178247447Y-56634685D01*
X178227265Y-56674295D01*
X178179291Y-56725091D01*
X178116781Y-56742000D01*
X119831670Y-56742000D01*
X119831654Y-56741999D01*
X119824058Y-56741999D01*
X119665943Y-56741999D01*
X119589579Y-56762461D01*
X119513214Y-56782923D01*
X119513209Y-56782926D01*
X119376290Y-56861975D01*
X119376282Y-56861981D01*
X112279479Y-63958784D01*
X112263563Y-63986353D01*
X112255425Y-64000449D01*
X112200423Y-64095715D01*
X112159499Y-64248443D01*
X112159499Y-64248445D01*
X112159499Y-64416546D01*
X112159500Y-64416559D01*
X112159500Y-68272826D01*
X112159499Y-68272844D01*
X112159499Y-68438550D01*
X112159498Y-68438550D01*
X112200423Y-68591281D01*
X112229358Y-68641396D01*
X112229359Y-68641400D01*
X112229360Y-68641400D01*
X112279479Y-68728210D01*
X112279481Y-68728213D01*
X112398349Y-68847081D01*
X112398355Y-68847086D01*
X113468143Y-69916874D01*
X113468153Y-69916885D01*
X113472483Y-69921215D01*
X113472484Y-69921216D01*
X113584288Y-70033020D01*
X113584290Y-70033021D01*
X113584294Y-70033024D01*
X113721213Y-70112073D01*
X113721220Y-70112077D01*
X113829315Y-70141041D01*
X113829314Y-70141041D01*
X113845650Y-70145418D01*
X113873946Y-70153000D01*
X113873947Y-70153000D01*
X128765234Y-70153000D01*
X128832273Y-70172685D01*
X128834125Y-70173898D01*
X128965814Y-70261890D01*
X128965827Y-70261897D01*
X129111498Y-70322235D01*
X129111503Y-70322237D01*
X129266153Y-70352999D01*
X129266156Y-70353000D01*
X129386500Y-70353000D01*
X129453539Y-70372685D01*
X129499294Y-70425489D01*
X129510500Y-70477000D01*
X129510500Y-77034453D01*
X129490815Y-77101492D01*
X129438011Y-77147247D01*
X129410692Y-77156070D01*
X129276508Y-77182761D01*
X129276498Y-77182764D01*
X129130827Y-77243102D01*
X129130814Y-77243109D01*
X128999711Y-77330710D01*
X128999707Y-77330713D01*
X128888213Y-77442207D01*
X128888210Y-77442211D01*
X128800609Y-77573314D01*
X128800602Y-77573327D01*
X128740264Y-77718998D01*
X128740261Y-77719010D01*
X128709500Y-77873653D01*
X128709500Y-77994902D01*
X128689815Y-78061941D01*
X128673181Y-78082583D01*
X110256063Y-96499700D01*
X110194740Y-96533185D01*
X110130064Y-96529950D01*
X110003870Y-96488947D01*
X109770597Y-96452000D01*
X109770592Y-96452000D01*
X109534408Y-96452000D01*
X109534403Y-96452000D01*
X109301131Y-96488946D01*
X109076503Y-96561933D01*
X108866066Y-96669157D01*
X108757050Y-96748362D01*
X108674990Y-96807983D01*
X108674988Y-96807985D01*
X108674987Y-96807985D01*
X108507985Y-96974987D01*
X108507985Y-96974988D01*
X108507983Y-96974990D01*
X108448362Y-97057050D01*
X108369157Y-97166066D01*
X108261933Y-97376503D01*
X108188946Y-97601131D01*
X108152000Y-97834402D01*
X108152000Y-98070597D01*
X108188946Y-98303868D01*
X108261933Y-98528496D01*
X108369157Y-98738933D01*
X108507983Y-98930010D01*
X108674990Y-99097017D01*
X108866067Y-99235843D01*
X108952000Y-99279628D01*
X109076503Y-99343066D01*
X109076505Y-99343066D01*
X109076508Y-99343068D01*
X109196912Y-99382189D01*
X109301131Y-99416053D01*
X109534403Y-99453000D01*
X109534408Y-99453000D01*
X109770597Y-99453000D01*
X110003868Y-99416053D01*
X110034054Y-99406245D01*
X110228492Y-99343068D01*
X110438933Y-99235843D01*
X110630010Y-99097017D01*
X110797017Y-98930010D01*
X110935843Y-98738933D01*
X111043068Y-98528492D01*
X111116053Y-98303868D01*
X111153000Y-98070597D01*
X111153000Y-97834402D01*
X118652000Y-97834402D01*
X118652000Y-98070597D01*
X118688946Y-98303868D01*
X118761933Y-98528496D01*
X118869157Y-98738933D01*
X119007983Y-98930010D01*
X119174990Y-99097017D01*
X119366067Y-99235843D01*
X119452000Y-99279628D01*
X119576503Y-99343066D01*
X119576505Y-99343066D01*
X119576508Y-99343068D01*
X119696912Y-99382189D01*
X119801131Y-99416053D01*
X120034403Y-99453000D01*
X120034408Y-99453000D01*
X120270597Y-99453000D01*
X120503868Y-99416053D01*
X120534054Y-99406245D01*
X120728492Y-99343068D01*
X120938933Y-99235843D01*
X121130010Y-99097017D01*
X121297017Y-98930010D01*
X121435843Y-98738933D01*
X121543068Y-98528492D01*
X121616053Y-98303868D01*
X121653000Y-98070597D01*
X121653000Y-97834402D01*
X121616053Y-97601131D01*
X121552356Y-97405093D01*
X121543068Y-97376508D01*
X121543066Y-97376505D01*
X121543066Y-97376503D01*
X121435842Y-97166066D01*
X121297017Y-96974990D01*
X121130010Y-96807983D01*
X120938933Y-96669157D01*
X120728496Y-96561933D01*
X120503868Y-96488946D01*
X120270597Y-96452000D01*
X120270592Y-96452000D01*
X120034408Y-96452000D01*
X120034403Y-96452000D01*
X119801131Y-96488946D01*
X119576503Y-96561933D01*
X119366066Y-96669157D01*
X119257050Y-96748362D01*
X119174990Y-96807983D01*
X119174988Y-96807985D01*
X119174987Y-96807985D01*
X119007985Y-96974987D01*
X119007985Y-96974988D01*
X119007983Y-96974990D01*
X118948362Y-97057050D01*
X118869157Y-97166066D01*
X118761933Y-97376503D01*
X118688946Y-97601131D01*
X118652000Y-97834402D01*
X111153000Y-97834402D01*
X111116053Y-97601135D01*
X111116053Y-97601132D01*
X111075047Y-97474933D01*
X111073053Y-97405093D01*
X111105296Y-97348937D01*
X115119786Y-93334447D01*
X118652500Y-93334447D01*
X118652500Y-93570552D01*
X118689434Y-93803747D01*
X118762397Y-94028302D01*
X118869587Y-94238674D01*
X118929838Y-94321604D01*
X118929840Y-94321605D01*
X119628712Y-93622733D01*
X119639982Y-93664792D01*
X119712390Y-93790208D01*
X119814792Y-93892610D01*
X119940208Y-93965018D01*
X119982265Y-93976287D01*
X119283393Y-94675158D01*
X119366328Y-94735414D01*
X119576697Y-94842602D01*
X119801252Y-94915565D01*
X119801251Y-94915565D01*
X120034448Y-94952500D01*
X120270552Y-94952500D01*
X120503747Y-94915565D01*
X120728302Y-94842602D01*
X120938663Y-94735418D01*
X120938669Y-94735414D01*
X121021604Y-94675158D01*
X121021605Y-94675158D01*
X120322733Y-93976287D01*
X120364792Y-93965018D01*
X120490208Y-93892610D01*
X120592610Y-93790208D01*
X120665018Y-93664792D01*
X120676287Y-93622734D01*
X121375158Y-94321605D01*
X121375158Y-94321604D01*
X121435414Y-94238669D01*
X121435418Y-94238663D01*
X121542602Y-94028302D01*
X121615565Y-93803747D01*
X121652500Y-93570552D01*
X121652500Y-93334447D01*
X125152500Y-93334447D01*
X125152500Y-93570552D01*
X125189434Y-93803747D01*
X125262397Y-94028302D01*
X125369587Y-94238674D01*
X125429838Y-94321604D01*
X125429840Y-94321605D01*
X126128712Y-93622733D01*
X126139982Y-93664792D01*
X126212390Y-93790208D01*
X126314792Y-93892610D01*
X126440208Y-93965018D01*
X126482265Y-93976287D01*
X125783393Y-94675158D01*
X125866328Y-94735414D01*
X126076697Y-94842602D01*
X126301252Y-94915565D01*
X126301251Y-94915565D01*
X126534448Y-94952500D01*
X126770552Y-94952500D01*
X127003747Y-94915565D01*
X127228302Y-94842602D01*
X127438663Y-94735418D01*
X127438669Y-94735414D01*
X127521604Y-94675158D01*
X127521605Y-94675158D01*
X126822733Y-93976287D01*
X126864792Y-93965018D01*
X126990208Y-93892610D01*
X127092610Y-93790208D01*
X127165018Y-93664792D01*
X127176287Y-93622734D01*
X127875158Y-94321605D01*
X127875158Y-94321604D01*
X127935414Y-94238669D01*
X127935418Y-94238663D01*
X128042602Y-94028302D01*
X128115565Y-93803747D01*
X128152500Y-93570552D01*
X128152500Y-93334447D01*
X128115565Y-93101252D01*
X128042602Y-92876697D01*
X127935414Y-92666328D01*
X127875158Y-92583394D01*
X127875158Y-92583393D01*
X127176287Y-93282265D01*
X127165018Y-93240208D01*
X127092610Y-93114792D01*
X126990208Y-93012390D01*
X126864792Y-92939982D01*
X126822734Y-92928712D01*
X127521605Y-92229840D01*
X127521604Y-92229838D01*
X127438674Y-92169587D01*
X127228302Y-92062397D01*
X127003747Y-91989434D01*
X127003748Y-91989434D01*
X126770552Y-91952500D01*
X126534448Y-91952500D01*
X126301252Y-91989434D01*
X126076697Y-92062397D01*
X125866330Y-92169584D01*
X125783394Y-92229840D01*
X126482266Y-92928712D01*
X126440208Y-92939982D01*
X126314792Y-93012390D01*
X126212390Y-93114792D01*
X126139982Y-93240208D01*
X126128712Y-93282266D01*
X125429840Y-92583394D01*
X125369584Y-92666330D01*
X125262397Y-92876697D01*
X125189434Y-93101252D01*
X125152500Y-93334447D01*
X121652500Y-93334447D01*
X121615565Y-93101252D01*
X121542602Y-92876697D01*
X121435414Y-92666328D01*
X121375158Y-92583394D01*
X121375158Y-92583393D01*
X120676287Y-93282265D01*
X120665018Y-93240208D01*
X120592610Y-93114792D01*
X120490208Y-93012390D01*
X120364792Y-92939982D01*
X120322734Y-92928712D01*
X121021605Y-92229840D01*
X121021604Y-92229839D01*
X120938674Y-92169587D01*
X120728302Y-92062397D01*
X120503747Y-91989434D01*
X120503748Y-91989434D01*
X120270552Y-91952500D01*
X120034448Y-91952500D01*
X119801252Y-91989434D01*
X119576697Y-92062397D01*
X119366330Y-92169584D01*
X119283394Y-92229840D01*
X119982266Y-92928712D01*
X119940208Y-92939982D01*
X119814792Y-93012390D01*
X119712390Y-93114792D01*
X119639982Y-93240208D01*
X119628712Y-93282266D01*
X118929840Y-92583394D01*
X118869584Y-92666330D01*
X118762397Y-92876697D01*
X118689434Y-93101252D01*
X118652500Y-93334447D01*
X115119786Y-93334447D01*
X129298821Y-79155413D01*
X129360142Y-79121930D01*
X129429834Y-79126914D01*
X129485767Y-79168786D01*
X129510184Y-79234250D01*
X129510500Y-79243096D01*
X129510500Y-94193902D01*
X129490815Y-94260941D01*
X129474181Y-94281583D01*
X127256063Y-96499700D01*
X127194740Y-96533185D01*
X127130064Y-96529950D01*
X127003870Y-96488947D01*
X126770597Y-96452000D01*
X126770592Y-96452000D01*
X126534408Y-96452000D01*
X126534403Y-96452000D01*
X126301131Y-96488946D01*
X126076503Y-96561933D01*
X125866066Y-96669157D01*
X125757050Y-96748362D01*
X125674990Y-96807983D01*
X125674988Y-96807985D01*
X125674987Y-96807985D01*
X125507985Y-96974987D01*
X125507985Y-96974988D01*
X125507983Y-96974990D01*
X125448362Y-97057050D01*
X125369157Y-97166066D01*
X125261933Y-97376503D01*
X125188946Y-97601131D01*
X125152000Y-97834402D01*
X125152000Y-98070597D01*
X125188946Y-98303868D01*
X125261933Y-98528496D01*
X125369157Y-98738933D01*
X125507983Y-98930010D01*
X125674990Y-99097017D01*
X125866067Y-99235843D01*
X125952000Y-99279628D01*
X126076503Y-99343066D01*
X126076505Y-99343066D01*
X126076508Y-99343068D01*
X126196912Y-99382189D01*
X126301131Y-99416053D01*
X126534403Y-99453000D01*
X126534408Y-99453000D01*
X126770597Y-99453000D01*
X127003868Y-99416053D01*
X127034054Y-99406245D01*
X127228492Y-99343068D01*
X127438933Y-99235843D01*
X127630010Y-99097017D01*
X127797017Y-98930010D01*
X127935843Y-98738933D01*
X128043068Y-98528492D01*
X128116053Y-98303868D01*
X128153000Y-98070597D01*
X128153000Y-97834402D01*
X128116053Y-97601135D01*
X128116053Y-97601132D01*
X128075047Y-97474933D01*
X128073053Y-97405093D01*
X128105296Y-97348937D01*
X130431820Y-95022414D01*
X130493142Y-94988931D01*
X130562834Y-94993915D01*
X130618767Y-95035787D01*
X130643184Y-95101251D01*
X130643500Y-95110097D01*
X130643500Y-98221010D01*
X130623815Y-98288049D01*
X130607181Y-98308691D01*
X118364181Y-110551691D01*
X118302858Y-110585176D01*
X118233166Y-110580192D01*
X118177233Y-110538320D01*
X118152816Y-110472856D01*
X118152500Y-110464010D01*
X118152500Y-110334447D01*
X118115565Y-110101252D01*
X118042602Y-109876697D01*
X117935414Y-109666328D01*
X117875158Y-109583394D01*
X117875158Y-109583393D01*
X117176287Y-110282265D01*
X117165018Y-110240208D01*
X117092610Y-110114792D01*
X116990208Y-110012390D01*
X116864792Y-109939982D01*
X116822734Y-109928712D01*
X117521605Y-109229840D01*
X117521604Y-109229838D01*
X117438674Y-109169587D01*
X117228302Y-109062397D01*
X117003747Y-108989434D01*
X117003748Y-108989434D01*
X116770552Y-108952500D01*
X116534448Y-108952500D01*
X116301252Y-108989434D01*
X116076697Y-109062397D01*
X115866330Y-109169584D01*
X115783394Y-109229840D01*
X116482266Y-109928712D01*
X116440208Y-109939982D01*
X116314792Y-110012390D01*
X116212390Y-110114792D01*
X116139982Y-110240208D01*
X116128712Y-110282266D01*
X115429840Y-109583394D01*
X115369584Y-109666330D01*
X115262397Y-109876697D01*
X115189434Y-110101252D01*
X115152500Y-110334447D01*
X115152500Y-110570552D01*
X115189434Y-110803747D01*
X115262397Y-111028302D01*
X115369587Y-111238674D01*
X115429838Y-111321604D01*
X115429840Y-111321605D01*
X116128712Y-110622733D01*
X116139982Y-110664792D01*
X116212390Y-110790208D01*
X116314792Y-110892610D01*
X116440208Y-110965018D01*
X116482265Y-110976287D01*
X115783393Y-111675158D01*
X115866328Y-111735414D01*
X116076697Y-111842602D01*
X116301252Y-111915565D01*
X116301251Y-111915565D01*
X116534448Y-111952500D01*
X116664010Y-111952500D01*
X116731049Y-111972185D01*
X116776804Y-112024989D01*
X116786748Y-112094147D01*
X116757723Y-112157703D01*
X116751691Y-112164181D01*
X108364181Y-120551690D01*
X108302858Y-120585175D01*
X108233166Y-120580191D01*
X108177233Y-120538319D01*
X108152816Y-120472855D01*
X108152500Y-120464009D01*
X108152500Y-120334447D01*
X108115565Y-120101252D01*
X108042602Y-119876697D01*
X107935414Y-119666328D01*
X107875158Y-119583394D01*
X107875158Y-119583393D01*
X107176287Y-120282265D01*
X107165018Y-120240208D01*
X107092610Y-120114792D01*
X106990208Y-120012390D01*
X106864792Y-119939982D01*
X106822734Y-119928712D01*
X107521605Y-119229840D01*
X107521604Y-119229838D01*
X107438674Y-119169587D01*
X107228302Y-119062397D01*
X107003747Y-118989434D01*
X107003748Y-118989434D01*
X106770552Y-118952500D01*
X106534448Y-118952500D01*
X106301252Y-118989434D01*
X106076697Y-119062397D01*
X105866330Y-119169584D01*
X105783394Y-119229840D01*
X106482266Y-119928712D01*
X106440208Y-119939982D01*
X106314792Y-120012390D01*
X106212390Y-120114792D01*
X106139982Y-120240208D01*
X106128712Y-120282266D01*
X105429840Y-119583394D01*
X105369584Y-119666330D01*
X105262397Y-119876697D01*
X105189434Y-120101252D01*
X105152500Y-120334447D01*
X105152500Y-120570552D01*
X105189434Y-120803747D01*
X105262397Y-121028302D01*
X105369587Y-121238674D01*
X105429838Y-121321604D01*
X105429840Y-121321605D01*
X106128712Y-120622733D01*
X106139982Y-120664792D01*
X106212390Y-120790208D01*
X106314792Y-120892610D01*
X106440208Y-120965018D01*
X106482265Y-120976287D01*
X105783393Y-121675158D01*
X105866328Y-121735414D01*
X106076697Y-121842602D01*
X106301252Y-121915565D01*
X106301251Y-121915565D01*
X106534448Y-121952500D01*
X106664009Y-121952500D01*
X106731048Y-121972185D01*
X106776803Y-122024989D01*
X106786747Y-122094147D01*
X106757722Y-122157703D01*
X106751690Y-122164181D01*
X106283786Y-122632086D01*
X106171981Y-122743890D01*
X106171979Y-122743893D01*
X106121861Y-122830702D01*
X106121859Y-122830704D01*
X106092925Y-122880817D01*
X106092924Y-122880818D01*
X106092923Y-122880823D01*
X106051999Y-123033551D01*
X106051999Y-123033553D01*
X106051999Y-123201654D01*
X106052000Y-123201667D01*
X106052000Y-123498431D01*
X106032315Y-123565470D01*
X105984296Y-123608915D01*
X105866068Y-123669155D01*
X105781557Y-123730557D01*
X105674990Y-123807983D01*
X105674988Y-123807985D01*
X105674987Y-123807985D01*
X105507985Y-123974987D01*
X105507985Y-123974988D01*
X105507983Y-123974990D01*
X105475124Y-124020217D01*
X105369157Y-124166066D01*
X105261933Y-124376503D01*
X105188946Y-124601131D01*
X105152000Y-124834402D01*
X105152000Y-125070597D01*
X105188946Y-125303868D01*
X105261933Y-125528496D01*
X105279980Y-125563914D01*
X105369157Y-125738933D01*
X105507983Y-125930010D01*
X105674990Y-126097017D01*
X105866067Y-126235843D01*
X105965491Y-126286502D01*
X106076503Y-126343066D01*
X106076505Y-126343066D01*
X106076508Y-126343068D01*
X106196912Y-126382189D01*
X106301131Y-126416053D01*
X106534403Y-126453000D01*
X106534408Y-126453000D01*
X106770597Y-126453000D01*
X107003868Y-126416053D01*
X107228492Y-126343068D01*
X107438933Y-126235843D01*
X107630010Y-126097017D01*
X107797017Y-125930010D01*
X107935843Y-125738933D01*
X108043068Y-125528492D01*
X108116053Y-125303868D01*
X108153000Y-125070597D01*
X108153000Y-124834402D01*
X118652000Y-124834402D01*
X118652000Y-125070597D01*
X118688946Y-125303868D01*
X118761933Y-125528496D01*
X118779980Y-125563914D01*
X118869157Y-125738933D01*
X119007983Y-125930010D01*
X119174990Y-126097017D01*
X119366067Y-126235843D01*
X119465491Y-126286502D01*
X119576503Y-126343066D01*
X119576505Y-126343066D01*
X119576508Y-126343068D01*
X119696912Y-126382189D01*
X119801131Y-126416053D01*
X120034403Y-126453000D01*
X120034408Y-126453000D01*
X120270597Y-126453000D01*
X120503868Y-126416053D01*
X120728492Y-126343068D01*
X120938933Y-126235843D01*
X121130010Y-126097017D01*
X121297017Y-125930010D01*
X121435843Y-125738933D01*
X121543068Y-125528492D01*
X121616053Y-125303868D01*
X121653000Y-125070597D01*
X121653000Y-124834402D01*
X125152000Y-124834402D01*
X125152000Y-125070597D01*
X125188946Y-125303868D01*
X125261933Y-125528496D01*
X125279980Y-125563914D01*
X125369157Y-125738933D01*
X125507983Y-125930010D01*
X125674990Y-126097017D01*
X125866067Y-126235843D01*
X125965491Y-126286502D01*
X126076503Y-126343066D01*
X126076505Y-126343066D01*
X126076508Y-126343068D01*
X126196912Y-126382189D01*
X126301131Y-126416053D01*
X126534403Y-126453000D01*
X126534408Y-126453000D01*
X126770597Y-126453000D01*
X127003868Y-126416053D01*
X127228492Y-126343068D01*
X127438933Y-126235843D01*
X127630010Y-126097017D01*
X127797017Y-125930010D01*
X127935843Y-125738933D01*
X128043068Y-125528492D01*
X128116053Y-125303868D01*
X128153000Y-125070597D01*
X128153000Y-124834402D01*
X128116053Y-124601131D01*
X128054034Y-124410258D01*
X128043068Y-124376508D01*
X128043066Y-124376505D01*
X128043066Y-124376503D01*
X127935842Y-124166066D01*
X127911106Y-124132020D01*
X127797017Y-123974990D01*
X127630010Y-123807983D01*
X127438933Y-123669157D01*
X127438929Y-123669155D01*
X127228496Y-123561933D01*
X127003868Y-123488946D01*
X126770597Y-123452000D01*
X126770592Y-123452000D01*
X126534408Y-123452000D01*
X126534403Y-123452000D01*
X126301131Y-123488946D01*
X126076503Y-123561933D01*
X125866066Y-123669157D01*
X125781557Y-123730557D01*
X125674990Y-123807983D01*
X125674988Y-123807985D01*
X125674987Y-123807985D01*
X125507985Y-123974987D01*
X125507985Y-123974988D01*
X125507983Y-123974990D01*
X125475124Y-124020217D01*
X125369157Y-124166066D01*
X125261933Y-124376503D01*
X125188946Y-124601131D01*
X125152000Y-124834402D01*
X121653000Y-124834402D01*
X121616053Y-124601131D01*
X121554034Y-124410258D01*
X121543068Y-124376508D01*
X121543066Y-124376505D01*
X121543066Y-124376503D01*
X121435842Y-124166066D01*
X121411106Y-124132020D01*
X121297017Y-123974990D01*
X121130010Y-123807983D01*
X120938933Y-123669157D01*
X120938929Y-123669155D01*
X120728496Y-123561933D01*
X120503868Y-123488946D01*
X120270597Y-123452000D01*
X120270592Y-123452000D01*
X120034408Y-123452000D01*
X120034403Y-123452000D01*
X119801131Y-123488946D01*
X119576503Y-123561933D01*
X119366066Y-123669157D01*
X119281557Y-123730557D01*
X119174990Y-123807983D01*
X119174988Y-123807985D01*
X119174987Y-123807985D01*
X119007985Y-123974987D01*
X119007985Y-123974988D01*
X119007983Y-123974990D01*
X118975124Y-124020217D01*
X118869157Y-124166066D01*
X118761933Y-124376503D01*
X118688946Y-124601131D01*
X118652000Y-124834402D01*
X108153000Y-124834402D01*
X108116053Y-124601131D01*
X108054034Y-124410258D01*
X108043068Y-124376508D01*
X108043066Y-124376505D01*
X108043066Y-124376503D01*
X107935842Y-124166066D01*
X107911106Y-124132020D01*
X107797017Y-123974990D01*
X107630010Y-123807983D01*
X107523443Y-123730557D01*
X107438931Y-123669155D01*
X107320704Y-123608915D01*
X107309640Y-123598466D01*
X107295797Y-123592144D01*
X107284755Y-123574963D01*
X107269909Y-123560941D01*
X107265667Y-123545261D01*
X107258023Y-123533366D01*
X107253000Y-123498431D01*
X107253000Y-123412704D01*
X107272685Y-123345665D01*
X107289314Y-123325028D01*
X110279895Y-120334447D01*
X118652500Y-120334447D01*
X118652500Y-120570552D01*
X118689434Y-120803747D01*
X118762397Y-121028302D01*
X118869587Y-121238674D01*
X118929838Y-121321604D01*
X118929840Y-121321605D01*
X119628712Y-120622733D01*
X119639982Y-120664792D01*
X119712390Y-120790208D01*
X119814792Y-120892610D01*
X119940208Y-120965018D01*
X119982265Y-120976287D01*
X119283393Y-121675158D01*
X119366328Y-121735414D01*
X119576697Y-121842602D01*
X119801252Y-121915565D01*
X119801251Y-121915565D01*
X120034448Y-121952500D01*
X120270552Y-121952500D01*
X120503747Y-121915565D01*
X120728302Y-121842602D01*
X120938663Y-121735418D01*
X120938669Y-121735414D01*
X121021604Y-121675158D01*
X121021605Y-121675158D01*
X120322733Y-120976287D01*
X120364792Y-120965018D01*
X120490208Y-120892610D01*
X120592610Y-120790208D01*
X120665018Y-120664792D01*
X120676287Y-120622734D01*
X121375158Y-121321605D01*
X121375158Y-121321604D01*
X121435414Y-121238669D01*
X121435418Y-121238663D01*
X121542602Y-121028302D01*
X121615565Y-120803747D01*
X121652500Y-120570552D01*
X121652500Y-120334447D01*
X125152500Y-120334447D01*
X125152500Y-120570552D01*
X125189434Y-120803747D01*
X125262397Y-121028302D01*
X125369587Y-121238674D01*
X125429838Y-121321604D01*
X125429840Y-121321605D01*
X126128712Y-120622733D01*
X126139982Y-120664792D01*
X126212390Y-120790208D01*
X126314792Y-120892610D01*
X126440208Y-120965018D01*
X126482265Y-120976287D01*
X125783393Y-121675158D01*
X125866328Y-121735414D01*
X126076697Y-121842602D01*
X126301252Y-121915565D01*
X126301251Y-121915565D01*
X126534448Y-121952500D01*
X126770552Y-121952500D01*
X127003747Y-121915565D01*
X127228302Y-121842602D01*
X127438663Y-121735418D01*
X127438669Y-121735414D01*
X127521604Y-121675158D01*
X127521605Y-121675158D01*
X126822733Y-120976287D01*
X126864792Y-120965018D01*
X126990208Y-120892610D01*
X127092610Y-120790208D01*
X127165018Y-120664792D01*
X127176287Y-120622734D01*
X127875158Y-121321605D01*
X127875158Y-121321604D01*
X127935414Y-121238669D01*
X127935418Y-121238663D01*
X128042602Y-121028302D01*
X128115565Y-120803747D01*
X128152500Y-120570552D01*
X128152500Y-120334447D01*
X128115565Y-120101252D01*
X128042602Y-119876697D01*
X127935414Y-119666328D01*
X127875158Y-119583394D01*
X127875158Y-119583393D01*
X127176287Y-120282265D01*
X127165018Y-120240208D01*
X127092610Y-120114792D01*
X126990208Y-120012390D01*
X126864792Y-119939982D01*
X126822734Y-119928712D01*
X127521605Y-119229840D01*
X127521604Y-119229838D01*
X127438674Y-119169587D01*
X127228302Y-119062397D01*
X127003747Y-118989434D01*
X127003748Y-118989434D01*
X126770552Y-118952500D01*
X126534448Y-118952500D01*
X126301252Y-118989434D01*
X126076697Y-119062397D01*
X125866330Y-119169584D01*
X125783394Y-119229840D01*
X126482266Y-119928712D01*
X126440208Y-119939982D01*
X126314792Y-120012390D01*
X126212390Y-120114792D01*
X126139982Y-120240208D01*
X126128712Y-120282266D01*
X125429840Y-119583394D01*
X125369584Y-119666330D01*
X125262397Y-119876697D01*
X125189434Y-120101252D01*
X125152500Y-120334447D01*
X121652500Y-120334447D01*
X121615565Y-120101252D01*
X121542602Y-119876697D01*
X121435414Y-119666328D01*
X121375158Y-119583394D01*
X121375158Y-119583393D01*
X120676287Y-120282265D01*
X120665018Y-120240208D01*
X120592610Y-120114792D01*
X120490208Y-120012390D01*
X120364792Y-119939982D01*
X120322734Y-119928712D01*
X121021605Y-119229840D01*
X121021604Y-119229839D01*
X120938674Y-119169587D01*
X120728302Y-119062397D01*
X120503747Y-118989434D01*
X120503748Y-118989434D01*
X120270552Y-118952500D01*
X120034448Y-118952500D01*
X119801252Y-118989434D01*
X119576697Y-119062397D01*
X119366330Y-119169584D01*
X119283394Y-119229840D01*
X119982266Y-119928712D01*
X119940208Y-119939982D01*
X119814792Y-120012390D01*
X119712390Y-120114792D01*
X119639982Y-120240208D01*
X119628712Y-120282266D01*
X118929840Y-119583394D01*
X118869584Y-119666330D01*
X118762397Y-119876697D01*
X118689434Y-120101252D01*
X118652500Y-120334447D01*
X110279895Y-120334447D01*
X115081816Y-115532525D01*
X115143137Y-115499042D01*
X115212829Y-115504026D01*
X115268762Y-115545898D01*
X115279979Y-115563912D01*
X115369157Y-115738933D01*
X115507983Y-115930010D01*
X115674990Y-116097017D01*
X115866067Y-116235843D01*
X115952000Y-116279628D01*
X116076503Y-116343066D01*
X116076505Y-116343066D01*
X116076508Y-116343068D01*
X116196912Y-116382189D01*
X116301131Y-116416053D01*
X116534403Y-116453000D01*
X116534408Y-116453000D01*
X116770597Y-116453000D01*
X117003868Y-116416053D01*
X117228492Y-116343068D01*
X117438933Y-116235843D01*
X117630010Y-116097017D01*
X117797017Y-115930010D01*
X117935843Y-115738933D01*
X118043068Y-115528492D01*
X118116053Y-115303868D01*
X118153000Y-115070597D01*
X118153000Y-114834402D01*
X118116053Y-114601135D01*
X118116053Y-114601132D01*
X118075047Y-114474933D01*
X118073053Y-114405093D01*
X118105296Y-114348937D01*
X132013713Y-100440521D01*
X132013716Y-100440520D01*
X132125520Y-100328716D01*
X132175639Y-100241904D01*
X132204577Y-100191785D01*
X132205831Y-100187101D01*
X132211917Y-100176068D01*
X132232018Y-100156134D01*
X132249779Y-100134094D01*
X132256500Y-100131857D01*
X132261529Y-100126870D01*
X132289212Y-100120969D01*
X132316073Y-100112029D01*
X132322936Y-100113780D01*
X132329864Y-100112304D01*
X132356345Y-100122307D01*
X132383773Y-100129308D01*
X132388599Y-100134492D01*
X132395225Y-100136995D01*
X132412092Y-100159724D01*
X132431384Y-100180445D01*
X132433213Y-100188186D01*
X132436862Y-100193103D01*
X132437852Y-100207819D01*
X132444500Y-100235950D01*
X132444500Y-105918438D01*
X132444499Y-105918456D01*
X132444499Y-106084162D01*
X132444498Y-106084162D01*
X132445154Y-106086610D01*
X132485423Y-106236893D01*
X132491384Y-106247218D01*
X132491386Y-106247225D01*
X132491388Y-106247225D01*
X132564475Y-106373817D01*
X132564481Y-106373825D01*
X132683349Y-106492693D01*
X132683355Y-106492698D01*
X149572471Y-123381814D01*
X149605956Y-123443137D01*
X149600972Y-123512829D01*
X149559100Y-123568762D01*
X149541085Y-123579980D01*
X149366066Y-123669157D01*
X149281557Y-123730557D01*
X149174990Y-123807983D01*
X149174988Y-123807985D01*
X149174987Y-123807985D01*
X149007985Y-123974987D01*
X149007985Y-123974988D01*
X149007983Y-123974990D01*
X148975124Y-124020217D01*
X148869157Y-124166066D01*
X148761933Y-124376503D01*
X148688946Y-124601131D01*
X148652000Y-124834402D01*
X148652000Y-125070597D01*
X148688946Y-125303868D01*
X148761933Y-125528496D01*
X148779980Y-125563914D01*
X148869157Y-125738933D01*
X149007983Y-125930010D01*
X149174990Y-126097017D01*
X149366067Y-126235843D01*
X149465491Y-126286502D01*
X149576503Y-126343066D01*
X149576505Y-126343066D01*
X149576508Y-126343068D01*
X149696912Y-126382189D01*
X149801131Y-126416053D01*
X150034403Y-126453000D01*
X150034408Y-126453000D01*
X150270597Y-126453000D01*
X150503868Y-126416053D01*
X150728492Y-126343068D01*
X150938933Y-126235843D01*
X151130010Y-126097017D01*
X151297017Y-125930010D01*
X151435843Y-125738933D01*
X151525020Y-125563912D01*
X151572993Y-125513118D01*
X151640814Y-125496323D01*
X151706949Y-125518860D01*
X151723185Y-125532528D01*
X159515681Y-133325024D01*
X159530384Y-133351951D01*
X159546977Y-133377770D01*
X159547868Y-133383970D01*
X159549166Y-133386347D01*
X159552000Y-133412705D01*
X159552000Y-133498431D01*
X159532315Y-133565470D01*
X159484296Y-133608915D01*
X159366068Y-133669155D01*
X159232396Y-133766274D01*
X159174990Y-133807983D01*
X159174988Y-133807985D01*
X159174987Y-133807985D01*
X159007985Y-133974987D01*
X159007985Y-133974988D01*
X159007983Y-133974990D01*
X158948362Y-134057050D01*
X158869157Y-134166066D01*
X158761933Y-134376503D01*
X158688946Y-134601131D01*
X158652000Y-134834402D01*
X158652000Y-135070597D01*
X158688946Y-135303868D01*
X158727395Y-135422199D01*
X158749647Y-135490682D01*
X158751642Y-135560522D01*
X158715562Y-135620355D01*
X158652861Y-135651184D01*
X158631716Y-135653000D01*
X145438170Y-135653000D01*
X145438154Y-135652999D01*
X145430558Y-135652999D01*
X145272443Y-135652999D01*
X145196079Y-135673461D01*
X145119714Y-135693923D01*
X145119709Y-135693926D01*
X144982790Y-135772975D01*
X144982782Y-135772981D01*
X132256063Y-148499700D01*
X132194740Y-148533185D01*
X132130064Y-148529950D01*
X132003870Y-148488947D01*
X131770597Y-148452000D01*
X131770592Y-148452000D01*
X131534408Y-148452000D01*
X131534403Y-148452000D01*
X131301131Y-148488946D01*
X131076503Y-148561933D01*
X130866066Y-148669157D01*
X130757050Y-148748362D01*
X130674990Y-148807983D01*
X130674988Y-148807985D01*
X130674987Y-148807985D01*
X130507985Y-148974987D01*
X130507985Y-148974988D01*
X130507983Y-148974990D01*
X130448362Y-149057050D01*
X130369157Y-149166066D01*
X130261933Y-149376503D01*
X130188946Y-149601131D01*
X130152000Y-149834402D01*
X130152000Y-150070597D01*
X130188946Y-150303868D01*
X130261933Y-150528496D01*
X130369157Y-150738933D01*
X130507983Y-150930010D01*
X130674990Y-151097017D01*
X130866067Y-151235843D01*
X130965491Y-151286502D01*
X131076503Y-151343066D01*
X131076505Y-151343066D01*
X131076508Y-151343068D01*
X131196912Y-151382189D01*
X131301131Y-151416053D01*
X131534403Y-151453000D01*
X131534408Y-151453000D01*
X131770597Y-151453000D01*
X132003868Y-151416053D01*
X132025904Y-151408893D01*
X132228492Y-151343068D01*
X132438933Y-151235843D01*
X132630010Y-151097017D01*
X132797017Y-150930010D01*
X132935843Y-150738933D01*
X133043068Y-150528492D01*
X133116053Y-150303868D01*
X133153000Y-150070597D01*
X133153000Y-149834402D01*
X143652000Y-149834402D01*
X143652000Y-150070597D01*
X143688946Y-150303868D01*
X143761933Y-150528496D01*
X143869157Y-150738933D01*
X144007983Y-150930010D01*
X144174990Y-151097017D01*
X144366067Y-151235843D01*
X144465491Y-151286502D01*
X144576503Y-151343066D01*
X144576505Y-151343066D01*
X144576508Y-151343068D01*
X144696912Y-151382189D01*
X144801131Y-151416053D01*
X145034403Y-151453000D01*
X145034408Y-151453000D01*
X145270597Y-151453000D01*
X145503868Y-151416053D01*
X145525904Y-151408893D01*
X145728492Y-151343068D01*
X145938933Y-151235843D01*
X146130010Y-151097017D01*
X146297017Y-150930010D01*
X146435843Y-150738933D01*
X146543068Y-150528492D01*
X146616053Y-150303868D01*
X146653000Y-150070597D01*
X146653000Y-149834402D01*
X146616053Y-149601131D01*
X146552356Y-149405093D01*
X146543068Y-149376508D01*
X146543066Y-149376505D01*
X146543066Y-149376503D01*
X146435842Y-149166066D01*
X146297017Y-148974990D01*
X146130010Y-148807983D01*
X145938933Y-148669157D01*
X145728496Y-148561933D01*
X145503868Y-148488946D01*
X145270597Y-148452000D01*
X145270592Y-148452000D01*
X145034408Y-148452000D01*
X145034403Y-148452000D01*
X144801131Y-148488946D01*
X144576503Y-148561933D01*
X144366066Y-148669157D01*
X144257050Y-148748362D01*
X144174990Y-148807983D01*
X144174988Y-148807985D01*
X144174987Y-148807985D01*
X144007985Y-148974987D01*
X144007985Y-148974988D01*
X144007983Y-148974990D01*
X143948362Y-149057050D01*
X143869157Y-149166066D01*
X143761933Y-149376503D01*
X143688946Y-149601131D01*
X143652000Y-149834402D01*
X133153000Y-149834402D01*
X133116053Y-149601135D01*
X133116053Y-149601132D01*
X133075047Y-149474933D01*
X133073053Y-149405093D01*
X133105296Y-149348937D01*
X137119787Y-145334447D01*
X143652500Y-145334447D01*
X143652500Y-145570552D01*
X143689434Y-145803747D01*
X143762397Y-146028302D01*
X143869587Y-146238674D01*
X143929838Y-146321604D01*
X143929840Y-146321605D01*
X144628712Y-145622733D01*
X144639982Y-145664792D01*
X144712390Y-145790208D01*
X144814792Y-145892610D01*
X144940208Y-145965018D01*
X144982265Y-145976287D01*
X144283393Y-146675158D01*
X144366328Y-146735414D01*
X144576697Y-146842602D01*
X144801252Y-146915565D01*
X144801251Y-146915565D01*
X145034448Y-146952500D01*
X145270552Y-146952500D01*
X145503747Y-146915565D01*
X145728302Y-146842602D01*
X145938663Y-146735418D01*
X145938669Y-146735414D01*
X146021604Y-146675158D01*
X146021605Y-146675158D01*
X145322733Y-145976287D01*
X145364792Y-145965018D01*
X145490208Y-145892610D01*
X145592610Y-145790208D01*
X145665018Y-145664792D01*
X145676287Y-145622734D01*
X146375158Y-146321605D01*
X146375158Y-146321604D01*
X146435414Y-146238669D01*
X146435418Y-146238663D01*
X146542602Y-146028302D01*
X146615565Y-145803747D01*
X146652500Y-145570552D01*
X146652500Y-145334447D01*
X150152500Y-145334447D01*
X150152500Y-145570552D01*
X150189434Y-145803747D01*
X150262397Y-146028302D01*
X150369587Y-146238674D01*
X150429838Y-146321604D01*
X150429840Y-146321605D01*
X151128712Y-145622733D01*
X151139982Y-145664792D01*
X151212390Y-145790208D01*
X151314792Y-145892610D01*
X151440208Y-145965018D01*
X151482265Y-145976287D01*
X150783393Y-146675158D01*
X150866328Y-146735414D01*
X151076697Y-146842602D01*
X151301252Y-146915565D01*
X151301251Y-146915565D01*
X151534448Y-146952500D01*
X151770552Y-146952500D01*
X152003747Y-146915565D01*
X152228302Y-146842602D01*
X152438663Y-146735418D01*
X152438669Y-146735414D01*
X152521604Y-146675158D01*
X152521605Y-146675158D01*
X151822733Y-145976287D01*
X151864792Y-145965018D01*
X151990208Y-145892610D01*
X152092610Y-145790208D01*
X152165018Y-145664792D01*
X152176287Y-145622734D01*
X152875158Y-146321605D01*
X152875158Y-146321604D01*
X152935414Y-146238669D01*
X152935418Y-146238663D01*
X153042602Y-146028302D01*
X153115565Y-145803747D01*
X153152500Y-145570552D01*
X153152500Y-145334447D01*
X153115565Y-145101252D01*
X153042602Y-144876697D01*
X152935414Y-144666328D01*
X152875158Y-144583394D01*
X152875158Y-144583393D01*
X152176287Y-145282265D01*
X152165018Y-145240208D01*
X152092610Y-145114792D01*
X151990208Y-145012390D01*
X151864792Y-144939982D01*
X151822734Y-144928712D01*
X152521605Y-144229840D01*
X152521604Y-144229838D01*
X152438674Y-144169587D01*
X152228302Y-144062397D01*
X152003747Y-143989434D01*
X152003748Y-143989434D01*
X151770552Y-143952500D01*
X151534448Y-143952500D01*
X151301252Y-143989434D01*
X151076697Y-144062397D01*
X150866330Y-144169584D01*
X150783394Y-144229840D01*
X151482266Y-144928712D01*
X151440208Y-144939982D01*
X151314792Y-145012390D01*
X151212390Y-145114792D01*
X151139982Y-145240208D01*
X151128712Y-145282266D01*
X150429840Y-144583394D01*
X150369584Y-144666330D01*
X150262397Y-144876697D01*
X150189434Y-145101252D01*
X150152500Y-145334447D01*
X146652500Y-145334447D01*
X146615565Y-145101252D01*
X146542602Y-144876697D01*
X146435414Y-144666328D01*
X146375158Y-144583394D01*
X146375158Y-144583393D01*
X145676287Y-145282265D01*
X145665018Y-145240208D01*
X145592610Y-145114792D01*
X145490208Y-145012390D01*
X145364792Y-144939982D01*
X145322734Y-144928712D01*
X146021605Y-144229840D01*
X146021604Y-144229839D01*
X145938674Y-144169587D01*
X145728302Y-144062397D01*
X145503747Y-143989434D01*
X145503748Y-143989434D01*
X145270552Y-143952500D01*
X145034448Y-143952500D01*
X144801252Y-143989434D01*
X144576697Y-144062397D01*
X144366330Y-144169584D01*
X144283394Y-144229840D01*
X144982266Y-144928712D01*
X144940208Y-144939982D01*
X144814792Y-145012390D01*
X144712390Y-145114792D01*
X144639982Y-145240208D01*
X144628712Y-145282266D01*
X143929840Y-144583394D01*
X143869584Y-144666330D01*
X143762397Y-144876697D01*
X143689434Y-145101252D01*
X143652500Y-145334447D01*
X137119787Y-145334447D01*
X145563917Y-136890319D01*
X145625240Y-136856834D01*
X145651598Y-136854000D01*
X160604723Y-136854000D01*
X160604739Y-136854001D01*
X160612335Y-136854001D01*
X160770446Y-136854001D01*
X160770449Y-136854001D01*
X160923177Y-136813077D01*
X160973296Y-136784139D01*
X161060108Y-136734020D01*
X161171912Y-136622216D01*
X161171913Y-136622213D01*
X161332822Y-136461304D01*
X161394142Y-136427822D01*
X161463834Y-136432806D01*
X161519767Y-136474678D01*
X161544184Y-136540142D01*
X161544500Y-136548988D01*
X161544500Y-139159902D01*
X161524815Y-139226941D01*
X161508181Y-139247583D01*
X152256063Y-148499700D01*
X152194740Y-148533185D01*
X152130064Y-148529950D01*
X152003870Y-148488947D01*
X151770597Y-148452000D01*
X151770592Y-148452000D01*
X151534408Y-148452000D01*
X151534403Y-148452000D01*
X151301131Y-148488946D01*
X151076503Y-148561933D01*
X150866066Y-148669157D01*
X150757050Y-148748362D01*
X150674990Y-148807983D01*
X150674988Y-148807985D01*
X150674987Y-148807985D01*
X150507985Y-148974987D01*
X150507985Y-148974988D01*
X150507983Y-148974990D01*
X150448362Y-149057050D01*
X150369157Y-149166066D01*
X150261933Y-149376503D01*
X150188946Y-149601131D01*
X150152000Y-149834402D01*
X150152000Y-150070597D01*
X150188946Y-150303868D01*
X150261933Y-150528496D01*
X150369157Y-150738933D01*
X150507983Y-150930010D01*
X150674990Y-151097017D01*
X150866067Y-151235843D01*
X150965491Y-151286502D01*
X151076503Y-151343066D01*
X151076505Y-151343066D01*
X151076508Y-151343068D01*
X151196912Y-151382189D01*
X151301131Y-151416053D01*
X151534403Y-151453000D01*
X151534408Y-151453000D01*
X151770597Y-151453000D01*
X152003868Y-151416053D01*
X152025904Y-151408893D01*
X152228492Y-151343068D01*
X152438933Y-151235843D01*
X152630010Y-151097017D01*
X152797017Y-150930010D01*
X152935843Y-150738933D01*
X153043068Y-150528492D01*
X153116053Y-150303868D01*
X153153000Y-150070597D01*
X153153000Y-149834402D01*
X153116053Y-149601135D01*
X153116053Y-149601132D01*
X153075047Y-149474933D01*
X153073053Y-149405093D01*
X153105296Y-149348937D01*
X162625520Y-139828716D01*
X162704577Y-139691785D01*
X162745501Y-139539057D01*
X162745501Y-139380942D01*
X162745501Y-139373347D01*
X162745500Y-139373329D01*
X162745500Y-134834402D01*
X165152000Y-134834402D01*
X165152000Y-135070597D01*
X165188946Y-135303868D01*
X165261933Y-135528496D01*
X165325371Y-135652999D01*
X165369157Y-135738933D01*
X165507983Y-135930010D01*
X165674990Y-136097017D01*
X165866067Y-136235843D01*
X165893120Y-136249627D01*
X166076503Y-136343066D01*
X166076505Y-136343066D01*
X166076508Y-136343068D01*
X166196912Y-136382189D01*
X166301131Y-136416053D01*
X166534403Y-136453000D01*
X166534408Y-136453000D01*
X166770597Y-136453000D01*
X167003868Y-136416053D01*
X167228492Y-136343068D01*
X167438933Y-136235843D01*
X167630010Y-136097017D01*
X167797017Y-135930010D01*
X167935843Y-135738933D01*
X168043068Y-135528492D01*
X168116053Y-135303868D01*
X168153000Y-135070597D01*
X168153000Y-134834402D01*
X168116053Y-134601131D01*
X168043066Y-134376503D01*
X167935842Y-134166066D01*
X167797017Y-133974990D01*
X167630010Y-133807983D01*
X167438933Y-133669157D01*
X167438929Y-133669155D01*
X167228496Y-133561933D01*
X167003868Y-133488946D01*
X166770597Y-133452000D01*
X166770592Y-133452000D01*
X166534408Y-133452000D01*
X166534403Y-133452000D01*
X166301131Y-133488946D01*
X166076503Y-133561933D01*
X165866066Y-133669157D01*
X165757050Y-133748362D01*
X165674990Y-133807983D01*
X165674988Y-133807985D01*
X165674987Y-133807985D01*
X165507985Y-133974987D01*
X165507985Y-133974988D01*
X165507983Y-133974990D01*
X165448362Y-134057050D01*
X165369157Y-134166066D01*
X165261933Y-134376503D01*
X165188946Y-134601131D01*
X165152000Y-134834402D01*
X162745500Y-134834402D01*
X162745500Y-130334447D01*
X165152500Y-130334447D01*
X165152500Y-130570552D01*
X165189434Y-130803747D01*
X165262397Y-131028302D01*
X165369587Y-131238674D01*
X165429838Y-131321604D01*
X165429840Y-131321605D01*
X166128712Y-130622733D01*
X166139982Y-130664792D01*
X166212390Y-130790208D01*
X166314792Y-130892610D01*
X166440208Y-130965018D01*
X166482265Y-130976287D01*
X165783393Y-131675158D01*
X165866328Y-131735414D01*
X166076697Y-131842602D01*
X166301252Y-131915565D01*
X166301251Y-131915565D01*
X166534448Y-131952500D01*
X166770552Y-131952500D01*
X167003747Y-131915565D01*
X167228302Y-131842602D01*
X167438663Y-131735418D01*
X167438669Y-131735414D01*
X167521604Y-131675158D01*
X167521605Y-131675158D01*
X166822733Y-130976287D01*
X166864792Y-130965018D01*
X166990208Y-130892610D01*
X167092610Y-130790208D01*
X167165018Y-130664792D01*
X167176287Y-130622733D01*
X167875158Y-131321605D01*
X167875158Y-131321604D01*
X167935414Y-131238669D01*
X167935418Y-131238663D01*
X168042602Y-131028302D01*
X168115565Y-130803747D01*
X168152500Y-130570552D01*
X168152500Y-130334447D01*
X168115565Y-130101252D01*
X168042602Y-129876697D01*
X167935414Y-129666328D01*
X167875158Y-129583394D01*
X167875158Y-129583393D01*
X167176287Y-130282265D01*
X167165018Y-130240208D01*
X167092610Y-130114792D01*
X166990208Y-130012390D01*
X166864792Y-129939982D01*
X166822734Y-129928712D01*
X167521605Y-129229840D01*
X167521604Y-129229838D01*
X167438674Y-129169587D01*
X167228302Y-129062397D01*
X167003747Y-128989434D01*
X167003748Y-128989434D01*
X166770552Y-128952500D01*
X166534448Y-128952500D01*
X166301252Y-128989434D01*
X166076697Y-129062397D01*
X165866330Y-129169584D01*
X165783394Y-129229840D01*
X166482266Y-129928712D01*
X166440208Y-129939982D01*
X166314792Y-130012390D01*
X166212390Y-130114792D01*
X166139982Y-130240208D01*
X166128712Y-130282266D01*
X165429840Y-129583394D01*
X165369584Y-129666330D01*
X165262397Y-129876697D01*
X165189434Y-130101252D01*
X165152500Y-130334447D01*
X162745500Y-130334447D01*
X162745500Y-124834402D01*
X168652000Y-124834402D01*
X168652000Y-125070597D01*
X168688946Y-125303868D01*
X168761933Y-125528496D01*
X168779980Y-125563914D01*
X168869157Y-125738933D01*
X169007983Y-125930010D01*
X169174990Y-126097017D01*
X169366067Y-126235843D01*
X169465491Y-126286502D01*
X169576503Y-126343066D01*
X169576505Y-126343066D01*
X169576508Y-126343068D01*
X169696912Y-126382189D01*
X169801131Y-126416053D01*
X170034403Y-126453000D01*
X170034408Y-126453000D01*
X170270597Y-126453000D01*
X170503868Y-126416053D01*
X170728492Y-126343068D01*
X170938933Y-126235843D01*
X171130010Y-126097017D01*
X171297017Y-125930010D01*
X171435843Y-125738933D01*
X171543068Y-125528492D01*
X171616053Y-125303868D01*
X171653000Y-125070597D01*
X171653000Y-124834402D01*
X175152000Y-124834402D01*
X175152000Y-125070597D01*
X175188946Y-125303868D01*
X175261933Y-125528496D01*
X175279980Y-125563914D01*
X175369157Y-125738933D01*
X175507983Y-125930010D01*
X175674990Y-126097017D01*
X175866067Y-126235843D01*
X175965491Y-126286502D01*
X176076503Y-126343066D01*
X176076505Y-126343066D01*
X176076508Y-126343068D01*
X176196912Y-126382189D01*
X176301131Y-126416053D01*
X176534403Y-126453000D01*
X176534408Y-126453000D01*
X176770597Y-126453000D01*
X177003868Y-126416053D01*
X177228492Y-126343068D01*
X177438933Y-126235843D01*
X177630010Y-126097017D01*
X177797017Y-125930010D01*
X177935843Y-125738933D01*
X178043068Y-125528492D01*
X178116053Y-125303868D01*
X178153000Y-125070597D01*
X178153000Y-124834402D01*
X178116053Y-124601131D01*
X178054034Y-124410258D01*
X178043068Y-124376508D01*
X178043066Y-124376505D01*
X178043066Y-124376503D01*
X177935842Y-124166066D01*
X177911106Y-124132020D01*
X177797017Y-123974990D01*
X177630010Y-123807983D01*
X177438933Y-123669157D01*
X177438929Y-123669155D01*
X177228496Y-123561933D01*
X177003868Y-123488946D01*
X176770597Y-123452000D01*
X176770592Y-123452000D01*
X176534408Y-123452000D01*
X176534403Y-123452000D01*
X176301131Y-123488946D01*
X176076503Y-123561933D01*
X175866066Y-123669157D01*
X175781557Y-123730557D01*
X175674990Y-123807983D01*
X175674988Y-123807985D01*
X175674987Y-123807985D01*
X175507985Y-123974987D01*
X175507985Y-123974988D01*
X175507983Y-123974990D01*
X175475124Y-124020217D01*
X175369157Y-124166066D01*
X175261933Y-124376503D01*
X175188946Y-124601131D01*
X175152000Y-124834402D01*
X171653000Y-124834402D01*
X171616053Y-124601131D01*
X171554034Y-124410258D01*
X171543068Y-124376508D01*
X171543066Y-124376505D01*
X171543066Y-124376503D01*
X171435842Y-124166066D01*
X171411106Y-124132020D01*
X171297017Y-123974990D01*
X171130010Y-123807983D01*
X170938933Y-123669157D01*
X170938929Y-123669155D01*
X170728496Y-123561933D01*
X170503868Y-123488946D01*
X170270597Y-123452000D01*
X170270592Y-123452000D01*
X170034408Y-123452000D01*
X170034403Y-123452000D01*
X169801131Y-123488946D01*
X169576503Y-123561933D01*
X169366066Y-123669157D01*
X169281557Y-123730557D01*
X169174990Y-123807983D01*
X169174988Y-123807985D01*
X169174987Y-123807985D01*
X169007985Y-123974987D01*
X169007985Y-123974988D01*
X169007983Y-123974990D01*
X168975124Y-124020217D01*
X168869157Y-124166066D01*
X168761933Y-124376503D01*
X168688946Y-124601131D01*
X168652000Y-124834402D01*
X162745500Y-124834402D01*
X162745500Y-120334447D01*
X168652500Y-120334447D01*
X168652500Y-120570552D01*
X168689434Y-120803747D01*
X168762397Y-121028302D01*
X168869587Y-121238674D01*
X168929838Y-121321604D01*
X168929840Y-121321605D01*
X169628712Y-120622733D01*
X169639982Y-120664792D01*
X169712390Y-120790208D01*
X169814792Y-120892610D01*
X169940208Y-120965018D01*
X169982265Y-120976287D01*
X169283393Y-121675158D01*
X169366328Y-121735414D01*
X169576697Y-121842602D01*
X169801252Y-121915565D01*
X169801251Y-121915565D01*
X170034448Y-121952500D01*
X170270552Y-121952500D01*
X170503747Y-121915565D01*
X170728302Y-121842602D01*
X170938663Y-121735418D01*
X170938669Y-121735414D01*
X171021604Y-121675158D01*
X171021605Y-121675158D01*
X170322733Y-120976287D01*
X170364792Y-120965018D01*
X170490208Y-120892610D01*
X170592610Y-120790208D01*
X170665018Y-120664792D01*
X170676287Y-120622733D01*
X171375158Y-121321605D01*
X171375158Y-121321604D01*
X171435414Y-121238669D01*
X171435418Y-121238663D01*
X171542602Y-121028302D01*
X171615565Y-120803747D01*
X171652500Y-120570552D01*
X171652500Y-120334447D01*
X175152500Y-120334447D01*
X175152500Y-120570552D01*
X175189434Y-120803747D01*
X175262397Y-121028302D01*
X175369587Y-121238674D01*
X175429838Y-121321604D01*
X175429840Y-121321605D01*
X176128712Y-120622733D01*
X176139982Y-120664792D01*
X176212390Y-120790208D01*
X176314792Y-120892610D01*
X176440208Y-120965018D01*
X176482265Y-120976287D01*
X175783393Y-121675158D01*
X175866328Y-121735414D01*
X176076697Y-121842602D01*
X176301252Y-121915565D01*
X176301251Y-121915565D01*
X176534448Y-121952500D01*
X176770552Y-121952500D01*
X177003747Y-121915565D01*
X177228302Y-121842602D01*
X177438663Y-121735418D01*
X177438669Y-121735414D01*
X177521604Y-121675158D01*
X177521605Y-121675158D01*
X176822733Y-120976287D01*
X176864792Y-120965018D01*
X176990208Y-120892610D01*
X177092610Y-120790208D01*
X177165018Y-120664792D01*
X177176287Y-120622733D01*
X177875158Y-121321605D01*
X177875158Y-121321604D01*
X177935414Y-121238669D01*
X177935418Y-121238663D01*
X178042602Y-121028302D01*
X178115565Y-120803747D01*
X178152500Y-120570552D01*
X178152500Y-120334447D01*
X178115565Y-120101252D01*
X178042602Y-119876697D01*
X177935414Y-119666328D01*
X177875158Y-119583394D01*
X177875158Y-119583393D01*
X177176287Y-120282265D01*
X177165018Y-120240208D01*
X177092610Y-120114792D01*
X176990208Y-120012390D01*
X176864792Y-119939982D01*
X176822734Y-119928712D01*
X177521605Y-119229840D01*
X177521604Y-119229838D01*
X177438674Y-119169587D01*
X177228302Y-119062397D01*
X177003747Y-118989434D01*
X177003748Y-118989434D01*
X176770552Y-118952500D01*
X176534448Y-118952500D01*
X176301252Y-118989434D01*
X176076697Y-119062397D01*
X175866330Y-119169584D01*
X175783394Y-119229840D01*
X176482266Y-119928712D01*
X176440208Y-119939982D01*
X176314792Y-120012390D01*
X176212390Y-120114792D01*
X176139982Y-120240208D01*
X176128712Y-120282266D01*
X175429840Y-119583394D01*
X175369584Y-119666330D01*
X175262397Y-119876697D01*
X175189434Y-120101252D01*
X175152500Y-120334447D01*
X171652500Y-120334447D01*
X171615565Y-120101252D01*
X171542602Y-119876697D01*
X171435414Y-119666328D01*
X171375158Y-119583394D01*
X171375158Y-119583393D01*
X170676287Y-120282265D01*
X170665018Y-120240208D01*
X170592610Y-120114792D01*
X170490208Y-120012390D01*
X170364792Y-119939982D01*
X170322734Y-119928712D01*
X171021605Y-119229840D01*
X171021604Y-119229839D01*
X170938674Y-119169587D01*
X170728302Y-119062397D01*
X170503747Y-118989434D01*
X170503748Y-118989434D01*
X170270552Y-118952500D01*
X170034448Y-118952500D01*
X169801252Y-118989434D01*
X169576697Y-119062397D01*
X169366330Y-119169584D01*
X169283394Y-119229840D01*
X169982266Y-119928712D01*
X169940208Y-119939982D01*
X169814792Y-120012390D01*
X169712390Y-120114792D01*
X169639982Y-120240208D01*
X169628712Y-120282266D01*
X168929840Y-119583394D01*
X168869584Y-119666330D01*
X168762397Y-119876697D01*
X168689434Y-120101252D01*
X168652500Y-120334447D01*
X162745500Y-120334447D01*
X162745500Y-114834402D01*
X165152000Y-114834402D01*
X165152000Y-115070597D01*
X165188946Y-115303868D01*
X165261933Y-115528496D01*
X165369157Y-115738933D01*
X165507983Y-115930010D01*
X165674990Y-116097017D01*
X165866067Y-116235843D01*
X165952000Y-116279628D01*
X166076503Y-116343066D01*
X166076505Y-116343066D01*
X166076508Y-116343068D01*
X166196912Y-116382189D01*
X166301131Y-116416053D01*
X166534403Y-116453000D01*
X166534408Y-116453000D01*
X166770597Y-116453000D01*
X167003868Y-116416053D01*
X167228492Y-116343068D01*
X167438933Y-116235843D01*
X167630010Y-116097017D01*
X167797017Y-115930010D01*
X167935843Y-115738933D01*
X168043068Y-115528492D01*
X168116053Y-115303868D01*
X168153000Y-115070597D01*
X168153000Y-114834402D01*
X168116053Y-114601131D01*
X168052356Y-114405093D01*
X168043068Y-114376508D01*
X168043066Y-114376505D01*
X168043066Y-114376503D01*
X167935842Y-114166066D01*
X167797017Y-113974990D01*
X167630010Y-113807983D01*
X167438933Y-113669157D01*
X167228496Y-113561933D01*
X167003868Y-113488946D01*
X166770597Y-113452000D01*
X166770592Y-113452000D01*
X166534408Y-113452000D01*
X166534403Y-113452000D01*
X166301131Y-113488946D01*
X166076503Y-113561933D01*
X165866066Y-113669157D01*
X165757050Y-113748362D01*
X165674990Y-113807983D01*
X165674988Y-113807985D01*
X165674987Y-113807985D01*
X165507985Y-113974987D01*
X165507985Y-113974988D01*
X165507983Y-113974990D01*
X165448362Y-114057050D01*
X165369157Y-114166066D01*
X165261933Y-114376503D01*
X165188946Y-114601131D01*
X165152000Y-114834402D01*
X162745500Y-114834402D01*
X162745500Y-110334447D01*
X165152500Y-110334447D01*
X165152500Y-110570552D01*
X165189434Y-110803747D01*
X165262397Y-111028302D01*
X165369587Y-111238674D01*
X165429838Y-111321604D01*
X165429840Y-111321605D01*
X166128712Y-110622733D01*
X166139982Y-110664792D01*
X166212390Y-110790208D01*
X166314792Y-110892610D01*
X166440208Y-110965018D01*
X166482265Y-110976287D01*
X165783393Y-111675158D01*
X165866328Y-111735414D01*
X166076697Y-111842602D01*
X166301252Y-111915565D01*
X166301251Y-111915565D01*
X166534448Y-111952500D01*
X166770552Y-111952500D01*
X167003747Y-111915565D01*
X167228302Y-111842602D01*
X167438663Y-111735418D01*
X167438669Y-111735414D01*
X167521604Y-111675158D01*
X167521605Y-111675158D01*
X166822733Y-110976287D01*
X166864792Y-110965018D01*
X166990208Y-110892610D01*
X167092610Y-110790208D01*
X167165018Y-110664792D01*
X167176287Y-110622733D01*
X167875158Y-111321605D01*
X167875158Y-111321604D01*
X167935414Y-111238669D01*
X167935418Y-111238663D01*
X168042602Y-111028302D01*
X168115565Y-110803747D01*
X168152500Y-110570552D01*
X168152500Y-110334447D01*
X168115565Y-110101252D01*
X168042602Y-109876697D01*
X167935414Y-109666328D01*
X167875158Y-109583394D01*
X167875158Y-109583393D01*
X167176287Y-110282265D01*
X167165018Y-110240208D01*
X167092610Y-110114792D01*
X166990208Y-110012390D01*
X166864792Y-109939982D01*
X166822734Y-109928712D01*
X167521605Y-109229840D01*
X167521604Y-109229838D01*
X167438674Y-109169587D01*
X167228302Y-109062397D01*
X167003747Y-108989434D01*
X167003748Y-108989434D01*
X166770552Y-108952500D01*
X166534448Y-108952500D01*
X166301252Y-108989434D01*
X166076697Y-109062397D01*
X165866330Y-109169584D01*
X165783394Y-109229840D01*
X166482266Y-109928712D01*
X166440208Y-109939982D01*
X166314792Y-110012390D01*
X166212390Y-110114792D01*
X166139982Y-110240208D01*
X166128712Y-110282266D01*
X165429840Y-109583394D01*
X165369584Y-109666330D01*
X165262397Y-109876697D01*
X165189434Y-110101252D01*
X165152500Y-110334447D01*
X162745500Y-110334447D01*
X162745500Y-107010427D01*
X174966214Y-107010427D01*
X174966214Y-107223000D01*
X174998445Y-107426502D01*
X174999468Y-107432957D01*
X175039940Y-107557517D01*
X175065158Y-107635128D01*
X175161665Y-107824534D01*
X175286604Y-107996500D01*
X175436927Y-108146823D01*
X175608893Y-108271762D01*
X175608895Y-108271763D01*
X175608898Y-108271765D01*
X175798302Y-108368271D01*
X176000471Y-108433960D01*
X176210427Y-108467214D01*
X176210428Y-108467214D01*
X176423000Y-108467214D01*
X176423001Y-108467214D01*
X176632957Y-108433960D01*
X176835126Y-108368271D01*
X177024530Y-108271765D01*
X177046503Y-108255800D01*
X177196500Y-108146823D01*
X177196502Y-108146820D01*
X177196506Y-108146818D01*
X177346818Y-107996506D01*
X177346820Y-107996502D01*
X177346823Y-107996500D01*
X177471762Y-107824534D01*
X177471761Y-107824534D01*
X177471765Y-107824530D01*
X177568271Y-107635126D01*
X177633960Y-107432957D01*
X177667214Y-107223001D01*
X177667214Y-107010427D01*
X177633960Y-106800471D01*
X177568271Y-106598302D01*
X177471765Y-106408898D01*
X177471763Y-106408895D01*
X177471762Y-106408893D01*
X177346823Y-106236927D01*
X177196500Y-106086604D01*
X177024534Y-105961665D01*
X176835128Y-105865158D01*
X176835127Y-105865157D01*
X176835126Y-105865157D01*
X176632957Y-105799468D01*
X176632955Y-105799467D01*
X176632954Y-105799467D01*
X176471671Y-105773922D01*
X176423001Y-105766214D01*
X176210427Y-105766214D01*
X176161756Y-105773922D01*
X176000474Y-105799467D01*
X175798299Y-105865158D01*
X175608893Y-105961665D01*
X175436927Y-106086604D01*
X175286604Y-106236927D01*
X175161665Y-106408893D01*
X175065158Y-106598299D01*
X174999467Y-106800474D01*
X174966214Y-107010427D01*
X162745500Y-107010427D01*
X162745500Y-72341559D01*
X162745501Y-72341546D01*
X162745501Y-72173445D01*
X162745501Y-72173443D01*
X162704577Y-72020715D01*
X162660700Y-71944718D01*
X162625520Y-71883784D01*
X162513716Y-71771980D01*
X162513715Y-71771979D01*
X162509385Y-71767649D01*
X162509374Y-71767639D01*
X161381819Y-70640084D01*
X161348334Y-70578761D01*
X161345500Y-70552403D01*
X161345500Y-69161108D01*
X161365185Y-69094069D01*
X161417989Y-69048314D01*
X161487147Y-69038370D01*
X161525792Y-69050622D01*
X161593439Y-69085091D01*
X161720391Y-69126340D01*
X161781236Y-69146110D01*
X161976264Y-69177000D01*
X161976269Y-69177000D01*
X162173736Y-69177000D01*
X162368763Y-69146110D01*
X162371108Y-69145348D01*
X162556561Y-69085091D01*
X162732501Y-68995444D01*
X162842286Y-68915681D01*
X162892246Y-68879384D01*
X162892248Y-68879381D01*
X162892252Y-68879379D01*
X163031879Y-68739752D01*
X163031881Y-68739748D01*
X163031884Y-68739746D01*
X163088357Y-68662016D01*
X163147944Y-68580001D01*
X163237591Y-68404061D01*
X163298610Y-68216263D01*
X163307694Y-68158910D01*
X163329500Y-68021236D01*
X163329500Y-67823763D01*
X163298610Y-67628736D01*
X163266865Y-67531036D01*
X163237591Y-67440939D01*
X163147944Y-67264999D01*
X163122159Y-67229509D01*
X163031884Y-67105253D01*
X162892246Y-66965615D01*
X162732505Y-66849558D01*
X162726119Y-66846304D01*
X162562593Y-66762982D01*
X162511800Y-66715010D01*
X162495005Y-66647189D01*
X162517542Y-66581054D01*
X162562593Y-66542017D01*
X162732501Y-66455444D01*
X162768842Y-66429041D01*
X162892246Y-66339384D01*
X162892248Y-66339381D01*
X162892252Y-66339379D01*
X163031879Y-66199752D01*
X163031881Y-66199748D01*
X163031884Y-66199746D01*
X163088357Y-66122016D01*
X163147944Y-66040001D01*
X163237591Y-65864061D01*
X163298610Y-65676263D01*
X163300886Y-65661894D01*
X163329500Y-65481236D01*
X163329500Y-65283764D01*
X163314388Y-65188357D01*
X163323342Y-65119063D01*
X163368338Y-65065611D01*
X163435089Y-65044971D01*
X163502403Y-65063695D01*
X163524542Y-65081277D01*
X164108181Y-65664916D01*
X164141666Y-65726239D01*
X164144500Y-65752597D01*
X164144500Y-95458330D01*
X164144499Y-95458348D01*
X164144499Y-95624054D01*
X164144498Y-95624054D01*
X164185422Y-95776783D01*
X164209797Y-95819001D01*
X164209799Y-95819004D01*
X164264479Y-95913714D01*
X164264481Y-95913717D01*
X164383349Y-96032585D01*
X164383355Y-96032590D01*
X165699700Y-97348935D01*
X165733185Y-97410258D01*
X165729950Y-97474933D01*
X165688947Y-97601128D01*
X165652000Y-97834402D01*
X165652000Y-98070597D01*
X165688946Y-98303868D01*
X165761933Y-98528496D01*
X165869157Y-98738933D01*
X166007983Y-98930010D01*
X166174990Y-99097017D01*
X166366067Y-99235843D01*
X166452000Y-99279628D01*
X166576503Y-99343066D01*
X166576505Y-99343066D01*
X166576508Y-99343068D01*
X166696912Y-99382189D01*
X166801131Y-99416053D01*
X167034403Y-99453000D01*
X167034408Y-99453000D01*
X167270597Y-99453000D01*
X167503868Y-99416053D01*
X167534054Y-99406245D01*
X167728492Y-99343068D01*
X167938933Y-99235843D01*
X168130010Y-99097017D01*
X168297017Y-98930010D01*
X168435843Y-98738933D01*
X168543068Y-98528492D01*
X168616053Y-98303868D01*
X168653000Y-98070597D01*
X168653000Y-97834402D01*
X172152000Y-97834402D01*
X172152000Y-98070597D01*
X172188946Y-98303868D01*
X172261933Y-98528496D01*
X172369157Y-98738933D01*
X172507983Y-98930010D01*
X172674990Y-99097017D01*
X172866067Y-99235843D01*
X172952000Y-99279628D01*
X173076503Y-99343066D01*
X173076505Y-99343066D01*
X173076508Y-99343068D01*
X173196912Y-99382189D01*
X173301131Y-99416053D01*
X173534403Y-99453000D01*
X173534408Y-99453000D01*
X173770597Y-99453000D01*
X174003868Y-99416053D01*
X174034054Y-99406245D01*
X174228492Y-99343068D01*
X174438933Y-99235843D01*
X174630010Y-99097017D01*
X174797017Y-98930010D01*
X174935843Y-98738933D01*
X175043068Y-98528492D01*
X175116053Y-98303868D01*
X175153000Y-98070597D01*
X175153000Y-97834402D01*
X175116053Y-97601131D01*
X175052356Y-97405093D01*
X175043068Y-97376508D01*
X175043066Y-97376505D01*
X175043066Y-97376503D01*
X174935842Y-97166066D01*
X174797017Y-96974990D01*
X174630010Y-96807983D01*
X174438933Y-96669157D01*
X174228496Y-96561933D01*
X174003868Y-96488946D01*
X173770597Y-96452000D01*
X173770592Y-96452000D01*
X173534408Y-96452000D01*
X173534403Y-96452000D01*
X173301131Y-96488946D01*
X173076503Y-96561933D01*
X172866066Y-96669157D01*
X172757050Y-96748362D01*
X172674990Y-96807983D01*
X172674988Y-96807985D01*
X172674987Y-96807985D01*
X172507985Y-96974987D01*
X172507985Y-96974988D01*
X172507983Y-96974990D01*
X172448362Y-97057050D01*
X172369157Y-97166066D01*
X172261933Y-97376503D01*
X172188946Y-97601131D01*
X172152000Y-97834402D01*
X168653000Y-97834402D01*
X168616053Y-97601131D01*
X168552356Y-97405093D01*
X168543068Y-97376508D01*
X168543066Y-97376505D01*
X168543066Y-97376503D01*
X168435842Y-97166066D01*
X168297017Y-96974990D01*
X168130010Y-96807983D01*
X167938933Y-96669157D01*
X167728496Y-96561933D01*
X167503868Y-96488946D01*
X167270597Y-96452000D01*
X167270592Y-96452000D01*
X167034408Y-96452000D01*
X167034403Y-96452000D01*
X166801128Y-96488947D01*
X166674933Y-96529950D01*
X166605092Y-96531945D01*
X166548935Y-96499700D01*
X165381819Y-95332584D01*
X165348334Y-95271261D01*
X165345500Y-95244903D01*
X165345500Y-93334447D01*
X165652500Y-93334447D01*
X165652500Y-93570552D01*
X165689434Y-93803747D01*
X165762397Y-94028302D01*
X165869587Y-94238674D01*
X165929838Y-94321604D01*
X165929840Y-94321605D01*
X166628712Y-93622733D01*
X166639982Y-93664792D01*
X166712390Y-93790208D01*
X166814792Y-93892610D01*
X166940208Y-93965018D01*
X166982265Y-93976287D01*
X166283393Y-94675158D01*
X166366328Y-94735414D01*
X166576697Y-94842602D01*
X166801252Y-94915565D01*
X166801251Y-94915565D01*
X167034448Y-94952500D01*
X167270552Y-94952500D01*
X167503747Y-94915565D01*
X167728302Y-94842602D01*
X167938663Y-94735418D01*
X167938669Y-94735414D01*
X168021604Y-94675158D01*
X168021605Y-94675158D01*
X167322733Y-93976287D01*
X167364792Y-93965018D01*
X167490208Y-93892610D01*
X167592610Y-93790208D01*
X167665018Y-93664792D01*
X167676287Y-93622734D01*
X168375158Y-94321605D01*
X168375158Y-94321604D01*
X168435414Y-94238669D01*
X168435418Y-94238663D01*
X168542602Y-94028302D01*
X168615565Y-93803747D01*
X168652500Y-93570552D01*
X168652500Y-93334447D01*
X172152500Y-93334447D01*
X172152500Y-93570552D01*
X172189434Y-93803747D01*
X172262397Y-94028302D01*
X172369587Y-94238674D01*
X172429838Y-94321604D01*
X172429840Y-94321605D01*
X173128712Y-93622733D01*
X173139982Y-93664792D01*
X173212390Y-93790208D01*
X173314792Y-93892610D01*
X173440208Y-93965018D01*
X173482265Y-93976287D01*
X172783393Y-94675158D01*
X172866328Y-94735414D01*
X173076697Y-94842602D01*
X173301252Y-94915565D01*
X173301251Y-94915565D01*
X173534448Y-94952500D01*
X173770552Y-94952500D01*
X174003747Y-94915565D01*
X174228302Y-94842602D01*
X174438663Y-94735418D01*
X174438669Y-94735414D01*
X174521604Y-94675158D01*
X174521605Y-94675158D01*
X173822733Y-93976287D01*
X173864792Y-93965018D01*
X173990208Y-93892610D01*
X174092610Y-93790208D01*
X174165018Y-93664792D01*
X174176287Y-93622733D01*
X174875158Y-94321605D01*
X174875158Y-94321604D01*
X174935414Y-94238669D01*
X174935418Y-94238663D01*
X175042602Y-94028302D01*
X175115565Y-93803747D01*
X175152500Y-93570552D01*
X175152500Y-93334447D01*
X175115565Y-93101252D01*
X175042602Y-92876697D01*
X174935414Y-92666328D01*
X174875158Y-92583394D01*
X174875158Y-92583393D01*
X174176287Y-93282265D01*
X174165018Y-93240208D01*
X174092610Y-93114792D01*
X173990208Y-93012390D01*
X173864792Y-92939982D01*
X173822734Y-92928712D01*
X174521605Y-92229840D01*
X174521604Y-92229838D01*
X174438674Y-92169587D01*
X174228302Y-92062397D01*
X174003747Y-91989434D01*
X174003748Y-91989434D01*
X173770552Y-91952500D01*
X173534448Y-91952500D01*
X173301252Y-91989434D01*
X173076697Y-92062397D01*
X172866330Y-92169584D01*
X172783394Y-92229840D01*
X173482266Y-92928712D01*
X173440208Y-92939982D01*
X173314792Y-93012390D01*
X173212390Y-93114792D01*
X173139982Y-93240208D01*
X173128712Y-93282265D01*
X172429840Y-92583394D01*
X172369584Y-92666330D01*
X172262397Y-92876697D01*
X172189434Y-93101252D01*
X172152500Y-93334447D01*
X168652500Y-93334447D01*
X168615565Y-93101252D01*
X168542602Y-92876697D01*
X168435414Y-92666328D01*
X168375158Y-92583394D01*
X168375158Y-92583393D01*
X167676287Y-93282265D01*
X167665018Y-93240208D01*
X167592610Y-93114792D01*
X167490208Y-93012390D01*
X167364792Y-92939982D01*
X167322734Y-92928712D01*
X168021605Y-92229840D01*
X168021604Y-92229839D01*
X167938674Y-92169587D01*
X167728302Y-92062397D01*
X167503747Y-91989434D01*
X167503748Y-91989434D01*
X167270552Y-91952500D01*
X167034448Y-91952500D01*
X166801252Y-91989434D01*
X166576697Y-92062397D01*
X166366330Y-92169584D01*
X166283394Y-92229840D01*
X166982266Y-92928712D01*
X166940208Y-92939982D01*
X166814792Y-93012390D01*
X166712390Y-93114792D01*
X166639982Y-93240208D01*
X166628712Y-93282265D01*
X165929840Y-92583394D01*
X165869584Y-92666330D01*
X165762397Y-92876697D01*
X165689434Y-93101252D01*
X165652500Y-93334447D01*
X165345500Y-93334447D01*
X165345500Y-67598075D01*
X165365185Y-67531036D01*
X165417989Y-67485281D01*
X165487147Y-67475337D01*
X165550703Y-67504362D01*
X165569818Y-67525190D01*
X165705132Y-67711435D01*
X165705136Y-67711440D01*
X165886059Y-67892363D01*
X165886064Y-67892367D01*
X166062993Y-68020912D01*
X166093053Y-68042752D01*
X166235815Y-68115493D01*
X166321024Y-68158910D01*
X166321027Y-68158911D01*
X166442693Y-68198442D01*
X166564361Y-68237974D01*
X166817070Y-68278000D01*
X166817071Y-68278000D01*
X167072929Y-68278000D01*
X167072930Y-68278000D01*
X167325639Y-68237974D01*
X167568975Y-68158910D01*
X167796947Y-68042752D01*
X168003942Y-67892362D01*
X168184862Y-67711442D01*
X168335252Y-67504447D01*
X168451410Y-67276475D01*
X168530474Y-67033139D01*
X168570500Y-66780430D01*
X168570500Y-66524570D01*
X168530474Y-66271861D01*
X168480335Y-66117548D01*
X168451411Y-66028527D01*
X168451410Y-66028524D01*
X168411185Y-65949580D01*
X168335252Y-65800553D01*
X168288390Y-65736053D01*
X168184867Y-65593564D01*
X168184863Y-65593559D01*
X168003940Y-65412636D01*
X168003935Y-65412632D01*
X167796950Y-65262250D01*
X167796949Y-65262249D01*
X167796947Y-65262248D01*
X167715436Y-65220716D01*
X167568975Y-65146089D01*
X167568972Y-65146088D01*
X167325640Y-65067026D01*
X167186392Y-65044971D01*
X167072930Y-65027000D01*
X166817070Y-65027000D01*
X166732833Y-65040342D01*
X166564359Y-65067026D01*
X166321027Y-65146088D01*
X166321024Y-65146089D01*
X166093049Y-65262250D01*
X165886064Y-65412632D01*
X165886059Y-65412636D01*
X165705136Y-65593559D01*
X165705132Y-65593564D01*
X165569818Y-65779809D01*
X165514488Y-65822475D01*
X165444875Y-65828454D01*
X165383080Y-65795848D01*
X165348723Y-65735010D01*
X165345500Y-65706924D01*
X165345500Y-65373445D01*
X165345500Y-65373443D01*
X165304577Y-65220716D01*
X165285895Y-65188357D01*
X165225524Y-65083790D01*
X165225521Y-65083786D01*
X165225520Y-65083784D01*
X165113716Y-64971980D01*
X165113715Y-64971979D01*
X165109385Y-64967649D01*
X165109374Y-64967639D01*
X163376416Y-63234681D01*
X163342931Y-63173358D01*
X163347915Y-63103666D01*
X163389787Y-63047733D01*
X163455251Y-63023316D01*
X163464097Y-63023000D01*
X170705914Y-63023000D01*
X170772953Y-63042685D01*
X170818708Y-63095489D01*
X170828652Y-63164647D01*
X170827532Y-63171190D01*
X170827240Y-63172658D01*
X170827240Y-63330346D01*
X170858001Y-63484989D01*
X170858004Y-63485001D01*
X170918342Y-63630672D01*
X170918349Y-63630685D01*
X171006342Y-63762374D01*
X171027220Y-63829051D01*
X171027240Y-63831265D01*
X171027240Y-83319662D01*
X171007555Y-83386701D01*
X170990921Y-83407343D01*
X168582583Y-85815681D01*
X168521260Y-85849166D01*
X168494902Y-85852000D01*
X168296457Y-85852000D01*
X168103170Y-85890447D01*
X168103160Y-85890450D01*
X167921092Y-85965864D01*
X167921079Y-85965871D01*
X167757218Y-86075360D01*
X167757214Y-86075363D01*
X167617863Y-86214714D01*
X167617860Y-86214718D01*
X167508371Y-86378579D01*
X167508364Y-86378592D01*
X167432950Y-86560660D01*
X167432947Y-86560670D01*
X167394500Y-86753956D01*
X167394500Y-86753959D01*
X167394500Y-86951041D01*
X167394500Y-86951043D01*
X167394499Y-86951043D01*
X167432947Y-87144329D01*
X167432950Y-87144339D01*
X167508364Y-87326407D01*
X167508371Y-87326420D01*
X167617860Y-87490281D01*
X167617863Y-87490285D01*
X167757214Y-87629636D01*
X167757218Y-87629639D01*
X167921079Y-87739128D01*
X167921092Y-87739135D01*
X168103160Y-87814549D01*
X168103165Y-87814551D01*
X168103169Y-87814551D01*
X168103170Y-87814552D01*
X168296456Y-87853000D01*
X168296459Y-87853000D01*
X168493543Y-87853000D01*
X168623582Y-87827132D01*
X168686835Y-87814551D01*
X168868914Y-87739132D01*
X169032782Y-87629639D01*
X169172139Y-87490282D01*
X169281632Y-87326414D01*
X169357051Y-87144335D01*
X169395500Y-86951041D01*
X169395500Y-86753959D01*
X169395500Y-86752596D01*
X169415185Y-86685557D01*
X169431819Y-86664915D01*
X170046285Y-86050449D01*
X172108260Y-83988476D01*
X172187317Y-83851544D01*
X172228241Y-83698817D01*
X172228241Y-83540702D01*
X172228241Y-83533107D01*
X172228240Y-83533089D01*
X172228240Y-63831265D01*
X172247925Y-63764226D01*
X172249138Y-63762374D01*
X172337130Y-63630685D01*
X172337130Y-63630684D01*
X172337134Y-63630679D01*
X172397477Y-63484997D01*
X172428240Y-63330342D01*
X172428240Y-63172658D01*
X172427948Y-63171190D01*
X172428018Y-63170404D01*
X172427643Y-63166593D01*
X172428365Y-63166521D01*
X172434177Y-63101598D01*
X172477041Y-63046421D01*
X172542931Y-63023178D01*
X172549566Y-63023000D01*
X177653403Y-63023000D01*
X177720442Y-63042685D01*
X177766197Y-63095489D01*
X177776141Y-63164647D01*
X177747116Y-63228203D01*
X177741084Y-63234681D01*
X174457181Y-66518584D01*
X174395858Y-66552069D01*
X174326166Y-66547085D01*
X174270233Y-66505213D01*
X174245816Y-66439749D01*
X174245500Y-66430903D01*
X174245500Y-65952597D01*
X174254143Y-65923160D01*
X174260667Y-65893171D01*
X174264422Y-65888153D01*
X174265185Y-65885558D01*
X174281813Y-65864921D01*
X174359663Y-65787071D01*
X174420982Y-65753589D01*
X174423150Y-65753138D01*
X174481425Y-65741546D01*
X174578497Y-65722237D01*
X174724179Y-65661894D01*
X174855289Y-65574289D01*
X174966789Y-65462789D01*
X175054394Y-65331679D01*
X175114737Y-65185997D01*
X175145500Y-65031342D01*
X175145500Y-64873658D01*
X175145500Y-64873655D01*
X175145499Y-64873653D01*
X175140254Y-64847286D01*
X175114737Y-64719003D01*
X175067092Y-64603976D01*
X175054397Y-64573327D01*
X175054390Y-64573314D01*
X174966789Y-64442211D01*
X174966786Y-64442207D01*
X174855292Y-64330713D01*
X174855288Y-64330710D01*
X174724185Y-64243109D01*
X174724172Y-64243102D01*
X174578501Y-64182764D01*
X174578489Y-64182761D01*
X174423845Y-64152000D01*
X174423842Y-64152000D01*
X174266158Y-64152000D01*
X174266155Y-64152000D01*
X174111510Y-64182761D01*
X174111498Y-64182764D01*
X173965827Y-64243102D01*
X173965814Y-64243109D01*
X173834711Y-64330710D01*
X173834707Y-64330713D01*
X173723213Y-64442207D01*
X173723210Y-64442211D01*
X173635609Y-64573314D01*
X173635602Y-64573327D01*
X173575264Y-64718998D01*
X173575261Y-64719008D01*
X173544361Y-64874350D01*
X173511976Y-64936261D01*
X173510425Y-64937839D01*
X173164481Y-65283782D01*
X173164480Y-65283784D01*
X173116338Y-65367169D01*
X173085423Y-65420715D01*
X173044499Y-65573443D01*
X173044499Y-65573445D01*
X173044499Y-65741546D01*
X173044500Y-65741559D01*
X173044500Y-84352402D01*
X173024815Y-84419441D01*
X173008181Y-84440083D01*
X171632583Y-85815681D01*
X171571260Y-85849166D01*
X171544902Y-85852000D01*
X171346457Y-85852000D01*
X171153170Y-85890447D01*
X171153160Y-85890450D01*
X170971092Y-85965864D01*
X170971079Y-85965871D01*
X170807218Y-86075360D01*
X170807214Y-86075363D01*
X170667863Y-86214714D01*
X170667860Y-86214718D01*
X170558371Y-86378579D01*
X170558364Y-86378592D01*
X170482950Y-86560660D01*
X170482947Y-86560670D01*
X170444500Y-86753956D01*
X170444500Y-86753959D01*
X170444500Y-86951041D01*
X170444500Y-86951043D01*
X170444499Y-86951043D01*
X170482947Y-87144329D01*
X170482950Y-87144339D01*
X170558364Y-87326407D01*
X170558371Y-87326420D01*
X170667860Y-87490281D01*
X170667863Y-87490285D01*
X170807214Y-87629636D01*
X170807218Y-87629639D01*
X170971079Y-87739128D01*
X170971092Y-87739135D01*
X171153160Y-87814549D01*
X171153165Y-87814551D01*
X171153169Y-87814551D01*
X171153170Y-87814552D01*
X171346456Y-87853000D01*
X171346459Y-87853000D01*
X171543543Y-87853000D01*
X171673582Y-87827132D01*
X171736835Y-87814551D01*
X171918914Y-87739132D01*
X172082782Y-87629639D01*
X172222139Y-87490282D01*
X172331632Y-87326414D01*
X172407051Y-87144335D01*
X172445500Y-86951041D01*
X172445500Y-86753959D01*
X172445500Y-86752596D01*
X172465185Y-86685557D01*
X172481819Y-86664915D01*
X173160018Y-85986716D01*
X173682820Y-85463913D01*
X173744142Y-85430430D01*
X173813834Y-85435414D01*
X173869767Y-85477286D01*
X173894184Y-85542750D01*
X173894500Y-85551596D01*
X173894500Y-85986716D01*
X173874815Y-86053755D01*
X173858181Y-86074397D01*
X173717863Y-86214714D01*
X173717860Y-86214718D01*
X173608371Y-86378579D01*
X173608364Y-86378592D01*
X173532950Y-86560660D01*
X173532947Y-86560670D01*
X173494500Y-86753956D01*
X173494500Y-86753959D01*
X173494500Y-86951041D01*
X173494500Y-86951043D01*
X173494499Y-86951043D01*
X173532947Y-87144329D01*
X173532950Y-87144339D01*
X173608364Y-87326407D01*
X173608371Y-87326420D01*
X173717860Y-87490281D01*
X173717863Y-87490285D01*
X173857214Y-87629636D01*
X173857218Y-87629639D01*
X174021079Y-87739128D01*
X174021092Y-87739135D01*
X174203160Y-87814549D01*
X174203165Y-87814551D01*
X174203169Y-87814551D01*
X174203170Y-87814552D01*
X174396456Y-87853000D01*
X174396459Y-87853000D01*
X174593543Y-87853000D01*
X174723582Y-87827132D01*
X174786835Y-87814551D01*
X174968914Y-87739132D01*
X175132782Y-87629639D01*
X175272139Y-87490282D01*
X175381632Y-87326414D01*
X175457051Y-87144335D01*
X175495500Y-86951041D01*
X175495500Y-86753959D01*
X175495500Y-86753956D01*
X175457052Y-86560670D01*
X175457051Y-86560669D01*
X175457051Y-86560665D01*
X175457049Y-86560660D01*
X175381635Y-86378592D01*
X175381628Y-86378579D01*
X175272139Y-86214718D01*
X175272136Y-86214714D01*
X175131819Y-86074397D01*
X175098334Y-86013074D01*
X175095500Y-85986716D01*
X175095500Y-67630096D01*
X175115185Y-67563057D01*
X175131814Y-67542420D01*
X177840319Y-64833914D01*
X177901642Y-64800430D01*
X177971334Y-64805414D01*
X178027267Y-64847286D01*
X178051684Y-64912750D01*
X178052000Y-64921596D01*
X178052000Y-65068786D01*
X178082641Y-65262250D01*
X178085254Y-65278743D01*
X178145055Y-65462792D01*
X178150944Y-65480914D01*
X178247451Y-65670320D01*
X178372390Y-65842286D01*
X178522713Y-65992609D01*
X178694682Y-66117550D01*
X178703446Y-66122016D01*
X178754242Y-66169991D01*
X178771036Y-66237812D01*
X178748498Y-66303947D01*
X178703446Y-66342984D01*
X178694682Y-66347449D01*
X178522713Y-66472390D01*
X178372390Y-66622713D01*
X178247451Y-66794679D01*
X178150944Y-66984085D01*
X178085253Y-67186260D01*
X178052000Y-67396213D01*
X178052000Y-67608787D01*
X178085254Y-67818743D01*
X178118967Y-67922501D01*
X178150944Y-68020914D01*
X178247451Y-68210320D01*
X178372390Y-68382286D01*
X178522713Y-68532609D01*
X178694682Y-68657550D01*
X178703446Y-68662016D01*
X178754242Y-68709991D01*
X178771036Y-68777812D01*
X178748498Y-68843947D01*
X178703446Y-68882984D01*
X178694682Y-68887449D01*
X178522713Y-69012390D01*
X178372390Y-69162713D01*
X178247451Y-69334679D01*
X178150944Y-69524085D01*
X178085253Y-69726260D01*
X178055063Y-69916874D01*
X178052000Y-69936213D01*
X178052000Y-70148787D01*
X178052667Y-70152999D01*
X178079471Y-70322235D01*
X178085254Y-70358743D01*
X178148178Y-70552403D01*
X178150944Y-70560914D01*
X178247451Y-70750320D01*
X178372390Y-70922286D01*
X178522713Y-71072609D01*
X178694682Y-71197550D01*
X178703446Y-71202016D01*
X178754242Y-71249991D01*
X178771036Y-71317812D01*
X178748498Y-71383947D01*
X178703446Y-71422984D01*
X178694682Y-71427449D01*
X178522713Y-71552390D01*
X178372390Y-71702713D01*
X178247451Y-71874679D01*
X178150944Y-72064085D01*
X178085253Y-72266260D01*
X178052000Y-72476213D01*
X178052000Y-72688786D01*
X178085253Y-72898739D01*
X178150944Y-73100914D01*
X178247451Y-73290320D01*
X178372390Y-73462286D01*
X178522713Y-73612609D01*
X178694682Y-73737550D01*
X178703446Y-73742016D01*
X178754242Y-73789991D01*
X178771036Y-73857812D01*
X178748498Y-73923947D01*
X178703446Y-73962984D01*
X178694682Y-73967449D01*
X178522713Y-74092390D01*
X178372390Y-74242713D01*
X178247451Y-74414679D01*
X178150944Y-74604085D01*
X178085253Y-74806260D01*
X178052000Y-75016213D01*
X178052000Y-75228787D01*
X178085254Y-75438743D01*
X178133972Y-75588682D01*
X178150944Y-75640914D01*
X178247451Y-75830320D01*
X178372390Y-76002286D01*
X178522713Y-76152609D01*
X178694682Y-76277550D01*
X178703446Y-76282016D01*
X178754242Y-76329991D01*
X178771036Y-76397812D01*
X178748498Y-76463947D01*
X178703446Y-76502984D01*
X178694682Y-76507449D01*
X178522713Y-76632390D01*
X178372390Y-76782713D01*
X178247451Y-76954679D01*
X178150944Y-77144085D01*
X178085253Y-77346260D01*
X178070057Y-77442207D01*
X178052000Y-77556213D01*
X178052000Y-77768787D01*
X178085254Y-77978743D01*
X178090504Y-77994902D01*
X178150944Y-78180914D01*
X178247451Y-78370320D01*
X178372390Y-78542286D01*
X178485930Y-78655826D01*
X178519415Y-78717149D01*
X178514431Y-78786841D01*
X178472559Y-78842774D01*
X178441583Y-78859689D01*
X178310169Y-78908703D01*
X178310164Y-78908706D01*
X178194955Y-78994952D01*
X178194952Y-78994955D01*
X178108706Y-79110164D01*
X178108702Y-79110171D01*
X178058408Y-79245017D01*
X178052001Y-79304616D01*
X178052001Y-79304623D01*
X178052000Y-79304635D01*
X178052000Y-81100370D01*
X178052001Y-81100376D01*
X178058408Y-81159983D01*
X178108702Y-81294828D01*
X178108706Y-81294835D01*
X178194952Y-81410044D01*
X178194955Y-81410047D01*
X178310164Y-81496293D01*
X178310171Y-81496297D01*
X178445017Y-81546591D01*
X178445016Y-81546591D01*
X178451944Y-81547335D01*
X178504627Y-81553000D01*
X180300372Y-81552999D01*
X180359983Y-81546591D01*
X180494831Y-81496296D01*
X180610046Y-81410046D01*
X180696296Y-81294831D01*
X180746591Y-81159983D01*
X180753000Y-81100373D01*
X180752999Y-79304628D01*
X180746591Y-79245017D01*
X180742575Y-79234250D01*
X180696297Y-79110171D01*
X180696293Y-79110164D01*
X180610047Y-78994955D01*
X180610044Y-78994952D01*
X180494835Y-78908706D01*
X180494828Y-78908702D01*
X180363417Y-78859689D01*
X180307483Y-78817818D01*
X180283066Y-78752353D01*
X180297918Y-78684080D01*
X180319063Y-78655832D01*
X180432604Y-78542292D01*
X180557551Y-78370316D01*
X180654057Y-78180912D01*
X180719746Y-77978743D01*
X180753000Y-77768787D01*
X180753000Y-77556213D01*
X180719746Y-77346257D01*
X180654057Y-77144088D01*
X180557551Y-76954684D01*
X180557549Y-76954681D01*
X180557548Y-76954679D01*
X180432609Y-76782713D01*
X180282286Y-76632390D01*
X180110320Y-76507451D01*
X180109615Y-76507091D01*
X180101554Y-76502985D01*
X180050759Y-76455012D01*
X180033963Y-76387192D01*
X180056499Y-76321056D01*
X180101554Y-76282015D01*
X180110316Y-76277551D01*
X180132289Y-76261586D01*
X180282286Y-76152609D01*
X180282288Y-76152606D01*
X180282292Y-76152604D01*
X180432604Y-76002292D01*
X180432606Y-76002288D01*
X180432609Y-76002286D01*
X180557548Y-75830320D01*
X180557547Y-75830320D01*
X180557551Y-75830316D01*
X180654057Y-75640912D01*
X180719746Y-75438743D01*
X180753000Y-75228787D01*
X180753000Y-75016213D01*
X180719746Y-74806257D01*
X180654057Y-74604088D01*
X180557551Y-74414684D01*
X180557549Y-74414681D01*
X180557548Y-74414679D01*
X180432609Y-74242713D01*
X180282286Y-74092390D01*
X180110320Y-73967451D01*
X180109615Y-73967091D01*
X180101554Y-73962985D01*
X180050759Y-73915012D01*
X180033963Y-73847192D01*
X180056499Y-73781056D01*
X180101554Y-73742015D01*
X180110316Y-73737551D01*
X180132289Y-73721586D01*
X180282286Y-73612609D01*
X180282288Y-73612606D01*
X180282292Y-73612604D01*
X180432604Y-73462292D01*
X180432606Y-73462288D01*
X180432609Y-73462286D01*
X180557548Y-73290320D01*
X180557547Y-73290320D01*
X180557551Y-73290316D01*
X180654057Y-73100912D01*
X180719746Y-72898743D01*
X180753000Y-72688787D01*
X180753000Y-72476213D01*
X180719746Y-72266257D01*
X180654057Y-72064088D01*
X180557551Y-71874684D01*
X180557549Y-71874681D01*
X180557548Y-71874679D01*
X180432609Y-71702713D01*
X180282286Y-71552390D01*
X180110320Y-71427451D01*
X180109615Y-71427091D01*
X180101554Y-71422985D01*
X180050759Y-71375012D01*
X180033963Y-71307192D01*
X180056499Y-71241056D01*
X180101554Y-71202015D01*
X180110316Y-71197551D01*
X180132289Y-71181586D01*
X180282286Y-71072609D01*
X180282288Y-71072606D01*
X180282292Y-71072604D01*
X180432604Y-70922292D01*
X180432606Y-70922288D01*
X180432609Y-70922286D01*
X180557548Y-70750320D01*
X180557547Y-70750320D01*
X180557551Y-70750316D01*
X180654057Y-70560912D01*
X180719746Y-70358743D01*
X180753000Y-70148787D01*
X180753000Y-69936213D01*
X180719746Y-69726257D01*
X180654057Y-69524088D01*
X180557551Y-69334684D01*
X180557549Y-69334681D01*
X180557548Y-69334679D01*
X180432609Y-69162713D01*
X180282286Y-69012390D01*
X180110320Y-68887451D01*
X180109615Y-68887091D01*
X180101554Y-68882985D01*
X180050759Y-68835012D01*
X180033963Y-68767192D01*
X180056499Y-68701056D01*
X180101554Y-68662015D01*
X180110316Y-68657551D01*
X180168211Y-68615488D01*
X180282286Y-68532609D01*
X180282288Y-68532606D01*
X180282292Y-68532604D01*
X180432604Y-68382292D01*
X180432606Y-68382288D01*
X180432609Y-68382286D01*
X180557548Y-68210320D01*
X180557547Y-68210320D01*
X180557551Y-68210316D01*
X180654057Y-68020912D01*
X180719746Y-67818743D01*
X180753000Y-67608787D01*
X180753000Y-67396213D01*
X180719746Y-67186257D01*
X180654057Y-66984088D01*
X180557551Y-66794684D01*
X180557549Y-66794681D01*
X180557548Y-66794679D01*
X180432609Y-66622713D01*
X180282286Y-66472390D01*
X180110320Y-66347451D01*
X180109615Y-66347091D01*
X180101554Y-66342985D01*
X180050759Y-66295012D01*
X180033963Y-66227192D01*
X180056499Y-66161056D01*
X180101554Y-66122015D01*
X180110316Y-66117551D01*
X180186724Y-66062038D01*
X180282286Y-65992609D01*
X180282288Y-65992606D01*
X180282292Y-65992604D01*
X180432604Y-65842292D01*
X180432606Y-65842288D01*
X180432609Y-65842286D01*
X180557548Y-65670320D01*
X180557547Y-65670320D01*
X180557551Y-65670316D01*
X180654057Y-65480912D01*
X180719746Y-65278743D01*
X180753000Y-65068787D01*
X180753000Y-64856213D01*
X180719746Y-64646257D01*
X180706006Y-64603973D01*
X180705572Y-64588762D01*
X180700254Y-64574503D01*
X180704595Y-64554547D01*
X180704012Y-64534135D01*
X180712099Y-64520048D01*
X180715106Y-64506230D01*
X180736254Y-64477979D01*
X180912006Y-64302228D01*
X180912011Y-64302224D01*
X180922214Y-64292020D01*
X180922216Y-64292020D01*
X181034020Y-64180216D01*
X181082806Y-64095715D01*
X181108043Y-64052004D01*
X181108942Y-64050445D01*
X181113077Y-64043285D01*
X181154001Y-63890557D01*
X181154001Y-63890546D01*
X181155061Y-63882504D01*
X181183329Y-63818608D01*
X181241654Y-63780138D01*
X181311519Y-63779308D01*
X181370742Y-63816382D01*
X181400520Y-63879588D01*
X181402000Y-63898692D01*
X181402000Y-80666395D01*
X181355150Y-94627584D01*
X181147543Y-156494263D01*
X181141291Y-156515293D01*
X181139726Y-156537180D01*
X181128881Y-156557040D01*
X181127634Y-156561236D01*
X181122811Y-156568157D01*
X181041060Y-156677364D01*
X181029474Y-156690735D01*
X180890737Y-156829472D01*
X180877367Y-156841058D01*
X180720289Y-156958646D01*
X180705404Y-156968211D01*
X180533201Y-157062240D01*
X180517109Y-157069590D01*
X180333263Y-157138162D01*
X180316287Y-157143146D01*
X180124568Y-157184851D01*
X180107057Y-157187369D01*
X179926279Y-157200299D01*
X179906917Y-157201684D01*
X179898072Y-157202000D01*
X174998961Y-157202000D01*
X174997942Y-157201996D01*
X96068294Y-156553512D01*
X96001419Y-156533277D01*
X95956099Y-156480099D01*
X95945313Y-156429203D01*
X95956557Y-152010427D01*
X97966214Y-152010427D01*
X97966214Y-152223000D01*
X97999467Y-152432953D01*
X98065158Y-152635128D01*
X98161665Y-152824534D01*
X98286604Y-152996500D01*
X98436927Y-153146823D01*
X98608893Y-153271762D01*
X98608895Y-153271763D01*
X98608898Y-153271765D01*
X98798302Y-153368271D01*
X99000471Y-153433960D01*
X99210427Y-153467214D01*
X99210428Y-153467214D01*
X99423000Y-153467214D01*
X99423001Y-153467214D01*
X99632957Y-153433960D01*
X99835126Y-153368271D01*
X100024530Y-153271765D01*
X100046503Y-153255800D01*
X100196500Y-153146823D01*
X100196502Y-153146820D01*
X100196506Y-153146818D01*
X100346818Y-152996506D01*
X100346820Y-152996502D01*
X100346823Y-152996500D01*
X100471762Y-152824534D01*
X100471761Y-152824534D01*
X100471765Y-152824530D01*
X100568271Y-152635126D01*
X100633960Y-152432957D01*
X100667214Y-152223001D01*
X100667214Y-152010427D01*
X174966214Y-152010427D01*
X174966214Y-152223000D01*
X174999467Y-152432953D01*
X175065158Y-152635128D01*
X175161665Y-152824534D01*
X175286604Y-152996500D01*
X175436927Y-153146823D01*
X175608893Y-153271762D01*
X175608895Y-153271763D01*
X175608898Y-153271765D01*
X175798302Y-153368271D01*
X176000471Y-153433960D01*
X176210427Y-153467214D01*
X176210428Y-153467214D01*
X176423000Y-153467214D01*
X176423001Y-153467214D01*
X176632957Y-153433960D01*
X176835126Y-153368271D01*
X177024530Y-153271765D01*
X177046503Y-153255800D01*
X177196500Y-153146823D01*
X177196502Y-153146820D01*
X177196506Y-153146818D01*
X177346818Y-152996506D01*
X177346820Y-152996502D01*
X177346823Y-152996500D01*
X177471762Y-152824534D01*
X177471761Y-152824534D01*
X177471765Y-152824530D01*
X177568271Y-152635126D01*
X177633960Y-152432957D01*
X177667214Y-152223001D01*
X177667214Y-152010427D01*
X177633960Y-151800471D01*
X177568271Y-151598302D01*
X177471765Y-151408898D01*
X177471763Y-151408895D01*
X177471762Y-151408893D01*
X177346823Y-151236927D01*
X177196500Y-151086604D01*
X177024534Y-150961665D01*
X176835128Y-150865158D01*
X176835127Y-150865157D01*
X176835126Y-150865157D01*
X176632957Y-150799468D01*
X176632955Y-150799467D01*
X176632954Y-150799467D01*
X176471671Y-150773922D01*
X176423001Y-150766214D01*
X176210427Y-150766214D01*
X176161756Y-150773922D01*
X176000474Y-150799467D01*
X175798299Y-150865158D01*
X175608893Y-150961665D01*
X175436927Y-151086604D01*
X175286604Y-151236927D01*
X175161665Y-151408893D01*
X175065158Y-151598299D01*
X174999467Y-151800474D01*
X174966214Y-152010427D01*
X100667214Y-152010427D01*
X100633960Y-151800471D01*
X100568271Y-151598302D01*
X100471765Y-151408898D01*
X100471763Y-151408895D01*
X100471762Y-151408893D01*
X100346823Y-151236927D01*
X100196500Y-151086604D01*
X100024534Y-150961665D01*
X99835128Y-150865158D01*
X99835127Y-150865157D01*
X99835126Y-150865157D01*
X99632957Y-150799468D01*
X99632955Y-150799467D01*
X99632954Y-150799467D01*
X99471671Y-150773922D01*
X99423001Y-150766214D01*
X99210427Y-150766214D01*
X99161756Y-150773922D01*
X99000474Y-150799467D01*
X98798299Y-150865158D01*
X98608893Y-150961665D01*
X98436927Y-151086604D01*
X98286604Y-151236927D01*
X98161665Y-151408893D01*
X98065158Y-151598299D01*
X97999467Y-151800474D01*
X97966214Y-152010427D01*
X95956557Y-152010427D01*
X95962094Y-149834402D01*
X123652000Y-149834402D01*
X123652000Y-150070597D01*
X123688946Y-150303868D01*
X123761933Y-150528496D01*
X123869157Y-150738933D01*
X124007983Y-150930010D01*
X124174990Y-151097017D01*
X124366067Y-151235843D01*
X124465491Y-151286502D01*
X124576503Y-151343066D01*
X124576505Y-151343066D01*
X124576508Y-151343068D01*
X124696912Y-151382189D01*
X124801131Y-151416053D01*
X125034403Y-151453000D01*
X125034408Y-151453000D01*
X125270597Y-151453000D01*
X125503868Y-151416053D01*
X125525904Y-151408893D01*
X125728492Y-151343068D01*
X125938933Y-151235843D01*
X126130010Y-151097017D01*
X126297017Y-150930010D01*
X126435843Y-150738933D01*
X126543068Y-150528492D01*
X126616053Y-150303868D01*
X126653000Y-150070597D01*
X126653000Y-149834402D01*
X126616053Y-149601131D01*
X126552356Y-149405093D01*
X126543068Y-149376508D01*
X126543066Y-149376505D01*
X126543066Y-149376503D01*
X126435842Y-149166066D01*
X126297017Y-148974990D01*
X126130010Y-148807983D01*
X125938933Y-148669157D01*
X125728496Y-148561933D01*
X125503868Y-148488946D01*
X125270597Y-148452000D01*
X125270592Y-148452000D01*
X125034408Y-148452000D01*
X125034403Y-148452000D01*
X124801131Y-148488946D01*
X124576503Y-148561933D01*
X124366066Y-148669157D01*
X124257050Y-148748362D01*
X124174990Y-148807983D01*
X124174988Y-148807985D01*
X124174987Y-148807985D01*
X124007985Y-148974987D01*
X124007985Y-148974988D01*
X124007983Y-148974990D01*
X123948362Y-149057050D01*
X123869157Y-149166066D01*
X123761933Y-149376503D01*
X123688946Y-149601131D01*
X123652000Y-149834402D01*
X95962094Y-149834402D01*
X95973544Y-145334447D01*
X123652500Y-145334447D01*
X123652500Y-145570552D01*
X123689434Y-145803747D01*
X123762397Y-146028302D01*
X123869587Y-146238674D01*
X123929838Y-146321604D01*
X123929840Y-146321605D01*
X124628712Y-145622733D01*
X124639982Y-145664792D01*
X124712390Y-145790208D01*
X124814792Y-145892610D01*
X124940208Y-145965018D01*
X124982265Y-145976287D01*
X124283393Y-146675158D01*
X124366328Y-146735414D01*
X124576697Y-146842602D01*
X124801252Y-146915565D01*
X124801251Y-146915565D01*
X125034448Y-146952500D01*
X125270552Y-146952500D01*
X125503747Y-146915565D01*
X125728302Y-146842602D01*
X125938663Y-146735418D01*
X125938669Y-146735414D01*
X126021604Y-146675158D01*
X126021605Y-146675158D01*
X125322733Y-145976287D01*
X125364792Y-145965018D01*
X125490208Y-145892610D01*
X125592610Y-145790208D01*
X125665018Y-145664792D01*
X125676287Y-145622734D01*
X126375158Y-146321605D01*
X126375158Y-146321604D01*
X126435414Y-146238669D01*
X126435418Y-146238663D01*
X126542602Y-146028302D01*
X126615565Y-145803747D01*
X126652500Y-145570552D01*
X126652500Y-145334447D01*
X130152500Y-145334447D01*
X130152500Y-145570552D01*
X130189434Y-145803747D01*
X130262397Y-146028302D01*
X130369587Y-146238674D01*
X130429838Y-146321604D01*
X130429840Y-146321605D01*
X131128712Y-145622733D01*
X131139982Y-145664792D01*
X131212390Y-145790208D01*
X131314792Y-145892610D01*
X131440208Y-145965018D01*
X131482265Y-145976287D01*
X130783393Y-146675158D01*
X130866328Y-146735414D01*
X131076697Y-146842602D01*
X131301252Y-146915565D01*
X131301251Y-146915565D01*
X131534448Y-146952500D01*
X131770552Y-146952500D01*
X132003747Y-146915565D01*
X132228302Y-146842602D01*
X132438663Y-146735418D01*
X132438669Y-146735414D01*
X132521604Y-146675158D01*
X132521605Y-146675158D01*
X131822733Y-145976287D01*
X131864792Y-145965018D01*
X131990208Y-145892610D01*
X132092610Y-145790208D01*
X132165018Y-145664792D01*
X132176287Y-145622734D01*
X132875158Y-146321605D01*
X132875158Y-146321604D01*
X132935414Y-146238669D01*
X132935418Y-146238663D01*
X133042602Y-146028302D01*
X133115565Y-145803747D01*
X133152500Y-145570552D01*
X133152500Y-145334447D01*
X133115565Y-145101252D01*
X133042602Y-144876697D01*
X132935414Y-144666328D01*
X132875158Y-144583394D01*
X132875158Y-144583393D01*
X132176287Y-145282265D01*
X132165018Y-145240208D01*
X132092610Y-145114792D01*
X131990208Y-145012390D01*
X131864792Y-144939982D01*
X131822734Y-144928712D01*
X132521605Y-144229840D01*
X132521604Y-144229838D01*
X132438674Y-144169587D01*
X132228302Y-144062397D01*
X132003747Y-143989434D01*
X132003748Y-143989434D01*
X131770552Y-143952500D01*
X131534448Y-143952500D01*
X131301252Y-143989434D01*
X131076697Y-144062397D01*
X130866330Y-144169584D01*
X130783394Y-144229840D01*
X131482266Y-144928712D01*
X131440208Y-144939982D01*
X131314792Y-145012390D01*
X131212390Y-145114792D01*
X131139982Y-145240208D01*
X131128712Y-145282266D01*
X130429840Y-144583394D01*
X130369584Y-144666330D01*
X130262397Y-144876697D01*
X130189434Y-145101252D01*
X130152500Y-145334447D01*
X126652500Y-145334447D01*
X126615565Y-145101252D01*
X126542602Y-144876697D01*
X126435414Y-144666328D01*
X126375158Y-144583394D01*
X126375158Y-144583393D01*
X125676287Y-145282265D01*
X125665018Y-145240208D01*
X125592610Y-145114792D01*
X125490208Y-145012390D01*
X125364792Y-144939982D01*
X125322734Y-144928712D01*
X126021605Y-144229840D01*
X126021604Y-144229839D01*
X125938674Y-144169587D01*
X125728302Y-144062397D01*
X125503747Y-143989434D01*
X125503748Y-143989434D01*
X125270552Y-143952500D01*
X125034448Y-143952500D01*
X124801252Y-143989434D01*
X124576697Y-144062397D01*
X124366330Y-144169584D01*
X124283394Y-144229840D01*
X124982266Y-144928712D01*
X124940208Y-144939982D01*
X124814792Y-145012390D01*
X124712390Y-145114792D01*
X124639982Y-145240208D01*
X124628712Y-145282266D01*
X123929840Y-144583394D01*
X123869584Y-144666330D01*
X123762397Y-144876697D01*
X123689434Y-145101252D01*
X123652500Y-145334447D01*
X95973544Y-145334447D01*
X96000262Y-134834402D01*
X108652000Y-134834402D01*
X108652000Y-135070597D01*
X108688946Y-135303868D01*
X108761933Y-135528496D01*
X108825371Y-135652999D01*
X108869157Y-135738933D01*
X109007983Y-135930010D01*
X109174990Y-136097017D01*
X109366067Y-136235843D01*
X109393120Y-136249627D01*
X109576503Y-136343066D01*
X109576505Y-136343066D01*
X109576508Y-136343068D01*
X109696912Y-136382189D01*
X109801131Y-136416053D01*
X110034403Y-136453000D01*
X110034408Y-136453000D01*
X110270597Y-136453000D01*
X110503868Y-136416053D01*
X110728492Y-136343068D01*
X110938933Y-136235843D01*
X111130010Y-136097017D01*
X111297017Y-135930010D01*
X111435843Y-135738933D01*
X111543068Y-135528492D01*
X111616053Y-135303868D01*
X111653000Y-135070597D01*
X111653000Y-134834402D01*
X115152000Y-134834402D01*
X115152000Y-135070597D01*
X115188946Y-135303868D01*
X115261933Y-135528496D01*
X115325371Y-135652999D01*
X115369157Y-135738933D01*
X115507983Y-135930010D01*
X115674990Y-136097017D01*
X115866067Y-136235843D01*
X115893120Y-136249627D01*
X116076503Y-136343066D01*
X116076505Y-136343066D01*
X116076508Y-136343068D01*
X116196912Y-136382189D01*
X116301131Y-136416053D01*
X116534403Y-136453000D01*
X116534408Y-136453000D01*
X116770597Y-136453000D01*
X117003868Y-136416053D01*
X117228492Y-136343068D01*
X117438933Y-136235843D01*
X117630010Y-136097017D01*
X117797017Y-135930010D01*
X117935843Y-135738933D01*
X118043068Y-135528492D01*
X118116053Y-135303868D01*
X118153000Y-135070597D01*
X118153000Y-134834402D01*
X118116053Y-134601131D01*
X118043066Y-134376503D01*
X117935842Y-134166066D01*
X117797017Y-133974990D01*
X117630010Y-133807983D01*
X117438933Y-133669157D01*
X117438929Y-133669155D01*
X117228496Y-133561933D01*
X117003868Y-133488946D01*
X116770597Y-133452000D01*
X116770592Y-133452000D01*
X116534408Y-133452000D01*
X116534403Y-133452000D01*
X116301131Y-133488946D01*
X116076503Y-133561933D01*
X115866066Y-133669157D01*
X115757050Y-133748362D01*
X115674990Y-133807983D01*
X115674988Y-133807985D01*
X115674987Y-133807985D01*
X115507985Y-133974987D01*
X115507985Y-133974988D01*
X115507983Y-133974990D01*
X115448362Y-134057050D01*
X115369157Y-134166066D01*
X115261933Y-134376503D01*
X115188946Y-134601131D01*
X115152000Y-134834402D01*
X111653000Y-134834402D01*
X111616053Y-134601131D01*
X111543066Y-134376503D01*
X111435842Y-134166066D01*
X111297017Y-133974990D01*
X111130010Y-133807983D01*
X110938933Y-133669157D01*
X110938929Y-133669155D01*
X110728496Y-133561933D01*
X110503868Y-133488946D01*
X110270597Y-133452000D01*
X110270592Y-133452000D01*
X110034408Y-133452000D01*
X110034403Y-133452000D01*
X109801131Y-133488946D01*
X109576503Y-133561933D01*
X109366066Y-133669157D01*
X109257050Y-133748362D01*
X109174990Y-133807983D01*
X109174988Y-133807985D01*
X109174987Y-133807985D01*
X109007985Y-133974987D01*
X109007985Y-133974988D01*
X109007983Y-133974990D01*
X108948362Y-134057050D01*
X108869157Y-134166066D01*
X108761933Y-134376503D01*
X108688946Y-134601131D01*
X108652000Y-134834402D01*
X96000262Y-134834402D01*
X96011712Y-130334447D01*
X108652500Y-130334447D01*
X108652500Y-130570552D01*
X108689434Y-130803747D01*
X108762397Y-131028302D01*
X108869587Y-131238674D01*
X108929838Y-131321604D01*
X108929840Y-131321605D01*
X109628712Y-130622733D01*
X109639982Y-130664792D01*
X109712390Y-130790208D01*
X109814792Y-130892610D01*
X109940208Y-130965018D01*
X109982265Y-130976287D01*
X109283393Y-131675158D01*
X109366328Y-131735414D01*
X109576697Y-131842602D01*
X109801252Y-131915565D01*
X109801251Y-131915565D01*
X110034448Y-131952500D01*
X110270552Y-131952500D01*
X110503747Y-131915565D01*
X110728302Y-131842602D01*
X110938663Y-131735418D01*
X110938669Y-131735414D01*
X111021604Y-131675158D01*
X111021605Y-131675158D01*
X110322733Y-130976287D01*
X110364792Y-130965018D01*
X110490208Y-130892610D01*
X110592610Y-130790208D01*
X110665018Y-130664792D01*
X110676287Y-130622734D01*
X111375158Y-131321605D01*
X111375158Y-131321604D01*
X111435414Y-131238669D01*
X111435418Y-131238663D01*
X111542602Y-131028302D01*
X111615565Y-130803747D01*
X111652500Y-130570552D01*
X111652500Y-130334447D01*
X115152500Y-130334447D01*
X115152500Y-130570552D01*
X115189434Y-130803747D01*
X115262397Y-131028302D01*
X115369587Y-131238674D01*
X115429838Y-131321604D01*
X115429840Y-131321605D01*
X116128712Y-130622733D01*
X116139982Y-130664792D01*
X116212390Y-130790208D01*
X116314792Y-130892610D01*
X116440208Y-130965018D01*
X116482265Y-130976287D01*
X115783393Y-131675158D01*
X115866328Y-131735414D01*
X116076697Y-131842602D01*
X116301252Y-131915565D01*
X116301251Y-131915565D01*
X116534448Y-131952500D01*
X116770552Y-131952500D01*
X117003747Y-131915565D01*
X117228302Y-131842602D01*
X117438663Y-131735418D01*
X117438669Y-131735414D01*
X117521604Y-131675158D01*
X117521605Y-131675158D01*
X116822733Y-130976287D01*
X116864792Y-130965018D01*
X116990208Y-130892610D01*
X117092610Y-130790208D01*
X117165018Y-130664792D01*
X117176287Y-130622733D01*
X117875158Y-131321605D01*
X117875158Y-131321604D01*
X117935414Y-131238669D01*
X117935418Y-131238663D01*
X118042602Y-131028302D01*
X118115565Y-130803747D01*
X118152500Y-130570552D01*
X118152500Y-130334447D01*
X118115565Y-130101252D01*
X118042602Y-129876697D01*
X117935414Y-129666328D01*
X117875158Y-129583394D01*
X117875158Y-129583393D01*
X117176287Y-130282265D01*
X117165018Y-130240208D01*
X117092610Y-130114792D01*
X116990208Y-130012390D01*
X116864792Y-129939982D01*
X116822734Y-129928712D01*
X117521605Y-129229840D01*
X117521604Y-129229838D01*
X117438674Y-129169587D01*
X117228302Y-129062397D01*
X117003747Y-128989434D01*
X117003748Y-128989434D01*
X116770552Y-128952500D01*
X116534448Y-128952500D01*
X116301252Y-128989434D01*
X116076697Y-129062397D01*
X115866330Y-129169584D01*
X115783394Y-129229840D01*
X116482266Y-129928712D01*
X116440208Y-129939982D01*
X116314792Y-130012390D01*
X116212390Y-130114792D01*
X116139982Y-130240208D01*
X116128712Y-130282266D01*
X115429840Y-129583394D01*
X115369584Y-129666330D01*
X115262397Y-129876697D01*
X115189434Y-130101252D01*
X115152500Y-130334447D01*
X111652500Y-130334447D01*
X111615565Y-130101252D01*
X111542602Y-129876697D01*
X111435414Y-129666328D01*
X111375158Y-129583394D01*
X111375158Y-129583393D01*
X110676287Y-130282265D01*
X110665018Y-130240208D01*
X110592610Y-130114792D01*
X110490208Y-130012390D01*
X110364792Y-129939982D01*
X110322734Y-129928712D01*
X111021605Y-129229840D01*
X111021604Y-129229839D01*
X110938674Y-129169587D01*
X110728302Y-129062397D01*
X110503747Y-128989434D01*
X110503748Y-128989434D01*
X110270552Y-128952500D01*
X110034448Y-128952500D01*
X109801252Y-128989434D01*
X109576697Y-129062397D01*
X109366330Y-129169584D01*
X109283394Y-129229840D01*
X109982266Y-129928712D01*
X109940208Y-129939982D01*
X109814792Y-130012390D01*
X109712390Y-130114792D01*
X109639982Y-130240208D01*
X109628712Y-130282266D01*
X108929840Y-129583394D01*
X108869584Y-129666330D01*
X108762397Y-129876697D01*
X108689434Y-130101252D01*
X108652500Y-130334447D01*
X96011712Y-130334447D01*
X96025707Y-124834402D01*
X98652000Y-124834402D01*
X98652000Y-125070597D01*
X98688946Y-125303868D01*
X98761933Y-125528496D01*
X98779980Y-125563914D01*
X98869157Y-125738933D01*
X99007983Y-125930010D01*
X99174990Y-126097017D01*
X99366067Y-126235843D01*
X99465491Y-126286502D01*
X99576503Y-126343066D01*
X99576505Y-126343066D01*
X99576508Y-126343068D01*
X99696912Y-126382189D01*
X99801131Y-126416053D01*
X100034403Y-126453000D01*
X100034408Y-126453000D01*
X100270597Y-126453000D01*
X100503868Y-126416053D01*
X100728492Y-126343068D01*
X100938933Y-126235843D01*
X101130010Y-126097017D01*
X101297017Y-125930010D01*
X101435843Y-125738933D01*
X101543068Y-125528492D01*
X101616053Y-125303868D01*
X101653000Y-125070597D01*
X101653000Y-124834402D01*
X101616053Y-124601131D01*
X101554034Y-124410258D01*
X101543068Y-124376508D01*
X101543066Y-124376505D01*
X101543066Y-124376503D01*
X101435842Y-124166066D01*
X101411106Y-124132020D01*
X101297017Y-123974990D01*
X101130010Y-123807983D01*
X100938933Y-123669157D01*
X100938929Y-123669155D01*
X100728496Y-123561933D01*
X100503868Y-123488946D01*
X100270597Y-123452000D01*
X100270592Y-123452000D01*
X100034408Y-123452000D01*
X100034403Y-123452000D01*
X99801131Y-123488946D01*
X99576503Y-123561933D01*
X99366066Y-123669157D01*
X99281557Y-123730557D01*
X99174990Y-123807983D01*
X99174988Y-123807985D01*
X99174987Y-123807985D01*
X99007985Y-123974987D01*
X99007985Y-123974988D01*
X99007983Y-123974990D01*
X98975124Y-124020217D01*
X98869157Y-124166066D01*
X98761933Y-124376503D01*
X98688946Y-124601131D01*
X98652000Y-124834402D01*
X96025707Y-124834402D01*
X96037157Y-120334447D01*
X98652500Y-120334447D01*
X98652500Y-120570552D01*
X98689434Y-120803747D01*
X98762397Y-121028302D01*
X98869587Y-121238674D01*
X98929838Y-121321604D01*
X98929840Y-121321605D01*
X99628712Y-120622733D01*
X99639982Y-120664792D01*
X99712390Y-120790208D01*
X99814792Y-120892610D01*
X99940208Y-120965018D01*
X99982265Y-120976287D01*
X99283393Y-121675158D01*
X99366328Y-121735414D01*
X99576697Y-121842602D01*
X99801252Y-121915565D01*
X99801251Y-121915565D01*
X100034448Y-121952500D01*
X100270552Y-121952500D01*
X100503747Y-121915565D01*
X100728302Y-121842602D01*
X100938663Y-121735418D01*
X100938669Y-121735414D01*
X101021604Y-121675158D01*
X101021605Y-121675158D01*
X100322733Y-120976287D01*
X100364792Y-120965018D01*
X100490208Y-120892610D01*
X100592610Y-120790208D01*
X100665018Y-120664792D01*
X100676287Y-120622734D01*
X101375158Y-121321605D01*
X101375158Y-121321604D01*
X101435414Y-121238669D01*
X101435418Y-121238663D01*
X101542602Y-121028302D01*
X101615565Y-120803747D01*
X101652500Y-120570552D01*
X101652500Y-120334447D01*
X101615565Y-120101252D01*
X101542602Y-119876697D01*
X101435414Y-119666328D01*
X101375158Y-119583394D01*
X101375158Y-119583393D01*
X100676287Y-120282265D01*
X100665018Y-120240208D01*
X100592610Y-120114792D01*
X100490208Y-120012390D01*
X100364792Y-119939982D01*
X100322734Y-119928712D01*
X101021605Y-119229840D01*
X101021604Y-119229839D01*
X100938674Y-119169587D01*
X100728302Y-119062397D01*
X100503747Y-118989434D01*
X100503748Y-118989434D01*
X100270552Y-118952500D01*
X100034448Y-118952500D01*
X99801252Y-118989434D01*
X99576697Y-119062397D01*
X99366330Y-119169584D01*
X99283394Y-119229840D01*
X99982266Y-119928712D01*
X99940208Y-119939982D01*
X99814792Y-120012390D01*
X99712390Y-120114792D01*
X99639982Y-120240208D01*
X99628712Y-120282266D01*
X98929840Y-119583394D01*
X98869584Y-119666330D01*
X98762397Y-119876697D01*
X98689434Y-120101252D01*
X98652500Y-120334447D01*
X96037157Y-120334447D01*
X96051152Y-114834402D01*
X108652000Y-114834402D01*
X108652000Y-115070597D01*
X108688946Y-115303868D01*
X108761933Y-115528496D01*
X108869157Y-115738933D01*
X109007983Y-115930010D01*
X109174990Y-116097017D01*
X109366067Y-116235843D01*
X109452000Y-116279628D01*
X109576503Y-116343066D01*
X109576505Y-116343066D01*
X109576508Y-116343068D01*
X109696912Y-116382189D01*
X109801131Y-116416053D01*
X110034403Y-116453000D01*
X110034408Y-116453000D01*
X110270597Y-116453000D01*
X110503868Y-116416053D01*
X110728492Y-116343068D01*
X110938933Y-116235843D01*
X111130010Y-116097017D01*
X111297017Y-115930010D01*
X111435843Y-115738933D01*
X111543068Y-115528492D01*
X111616053Y-115303868D01*
X111653000Y-115070597D01*
X111653000Y-114834402D01*
X111616053Y-114601131D01*
X111552356Y-114405093D01*
X111543068Y-114376508D01*
X111543066Y-114376505D01*
X111543066Y-114376503D01*
X111435842Y-114166066D01*
X111297017Y-113974990D01*
X111130010Y-113807983D01*
X110938933Y-113669157D01*
X110728496Y-113561933D01*
X110503868Y-113488946D01*
X110270597Y-113452000D01*
X110270592Y-113452000D01*
X110034408Y-113452000D01*
X110034403Y-113452000D01*
X109801131Y-113488946D01*
X109576503Y-113561933D01*
X109366066Y-113669157D01*
X109257050Y-113748362D01*
X109174990Y-113807983D01*
X109174988Y-113807985D01*
X109174987Y-113807985D01*
X109007985Y-113974987D01*
X109007985Y-113974988D01*
X109007983Y-113974990D01*
X108948362Y-114057050D01*
X108869157Y-114166066D01*
X108761933Y-114376503D01*
X108688946Y-114601131D01*
X108652000Y-114834402D01*
X96051152Y-114834402D01*
X96062603Y-110334447D01*
X108652500Y-110334447D01*
X108652500Y-110570552D01*
X108689434Y-110803747D01*
X108762397Y-111028302D01*
X108869587Y-111238674D01*
X108929838Y-111321604D01*
X108929840Y-111321605D01*
X109628712Y-110622733D01*
X109639982Y-110664792D01*
X109712390Y-110790208D01*
X109814792Y-110892610D01*
X109940208Y-110965018D01*
X109982265Y-110976287D01*
X109283393Y-111675158D01*
X109366328Y-111735414D01*
X109576697Y-111842602D01*
X109801252Y-111915565D01*
X109801251Y-111915565D01*
X110034448Y-111952500D01*
X110270552Y-111952500D01*
X110503747Y-111915565D01*
X110728302Y-111842602D01*
X110938663Y-111735418D01*
X110938669Y-111735414D01*
X111021604Y-111675158D01*
X111021605Y-111675158D01*
X110322733Y-110976287D01*
X110364792Y-110965018D01*
X110490208Y-110892610D01*
X110592610Y-110790208D01*
X110665018Y-110664792D01*
X110676287Y-110622734D01*
X111375158Y-111321605D01*
X111375158Y-111321604D01*
X111435414Y-111238669D01*
X111435418Y-111238663D01*
X111542602Y-111028302D01*
X111615565Y-110803747D01*
X111652500Y-110570552D01*
X111652500Y-110334447D01*
X111615565Y-110101252D01*
X111542602Y-109876697D01*
X111435414Y-109666328D01*
X111375158Y-109583394D01*
X111375158Y-109583393D01*
X110676287Y-110282265D01*
X110665018Y-110240208D01*
X110592610Y-110114792D01*
X110490208Y-110012390D01*
X110364792Y-109939982D01*
X110322734Y-109928712D01*
X111021605Y-109229840D01*
X111021604Y-109229839D01*
X110938674Y-109169587D01*
X110728302Y-109062397D01*
X110503747Y-108989434D01*
X110503748Y-108989434D01*
X110270552Y-108952500D01*
X110034448Y-108952500D01*
X109801252Y-108989434D01*
X109576697Y-109062397D01*
X109366330Y-109169584D01*
X109283394Y-109229840D01*
X109982266Y-109928712D01*
X109940208Y-109939982D01*
X109814792Y-110012390D01*
X109712390Y-110114792D01*
X109639982Y-110240208D01*
X109628712Y-110282266D01*
X108929840Y-109583394D01*
X108869584Y-109666330D01*
X108762397Y-109876697D01*
X108689434Y-110101252D01*
X108652500Y-110334447D01*
X96062603Y-110334447D01*
X96071061Y-107010427D01*
X97966214Y-107010427D01*
X97966214Y-107223000D01*
X97998445Y-107426502D01*
X97999468Y-107432957D01*
X98039940Y-107557517D01*
X98065158Y-107635128D01*
X98161665Y-107824534D01*
X98286604Y-107996500D01*
X98436927Y-108146823D01*
X98608893Y-108271762D01*
X98608895Y-108271763D01*
X98608898Y-108271765D01*
X98798302Y-108368271D01*
X99000471Y-108433960D01*
X99210427Y-108467214D01*
X99210428Y-108467214D01*
X99423000Y-108467214D01*
X99423001Y-108467214D01*
X99632957Y-108433960D01*
X99835126Y-108368271D01*
X100024530Y-108271765D01*
X100046503Y-108255800D01*
X100196500Y-108146823D01*
X100196502Y-108146820D01*
X100196506Y-108146818D01*
X100346818Y-107996506D01*
X100346820Y-107996502D01*
X100346823Y-107996500D01*
X100471762Y-107824534D01*
X100471761Y-107824534D01*
X100471765Y-107824530D01*
X100568271Y-107635126D01*
X100633960Y-107432957D01*
X100667214Y-107223001D01*
X100667214Y-107010427D01*
X100633960Y-106800471D01*
X100568271Y-106598302D01*
X100471765Y-106408898D01*
X100471763Y-106408895D01*
X100471762Y-106408893D01*
X100346823Y-106236927D01*
X100196500Y-106086604D01*
X100024534Y-105961665D01*
X99835128Y-105865158D01*
X99835127Y-105865157D01*
X99835126Y-105865157D01*
X99632957Y-105799468D01*
X99632955Y-105799467D01*
X99632954Y-105799467D01*
X99471671Y-105773922D01*
X99423001Y-105766214D01*
X99210427Y-105766214D01*
X99161756Y-105773922D01*
X99000474Y-105799467D01*
X98798299Y-105865158D01*
X98608893Y-105961665D01*
X98436927Y-106086604D01*
X98286604Y-106236927D01*
X98161665Y-106408893D01*
X98065158Y-106598299D01*
X97999467Y-106800474D01*
X97966214Y-107010427D01*
X96071061Y-107010427D01*
X96094410Y-97834402D01*
X101652000Y-97834402D01*
X101652000Y-98070597D01*
X101688946Y-98303868D01*
X101761933Y-98528496D01*
X101869157Y-98738933D01*
X102007983Y-98930010D01*
X102174990Y-99097017D01*
X102366067Y-99235843D01*
X102452000Y-99279628D01*
X102576503Y-99343066D01*
X102576505Y-99343066D01*
X102576508Y-99343068D01*
X102696912Y-99382189D01*
X102801131Y-99416053D01*
X103034403Y-99453000D01*
X103034408Y-99453000D01*
X103270597Y-99453000D01*
X103503868Y-99416053D01*
X103534054Y-99406245D01*
X103728492Y-99343068D01*
X103938933Y-99235843D01*
X104130010Y-99097017D01*
X104297017Y-98930010D01*
X104435843Y-98738933D01*
X104543068Y-98528492D01*
X104616053Y-98303868D01*
X104653000Y-98070597D01*
X104653000Y-97834402D01*
X104616053Y-97601131D01*
X104552356Y-97405093D01*
X104543068Y-97376508D01*
X104543066Y-97376505D01*
X104543066Y-97376503D01*
X104435842Y-97166066D01*
X104297017Y-96974990D01*
X104130010Y-96807983D01*
X103938933Y-96669157D01*
X103728496Y-96561933D01*
X103503868Y-96488946D01*
X103270597Y-96452000D01*
X103270592Y-96452000D01*
X103034408Y-96452000D01*
X103034403Y-96452000D01*
X102801131Y-96488946D01*
X102576503Y-96561933D01*
X102366066Y-96669157D01*
X102257050Y-96748362D01*
X102174990Y-96807983D01*
X102174988Y-96807985D01*
X102174987Y-96807985D01*
X102007985Y-96974987D01*
X102007985Y-96974988D01*
X102007983Y-96974990D01*
X101948362Y-97057050D01*
X101869157Y-97166066D01*
X101761933Y-97376503D01*
X101688946Y-97601131D01*
X101652000Y-97834402D01*
X96094410Y-97834402D01*
X96105860Y-93334447D01*
X101652500Y-93334447D01*
X101652500Y-93570552D01*
X101689434Y-93803747D01*
X101762397Y-94028302D01*
X101869587Y-94238674D01*
X101929838Y-94321604D01*
X101929840Y-94321605D01*
X102628712Y-93622733D01*
X102639982Y-93664792D01*
X102712390Y-93790208D01*
X102814792Y-93892610D01*
X102940208Y-93965018D01*
X102982265Y-93976287D01*
X102283393Y-94675158D01*
X102366328Y-94735414D01*
X102576697Y-94842602D01*
X102801252Y-94915565D01*
X102801251Y-94915565D01*
X103034448Y-94952500D01*
X103270552Y-94952500D01*
X103503747Y-94915565D01*
X103728302Y-94842602D01*
X103938663Y-94735418D01*
X103938669Y-94735414D01*
X104021604Y-94675158D01*
X104021605Y-94675158D01*
X103322733Y-93976287D01*
X103364792Y-93965018D01*
X103490208Y-93892610D01*
X103592610Y-93790208D01*
X103665018Y-93664792D01*
X103676287Y-93622734D01*
X104375158Y-94321605D01*
X104375158Y-94321604D01*
X104435414Y-94238669D01*
X104435418Y-94238663D01*
X104542602Y-94028302D01*
X104615565Y-93803747D01*
X104652500Y-93570552D01*
X104652500Y-93334447D01*
X108152500Y-93334447D01*
X108152500Y-93570552D01*
X108189434Y-93803747D01*
X108262397Y-94028302D01*
X108369587Y-94238674D01*
X108429838Y-94321604D01*
X108429840Y-94321605D01*
X109128712Y-93622733D01*
X109139982Y-93664792D01*
X109212390Y-93790208D01*
X109314792Y-93892610D01*
X109440208Y-93965018D01*
X109482265Y-93976287D01*
X108783393Y-94675158D01*
X108866328Y-94735414D01*
X109076697Y-94842602D01*
X109301252Y-94915565D01*
X109301251Y-94915565D01*
X109534448Y-94952500D01*
X109770552Y-94952500D01*
X110003747Y-94915565D01*
X110228302Y-94842602D01*
X110438663Y-94735418D01*
X110438669Y-94735414D01*
X110521604Y-94675158D01*
X110521605Y-94675158D01*
X109822733Y-93976287D01*
X109864792Y-93965018D01*
X109990208Y-93892610D01*
X110092610Y-93790208D01*
X110165018Y-93664792D01*
X110176287Y-93622734D01*
X110875158Y-94321605D01*
X110875158Y-94321604D01*
X110935414Y-94238669D01*
X110935418Y-94238663D01*
X111042602Y-94028302D01*
X111115565Y-93803747D01*
X111152500Y-93570552D01*
X111152500Y-93334447D01*
X111115565Y-93101252D01*
X111042602Y-92876697D01*
X110935414Y-92666328D01*
X110875158Y-92583394D01*
X110875158Y-92583393D01*
X110176287Y-93282265D01*
X110165018Y-93240208D01*
X110092610Y-93114792D01*
X109990208Y-93012390D01*
X109864792Y-92939982D01*
X109822734Y-92928712D01*
X110521605Y-92229840D01*
X110521604Y-92229838D01*
X110438674Y-92169587D01*
X110228302Y-92062397D01*
X110003747Y-91989434D01*
X110003748Y-91989434D01*
X109770552Y-91952500D01*
X109534448Y-91952500D01*
X109301252Y-91989434D01*
X109076697Y-92062397D01*
X108866330Y-92169584D01*
X108783394Y-92229840D01*
X109482266Y-92928712D01*
X109440208Y-92939982D01*
X109314792Y-93012390D01*
X109212390Y-93114792D01*
X109139982Y-93240208D01*
X109128712Y-93282266D01*
X108429840Y-92583394D01*
X108369584Y-92666330D01*
X108262397Y-92876697D01*
X108189434Y-93101252D01*
X108152500Y-93334447D01*
X104652500Y-93334447D01*
X104615565Y-93101252D01*
X104542602Y-92876697D01*
X104435414Y-92666328D01*
X104375158Y-92583394D01*
X104375158Y-92583393D01*
X103676287Y-93282265D01*
X103665018Y-93240208D01*
X103592610Y-93114792D01*
X103490208Y-93012390D01*
X103364792Y-92939982D01*
X103322734Y-92928712D01*
X104021605Y-92229840D01*
X104021604Y-92229839D01*
X103938674Y-92169587D01*
X103728302Y-92062397D01*
X103503747Y-91989434D01*
X103503748Y-91989434D01*
X103270552Y-91952500D01*
X103034448Y-91952500D01*
X102801252Y-91989434D01*
X102576697Y-92062397D01*
X102366330Y-92169584D01*
X102283394Y-92229840D01*
X102982266Y-92928712D01*
X102940208Y-92939982D01*
X102814792Y-93012390D01*
X102712390Y-93114792D01*
X102639982Y-93240208D01*
X102628712Y-93282266D01*
X101929840Y-92583394D01*
X101869584Y-92666330D01*
X101762397Y-92876697D01*
X101689434Y-93101252D01*
X101652500Y-93334447D01*
X96105860Y-93334447D01*
X96164864Y-70145927D01*
X96174079Y-66524570D01*
X107319500Y-66524570D01*
X107319500Y-66780430D01*
X107330449Y-66849556D01*
X107359526Y-67033140D01*
X107438588Y-67276472D01*
X107438589Y-67276475D01*
X107499600Y-67396213D01*
X107554033Y-67503044D01*
X107554750Y-67504450D01*
X107705132Y-67711435D01*
X107705136Y-67711440D01*
X107886059Y-67892363D01*
X107886064Y-67892367D01*
X108062993Y-68020912D01*
X108093053Y-68042752D01*
X108235815Y-68115493D01*
X108321024Y-68158910D01*
X108321027Y-68158911D01*
X108442693Y-68198442D01*
X108564361Y-68237974D01*
X108817070Y-68278000D01*
X108817071Y-68278000D01*
X109072929Y-68278000D01*
X109072930Y-68278000D01*
X109325639Y-68237974D01*
X109568975Y-68158910D01*
X109796947Y-68042752D01*
X110003942Y-67892362D01*
X110184862Y-67711442D01*
X110335252Y-67504447D01*
X110451410Y-67276475D01*
X110530474Y-67033139D01*
X110570500Y-66780430D01*
X110570500Y-66524570D01*
X110530474Y-66271861D01*
X110480335Y-66117548D01*
X110451411Y-66028527D01*
X110451410Y-66028524D01*
X110411185Y-65949580D01*
X110335252Y-65800553D01*
X110288390Y-65736053D01*
X110184867Y-65593564D01*
X110184863Y-65593559D01*
X110003940Y-65412636D01*
X110003935Y-65412632D01*
X109796950Y-65262250D01*
X109796949Y-65262249D01*
X109796947Y-65262248D01*
X109715436Y-65220716D01*
X109568975Y-65146089D01*
X109568972Y-65146088D01*
X109325640Y-65067026D01*
X109186392Y-65044971D01*
X109072930Y-65027000D01*
X108817070Y-65027000D01*
X108732833Y-65040342D01*
X108564359Y-65067026D01*
X108321027Y-65146088D01*
X108321024Y-65146089D01*
X108093049Y-65262250D01*
X107886064Y-65412632D01*
X107886059Y-65412636D01*
X107705136Y-65593559D01*
X107705132Y-65593564D01*
X107554750Y-65800549D01*
X107438589Y-66028524D01*
X107438588Y-66028527D01*
X107359526Y-66271859D01*
X107330517Y-66455012D01*
X107319500Y-66524570D01*
X96174079Y-66524570D01*
X96174092Y-66519382D01*
X96217116Y-49611065D01*
X96223579Y-47071025D01*
X96232603Y-43524570D01*
X107319500Y-43524570D01*
X107319500Y-43780429D01*
X107359526Y-44033140D01*
X107438588Y-44276472D01*
X107438589Y-44276475D01*
X107554750Y-44504450D01*
X107705132Y-44711435D01*
X107705136Y-44711440D01*
X107886059Y-44892363D01*
X107886064Y-44892367D01*
X108066607Y-45023538D01*
X108093053Y-45042752D01*
X108242080Y-45118685D01*
X108321024Y-45158910D01*
X108321027Y-45158911D01*
X108442693Y-45198442D01*
X108564361Y-45237974D01*
X108817070Y-45278000D01*
X108817071Y-45278000D01*
X109072929Y-45278000D01*
X109072930Y-45278000D01*
X109325639Y-45237974D01*
X109568975Y-45158910D01*
X109796947Y-45042752D01*
X110003942Y-44892362D01*
X110184862Y-44711442D01*
X110335252Y-44504447D01*
X110451410Y-44276475D01*
X110530474Y-44033139D01*
X110570500Y-43780430D01*
X110570500Y-43524570D01*
X165319500Y-43524570D01*
X165319500Y-43780429D01*
X165359526Y-44033140D01*
X165438588Y-44276472D01*
X165438589Y-44276475D01*
X165554750Y-44504450D01*
X165705132Y-44711435D01*
X165705136Y-44711440D01*
X165886059Y-44892363D01*
X165886064Y-44892367D01*
X166066607Y-45023538D01*
X166093053Y-45042752D01*
X166242080Y-45118685D01*
X166321024Y-45158910D01*
X166321027Y-45158911D01*
X166442693Y-45198442D01*
X166564361Y-45237974D01*
X166817070Y-45278000D01*
X166817071Y-45278000D01*
X167072929Y-45278000D01*
X167072930Y-45278000D01*
X167325639Y-45237974D01*
X167568975Y-45158910D01*
X167796947Y-45042752D01*
X168003942Y-44892362D01*
X168184862Y-44711442D01*
X168335252Y-44504447D01*
X168451410Y-44276475D01*
X168530474Y-44033139D01*
X168570500Y-43780430D01*
X168570500Y-43524570D01*
X168530474Y-43271861D01*
X168451410Y-43028525D01*
X168451410Y-43028524D01*
X168411185Y-42949580D01*
X168335252Y-42800553D01*
X168316038Y-42774107D01*
X168184867Y-42593564D01*
X168184863Y-42593559D01*
X168003940Y-42412636D01*
X168003935Y-42412632D01*
X167796950Y-42262250D01*
X167796949Y-42262249D01*
X167796947Y-42262248D01*
X167723910Y-42225033D01*
X167568975Y-42146089D01*
X167568972Y-42146088D01*
X167325640Y-42067026D01*
X167199284Y-42047013D01*
X167072930Y-42027000D01*
X166817070Y-42027000D01*
X166732833Y-42040342D01*
X166564359Y-42067026D01*
X166321027Y-42146088D01*
X166321024Y-42146089D01*
X166093049Y-42262250D01*
X165886064Y-42412632D01*
X165886059Y-42412636D01*
X165705136Y-42593559D01*
X165705132Y-42593564D01*
X165554750Y-42800549D01*
X165438589Y-43028524D01*
X165438588Y-43028527D01*
X165359526Y-43271859D01*
X165319500Y-43524570D01*
X110570500Y-43524570D01*
X110530474Y-43271861D01*
X110451410Y-43028525D01*
X110451410Y-43028524D01*
X110411185Y-42949580D01*
X110335252Y-42800553D01*
X110316038Y-42774107D01*
X110184867Y-42593564D01*
X110184863Y-42593559D01*
X110003940Y-42412636D01*
X110003935Y-42412632D01*
X109796950Y-42262250D01*
X109796949Y-42262249D01*
X109796947Y-42262248D01*
X109723910Y-42225033D01*
X109568975Y-42146089D01*
X109568972Y-42146088D01*
X109325640Y-42067026D01*
X109199284Y-42047013D01*
X109072930Y-42027000D01*
X108817070Y-42027000D01*
X108732833Y-42040342D01*
X108564359Y-42067026D01*
X108321027Y-42146088D01*
X108321024Y-42146089D01*
X108093049Y-42262250D01*
X107886064Y-42412632D01*
X107886059Y-42412636D01*
X107705136Y-42593559D01*
X107705132Y-42593564D01*
X107554750Y-42800549D01*
X107438589Y-43028524D01*
X107438588Y-43028527D01*
X107359526Y-43271859D01*
X107319500Y-43524570D01*
X96232603Y-43524570D01*
X96232616Y-43519382D01*
X96236110Y-42146088D01*
X96244687Y-38775315D01*
X96264542Y-38708328D01*
X96317463Y-38662708D01*
X96367814Y-38651636D01*
X160148413Y-38203003D01*
X160149285Y-38203000D01*
X179836608Y-38203000D01*
X179898072Y-38203000D01*
X179906918Y-38203316D01*
G37*
%TD.AperFunction*%
%TA.AperFunction,Conductor*%
G36*
X153202228Y-68346566D02*
G01*
X153214807Y-68346027D01*
X153234670Y-68357621D01*
X153256446Y-68365042D01*
X153265720Y-68375745D01*
X153275149Y-68381249D01*
X153295481Y-68410091D01*
X153378804Y-68573619D01*
X153382058Y-68580005D01*
X153498115Y-68739746D01*
X153637753Y-68879384D01*
X153797499Y-68995444D01*
X153801651Y-68997989D01*
X153800865Y-68999270D01*
X153846810Y-69042656D01*
X153863610Y-69110476D01*
X153841076Y-69176613D01*
X153827404Y-69192855D01*
X147305771Y-75714489D01*
X147193966Y-75826293D01*
X147193960Y-75826301D01*
X147151620Y-75899638D01*
X147151620Y-75899639D01*
X147114908Y-75963226D01*
X147073984Y-76115954D01*
X147073984Y-76115956D01*
X147073984Y-76284057D01*
X147073985Y-76284070D01*
X147073985Y-102743249D01*
X147054300Y-102810288D01*
X147053087Y-102812140D01*
X146965094Y-102943829D01*
X146965087Y-102943842D01*
X146904749Y-103089513D01*
X146904746Y-103089525D01*
X146873985Y-103244168D01*
X146873985Y-103401861D01*
X146904746Y-103556504D01*
X146904749Y-103556516D01*
X146965087Y-103702187D01*
X146965094Y-103702200D01*
X147052695Y-103833303D01*
X147052698Y-103833307D01*
X147164192Y-103944801D01*
X147164196Y-103944804D01*
X147295299Y-104032405D01*
X147295312Y-104032412D01*
X147373785Y-104064916D01*
X147440988Y-104092752D01*
X147595638Y-104123514D01*
X147595641Y-104123515D01*
X147595643Y-104123515D01*
X147753329Y-104123515D01*
X147753330Y-104123514D01*
X147907982Y-104092752D01*
X148053664Y-104032409D01*
X148184774Y-103944804D01*
X148296274Y-103833304D01*
X148383879Y-103702194D01*
X148444222Y-103556512D01*
X148474985Y-103401857D01*
X148474985Y-103244173D01*
X148474985Y-103244170D01*
X148474984Y-103244168D01*
X148444223Y-103089525D01*
X148444222Y-103089518D01*
X148444220Y-103089513D01*
X148383882Y-102943842D01*
X148383875Y-102943829D01*
X148295883Y-102812140D01*
X148275005Y-102745462D01*
X148274985Y-102743249D01*
X148274985Y-97834402D01*
X148652000Y-97834402D01*
X148652000Y-98070597D01*
X148688946Y-98303868D01*
X148761933Y-98528496D01*
X148869157Y-98738933D01*
X149007983Y-98930010D01*
X149174990Y-99097017D01*
X149366067Y-99235843D01*
X149452000Y-99279628D01*
X149576503Y-99343066D01*
X149576505Y-99343066D01*
X149576508Y-99343068D01*
X149696912Y-99382189D01*
X149801131Y-99416053D01*
X150034403Y-99453000D01*
X150034408Y-99453000D01*
X150270597Y-99453000D01*
X150503868Y-99416053D01*
X150534054Y-99406245D01*
X150728492Y-99343068D01*
X150938933Y-99235843D01*
X151130010Y-99097017D01*
X151297017Y-98930010D01*
X151435843Y-98738933D01*
X151543068Y-98528492D01*
X151616053Y-98303868D01*
X151653000Y-98070597D01*
X151653000Y-97834402D01*
X151616053Y-97601131D01*
X151552356Y-97405093D01*
X151543068Y-97376508D01*
X151543066Y-97376505D01*
X151543066Y-97376503D01*
X151435842Y-97166066D01*
X151297017Y-96974990D01*
X151130010Y-96807983D01*
X150938933Y-96669157D01*
X150728496Y-96561933D01*
X150503868Y-96488946D01*
X150270597Y-96452000D01*
X150270592Y-96452000D01*
X150034408Y-96452000D01*
X150034403Y-96452000D01*
X149801131Y-96488946D01*
X149576503Y-96561933D01*
X149366066Y-96669157D01*
X149257050Y-96748362D01*
X149174990Y-96807983D01*
X149174988Y-96807985D01*
X149174987Y-96807985D01*
X149007985Y-96974987D01*
X149007985Y-96974988D01*
X149007983Y-96974990D01*
X148948362Y-97057050D01*
X148869157Y-97166066D01*
X148761933Y-97376503D01*
X148688946Y-97601131D01*
X148652000Y-97834402D01*
X148274985Y-97834402D01*
X148274985Y-93334447D01*
X148652500Y-93334447D01*
X148652500Y-93570552D01*
X148689434Y-93803747D01*
X148762397Y-94028302D01*
X148869587Y-94238674D01*
X148929838Y-94321604D01*
X148929840Y-94321605D01*
X149628712Y-93622733D01*
X149639982Y-93664792D01*
X149712390Y-93790208D01*
X149814792Y-93892610D01*
X149940208Y-93965018D01*
X149982265Y-93976287D01*
X149283393Y-94675158D01*
X149366328Y-94735414D01*
X149576697Y-94842602D01*
X149801252Y-94915565D01*
X149801251Y-94915565D01*
X150034448Y-94952500D01*
X150270552Y-94952500D01*
X150503747Y-94915565D01*
X150728302Y-94842602D01*
X150938663Y-94735418D01*
X150938669Y-94735414D01*
X151021604Y-94675158D01*
X151021605Y-94675158D01*
X150322733Y-93976287D01*
X150364792Y-93965018D01*
X150490208Y-93892610D01*
X150592610Y-93790208D01*
X150665018Y-93664792D01*
X150676287Y-93622734D01*
X151375158Y-94321605D01*
X151375158Y-94321604D01*
X151435414Y-94238669D01*
X151435418Y-94238663D01*
X151542602Y-94028302D01*
X151615565Y-93803747D01*
X151652500Y-93570552D01*
X151652500Y-93334447D01*
X151615565Y-93101252D01*
X151542602Y-92876697D01*
X151435414Y-92666328D01*
X151375158Y-92583394D01*
X151375158Y-92583393D01*
X150676287Y-93282265D01*
X150665018Y-93240208D01*
X150592610Y-93114792D01*
X150490208Y-93012390D01*
X150364792Y-92939982D01*
X150322734Y-92928712D01*
X151021605Y-92229840D01*
X151021604Y-92229838D01*
X150938674Y-92169587D01*
X150728302Y-92062397D01*
X150503747Y-91989434D01*
X150503748Y-91989434D01*
X150270552Y-91952500D01*
X150034448Y-91952500D01*
X149801252Y-91989434D01*
X149576697Y-92062397D01*
X149366330Y-92169584D01*
X149283394Y-92229840D01*
X149982266Y-92928712D01*
X149940208Y-92939982D01*
X149814792Y-93012390D01*
X149712390Y-93114792D01*
X149639982Y-93240208D01*
X149628712Y-93282266D01*
X148929840Y-92583394D01*
X148869584Y-92666330D01*
X148762397Y-92876697D01*
X148689434Y-93101252D01*
X148652500Y-93334447D01*
X148274985Y-93334447D01*
X148274985Y-76495108D01*
X148294670Y-76428069D01*
X148311304Y-76407427D01*
X154539319Y-70179412D01*
X154600642Y-70145927D01*
X154670334Y-70150911D01*
X154726267Y-70192783D01*
X154750684Y-70258247D01*
X154751000Y-70267093D01*
X154751000Y-123564830D01*
X154750999Y-123564848D01*
X154750999Y-123730554D01*
X154750998Y-123730554D01*
X154791923Y-123883285D01*
X154820858Y-123933400D01*
X154820859Y-123933404D01*
X154820860Y-123933404D01*
X154870979Y-124020214D01*
X154870981Y-124020217D01*
X154989849Y-124139085D01*
X154989855Y-124139090D01*
X155199700Y-124348935D01*
X155233185Y-124410258D01*
X155229950Y-124474933D01*
X155188947Y-124601128D01*
X155152000Y-124834402D01*
X155152000Y-125070597D01*
X155188946Y-125303868D01*
X155261933Y-125528496D01*
X155279980Y-125563914D01*
X155369157Y-125738933D01*
X155507983Y-125930010D01*
X155674990Y-126097017D01*
X155866067Y-126235843D01*
X155965491Y-126286502D01*
X156076503Y-126343066D01*
X156076505Y-126343066D01*
X156076508Y-126343068D01*
X156196912Y-126382189D01*
X156301131Y-126416053D01*
X156534403Y-126453000D01*
X156534408Y-126453000D01*
X156770597Y-126453000D01*
X157003868Y-126416053D01*
X157228492Y-126343068D01*
X157438933Y-126235843D01*
X157630010Y-126097017D01*
X157797017Y-125930010D01*
X157935843Y-125738933D01*
X158043068Y-125528492D01*
X158116053Y-125303868D01*
X158153000Y-125070597D01*
X158153000Y-124834402D01*
X158116053Y-124601131D01*
X158054034Y-124410258D01*
X158043068Y-124376508D01*
X158043066Y-124376505D01*
X158043066Y-124376503D01*
X157935842Y-124166066D01*
X157911106Y-124132020D01*
X157797017Y-123974990D01*
X157630010Y-123807983D01*
X157438933Y-123669157D01*
X157438929Y-123669155D01*
X157228496Y-123561933D01*
X157003868Y-123488946D01*
X156770597Y-123452000D01*
X156770592Y-123452000D01*
X156534408Y-123452000D01*
X156534403Y-123452000D01*
X156301128Y-123488947D01*
X156174933Y-123529950D01*
X156159721Y-123530384D01*
X156145462Y-123535703D01*
X156125506Y-123531361D01*
X156105092Y-123531945D01*
X156091005Y-123523856D01*
X156077189Y-123520851D01*
X156048935Y-123499700D01*
X155988319Y-123439084D01*
X155954834Y-123377761D01*
X155952000Y-123351403D01*
X155952000Y-121972757D01*
X155971685Y-121905718D01*
X156024489Y-121859963D01*
X156093647Y-121850019D01*
X156114319Y-121854826D01*
X156301254Y-121915565D01*
X156534448Y-121952500D01*
X156770552Y-121952500D01*
X157003747Y-121915565D01*
X157228302Y-121842602D01*
X157438663Y-121735418D01*
X157438669Y-121735414D01*
X157521604Y-121675158D01*
X157521605Y-121675158D01*
X156822734Y-120976287D01*
X156864792Y-120965018D01*
X156990208Y-120892610D01*
X157092610Y-120790208D01*
X157165018Y-120664792D01*
X157176287Y-120622734D01*
X157875158Y-121321605D01*
X157875158Y-121321604D01*
X157935414Y-121238669D01*
X157935418Y-121238663D01*
X158042602Y-121028302D01*
X158115565Y-120803747D01*
X158152500Y-120570552D01*
X158152500Y-120334447D01*
X158115565Y-120101252D01*
X158042602Y-119876697D01*
X157935414Y-119666328D01*
X157875158Y-119583394D01*
X157875158Y-119583393D01*
X157176287Y-120282265D01*
X157165018Y-120240208D01*
X157092610Y-120114792D01*
X156990208Y-120012390D01*
X156864792Y-119939982D01*
X156822733Y-119928712D01*
X157521605Y-119229840D01*
X157521604Y-119229838D01*
X157438674Y-119169587D01*
X157228302Y-119062397D01*
X157003747Y-118989434D01*
X157003748Y-118989434D01*
X156770552Y-118952500D01*
X156534448Y-118952500D01*
X156301251Y-118989434D01*
X156114318Y-119050173D01*
X156044477Y-119052168D01*
X155984644Y-119016088D01*
X155953816Y-118953387D01*
X155952000Y-118932242D01*
X155952000Y-99473284D01*
X155971685Y-99406245D01*
X156024489Y-99360490D01*
X156093647Y-99350546D01*
X156114312Y-99355351D01*
X156233959Y-99394227D01*
X156301131Y-99416053D01*
X156534403Y-99453000D01*
X156534408Y-99453000D01*
X156770597Y-99453000D01*
X157003868Y-99416053D01*
X157034054Y-99406245D01*
X157228492Y-99343068D01*
X157438933Y-99235843D01*
X157630010Y-99097017D01*
X157797017Y-98930010D01*
X157935843Y-98738933D01*
X158043068Y-98528492D01*
X158116053Y-98303868D01*
X158153000Y-98070597D01*
X158153000Y-97834402D01*
X158116053Y-97601131D01*
X158052356Y-97405093D01*
X158043068Y-97376508D01*
X158043066Y-97376505D01*
X158043066Y-97376503D01*
X157935842Y-97166066D01*
X157797017Y-96974990D01*
X157630010Y-96807983D01*
X157438933Y-96669157D01*
X157228496Y-96561933D01*
X157003868Y-96488946D01*
X156770597Y-96452000D01*
X156770592Y-96452000D01*
X156534408Y-96452000D01*
X156534403Y-96452000D01*
X156301130Y-96488947D01*
X156301127Y-96488947D01*
X156114318Y-96549646D01*
X156044477Y-96551641D01*
X155984644Y-96515561D01*
X155953816Y-96452860D01*
X155952000Y-96431715D01*
X155952000Y-94972757D01*
X155971685Y-94905718D01*
X156024489Y-94859963D01*
X156093647Y-94850019D01*
X156114319Y-94854826D01*
X156301254Y-94915565D01*
X156534448Y-94952500D01*
X156770552Y-94952500D01*
X157003747Y-94915565D01*
X157228302Y-94842602D01*
X157438663Y-94735418D01*
X157438669Y-94735414D01*
X157521604Y-94675158D01*
X157521605Y-94675158D01*
X156822734Y-93976287D01*
X156864792Y-93965018D01*
X156990208Y-93892610D01*
X157092610Y-93790208D01*
X157165018Y-93664792D01*
X157176287Y-93622734D01*
X157875158Y-94321605D01*
X157875158Y-94321604D01*
X157935414Y-94238669D01*
X157935418Y-94238663D01*
X158042602Y-94028302D01*
X158115565Y-93803747D01*
X158152500Y-93570552D01*
X158152500Y-93334447D01*
X158115565Y-93101252D01*
X158042602Y-92876697D01*
X157935414Y-92666328D01*
X157875158Y-92583394D01*
X157875158Y-92583393D01*
X157176287Y-93282265D01*
X157165018Y-93240208D01*
X157092610Y-93114792D01*
X156990208Y-93012390D01*
X156864792Y-92939982D01*
X156822733Y-92928712D01*
X157521605Y-92229840D01*
X157521604Y-92229838D01*
X157438674Y-92169587D01*
X157228302Y-92062397D01*
X157003747Y-91989434D01*
X157003748Y-91989434D01*
X156770552Y-91952500D01*
X156534448Y-91952500D01*
X156301251Y-91989434D01*
X156114318Y-92050173D01*
X156044477Y-92052168D01*
X155984644Y-92016088D01*
X155953816Y-91953387D01*
X155952000Y-91932242D01*
X155952000Y-69866096D01*
X155971685Y-69799057D01*
X155988315Y-69778419D01*
X156587128Y-69179605D01*
X156648449Y-69146122D01*
X156696221Y-69146633D01*
X156696425Y-69145348D01*
X156896264Y-69177000D01*
X156896269Y-69177000D01*
X157093736Y-69177000D01*
X157233385Y-69154881D01*
X157288763Y-69146110D01*
X157443386Y-69095869D01*
X157458596Y-69095435D01*
X157472856Y-69090117D01*
X157492811Y-69094458D01*
X157513226Y-69093875D01*
X157527313Y-69101963D01*
X157541129Y-69104969D01*
X157569378Y-69126115D01*
X157569384Y-69126119D01*
X157569478Y-69126213D01*
X157569480Y-69126216D01*
X157681284Y-69238020D01*
X157681286Y-69238021D01*
X157688356Y-69245091D01*
X160816681Y-72373416D01*
X160850166Y-72434739D01*
X160853000Y-72461097D01*
X160853000Y-108932242D01*
X160833315Y-108999281D01*
X160780511Y-109045036D01*
X160711353Y-109054980D01*
X160690682Y-109050173D01*
X160503747Y-108989434D01*
X160503748Y-108989434D01*
X160270552Y-108952500D01*
X160034448Y-108952500D01*
X159801252Y-108989434D01*
X159576697Y-109062397D01*
X159366330Y-109169584D01*
X159283394Y-109229840D01*
X159982266Y-109928712D01*
X159940208Y-109939982D01*
X159814792Y-110012390D01*
X159712390Y-110114792D01*
X159639982Y-110240208D01*
X159628712Y-110282266D01*
X158929840Y-109583394D01*
X158869584Y-109666330D01*
X158762397Y-109876697D01*
X158689434Y-110101252D01*
X158652500Y-110334447D01*
X158652500Y-110570552D01*
X158689434Y-110803747D01*
X158762397Y-111028302D01*
X158869587Y-111238674D01*
X158929838Y-111321604D01*
X158929840Y-111321605D01*
X159628712Y-110622733D01*
X159639982Y-110664792D01*
X159712390Y-110790208D01*
X159814792Y-110892610D01*
X159940208Y-110965018D01*
X159982264Y-110976287D01*
X159283393Y-111675158D01*
X159366328Y-111735414D01*
X159576697Y-111842602D01*
X159801252Y-111915565D01*
X159801251Y-111915565D01*
X160034448Y-111952500D01*
X160270552Y-111952500D01*
X160503745Y-111915565D01*
X160690681Y-111854826D01*
X160760522Y-111852831D01*
X160820355Y-111888911D01*
X160851184Y-111951612D01*
X160853000Y-111972757D01*
X160853000Y-113431715D01*
X160833315Y-113498754D01*
X160780511Y-113544509D01*
X160711353Y-113554453D01*
X160690682Y-113549646D01*
X160503870Y-113488947D01*
X160270597Y-113452000D01*
X160270592Y-113452000D01*
X160034408Y-113452000D01*
X160034403Y-113452000D01*
X159801131Y-113488946D01*
X159576503Y-113561933D01*
X159366066Y-113669157D01*
X159257050Y-113748362D01*
X159174990Y-113807983D01*
X159174988Y-113807985D01*
X159174987Y-113807985D01*
X159007985Y-113974987D01*
X159007985Y-113974988D01*
X159007983Y-113974990D01*
X158948362Y-114057050D01*
X158869157Y-114166066D01*
X158761933Y-114376503D01*
X158688946Y-114601131D01*
X158652000Y-114834402D01*
X158652000Y-115070597D01*
X158688946Y-115303868D01*
X158761933Y-115528496D01*
X158869157Y-115738933D01*
X159007983Y-115930010D01*
X159174990Y-116097017D01*
X159366067Y-116235843D01*
X159452000Y-116279628D01*
X159576503Y-116343066D01*
X159576505Y-116343066D01*
X159576508Y-116343068D01*
X159696912Y-116382189D01*
X159801131Y-116416053D01*
X160034403Y-116453000D01*
X160034408Y-116453000D01*
X160270597Y-116453000D01*
X160503868Y-116416053D01*
X160690682Y-116355352D01*
X160760522Y-116353358D01*
X160820355Y-116389438D01*
X160851184Y-116452139D01*
X160853000Y-116473284D01*
X160853000Y-128932242D01*
X160833315Y-128999281D01*
X160780511Y-129045036D01*
X160711353Y-129054980D01*
X160690682Y-129050173D01*
X160503747Y-128989434D01*
X160503748Y-128989434D01*
X160270552Y-128952500D01*
X160034448Y-128952500D01*
X159801252Y-128989434D01*
X159576697Y-129062397D01*
X159366330Y-129169584D01*
X159283394Y-129229840D01*
X159982266Y-129928712D01*
X159940208Y-129939982D01*
X159814792Y-130012390D01*
X159712390Y-130114792D01*
X159639982Y-130240208D01*
X159628712Y-130282266D01*
X158929840Y-129583394D01*
X158869584Y-129666330D01*
X158762397Y-129876697D01*
X158689434Y-130101252D01*
X158652500Y-130334447D01*
X158652500Y-130464011D01*
X158632815Y-130531050D01*
X158580011Y-130576805D01*
X158510853Y-130586749D01*
X158447297Y-130557724D01*
X158440819Y-130551692D01*
X150053308Y-122164181D01*
X150019823Y-122102858D01*
X150024807Y-122033166D01*
X150066679Y-121977233D01*
X150132143Y-121952816D01*
X150140989Y-121952500D01*
X150270552Y-121952500D01*
X150503747Y-121915565D01*
X150728302Y-121842602D01*
X150938663Y-121735418D01*
X150938669Y-121735414D01*
X151021604Y-121675158D01*
X151021605Y-121675158D01*
X150322733Y-120976287D01*
X150364792Y-120965018D01*
X150490208Y-120892610D01*
X150592610Y-120790208D01*
X150665018Y-120664792D01*
X150676287Y-120622734D01*
X151375158Y-121321605D01*
X151375158Y-121321604D01*
X151435414Y-121238669D01*
X151435418Y-121238663D01*
X151542602Y-121028302D01*
X151615565Y-120803747D01*
X151652500Y-120570552D01*
X151652500Y-120334447D01*
X151615565Y-120101252D01*
X151542602Y-119876697D01*
X151435414Y-119666328D01*
X151375158Y-119583394D01*
X151375158Y-119583393D01*
X150676287Y-120282265D01*
X150665018Y-120240208D01*
X150592610Y-120114792D01*
X150490208Y-120012390D01*
X150364792Y-119939982D01*
X150322734Y-119928712D01*
X151021605Y-119229840D01*
X151021604Y-119229838D01*
X150938674Y-119169587D01*
X150728302Y-119062397D01*
X150503747Y-118989434D01*
X150503748Y-118989434D01*
X150270552Y-118952500D01*
X150034448Y-118952500D01*
X149801252Y-118989434D01*
X149576697Y-119062397D01*
X149366330Y-119169584D01*
X149283394Y-119229840D01*
X149982266Y-119928712D01*
X149940208Y-119939982D01*
X149814792Y-120012390D01*
X149712390Y-120114792D01*
X149639982Y-120240208D01*
X149628712Y-120282266D01*
X148929840Y-119583394D01*
X148869584Y-119666330D01*
X148762397Y-119876697D01*
X148689434Y-120101252D01*
X148652500Y-120334447D01*
X148652500Y-120464011D01*
X148632815Y-120531050D01*
X148580011Y-120576805D01*
X148510853Y-120586749D01*
X148447297Y-120557724D01*
X148440819Y-120551692D01*
X135446644Y-107557517D01*
X135413159Y-107496194D01*
X135418143Y-107426502D01*
X135451794Y-107379409D01*
X135450982Y-107378597D01*
X135566786Y-107262792D01*
X135566789Y-107262789D01*
X135654394Y-107131679D01*
X135714737Y-106985997D01*
X135745500Y-106831342D01*
X135745500Y-106673658D01*
X135745500Y-106673655D01*
X135745499Y-106673653D01*
X135714737Y-106519003D01*
X135700913Y-106485628D01*
X135654397Y-106373327D01*
X135654390Y-106373314D01*
X135566398Y-106241625D01*
X135545520Y-106174947D01*
X135545500Y-106172734D01*
X135545500Y-104152597D01*
X135565185Y-104085558D01*
X135581819Y-104064916D01*
X136903486Y-102743249D01*
X142759664Y-96887071D01*
X142820985Y-96853588D01*
X142823152Y-96853137D01*
X142823841Y-96853000D01*
X142823842Y-96853000D01*
X142978497Y-96822237D01*
X143124179Y-96761894D01*
X143255289Y-96674289D01*
X143366789Y-96562789D01*
X143454394Y-96431679D01*
X143514737Y-96285997D01*
X143545500Y-96131342D01*
X143545500Y-95973658D01*
X143545500Y-95973655D01*
X143545499Y-95973653D01*
X143514738Y-95819010D01*
X143514738Y-95819008D01*
X143514737Y-95819003D01*
X143497249Y-95776783D01*
X143454397Y-95673327D01*
X143454390Y-95673314D01*
X143366789Y-95542211D01*
X143366786Y-95542207D01*
X143255292Y-95430713D01*
X143255288Y-95430710D01*
X143124185Y-95343109D01*
X143124172Y-95343102D01*
X142978501Y-95282764D01*
X142978489Y-95282761D01*
X142823845Y-95252000D01*
X142823842Y-95252000D01*
X142666158Y-95252000D01*
X142666155Y-95252000D01*
X142511510Y-95282761D01*
X142511498Y-95282764D01*
X142365827Y-95343102D01*
X142365814Y-95343109D01*
X142234711Y-95430710D01*
X142234707Y-95430713D01*
X142123213Y-95542207D01*
X142123210Y-95542211D01*
X142035609Y-95673314D01*
X142035602Y-95673327D01*
X141975264Y-95818998D01*
X141975261Y-95819008D01*
X141944362Y-95974348D01*
X141911977Y-96036259D01*
X141910426Y-96037837D01*
X134576286Y-103371978D01*
X134464481Y-103483782D01*
X134464479Y-103483784D01*
X134435661Y-103533700D01*
X134423480Y-103554799D01*
X134385423Y-103620715D01*
X134344499Y-103773443D01*
X134344499Y-103773445D01*
X134344499Y-103941546D01*
X134344500Y-103941559D01*
X134344500Y-106156011D01*
X134324815Y-106223050D01*
X134272011Y-106268805D01*
X134202853Y-106278749D01*
X134139297Y-106249724D01*
X134132819Y-106243692D01*
X133681819Y-105792692D01*
X133648334Y-105731369D01*
X133645500Y-105705011D01*
X133645500Y-69253182D01*
X133665185Y-69186143D01*
X133717989Y-69140388D01*
X133787147Y-69130444D01*
X133807817Y-69135251D01*
X133841237Y-69146110D01*
X133918970Y-69158421D01*
X134036264Y-69177000D01*
X134036269Y-69177000D01*
X134233736Y-69177000D01*
X134428763Y-69146110D01*
X134431108Y-69145348D01*
X134616561Y-69085091D01*
X134792501Y-68995444D01*
X134902286Y-68915681D01*
X134952246Y-68879384D01*
X134952248Y-68879381D01*
X134952252Y-68879379D01*
X135091879Y-68739752D01*
X135091881Y-68739748D01*
X135091884Y-68739746D01*
X135207941Y-68580005D01*
X135207943Y-68580002D01*
X135207944Y-68580001D01*
X135294517Y-68410093D01*
X135342490Y-68359300D01*
X135410311Y-68342505D01*
X135476446Y-68365042D01*
X135515482Y-68410093D01*
X135598804Y-68573619D01*
X135602058Y-68580005D01*
X135718115Y-68739746D01*
X135857753Y-68879384D01*
X135989681Y-68975233D01*
X136017499Y-68995444D01*
X136193439Y-69085091D01*
X136318637Y-69125770D01*
X136381236Y-69146110D01*
X136576264Y-69177000D01*
X136576269Y-69177000D01*
X136773736Y-69177000D01*
X136968763Y-69146110D01*
X136971108Y-69145348D01*
X137156561Y-69085091D01*
X137332501Y-68995444D01*
X137442286Y-68915681D01*
X137492246Y-68879384D01*
X137492248Y-68879381D01*
X137492252Y-68879379D01*
X137631879Y-68739752D01*
X137631881Y-68739748D01*
X137631884Y-68739746D01*
X137747941Y-68580005D01*
X137747943Y-68580002D01*
X137747944Y-68580001D01*
X137834517Y-68410093D01*
X137882490Y-68359300D01*
X137950311Y-68342505D01*
X138016446Y-68365042D01*
X138055482Y-68410093D01*
X138138804Y-68573619D01*
X138142058Y-68580005D01*
X138258115Y-68739746D01*
X138397753Y-68879384D01*
X138529681Y-68975233D01*
X138557499Y-68995444D01*
X138733439Y-69085091D01*
X138858637Y-69125770D01*
X138921236Y-69146110D01*
X139116264Y-69177000D01*
X139116269Y-69177000D01*
X139313736Y-69177000D01*
X139508763Y-69146110D01*
X139511108Y-69145348D01*
X139696561Y-69085091D01*
X139872501Y-68995444D01*
X139982286Y-68915681D01*
X140032246Y-68879384D01*
X140032248Y-68879381D01*
X140032252Y-68879379D01*
X140171879Y-68739752D01*
X140171881Y-68739748D01*
X140171884Y-68739746D01*
X140287941Y-68580005D01*
X140287943Y-68580002D01*
X140287944Y-68580001D01*
X140374517Y-68410093D01*
X140422490Y-68359300D01*
X140490311Y-68342505D01*
X140556446Y-68365042D01*
X140595482Y-68410093D01*
X140678804Y-68573619D01*
X140682058Y-68580005D01*
X140798115Y-68739746D01*
X140937753Y-68879384D01*
X141069681Y-68975233D01*
X141097499Y-68995444D01*
X141273439Y-69085091D01*
X141398637Y-69125770D01*
X141461236Y-69146110D01*
X141656264Y-69177000D01*
X141656269Y-69177000D01*
X141853736Y-69177000D01*
X142048763Y-69146110D01*
X142051108Y-69145348D01*
X142236561Y-69085091D01*
X142412501Y-68995444D01*
X142522286Y-68915681D01*
X142572246Y-68879384D01*
X142572248Y-68879381D01*
X142572252Y-68879379D01*
X142711879Y-68739752D01*
X142711881Y-68739748D01*
X142711884Y-68739746D01*
X142827941Y-68580005D01*
X142827943Y-68580002D01*
X142827944Y-68580001D01*
X142914517Y-68410093D01*
X142962490Y-68359300D01*
X143030311Y-68342505D01*
X143096446Y-68365042D01*
X143135482Y-68410093D01*
X143218804Y-68573619D01*
X143222058Y-68580005D01*
X143338115Y-68739746D01*
X143477753Y-68879384D01*
X143609681Y-68975233D01*
X143637499Y-68995444D01*
X143813439Y-69085091D01*
X143938637Y-69125770D01*
X144001236Y-69146110D01*
X144196264Y-69177000D01*
X144196269Y-69177000D01*
X144393736Y-69177000D01*
X144588763Y-69146110D01*
X144591108Y-69145348D01*
X144776561Y-69085091D01*
X144952501Y-68995444D01*
X145062286Y-68915681D01*
X145112246Y-68879384D01*
X145112248Y-68879381D01*
X145112252Y-68879379D01*
X145251879Y-68739752D01*
X145251881Y-68739748D01*
X145251884Y-68739746D01*
X145367941Y-68580005D01*
X145367943Y-68580002D01*
X145367944Y-68580001D01*
X145454517Y-68410093D01*
X145502490Y-68359300D01*
X145570311Y-68342505D01*
X145636446Y-68365042D01*
X145675482Y-68410093D01*
X145758804Y-68573619D01*
X145762058Y-68580005D01*
X145878115Y-68739746D01*
X146017753Y-68879384D01*
X146149681Y-68975233D01*
X146177499Y-68995444D01*
X146353439Y-69085091D01*
X146478637Y-69125770D01*
X146541236Y-69146110D01*
X146736264Y-69177000D01*
X146736269Y-69177000D01*
X146933736Y-69177000D01*
X147128763Y-69146110D01*
X147131108Y-69145348D01*
X147316561Y-69085091D01*
X147492501Y-68995444D01*
X147602286Y-68915681D01*
X147652246Y-68879384D01*
X147652248Y-68879381D01*
X147652252Y-68879379D01*
X147791879Y-68739752D01*
X147791881Y-68739748D01*
X147791884Y-68739746D01*
X147907941Y-68580005D01*
X147907943Y-68580002D01*
X147907944Y-68580001D01*
X147994517Y-68410093D01*
X148042490Y-68359300D01*
X148110311Y-68342505D01*
X148176446Y-68365042D01*
X148215482Y-68410093D01*
X148298804Y-68573619D01*
X148302058Y-68580005D01*
X148418115Y-68739746D01*
X148557753Y-68879384D01*
X148689681Y-68975233D01*
X148717499Y-68995444D01*
X148893439Y-69085091D01*
X149018637Y-69125770D01*
X149081236Y-69146110D01*
X149276264Y-69177000D01*
X149276269Y-69177000D01*
X149473736Y-69177000D01*
X149668763Y-69146110D01*
X149671108Y-69145348D01*
X149856561Y-69085091D01*
X150032501Y-68995444D01*
X150142286Y-68915681D01*
X150192246Y-68879384D01*
X150192248Y-68879381D01*
X150192252Y-68879379D01*
X150331879Y-68739752D01*
X150331881Y-68739748D01*
X150331884Y-68739746D01*
X150447941Y-68580005D01*
X150447943Y-68580002D01*
X150447944Y-68580001D01*
X150534517Y-68410093D01*
X150582490Y-68359300D01*
X150650311Y-68342505D01*
X150716446Y-68365042D01*
X150755482Y-68410093D01*
X150838804Y-68573619D01*
X150842058Y-68580005D01*
X150958115Y-68739746D01*
X151097753Y-68879384D01*
X151229681Y-68975233D01*
X151257499Y-68995444D01*
X151433439Y-69085091D01*
X151558637Y-69125770D01*
X151621236Y-69146110D01*
X151816264Y-69177000D01*
X151816269Y-69177000D01*
X152013736Y-69177000D01*
X152208763Y-69146110D01*
X152211108Y-69145348D01*
X152396561Y-69085091D01*
X152572501Y-68995444D01*
X152682286Y-68915681D01*
X152732246Y-68879384D01*
X152732248Y-68879381D01*
X152732252Y-68879379D01*
X152871879Y-68739752D01*
X152871881Y-68739748D01*
X152871884Y-68739746D01*
X152987941Y-68580005D01*
X152987943Y-68580002D01*
X152987944Y-68580001D01*
X153074517Y-68410093D01*
X153083159Y-68400942D01*
X153087895Y-68389276D01*
X153106696Y-68376021D01*
X153122490Y-68359300D01*
X153134710Y-68356273D01*
X153145002Y-68349019D01*
X153167984Y-68348033D01*
X153190311Y-68342505D01*
X153202228Y-68346566D01*
G37*
%TD.AperFunction*%
%TA.AperFunction,Conductor*%
G36*
X118429075Y-68115493D02*
G01*
X118494901Y-68229507D01*
X118587993Y-68322599D01*
X118702007Y-68388425D01*
X118765590Y-68405462D01*
X118255372Y-68915681D01*
X118194049Y-68949166D01*
X118167691Y-68952000D01*
X117398993Y-68952000D01*
X117331954Y-68932315D01*
X117286199Y-68879511D01*
X117276255Y-68810353D01*
X117305280Y-68746797D01*
X117311312Y-68740319D01*
X117311879Y-68739752D01*
X117311881Y-68739748D01*
X117311884Y-68739746D01*
X117402161Y-68615488D01*
X117427944Y-68580001D01*
X117514797Y-68409543D01*
X117562768Y-68358750D01*
X117630589Y-68341955D01*
X117696724Y-68364492D01*
X117735763Y-68409545D01*
X117822481Y-68579736D01*
X117848457Y-68615488D01*
X117848457Y-68615489D01*
X118412037Y-68051909D01*
X118429075Y-68115493D01*
G37*
%TD.AperFunction*%
%TA.AperFunction,Conductor*%
G36*
X119941541Y-68615488D02*
G01*
X119941543Y-68615488D01*
X119967516Y-68579741D01*
X120054235Y-68409546D01*
X120102210Y-68358750D01*
X120170031Y-68341955D01*
X120236165Y-68364492D01*
X120275202Y-68409542D01*
X120359423Y-68574834D01*
X120362058Y-68580005D01*
X120478115Y-68739746D01*
X120478688Y-68740319D01*
X120478834Y-68740587D01*
X120481278Y-68743448D01*
X120480676Y-68743961D01*
X120512173Y-68801642D01*
X120507189Y-68871334D01*
X120465317Y-68927267D01*
X120399853Y-68951684D01*
X120391007Y-68952000D01*
X119622309Y-68952000D01*
X119555270Y-68932315D01*
X119534628Y-68915681D01*
X119024409Y-68405462D01*
X119087993Y-68388425D01*
X119202007Y-68322599D01*
X119295099Y-68229507D01*
X119360925Y-68115493D01*
X119377962Y-68051909D01*
X119941541Y-68615488D01*
G37*
%TD.AperFunction*%
%TA.AperFunction,Conductor*%
G36*
X117696446Y-65825042D02*
G01*
X117735482Y-65870093D01*
X117804904Y-66006338D01*
X117822058Y-66040005D01*
X117938115Y-66199746D01*
X118077753Y-66339384D01*
X118237494Y-66455441D01*
X118237496Y-66455442D01*
X118237499Y-66455444D01*
X118407956Y-66542297D01*
X118458749Y-66590268D01*
X118475544Y-66658089D01*
X118453007Y-66724224D01*
X118407954Y-66763263D01*
X118237767Y-66849979D01*
X118237760Y-66849983D01*
X118202010Y-66875956D01*
X118202010Y-66875957D01*
X118765591Y-67439537D01*
X118702007Y-67456575D01*
X118587993Y-67522401D01*
X118494901Y-67615493D01*
X118429075Y-67729507D01*
X118412037Y-67793090D01*
X117848457Y-67229510D01*
X117848456Y-67229510D01*
X117822483Y-67265260D01*
X117822479Y-67265267D01*
X117735763Y-67435454D01*
X117687788Y-67486249D01*
X117619967Y-67503044D01*
X117553833Y-67480506D01*
X117514798Y-67435457D01*
X117427944Y-67264999D01*
X117427942Y-67264996D01*
X117427941Y-67264994D01*
X117311884Y-67105253D01*
X117172246Y-66965615D01*
X117012505Y-66849558D01*
X117006119Y-66846304D01*
X116842593Y-66762982D01*
X116791800Y-66715010D01*
X116775005Y-66647189D01*
X116797542Y-66581054D01*
X116842593Y-66542017D01*
X117012501Y-66455444D01*
X117048842Y-66429041D01*
X117172246Y-66339384D01*
X117172248Y-66339381D01*
X117172252Y-66339379D01*
X117311879Y-66199752D01*
X117311881Y-66199748D01*
X117311884Y-66199746D01*
X117427941Y-66040005D01*
X117427943Y-66040002D01*
X117427944Y-66040001D01*
X117514517Y-65870093D01*
X117562490Y-65819300D01*
X117630311Y-65802505D01*
X117696446Y-65825042D01*
G37*
%TD.AperFunction*%
%TA.AperFunction,Conductor*%
G36*
X120182228Y-65806566D02*
G01*
X120194807Y-65806027D01*
X120214670Y-65817621D01*
X120236446Y-65825042D01*
X120245720Y-65835745D01*
X120255149Y-65841249D01*
X120275481Y-65870091D01*
X120344904Y-66006338D01*
X120362058Y-66040005D01*
X120478115Y-66199746D01*
X120617753Y-66339384D01*
X120767234Y-66447986D01*
X120777499Y-66455444D01*
X120947404Y-66542016D01*
X120998199Y-66589990D01*
X121014994Y-66657811D01*
X120992456Y-66723946D01*
X120947404Y-66762983D01*
X120863005Y-66805988D01*
X120777495Y-66849558D01*
X120617753Y-66965615D01*
X120478115Y-67105253D01*
X120362058Y-67264995D01*
X120362056Y-67264999D01*
X120275203Y-67435454D01*
X120227230Y-67486249D01*
X120159409Y-67503044D01*
X120093274Y-67480506D01*
X120054235Y-67435453D01*
X119967520Y-67265268D01*
X119967512Y-67265255D01*
X119941542Y-67229510D01*
X119941541Y-67229509D01*
X119377962Y-67793089D01*
X119360925Y-67729507D01*
X119295099Y-67615493D01*
X119202007Y-67522401D01*
X119087993Y-67456575D01*
X119024409Y-67439537D01*
X119587989Y-66875957D01*
X119552236Y-66849981D01*
X119382045Y-66763263D01*
X119331250Y-66715289D01*
X119314455Y-66647468D01*
X119336993Y-66581333D01*
X119382042Y-66542298D01*
X119552501Y-66455444D01*
X119600283Y-66420728D01*
X119712246Y-66339384D01*
X119712248Y-66339381D01*
X119712252Y-66339379D01*
X119851879Y-66199752D01*
X119851881Y-66199748D01*
X119851884Y-66199746D01*
X119967941Y-66040005D01*
X119967943Y-66040002D01*
X119967944Y-66040001D01*
X120054517Y-65870093D01*
X120063159Y-65860942D01*
X120067895Y-65849276D01*
X120086696Y-65836021D01*
X120102490Y-65819300D01*
X120114710Y-65816273D01*
X120125002Y-65809019D01*
X120147984Y-65808033D01*
X120170311Y-65802505D01*
X120182228Y-65806566D01*
G37*
%TD.AperFunction*%
%TA.AperFunction,Conductor*%
G36*
X123509075Y-65575493D02*
G01*
X123574901Y-65689507D01*
X123667993Y-65782599D01*
X123782007Y-65848425D01*
X123845590Y-65865462D01*
X123282009Y-66429041D01*
X123282010Y-66429042D01*
X123317755Y-66455012D01*
X123317768Y-66455020D01*
X123487953Y-66541735D01*
X123538749Y-66589710D01*
X123555544Y-66657531D01*
X123533006Y-66723666D01*
X123487954Y-66762703D01*
X123398403Y-66808333D01*
X123317495Y-66849558D01*
X123157753Y-66965615D01*
X123018115Y-67105253D01*
X122902058Y-67264995D01*
X122902056Y-67264999D01*
X122821805Y-67422500D01*
X122815485Y-67434903D01*
X122767510Y-67485699D01*
X122699689Y-67502494D01*
X122633554Y-67479956D01*
X122594515Y-67434903D01*
X122507944Y-67264999D01*
X122482159Y-67229509D01*
X122391884Y-67105253D01*
X122252246Y-66965615D01*
X122092505Y-66849558D01*
X122086119Y-66846304D01*
X121922593Y-66762982D01*
X121871800Y-66715010D01*
X121855005Y-66647189D01*
X121877542Y-66581054D01*
X121922593Y-66542017D01*
X122092501Y-66455444D01*
X122128842Y-66429041D01*
X122252246Y-66339384D01*
X122252248Y-66339381D01*
X122252252Y-66339379D01*
X122391879Y-66199752D01*
X122391881Y-66199748D01*
X122391884Y-66199746D01*
X122507943Y-66040002D01*
X122508079Y-66039736D01*
X122594797Y-65869543D01*
X122642768Y-65818750D01*
X122710589Y-65801955D01*
X122776724Y-65824492D01*
X122815763Y-65869545D01*
X122902481Y-66039736D01*
X122928457Y-66075488D01*
X122928457Y-66075489D01*
X123492037Y-65511909D01*
X123509075Y-65575493D01*
G37*
%TD.AperFunction*%
%TA.AperFunction,Conductor*%
G36*
X125021541Y-66075488D02*
G01*
X125021543Y-66075488D01*
X125047516Y-66039741D01*
X125134235Y-65869546D01*
X125182210Y-65818750D01*
X125250031Y-65801955D01*
X125316165Y-65824492D01*
X125355202Y-65869542D01*
X125424904Y-66006338D01*
X125442058Y-66040005D01*
X125558115Y-66199746D01*
X125697753Y-66339384D01*
X125847234Y-66447986D01*
X125857499Y-66455444D01*
X126027404Y-66542016D01*
X126078199Y-66589990D01*
X126094994Y-66657811D01*
X126072456Y-66723946D01*
X126027404Y-66762983D01*
X125943005Y-66805988D01*
X125857495Y-66849558D01*
X125697753Y-66965615D01*
X125558115Y-67105253D01*
X125442058Y-67264995D01*
X125442056Y-67264999D01*
X125361805Y-67422500D01*
X125355485Y-67434903D01*
X125307510Y-67485699D01*
X125239689Y-67502494D01*
X125173554Y-67479956D01*
X125134515Y-67434903D01*
X125047944Y-67264999D01*
X125022159Y-67229509D01*
X124931884Y-67105253D01*
X124792246Y-66965615D01*
X124632505Y-66849558D01*
X124627334Y-66846923D01*
X124462043Y-66762702D01*
X124411250Y-66714730D01*
X124394455Y-66646909D01*
X124416992Y-66580775D01*
X124462046Y-66541735D01*
X124632241Y-66455016D01*
X124667988Y-66429043D01*
X124667988Y-66429041D01*
X124104410Y-65865462D01*
X124167993Y-65848425D01*
X124282007Y-65782599D01*
X124375099Y-65689507D01*
X124440925Y-65575493D01*
X124457962Y-65511909D01*
X125021541Y-66075488D01*
G37*
%TD.AperFunction*%
%TA.AperFunction,Conductor*%
G36*
X141643941Y-59351685D02*
G01*
X141689696Y-59404489D01*
X141699640Y-59473647D01*
X141670615Y-59537203D01*
X141664583Y-59543681D01*
X137082870Y-64125392D01*
X137021547Y-64158877D01*
X136973778Y-64158365D01*
X136973575Y-64159652D01*
X136773736Y-64128000D01*
X136773731Y-64128000D01*
X136576269Y-64128000D01*
X136576264Y-64128000D01*
X136381236Y-64158889D01*
X136193441Y-64219908D01*
X136017495Y-64309558D01*
X135857753Y-64425615D01*
X135718115Y-64565253D01*
X135602058Y-64724995D01*
X135602056Y-64724999D01*
X135521805Y-64882500D01*
X135515485Y-64894903D01*
X135467510Y-64945699D01*
X135399689Y-64962494D01*
X135333554Y-64939956D01*
X135294515Y-64894903D01*
X135207944Y-64724999D01*
X135182159Y-64689509D01*
X135091884Y-64565253D01*
X134952246Y-64425615D01*
X134792504Y-64309558D01*
X134792503Y-64309557D01*
X134792501Y-64309556D01*
X134616561Y-64219909D01*
X134616558Y-64219908D01*
X134428763Y-64158889D01*
X134233736Y-64128000D01*
X134233731Y-64128000D01*
X134036269Y-64128000D01*
X134036264Y-64128000D01*
X133841236Y-64158889D01*
X133653441Y-64219908D01*
X133477495Y-64309558D01*
X133317753Y-64425615D01*
X133317749Y-64425619D01*
X133236229Y-64507138D01*
X133174906Y-64540623D01*
X133105214Y-64535637D01*
X133060868Y-64507137D01*
X132519586Y-63965855D01*
X132519584Y-63965852D01*
X132400713Y-63846981D01*
X132400712Y-63846980D01*
X132313900Y-63796860D01*
X132313900Y-63796859D01*
X132313896Y-63796858D01*
X132263781Y-63767923D01*
X132111053Y-63726999D01*
X131952939Y-63726999D01*
X131945343Y-63726999D01*
X131945327Y-63727000D01*
X130189057Y-63727000D01*
X130030942Y-63727000D01*
X129878215Y-63767923D01*
X129878214Y-63767923D01*
X129878212Y-63767924D01*
X129878209Y-63767925D01*
X129828096Y-63796859D01*
X129828095Y-63796860D01*
X129794282Y-63816382D01*
X129741285Y-63846979D01*
X129741282Y-63846981D01*
X129629480Y-63958783D01*
X129629480Y-63958784D01*
X129629478Y-63958786D01*
X129544983Y-64043281D01*
X129462871Y-64125393D01*
X129401548Y-64158877D01*
X129353778Y-64158368D01*
X129353575Y-64159652D01*
X129153736Y-64128000D01*
X129153731Y-64128000D01*
X128956269Y-64128000D01*
X128956264Y-64128000D01*
X128761236Y-64158889D01*
X128573441Y-64219908D01*
X128397495Y-64309558D01*
X128237753Y-64425615D01*
X128098115Y-64565253D01*
X127982058Y-64724995D01*
X127982056Y-64724999D01*
X127901805Y-64882500D01*
X127895485Y-64894903D01*
X127847510Y-64945699D01*
X127779689Y-64962494D01*
X127713554Y-64939956D01*
X127674515Y-64894903D01*
X127587944Y-64724999D01*
X127562159Y-64689509D01*
X127471884Y-64565253D01*
X127332246Y-64425615D01*
X127172504Y-64309558D01*
X127172503Y-64309557D01*
X127172501Y-64309556D01*
X126996561Y-64219909D01*
X126996558Y-64219908D01*
X126808763Y-64158889D01*
X126613736Y-64128000D01*
X126613731Y-64128000D01*
X126416269Y-64128000D01*
X126416264Y-64128000D01*
X126221236Y-64158889D01*
X126033441Y-64219908D01*
X125857495Y-64309558D01*
X125697753Y-64425615D01*
X125558115Y-64565253D01*
X125442058Y-64724995D01*
X125442056Y-64724999D01*
X125355203Y-64895454D01*
X125307230Y-64946249D01*
X125239409Y-64963044D01*
X125173274Y-64940506D01*
X125134235Y-64895453D01*
X125047520Y-64725268D01*
X125047512Y-64725255D01*
X125021542Y-64689510D01*
X125021541Y-64689509D01*
X124457962Y-65253089D01*
X124440925Y-65189507D01*
X124375099Y-65075493D01*
X124282007Y-64982401D01*
X124167993Y-64916575D01*
X124104409Y-64899537D01*
X124667989Y-64335957D01*
X124632239Y-64309983D01*
X124456373Y-64220373D01*
X124268646Y-64159376D01*
X124073697Y-64128500D01*
X123876303Y-64128500D01*
X123681353Y-64159376D01*
X123493626Y-64220373D01*
X123317762Y-64309982D01*
X123317760Y-64309983D01*
X123282010Y-64335956D01*
X123282010Y-64335957D01*
X123845591Y-64899537D01*
X123782007Y-64916575D01*
X123667993Y-64982401D01*
X123574901Y-65075493D01*
X123509075Y-65189507D01*
X123492037Y-65253090D01*
X122928457Y-64689510D01*
X122928456Y-64689510D01*
X122902483Y-64725260D01*
X122902479Y-64725267D01*
X122815763Y-64895454D01*
X122767788Y-64946249D01*
X122699967Y-64963044D01*
X122633833Y-64940506D01*
X122594798Y-64895457D01*
X122507944Y-64724999D01*
X122507942Y-64724996D01*
X122507941Y-64724994D01*
X122391884Y-64565253D01*
X122252246Y-64425615D01*
X122092504Y-64309558D01*
X122092503Y-64309557D01*
X122092501Y-64309556D01*
X121916561Y-64219909D01*
X121916558Y-64219908D01*
X121728763Y-64158889D01*
X121533736Y-64128000D01*
X121533731Y-64128000D01*
X121336269Y-64128000D01*
X121336264Y-64128000D01*
X121141236Y-64158889D01*
X120953441Y-64219908D01*
X120777495Y-64309558D01*
X120617753Y-64425615D01*
X120478115Y-64565253D01*
X120362058Y-64724995D01*
X120362056Y-64724999D01*
X120281805Y-64882500D01*
X120275485Y-64894903D01*
X120227510Y-64945699D01*
X120159689Y-64962494D01*
X120093554Y-64939956D01*
X120054515Y-64894903D01*
X119967944Y-64724999D01*
X119942159Y-64689509D01*
X119851884Y-64565253D01*
X119712246Y-64425615D01*
X119552504Y-64309558D01*
X119552503Y-64309557D01*
X119552501Y-64309556D01*
X119376561Y-64219909D01*
X119376558Y-64219908D01*
X119188763Y-64158889D01*
X118993736Y-64128000D01*
X118993731Y-64128000D01*
X118796269Y-64128000D01*
X118796264Y-64128000D01*
X118601236Y-64158889D01*
X118413441Y-64219908D01*
X118237495Y-64309558D01*
X118077753Y-64425615D01*
X117938115Y-64565253D01*
X117822058Y-64724995D01*
X117822056Y-64724999D01*
X117741805Y-64882500D01*
X117735485Y-64894903D01*
X117687510Y-64945699D01*
X117619689Y-64962494D01*
X117553554Y-64939956D01*
X117514515Y-64894903D01*
X117427944Y-64724999D01*
X117402159Y-64689509D01*
X117311884Y-64565253D01*
X117172246Y-64425615D01*
X117012504Y-64309558D01*
X117012503Y-64309557D01*
X117012501Y-64309556D01*
X116836561Y-64219909D01*
X116836558Y-64219908D01*
X116648763Y-64158889D01*
X116453736Y-64128000D01*
X116453731Y-64128000D01*
X116256269Y-64128000D01*
X116256266Y-64128000D01*
X116232144Y-64131820D01*
X116162851Y-64122863D01*
X116109400Y-64077866D01*
X116088762Y-64011114D01*
X116107488Y-63943800D01*
X116125063Y-63921670D01*
X120678416Y-59368319D01*
X120739739Y-59334834D01*
X120766097Y-59332000D01*
X141576902Y-59332000D01*
X141643941Y-59351685D01*
G37*
%TD.AperFunction*%
%TD*%
M02*
