%TF.GenerationSoftware,KiCad,Pcbnew,9.0.3*%
%TF.CreationDate,2026-05-07T17:20:04+05:30*%
%TF.ProjectId,ProcastinationStation,50726f63-6173-4746-996e-6174696f6e53,rev?*%
%TF.SameCoordinates,Original*%
%TF.FileFunction,Copper,L1,Top*%
%TF.FilePolarity,Positive*%
%FSLAX46Y46*%
G04 Gerber Fmt 4.6, Leading zero omitted, Abs format (unit mm)*
G04 Created by KiCad (PCBNEW 9.0.3) date 2026-05-07 17:20:04*
%MOMM*%
%LPD*%
G01*
G04 APERTURE LIST*
%TA.AperFunction,ComponentPad*%
%ADD10C,2.000000*%
%TD*%
%TA.AperFunction,ComponentPad*%
%ADD11R,1.700000X1.700000*%
%TD*%
%TA.AperFunction,ComponentPad*%
%ADD12C,1.700000*%
%TD*%
%TA.AperFunction,ComponentPad*%
%ADD13R,1.508000X1.508000*%
%TD*%
%TA.AperFunction,ComponentPad*%
%ADD14C,1.508000*%
%TD*%
%TA.AperFunction,ViaPad*%
%ADD15C,0.600000*%
%TD*%
%TA.AperFunction,Conductor*%
%ADD16C,0.200000*%
%TD*%
G04 APERTURE END LIST*
D10*
%TO.P,SW3,1,1*%
%TO.N,GPIO26*%
X155907500Y-146100000D03*
X149407500Y-146100000D03*
%TO.P,SW3,2,2*%
%TO.N,GND*%
X155907500Y-141600000D03*
X149407500Y-141600000D03*
%TD*%
%TO.P,SW4,1,1*%
%TO.N,GPIO16*%
X160907500Y-121100000D03*
X154407500Y-121100000D03*
%TO.P,SW4,2,2*%
%TO.N,GND*%
X160907500Y-116600000D03*
X154407500Y-116600000D03*
%TD*%
%TO.P,SW10,1,1*%
%TO.N,GPIO13*%
X135907500Y-146100000D03*
X129407500Y-146100000D03*
%TO.P,SW10,2,2*%
%TO.N,GND*%
X135907500Y-141600000D03*
X129407500Y-141600000D03*
%TD*%
%TO.P,SW2,1,1*%
%TO.N,GPIO5*%
X180907500Y-121100000D03*
X174407500Y-121100000D03*
%TO.P,SW2,2,2*%
%TO.N,GND*%
X180907500Y-116600000D03*
X174407500Y-116600000D03*
%TD*%
%TO.P,SW11,1,1*%
%TO.N,GPIO20*%
X130907500Y-121100000D03*
X124407500Y-121100000D03*
%TO.P,SW11,2,2*%
%TO.N,GND*%
X130907500Y-116600000D03*
X124407500Y-116600000D03*
%TD*%
%TO.P,SW12,1,1*%
%TO.N,GPIO7*%
X120907500Y-111100000D03*
X114407500Y-111100000D03*
%TO.P,SW12,2,2*%
%TO.N,GND*%
X120907500Y-106600000D03*
X114407500Y-106600000D03*
%TD*%
%TO.P,SW14,1,1*%
%TO.N,GPIO19*%
X120907500Y-131100000D03*
X114407500Y-131100000D03*
%TO.P,SW14,2,2*%
%TO.N,GND*%
X120907500Y-126600000D03*
X114407500Y-126600000D03*
%TD*%
%TO.P,SW1,1,1*%
%TO.N,GPIO17*%
X170907500Y-111100000D03*
X164407500Y-111100000D03*
%TO.P,SW1,2,2*%
%TO.N,GND*%
X170907500Y-106600000D03*
X164407500Y-106600000D03*
%TD*%
D11*
%TO.P,J1,1,Pin_1*%
%TO.N,unconnected-(J1-Pin_1-Pad1)*%
X183657500Y-76350000D03*
D12*
%TO.P,J1,2,Pin_2*%
%TO.N,unconnected-(J1-Pin_2-Pad2)*%
X183657500Y-73810000D03*
%TO.P,J1,3,Pin_3*%
%TO.N,unconnected-(J1-Pin_3-Pad3)*%
X183657500Y-71270000D03*
%TO.P,J1,4,Pin_4*%
%TO.N,unconnected-(J1-Pin_4-Pad4)*%
X183657500Y-68730000D03*
%TO.P,J1,5,Pin_5*%
%TO.N,unconnected-(J1-Pin_5-Pad5)*%
X183657500Y-66190000D03*
%TO.P,J1,6,Pin_6*%
%TO.N,unconnected-(J1-Pin_6-Pad6)*%
X183657500Y-63650000D03*
%TO.P,J1,7,Pin_7*%
%TO.N,3v3*%
X183657500Y-61110000D03*
%TO.P,J1,8,Pin_8*%
%TO.N,GPIO11*%
X183657500Y-58570000D03*
%TO.P,J1,9,Pin_9*%
%TO.N,GPIO10*%
X183657500Y-56030000D03*
%TO.P,J1,10,Pin_10*%
%TO.N,GPIO24*%
X183657500Y-53490000D03*
%TO.P,J1,11,Pin_11*%
%TO.N,GPIO25*%
X183657500Y-50950000D03*
%TO.P,J1,12,Pin_12*%
%TO.N,GPIO8*%
X183657500Y-48410000D03*
%TO.P,J1,13,Pin_13*%
%TO.N,GND*%
X183657500Y-45870000D03*
%TO.P,J1,14,Pin_14*%
%TO.N,3v3*%
X183657500Y-43330000D03*
%TD*%
D10*
%TO.P,SW5,1,1*%
%TO.N,GPIO27*%
X170907500Y-131100000D03*
X164407500Y-131100000D03*
%TO.P,SW5,2,2*%
%TO.N,GND*%
X170907500Y-126600000D03*
X164407500Y-126600000D03*
%TD*%
%TO.P,SW13,1,1*%
%TO.N,GPIO23*%
X110907500Y-121100000D03*
X104407500Y-121100000D03*
%TO.P,SW13,2,2*%
%TO.N,GND*%
X110907500Y-116600000D03*
X104407500Y-116600000D03*
%TD*%
%TO.P,SW7,1,1*%
%TO.N,GPIO21*%
X154407500Y-94100000D03*
X160907500Y-94100000D03*
%TO.P,SW7,2,2*%
%TO.N,GND*%
X154407500Y-89600000D03*
X160907500Y-89600000D03*
%TD*%
%TO.P,SW8,1,1*%
%TO.N,GPIO12*%
X107407500Y-94100000D03*
X113907500Y-94100000D03*
%TO.P,SW8,2,2*%
%TO.N,GND*%
X107407500Y-89600000D03*
X113907500Y-89600000D03*
%TD*%
%TO.P,SW9,1,1*%
%TO.N,GPIO22*%
X124407500Y-94100000D03*
X130907500Y-94100000D03*
%TO.P,SW9,2,2*%
%TO.N,GND*%
X124407500Y-89600000D03*
X130907500Y-89600000D03*
%TD*%
D13*
%TO.P,U1,1,3V3_1*%
%TO.N,3v3*%
X118070000Y-61530000D03*
D14*
%TO.P,U1,2,5V_2*%
%TO.N,unconnected-(U1-5V_2-Pad2)*%
X118070000Y-64070000D03*
%TO.P,U1,3,GPIO2/SDA1*%
%TO.N,unconnected-(U1-GPIO2{slash}SDA1-Pad3)*%
X120610000Y-61530000D03*
%TO.P,U1,4,5V_4*%
%TO.N,unconnected-(U1-5V_4-Pad4)*%
X120610000Y-64070000D03*
%TO.P,U1,5,GPIO3/SCL*%
%TO.N,unconnected-(U1-GPIO3{slash}SCL-Pad5)*%
X123150000Y-61530000D03*
%TO.P,U1,6,GND_6*%
%TO.N,GND*%
X123150000Y-64070000D03*
%TO.P,U1,7,GPIO4/GPIO_GCLK*%
%TO.N,unconnected-(U1-GPIO4{slash}GPIO_GCLK-Pad7)*%
X125690000Y-61530000D03*
%TO.P,U1,8,GPIO14/TXD0*%
%TO.N,unconnected-(U1-GPIO14{slash}TXD0-Pad8)*%
X125690000Y-64070000D03*
%TO.P,U1,9,GND_9*%
%TO.N,GND*%
X128230000Y-61530000D03*
%TO.P,U1,10,GPIO15/RXD0*%
%TO.N,unconnected-(U1-GPIO15{slash}RXD0-Pad10)*%
X128230000Y-64070000D03*
%TO.P,U1,11,GPIO17/GPIO_GEN0*%
%TO.N,GPIO17*%
X130770000Y-61530000D03*
%TO.P,U1,12,GPIO18/GPIO_GEN1*%
%TO.N,unconnected-(U1-GPIO18{slash}GPIO_GEN1-Pad12)*%
X130770000Y-64070000D03*
%TO.P,U1,13,GPIO27/GPIO_GEN2*%
%TO.N,GPIO27*%
X133310000Y-61530000D03*
%TO.P,U1,14,GND_14*%
%TO.N,unconnected-(U1-GND_14-Pad14)*%
X133310000Y-64070000D03*
%TO.P,U1,15,GPIO22/GPIO_GEN3*%
%TO.N,GPIO22*%
X135850000Y-61530000D03*
%TO.P,U1,16,GPIO23/GPIO_GEN4*%
%TO.N,GPIO23*%
X135850000Y-64070000D03*
%TO.P,U1,17,3V3_17*%
%TO.N,unconnected-(U1-3V3_17-Pad17)*%
X138390000Y-61530000D03*
%TO.P,U1,18,GPIO24/GPIO_GEN5*%
%TO.N,GPIO24*%
X138390000Y-64070000D03*
%TO.P,U1,19,GPIO10/SPI_MOSI*%
%TO.N,GPIO10*%
X140930000Y-61530000D03*
%TO.P,U1,20,GND_20*%
%TO.N,unconnected-(U1-GND_20-Pad20)*%
X140930000Y-64070000D03*
%TO.P,U1,21,GPIO9/SPI_MISO*%
%TO.N,unconnected-(U1-GPIO9{slash}SPI_MISO-Pad21)*%
X143470000Y-61530000D03*
%TO.P,U1,22,GPIO25/GPIO_GEN6*%
%TO.N,GPIO25*%
X143470000Y-64070000D03*
%TO.P,U1,23,GPIO11/SPI_SCLK*%
%TO.N,GPIO11*%
X146010000Y-61530000D03*
%TO.P,U1,24,GPIO8/SPI_~{CE0}*%
%TO.N,GPIO8*%
X146010000Y-64070000D03*
%TO.P,U1,25,GND_25*%
%TO.N,unconnected-(U1-GND_25-Pad25)*%
X148550000Y-61530000D03*
%TO.P,U1,26,GPIO7/SPI_~{CE1}*%
%TO.N,GPIO7*%
X148550000Y-64070000D03*
%TO.P,U1,27,ID_SD*%
%TO.N,unconnected-(U1-ID_SD-Pad27)*%
X151090000Y-61530000D03*
%TO.P,U1,28,ID_SC*%
%TO.N,unconnected-(U1-ID_SC-Pad28)*%
X151090000Y-64070000D03*
%TO.P,U1,29,GPIO5*%
%TO.N,GPIO5*%
X153630000Y-61530000D03*
%TO.P,U1,30,GND_30*%
%TO.N,unconnected-(U1-GND_30-Pad30)*%
X153630000Y-64070000D03*
%TO.P,U1,31,GPIO6*%
%TO.N,GPI06*%
X156170000Y-61530000D03*
%TO.P,U1,32,GPIO12*%
%TO.N,GPIO12*%
X156170000Y-64070000D03*
%TO.P,U1,33,GPIO13*%
%TO.N,GPIO13*%
X158710000Y-61530000D03*
%TO.P,U1,34,GND_34*%
%TO.N,unconnected-(U1-GND_34-Pad34)*%
X158710000Y-64070000D03*
%TO.P,U1,35,GPIO19*%
%TO.N,GPIO19*%
X161250000Y-61530000D03*
%TO.P,U1,36,GPIO16*%
%TO.N,GPIO16*%
X161250000Y-64070000D03*
%TO.P,U1,37,GPIO26*%
%TO.N,GPIO26*%
X163790000Y-61530000D03*
%TO.P,U1,38,GPIO20*%
%TO.N,GPIO20*%
X163790000Y-64070000D03*
%TO.P,U1,39,GND_39*%
%TO.N,unconnected-(U1-GND_39-Pad39)*%
X166330000Y-61530000D03*
%TO.P,U1,40,GPIO21*%
%TO.N,GPIO21*%
X166330000Y-64070000D03*
%TD*%
D10*
%TO.P,SW6,1,1*%
%TO.N,GPI06*%
X171407500Y-94100000D03*
X177907500Y-94100000D03*
%TO.P,SW6,2,2*%
%TO.N,GND*%
X171407500Y-89600000D03*
X177907500Y-89600000D03*
%TD*%
D15*
%TO.N,GPIO24*%
X133600000Y-65700000D03*
%TO.N,GPIO10*%
X178600000Y-61100000D03*
%TO.N,GPIO8*%
X175882740Y-59399000D03*
%TO.N,GPIO12*%
X133765000Y-74100000D03*
%TO.N,GPIO20*%
X147000000Y-92200000D03*
X139200000Y-102900000D03*
%TO.N,GPIO7*%
X136300000Y-72500000D03*
%TO.N,GPIO19*%
X151929485Y-99470515D03*
%TD*%
D16*
%TO.N,GPIO24*%
X136760000Y-65700000D02*
X138390000Y-64070000D01*
X133600000Y-65700000D02*
X136760000Y-65700000D01*
%TO.N,GPIO25*%
X175807500Y-58800000D02*
X147225000Y-58800000D01*
X147225000Y-58800000D02*
X144525000Y-61500000D01*
X183657500Y-50950000D02*
X175807500Y-58800000D01*
X144525000Y-61500000D02*
X144525000Y-63015000D01*
X144525000Y-63015000D02*
X143470000Y-64070000D01*
%TO.N,GND*%
X130500000Y-57700000D02*
X128230000Y-59970000D01*
X128230000Y-59970000D02*
X128230000Y-61530000D01*
X171827500Y-57700000D02*
X130500000Y-57700000D01*
X183657500Y-45870000D02*
X171827500Y-57700000D01*
%TO.N,3v3*%
X120000000Y-57300000D02*
X118070000Y-59230000D01*
X183657500Y-43330000D02*
X169687500Y-57300000D01*
X169687500Y-57300000D02*
X120000000Y-57300000D01*
X118070000Y-59230000D02*
X118070000Y-61530000D01*
%TO.N,GPIO10*%
X179687500Y-60000000D02*
X183657500Y-56030000D01*
X179687500Y-60012500D02*
X179687500Y-60000000D01*
X178600000Y-61100000D02*
X179687500Y-60012500D01*
%TO.N,GPIO8*%
X183657500Y-48410000D02*
X184808500Y-49561000D01*
X184808500Y-51426760D02*
X184134260Y-52101000D01*
X149166000Y-59399000D02*
X147065000Y-61500000D01*
X184134260Y-52101000D02*
X183180740Y-52101000D01*
X147065000Y-61500000D02*
X147065000Y-63015000D01*
X184808500Y-49561000D02*
X184808500Y-51426760D01*
X175882740Y-59399000D02*
X149166000Y-59399000D01*
X147065000Y-63015000D02*
X146010000Y-64070000D01*
X183180740Y-52101000D02*
X175882740Y-59399000D01*
%TO.N,GPIO17*%
X164407500Y-111100000D02*
X132255000Y-78947500D01*
X132255000Y-63015000D02*
X130770000Y-61530000D01*
X132255000Y-78947500D02*
X132255000Y-63015000D01*
%TO.N,GPIO5*%
X155305998Y-59854002D02*
X166145998Y-59854002D01*
X167385000Y-61093004D02*
X166145998Y-59854002D01*
X153630000Y-61530000D02*
X155305998Y-59854002D01*
X174407500Y-121100000D02*
X167385000Y-114077500D01*
X166145998Y-59854002D02*
X166091996Y-59800000D01*
X167385000Y-114077500D02*
X167385000Y-61093004D01*
%TO.N,GPIO21*%
X166330000Y-88677500D02*
X166330000Y-64070000D01*
X160907500Y-94100000D02*
X166330000Y-88677500D01*
%TO.N,GPIO12*%
X133765000Y-74100000D02*
X146140000Y-74100000D01*
X146140000Y-74100000D02*
X156170000Y-64070000D01*
%TO.N,GPIO20*%
X163790000Y-75410000D02*
X147000000Y-92200000D01*
X139200000Y-112807500D02*
X130907500Y-121100000D01*
X163790000Y-64070000D02*
X163790000Y-75410000D01*
X139200000Y-102900000D02*
X139200000Y-112807500D01*
%TO.N,GPIO7*%
X140720000Y-71900000D02*
X148550000Y-64070000D01*
X136900000Y-71900000D02*
X140720000Y-71900000D01*
X136300000Y-72500000D02*
X136900000Y-71900000D01*
%TO.N,GPIO19*%
X120907500Y-131100000D02*
X122747392Y-131100000D01*
X122747392Y-131100000D02*
X151929485Y-101917907D01*
X151929485Y-101917907D02*
X151929485Y-99470515D01*
%TD*%
M02*
