M48
; DRILL file {KiCad 9.0.3} date 2026-05-07T17:20:28+0530
; FORMAT={-:-/ absolute / metric / decimal}
; #@! TF.CreationDate,2026-05-07T17:20:28+05:30
; #@! TF.GenerationSoftware,Kicad,Pcbnew,9.0.3
; #@! TF.FileFunction,Plated,1,2,PTH
FMAT,2
METRIC
; #@! TA.AperFunction,Plated,PTH,ViaDrill
T1C0.300
; #@! TA.AperFunction,Plated,PTH,ComponentDrill
T2C1.000
; #@! TA.AperFunction,Plated,PTH,ComponentDrill
T3C1.100
%
G90
G05
T1
X133.6Y-65.7
X133.765Y-74.1
X136.3Y-72.5
X139.2Y-102.9
X147.0Y-92.2
X151.929Y-99.471
X175.883Y-59.399
X178.6Y-61.1
T2
X118.07Y-61.53
X118.07Y-64.07
X120.61Y-61.53
X120.61Y-64.07
X123.15Y-61.53
X123.15Y-64.07
X125.69Y-61.53
X125.69Y-64.07
X128.23Y-61.53
X128.23Y-64.07
X130.77Y-61.53
X130.77Y-64.07
X133.31Y-61.53
X133.31Y-64.07
X135.85Y-61.53
X135.85Y-64.07
X138.39Y-61.53
X138.39Y-64.07
X140.93Y-61.53
X140.93Y-64.07
X143.47Y-61.53
X143.47Y-64.07
X146.01Y-61.53
X146.01Y-64.07
X148.55Y-61.53
X148.55Y-64.07
X151.09Y-61.53
X151.09Y-64.07
X153.63Y-61.53
X153.63Y-64.07
X156.17Y-61.53
X156.17Y-64.07
X158.71Y-61.53
X158.71Y-64.07
X161.25Y-61.53
X161.25Y-64.07
X163.79Y-61.53
X163.79Y-64.07
X166.33Y-61.53
X166.33Y-64.07
X183.657Y-43.33
X183.657Y-45.87
X183.657Y-48.41
X183.657Y-50.95
X183.657Y-53.49
X183.657Y-56.03
X183.657Y-58.57
X183.657Y-61.11
X183.657Y-63.65
X183.657Y-66.19
X183.657Y-68.73
X183.657Y-71.27
X183.657Y-73.81
X183.657Y-76.35
T3
X104.407Y-116.6
X104.407Y-121.1
X107.407Y-89.6
X107.407Y-94.1
X110.907Y-116.6
X110.907Y-121.1
X113.907Y-89.6
X113.907Y-94.1
X114.407Y-106.6
X114.407Y-111.1
X114.407Y-126.6
X114.407Y-131.1
X120.907Y-106.6
X120.907Y-111.1
X120.907Y-126.6
X120.907Y-131.1
X124.407Y-89.6
X124.407Y-94.1
X124.407Y-116.6
X124.407Y-121.1
X129.407Y-141.6
X129.407Y-146.1
X130.907Y-89.6
X130.907Y-94.1
X130.907Y-116.6
X130.907Y-121.1
X135.907Y-141.6
X135.907Y-146.1
X149.407Y-141.6
X149.407Y-146.1
X154.407Y-89.6
X154.407Y-94.1
X154.407Y-116.6
X154.407Y-121.1
X155.907Y-141.6
X155.907Y-146.1
X160.907Y-89.6
X160.907Y-94.1
X160.907Y-116.6
X160.907Y-121.1
X164.407Y-106.6
X164.407Y-111.1
X164.407Y-126.6
X164.407Y-131.1
X170.907Y-106.6
X170.907Y-111.1
X170.907Y-126.6
X170.907Y-131.1
X171.407Y-89.6
X171.407Y-94.1
X174.407Y-116.6
X174.407Y-121.1
X177.907Y-89.6
X177.907Y-94.1
X180.907Y-116.6
X180.907Y-121.1
M30
